<?xml version="1.0" encoding="UTF-8" standalone="no"?>
<!DOCTYPE svg PUBLIC "-//W3C//DTD SVG 1.1//EN" "http://www.w3.org/Graphics/SVG/1.1/DTD/svg11.dtd">
<svg width="100%" height="100%" viewBox="0 0 3071 3071" version="1.1" xmlns="http://www.w3.org/2000/svg" xmlns:xlink="http://www.w3.org/1999/xlink" xml:space="preserve" xmlns:serif="http://www.serif.com/" style="fill-rule:evenodd;clip-rule:evenodd;stroke-linejoin:round;stroke-miterlimit:2;">
    <g id="Version-3" serif:id="Version 3" transform="matrix(1,0,0,1,-3779.527559,-1653.543307)">
        <g transform="matrix(3.204467,0,-0,4.16666,3779.527559,1651.514146)">
            <rect x="0" y="0.487" width="73.716" height="56.693" style="fill:rgb(37,41,36);fill-rule:nonzero;"/>
        </g>
        <g transform="matrix(3.204467,0,-0,4.16666,4015.748031,1651.514146)">
            <rect x="0" y="0.487" width="73.716" height="56.693" style="fill:rgb(37,41,36);fill-rule:nonzero;"/>
        </g>
        <g transform="matrix(3.204467,0,-0,4.16666,4251.968504,1651.514146)">
            <rect x="0" y="0.487" width="73.716" height="56.693" style="fill:rgb(37,41,36);fill-rule:nonzero;"/>
        </g>
        <g transform="matrix(3.204467,0,-0,4.16666,4488.188976,1651.514146)">
            <rect x="0" y="0.487" width="73.716" height="56.693" style="fill:rgb(37,41,36);fill-rule:nonzero;"/>
        </g>
        <g transform="matrix(3.204467,0,-0,4.16666,4724.409449,1651.514146)">
            <rect x="0" y="0.487" width="73.716" height="56.693" style="fill:rgb(37,41,36);fill-rule:nonzero;"/>
        </g>
        <g transform="matrix(3.204467,0,-0,4.16666,4960.629921,1651.514146)">
            <rect x="0" y="0.487" width="73.716" height="56.693" style="fill:rgb(37,41,36);fill-rule:nonzero;"/>
        </g>
        <g transform="matrix(3.204467,0,-0,4.16666,5196.850394,1651.514146)">
            <rect x="0" y="0.487" width="73.716" height="56.693" style="fill:rgb(37,41,36);fill-rule:nonzero;"/>
        </g>
        <g transform="matrix(3.204467,0,-0,4.16666,5433.070866,1651.514146)">
            <rect x="0" y="0.487" width="73.716" height="56.693" style="fill:rgb(37,41,36);fill-rule:nonzero;"/>
        </g>
        <g transform="matrix(3.204467,0,-0,4.16666,5669.291339,1651.514146)">
            <rect x="0" y="0.487" width="73.716" height="56.693" style="fill:rgb(37,41,36);fill-rule:nonzero;"/>
        </g>
        <g transform="matrix(3.204467,0,-0,4.16666,5905.511811,1651.514146)">
            <rect x="0" y="0.487" width="73.716" height="56.693" style="fill:rgb(37,41,36);fill-rule:nonzero;"/>
        </g>
        <g transform="matrix(3.204467,0,-0,4.16666,6141.732283,1651.514146)">
            <rect x="0" y="0.487" width="73.716" height="56.693" style="fill:rgb(37,41,36);fill-rule:nonzero;"/>
        </g>
        <g transform="matrix(3.204467,0,-0,4.16666,6377.952756,1651.514146)">
            <rect x="0" y="0.487" width="73.716" height="56.693" style="fill:rgb(37,41,36);fill-rule:nonzero;"/>
        </g>
        <g transform="matrix(3.204467,0,-0,4.16666,6614.173228,1651.514146)">
            <rect x="0" y="0.487" width="73.716" height="56.693" style="fill:rgb(37,41,36);fill-rule:nonzero;"/>
        </g>
        <g transform="matrix(3.204467,0,-0,4.16666,3779.527559,2123.95509)">
            <rect x="0" y="0.487" width="73.716" height="56.693" style="fill:rgb(37,41,36);fill-rule:nonzero;"/>
        </g>
        <g transform="matrix(3.204467,0,-0,4.16666,4015.748031,2123.95509)">
            <rect x="0" y="0.487" width="73.716" height="56.693" style="fill:rgb(37,41,36);fill-rule:nonzero;"/>
        </g>
        <g transform="matrix(3.204467,0,-0,4.16666,4251.968504,2123.95509)">
            <rect x="0" y="0.487" width="73.716" height="56.693" style="fill:rgb(37,41,36);fill-rule:nonzero;"/>
        </g>
        <g transform="matrix(3.204467,0,-0,4.16666,3779.527559,1887.734618)">
            <rect x="0" y="0.487" width="73.716" height="56.693" style="fill:rgb(37,41,36);fill-rule:nonzero;"/>
        </g>
        <g transform="matrix(3.204467,0,-0,4.16666,4015.748031,1887.734618)">
            <rect x="0" y="0.487" width="73.716" height="56.693" style="fill:rgb(37,41,36);fill-rule:nonzero;"/>
        </g>
        <g transform="matrix(3.204467,0,-0,4.16666,4251.968504,1887.734618)">
            <rect x="0" y="0.487" width="73.716" height="56.693" style="fill:rgb(37,41,36);fill-rule:nonzero;"/>
        </g>
        <g transform="matrix(3.204467,0,-0,4.16666,4488.188976,1887.734618)">
            <rect x="0" y="0.487" width="73.716" height="56.693" style="fill:rgb(37,41,36);fill-rule:nonzero;"/>
        </g>
        <g transform="matrix(3.204467,0,-0,4.16666,4724.409449,1887.734618)">
            <rect x="0" y="0.487" width="73.716" height="56.693" style="fill:rgb(37,41,36);fill-rule:nonzero;"/>
        </g>
        <g transform="matrix(3.204467,0,-0,4.16666,4960.629921,1887.734618)">
            <rect x="0" y="0.487" width="73.716" height="56.693" style="fill:rgb(37,41,36);fill-rule:nonzero;"/>
        </g>
        <g transform="matrix(3.204467,0,-0,4.16666,5196.850394,1887.734618)">
            <rect x="0" y="0.487" width="73.716" height="56.693" style="fill:rgb(37,41,36);fill-rule:nonzero;"/>
        </g>
        <g transform="matrix(3.204467,0,-0,4.16666,5433.070866,1887.734618)">
            <rect x="0" y="0.487" width="73.716" height="56.693" style="fill:rgb(37,41,36);fill-rule:nonzero;"/>
        </g>
        <g transform="matrix(3.204467,0,-0,4.16666,5669.291339,1887.734618)">
            <rect x="0" y="0.487" width="73.716" height="56.693" style="fill:rgb(37,41,36);fill-rule:nonzero;"/>
        </g>
        <g transform="matrix(3.204467,0,-0,4.16666,5905.511811,1887.734618)">
            <rect x="0" y="0.487" width="73.716" height="56.693" style="fill:rgb(37,41,36);fill-rule:nonzero;"/>
        </g>
        <g transform="matrix(3.204467,0,-0,4.16666,6141.732283,1887.734618)">
            <rect x="0" y="0.487" width="73.716" height="56.693" style="fill:rgb(37,41,36);fill-rule:nonzero;"/>
        </g>
        <g transform="matrix(3.204467,0,-0,4.16666,6377.952756,1887.734618)">
            <rect x="0" y="0.487" width="73.716" height="56.693" style="fill:rgb(37,41,36);fill-rule:nonzero;"/>
        </g>
        <g transform="matrix(3.204467,0,-0,4.16666,6614.173228,1887.734618)">
            <rect x="0" y="0.487" width="73.716" height="56.693" style="fill:rgb(37,41,36);fill-rule:nonzero;"/>
        </g>
        <g transform="matrix(3.204467,0,-0,4.16666,4488.188976,2123.95509)">
            <rect x="0" y="0.487" width="73.716" height="56.693" style="fill:rgb(37,41,36);fill-rule:nonzero;"/>
        </g>
        <g transform="matrix(3.204467,0,-0,4.16666,4724.409449,2123.95509)">
            <rect x="0" y="0.487" width="73.716" height="56.693" style="fill:rgb(37,41,36);fill-rule:nonzero;"/>
        </g>
        <g transform="matrix(3.204467,0,-0,4.16666,4015.748031,3068.83698)">
            <rect x="0" y="0.487" width="73.716" height="56.693" style="fill:rgb(43,66,114);fill-rule:nonzero;"/>
        </g>
        <g transform="matrix(3.204467,0,-0,4.16666,4251.968504,3068.83698)">
            <rect x="0" y="0.487" width="73.716" height="56.693" style="fill:rgb(43,66,114);fill-rule:nonzero;"/>
        </g>
        <g transform="matrix(3.204467,0,-0,4.16666,4488.188976,3068.83698)">
            <rect x="0" y="0.487" width="73.716" height="56.693" style="fill:rgb(43,66,114);fill-rule:nonzero;"/>
        </g>
        <g transform="matrix(3.204467,0,-0,4.16666,4724.409449,3068.83698)">
            <rect x="0" y="0.487" width="73.716" height="56.693" style="fill:rgb(43,66,114);fill-rule:nonzero;"/>
        </g>
        <g transform="matrix(3.204467,0,-0,4.16666,3779.527559,2596.396035)">
            <rect x="0" y="0.487" width="73.716" height="56.693" style="fill:rgb(43,66,114);fill-rule:nonzero;"/>
        </g>
        <g transform="matrix(3.204467,0,-0,4.16666,4015.748031,2596.396035)">
            <rect x="0" y="0.487" width="73.716" height="56.693" style="fill:rgb(43,66,114);fill-rule:nonzero;"/>
        </g>
        <g transform="matrix(3.204467,0,-0,4.16666,4251.968504,2596.396035)">
            <rect x="0" y="0.487" width="73.716" height="56.693" style="fill:rgb(43,66,114);fill-rule:nonzero;"/>
        </g>
        <g transform="matrix(3.204467,0,-0,4.16666,4488.188976,2596.396035)">
            <rect x="0" y="0.487" width="73.716" height="56.693" style="fill:rgb(43,66,114);fill-rule:nonzero;"/>
        </g>
        <g transform="matrix(3.204467,0,-0,4.16666,4724.409449,2596.396035)">
            <rect x="0" y="0.487" width="73.716" height="56.693" style="fill:rgb(43,66,114);fill-rule:nonzero;"/>
        </g>
        <g transform="matrix(3.204467,0,-0,4.16666,4960.629921,2596.396035)">
            <rect x="0" y="0.487" width="73.716" height="56.693" style="fill:rgb(43,66,114);fill-rule:nonzero;"/>
        </g>
        <g transform="matrix(3.204467,0,-0,4.16666,5196.850394,2596.396035)">
            <rect x="0" y="0.487" width="73.716" height="56.693" style="fill:rgb(43,66,114);fill-rule:nonzero;"/>
        </g>
        <g transform="matrix(3.204467,0,-0,4.16666,5433.070866,2596.396035)">
            <rect x="0" y="0.487" width="73.716" height="56.693" style="fill:rgb(43,66,114);fill-rule:nonzero;"/>
        </g>
        <g transform="matrix(3.204467,0,-0,4.16666,5669.291339,2596.396035)">
            <rect x="0" y="0.487" width="73.716" height="56.693" style="fill:rgb(43,66,114);fill-rule:nonzero;"/>
        </g>
        <g transform="matrix(3.204467,0,-0,4.16666,5905.511811,2596.396035)">
            <rect x="0" y="0.487" width="73.716" height="56.693" style="fill:rgb(43,66,114);fill-rule:nonzero;"/>
        </g>
        <g transform="matrix(3.204467,0,-0,4.16666,6141.732283,2596.396035)">
            <rect x="0" y="0.487" width="73.716" height="56.693" style="fill:rgb(43,66,114);fill-rule:nonzero;"/>
        </g>
        <g transform="matrix(3.204467,0,-0,4.16666,3779.527559,3068.83698)">
            <rect x="0" y="0.487" width="73.716" height="56.693" style="fill:rgb(43,66,114);fill-rule:nonzero;"/>
        </g>
        <g transform="matrix(3.204467,0,-0,4.16666,6614.173228,2360.175563)">
            <rect x="0" y="0.487" width="73.716" height="56.693" style="fill:rgb(43,66,114);fill-rule:nonzero;"/>
        </g>
        <g transform="matrix(3.204467,0,-0,4.16666,4960.629921,3068.83698)">
            <rect x="0" y="0.487" width="73.716" height="56.693" style="fill:rgb(43,66,114);fill-rule:nonzero;"/>
        </g>
        <g transform="matrix(3.204467,0,-0,4.16666,5196.850394,3068.83698)">
            <rect x="0" y="0.487" width="73.716" height="56.693" style="fill:rgb(43,66,114);fill-rule:nonzero;"/>
        </g>
        <g transform="matrix(3.204467,0,-0,4.16666,5433.070866,3068.83698)">
            <rect x="0" y="0.487" width="73.716" height="56.693" style="fill:rgb(43,66,114);fill-rule:nonzero;"/>
        </g>
        <g transform="matrix(3.204467,0,-0,4.16666,3779.527559,2832.616508)">
            <rect x="0" y="0.487" width="73.716" height="56.693" style="fill:rgb(43,66,114);fill-rule:nonzero;"/>
        </g>
        <g transform="matrix(3.204467,0,-0,4.16666,4015.748031,2832.616508)">
            <rect x="0" y="0.487" width="73.716" height="56.693" style="fill:rgb(43,66,114);fill-rule:nonzero;"/>
        </g>
        <g transform="matrix(3.204467,0,-0,4.16666,4251.968504,2832.616508)">
            <rect x="0" y="0.487" width="73.716" height="56.693" style="fill:rgb(43,66,114);fill-rule:nonzero;"/>
        </g>
        <g transform="matrix(3.204467,0,-0,4.16666,4488.188976,2832.616508)">
            <rect x="0" y="0.487" width="73.716" height="56.693" style="fill:rgb(43,66,114);fill-rule:nonzero;"/>
        </g>
        <g transform="matrix(3.204467,0,-0,4.16666,4724.409449,2832.616508)">
            <rect x="0" y="0.487" width="73.716" height="56.693" style="fill:rgb(43,66,114);fill-rule:nonzero;"/>
        </g>
        <g transform="matrix(3.204467,0,-0,4.16666,4960.629921,2832.616508)">
            <rect x="0" y="0.487" width="73.716" height="56.693" style="fill:rgb(43,66,114);fill-rule:nonzero;"/>
        </g>
        <g transform="matrix(3.204467,0,-0,4.16666,5196.850394,2832.616508)">
            <rect x="0" y="0.487" width="73.716" height="56.693" style="fill:rgb(43,66,114);fill-rule:nonzero;"/>
        </g>
        <g transform="matrix(3.204467,0,-0,4.16666,5433.070866,2832.616508)">
            <rect x="0" y="0.487" width="73.716" height="56.693" style="fill:rgb(43,66,114);fill-rule:nonzero;"/>
        </g>
        <g transform="matrix(3.204467,0,-0,4.16666,5669.291339,2832.616508)">
            <rect x="0" y="0.487" width="73.716" height="56.693" style="fill:rgb(43,66,114);fill-rule:nonzero;"/>
        </g>
        <g transform="matrix(3.204467,0,-0,4.16666,5905.511811,2832.616508)">
            <rect x="0" y="0.487" width="73.716" height="56.693" style="fill:rgb(43,66,114);fill-rule:nonzero;"/>
        </g>
        <g transform="matrix(3.204467,0,-0,4.16666,6141.732283,2832.616508)">
            <rect x="0" y="0.487" width="73.716" height="56.693" style="fill:rgb(43,66,114);fill-rule:nonzero;"/>
        </g>
        <g transform="matrix(3.204467,0,-0,4.16666,6377.952756,2596.396035)">
            <rect x="0" y="0.487" width="73.716" height="56.693" style="fill:rgb(43,66,114);fill-rule:nonzero;"/>
        </g>
        <g transform="matrix(3.204467,0,-0,4.16666,6614.173228,2596.396035)">
            <rect x="0" y="0.487" width="73.716" height="56.693" style="fill:rgb(43,66,114);fill-rule:nonzero;"/>
        </g>
        <g transform="matrix(3.204467,0,-0,4.16666,6377.952756,2832.616508)">
            <rect x="0" y="0.487" width="73.716" height="56.693" style="fill:rgb(43,66,114);fill-rule:nonzero;"/>
        </g>
        <g transform="matrix(3.204467,0,-0,4.16666,6614.173228,2832.616508)">
            <rect x="0" y="0.487" width="73.716" height="56.693" style="fill:rgb(43,66,114);fill-rule:nonzero;"/>
        </g>
        <g transform="matrix(3.204467,0,-0,4.16666,6377.952756,2360.175563)">
            <rect x="0" y="0.487" width="73.716" height="56.693" style="fill:rgb(43,66,114);fill-rule:nonzero;"/>
        </g>
        <g transform="matrix(3.204467,0,-0,4.16666,4960.629921,2123.95509)">
            <rect x="0" y="0.487" width="73.716" height="56.693" style="fill:rgb(164,167,159);fill-rule:nonzero;"/>
        </g>
        <g transform="matrix(3.204467,0,-0,4.16666,5196.850394,2123.95509)">
            <rect x="0" y="0.487" width="73.716" height="56.693" style="fill:rgb(164,167,159);fill-rule:nonzero;"/>
        </g>
        <g transform="matrix(3.204467,0,-0,4.16666,5433.070866,2123.95509)">
            <rect x="0" y="0.487" width="73.716" height="56.693" style="fill:rgb(164,167,159);fill-rule:nonzero;"/>
        </g>
        <g transform="matrix(3.204467,0,-0,4.16666,5669.291339,2123.95509)">
            <rect x="0" y="0.487" width="73.716" height="56.693" style="fill:rgb(164,167,159);fill-rule:nonzero;"/>
        </g>
        <g transform="matrix(3.204467,0,-0,4.16666,5905.511811,2123.95509)">
            <rect x="0" y="0.487" width="73.716" height="56.693" style="fill:rgb(164,167,159);fill-rule:nonzero;"/>
        </g>
        <g transform="matrix(3.204467,0,-0,4.16666,6141.732283,2123.95509)">
            <rect x="0" y="0.487" width="73.716" height="56.693" style="fill:rgb(164,167,159);fill-rule:nonzero;"/>
        </g>
        <g transform="matrix(3.204467,0,-0,4.16666,6377.952756,2123.95509)">
            <rect x="0" y="0.487" width="73.716" height="56.693" style="fill:rgb(164,167,159);fill-rule:nonzero;"/>
        </g>
        <g transform="matrix(3.204467,0,-0,4.16666,4724.409449,2360.175563)">
            <rect x="0" y="0.487" width="73.716" height="56.693" style="fill:rgb(45,55,86);fill-rule:nonzero;"/>
        </g>
        <g transform="matrix(3.204467,0,-0,4.16666,4960.629921,2360.175563)">
            <rect x="0" y="0.487" width="73.716" height="56.693" style="fill:rgb(45,55,86);fill-rule:nonzero;"/>
        </g>
        <g transform="matrix(3.204467,0,-0,4.16666,5196.850394,2360.175563)">
            <rect x="0" y="0.487" width="73.716" height="56.693" style="fill:rgb(45,55,86);fill-rule:nonzero;"/>
        </g>
        <g transform="matrix(3.204467,0,-0,4.16666,5433.070866,2360.175563)">
            <rect x="0" y="0.487" width="73.716" height="56.693" style="fill:rgb(45,55,86);fill-rule:nonzero;"/>
        </g>
        <g transform="matrix(3.204467,0,-0,4.16666,5669.291339,2360.175563)">
            <rect x="0" y="0.487" width="73.716" height="56.693" style="fill:rgb(45,55,86);fill-rule:nonzero;"/>
        </g>
        <g transform="matrix(3.204467,0,-0,4.16666,5905.511811,2360.175563)">
            <rect x="0" y="0.487" width="73.716" height="56.693" style="fill:rgb(45,55,86);fill-rule:nonzero;"/>
        </g>
        <g transform="matrix(3.204467,0,-0,4.16666,6141.732283,2360.175563)">
            <rect x="0" y="0.487" width="73.716" height="56.693" style="fill:rgb(45,55,86);fill-rule:nonzero;"/>
        </g>
        <g transform="matrix(3.204467,0,-0,4.16666,4488.188976,3305.057453)">
            <rect x="0" y="0.487" width="73.716" height="56.693" style="fill:rgb(62,116,172);fill-rule:nonzero;"/>
        </g>
        <g transform="matrix(3.204467,0,-0,4.16666,4724.409449,3305.057453)">
            <rect x="0" y="0.487" width="73.716" height="56.693" style="fill:rgb(62,116,172);fill-rule:nonzero;"/>
        </g>
        <g transform="matrix(3.204467,0,-0,4.16666,6377.952756,3068.83698)">
            <rect x="0" y="0.487" width="73.716" height="56.693" style="fill:rgb(62,116,172);fill-rule:nonzero;"/>
        </g>
        <g transform="matrix(3.204467,0,-0,4.16666,6614.173228,3068.83698)">
            <rect x="0" y="0.487" width="73.716" height="56.693" style="fill:rgb(62,116,172);fill-rule:nonzero;"/>
        </g>
        <g transform="matrix(3.204467,0,-0,4.16666,3779.527559,3305.057453)">
            <rect x="0" y="0.487" width="73.716" height="56.693" style="fill:rgb(62,116,172);fill-rule:nonzero;"/>
        </g>
        <g transform="matrix(3.204467,0,-0,4.16666,4015.748031,3305.057453)">
            <rect x="0" y="0.487" width="73.716" height="56.693" style="fill:rgb(62,116,172);fill-rule:nonzero;"/>
        </g>
        <g transform="matrix(3.204467,0,-0,4.16666,4251.968504,3305.057453)">
            <rect x="0" y="0.487" width="73.716" height="56.693" style="fill:rgb(62,116,172);fill-rule:nonzero;"/>
        </g>
        <g transform="matrix(0,3.204467,-4.16666,0,6852.422862,2125.984252)">
            <rect x="0" y="0.487" width="73.716" height="56.693" style="fill:rgb(214,215,206);fill-rule:nonzero;"/>
        </g>
        <g transform="matrix(3.204467,0,-0,4.16666,3779.527559,2360.175563)">
            <rect x="0" y="0.487" width="73.716" height="56.693" style="fill:rgb(214,215,206);fill-rule:nonzero;"/>
        </g>
        <g transform="matrix(3.204467,0,-0,4.16666,4015.748031,2360.175563)">
            <rect x="0" y="0.487" width="73.716" height="56.693" style="fill:rgb(214,215,206);fill-rule:nonzero;"/>
        </g>
        <g transform="matrix(3.204467,0,-0,4.16666,4251.968504,2360.175563)">
            <rect x="0" y="0.487" width="73.716" height="56.693" style="fill:rgb(214,215,206);fill-rule:nonzero;"/>
        </g>
        <g transform="matrix(3.204467,0,-0,4.16666,4488.188976,2360.175563)">
            <rect x="0" y="0.487" width="73.716" height="56.693" style="fill:rgb(214,215,206);fill-rule:nonzero;"/>
        </g>
        <g transform="matrix(3.204467,0,-0,4.16666,4015.748031,3777.498398)">
            <rect x="0" y="0.487" width="73.716" height="56.693" style="fill:rgb(115,73,39);fill-rule:nonzero;"/>
        </g>
        <g transform="matrix(3.204467,0,-0,4.16666,4251.968504,3777.498398)">
            <rect x="0" y="0.487" width="73.716" height="56.693" style="fill:rgb(115,73,39);fill-rule:nonzero;"/>
        </g>
        <g transform="matrix(3.204467,0,-0,4.16666,4488.188976,3777.498398)">
            <rect x="0" y="0.487" width="73.716" height="56.693" style="fill:rgb(115,73,39);fill-rule:nonzero;"/>
        </g>
        <g transform="matrix(3.204467,0,-0,4.16666,4724.409449,3777.498398)">
            <rect x="0" y="0.487" width="73.716" height="56.693" style="fill:rgb(115,73,39);fill-rule:nonzero;"/>
        </g>
        <g transform="matrix(3.204467,0,-0,4.16666,4960.629921,3777.498398)">
            <rect x="0" y="0.487" width="73.716" height="56.693" style="fill:rgb(115,73,39);fill-rule:nonzero;"/>
        </g>
        <g transform="matrix(3.204467,0,-0,4.16666,5196.850394,3777.498398)">
            <rect x="0" y="0.487" width="73.716" height="56.693" style="fill:rgb(35,27,14);fill-rule:nonzero;"/>
        </g>
        <g transform="matrix(3.204467,0,-0,4.16666,5433.070866,3777.498398)">
            <rect x="0" y="0.487" width="73.716" height="56.693" style="fill:rgb(35,27,14);fill-rule:nonzero;"/>
        </g>
        <g transform="matrix(3.204467,0,-0,4.16666,5669.291339,3777.498398)">
            <rect x="0" y="0.487" width="73.716" height="56.693" style="fill:rgb(35,27,14);fill-rule:nonzero;"/>
        </g>
        <g transform="matrix(3.204467,0,-0,4.16666,5905.511811,3777.498398)">
            <rect x="0" y="0.487" width="73.716" height="56.693" style="fill:rgb(35,27,14);fill-rule:nonzero;"/>
        </g>
        <g transform="matrix(3.204467,0,-0,4.16666,6141.732283,3777.498398)">
            <rect x="0" y="0.487" width="73.716" height="56.693" style="fill:rgb(35,27,14);fill-rule:nonzero;"/>
        </g>
        <g transform="matrix(3.204467,0,-0,4.16666,5669.291339,4486.159815)">
            <rect x="0" y="0.487" width="73.716" height="56.693" style="fill:rgb(119,127,159);fill-rule:nonzero;"/>
        </g>
        <g transform="matrix(3.204467,0,-0,4.16666,5905.511811,4486.159815)">
            <rect x="0" y="0.487" width="73.716" height="56.693" style="fill:rgb(119,127,159);fill-rule:nonzero;"/>
        </g>
        <g transform="matrix(3.204467,0,-0,4.16666,6141.732283,4486.159815)">
            <rect x="0" y="0.487" width="73.716" height="56.693" style="fill:rgb(119,127,159);fill-rule:nonzero;"/>
        </g>
        <g transform="matrix(3.204467,0,-0,4.16666,6377.952756,4486.159815)">
            <rect x="0" y="0.487" width="73.716" height="56.693" style="fill:rgb(119,127,159);fill-rule:nonzero;"/>
        </g>
        <g transform="matrix(3.204467,0,-0,4.16666,6614.173228,4486.159815)">
            <rect x="0" y="0.487" width="73.716" height="56.693" style="fill:rgb(119,127,159);fill-rule:nonzero;"/>
        </g>
        <g transform="matrix(3.204467,0,-0,4.16666,4488.188976,4486.159815)">
            <rect x="0" y="0.487" width="73.716" height="56.693" style="fill:rgb(119,127,159);fill-rule:nonzero;"/>
        </g>
        <g transform="matrix(3.204467,0,-0,4.16666,4724.409449,4486.159815)">
            <rect x="0" y="0.487" width="73.716" height="56.693" style="fill:rgb(119,127,159);fill-rule:nonzero;"/>
        </g>
        <g transform="matrix(3.204467,0,-0,4.16666,4960.629921,4486.159815)">
            <rect x="0" y="0.487" width="73.716" height="56.693" style="fill:rgb(119,127,159);fill-rule:nonzero;"/>
        </g>
        <g transform="matrix(3.204467,0,-0,4.16666,5196.850394,4486.159815)">
            <rect x="0" y="0.487" width="73.716" height="56.693" style="fill:rgb(119,127,159);fill-rule:nonzero;"/>
        </g>
        <g transform="matrix(3.204467,0,-0,4.16666,3779.527559,4486.159815)">
            <rect x="0" y="0.487" width="73.716" height="56.693" style="fill:rgb(119,127,159);fill-rule:nonzero;"/>
        </g>
        <g transform="matrix(3.204467,0,-0,4.16666,4015.748031,4486.159815)">
            <rect x="0" y="0.487" width="73.716" height="56.693" style="fill:rgb(119,127,159);fill-rule:nonzero;"/>
        </g>
        <g transform="matrix(3.204467,0,-0,4.16666,4251.968504,4486.159815)">
            <rect x="0" y="0.487" width="73.716" height="56.693" style="fill:rgb(119,127,159);fill-rule:nonzero;"/>
        </g>
        <g transform="matrix(3.204467,0,-0,4.16666,6614.173228,4249.939342)">
            <rect x="0" y="0.487" width="73.716" height="56.693" style="fill:rgb(119,127,159);fill-rule:nonzero;"/>
        </g>
        <g transform="matrix(3.204467,0,-0,4.16666,5433.070866,4486.159815)">
            <rect x="0" y="0.487" width="73.716" height="56.693" style="fill:rgb(119,127,159);fill-rule:nonzero;"/>
        </g>
        <g transform="matrix(3.204467,0,-0,4.16666,6377.952756,4249.939342)">
            <rect x="0" y="0.487" width="73.716" height="56.693" style="fill:rgb(119,127,159);fill-rule:nonzero;"/>
        </g>
        <g transform="matrix(3.204467,0,-0,4.16666,3779.527559,4013.71887)">
            <rect x="0" y="0.487" width="73.716" height="56.693" style="fill:rgb(167,84,53);fill-rule:nonzero;"/>
        </g>
        <g transform="matrix(3.204467,0,-0,4.16666,4015.748031,4013.71887)">
            <rect x="0" y="0.487" width="73.716" height="56.693" style="fill:rgb(167,84,53);fill-rule:nonzero;"/>
        </g>
        <g transform="matrix(3.204467,0,-0,4.16666,4251.968504,4013.71887)">
            <rect x="0" y="0.487" width="73.716" height="56.693" style="fill:rgb(167,84,53);fill-rule:nonzero;"/>
        </g>
        <g transform="matrix(3.204467,0,-0,4.16666,6377.952756,3777.498398)">
            <rect x="0" y="0.487" width="73.716" height="56.693" style="fill:rgb(167,84,53);fill-rule:nonzero;"/>
        </g>
        <g transform="matrix(3.204467,0,-0,4.16666,6614.173228,3777.498398)">
            <rect x="0" y="0.487" width="73.716" height="56.693" style="fill:rgb(167,84,53);fill-rule:nonzero;"/>
        </g>
        <g transform="matrix(3.204467,0,-0,4.16666,4724.409449,4013.71887)">
            <rect x="0" y="0.487" width="73.716" height="56.693" style="fill:rgb(145,53,47);fill-rule:nonzero;"/>
        </g>
        <g transform="matrix(3.204467,0,-0,4.16666,4960.629921,4013.71887)">
            <rect x="0" y="0.487" width="73.716" height="56.693" style="fill:rgb(145,53,47);fill-rule:nonzero;"/>
        </g>
        <g transform="matrix(3.204467,0,-0,4.16666,5196.850394,4013.71887)">
            <rect x="0" y="0.487" width="73.716" height="56.693" style="fill:rgb(145,53,47);fill-rule:nonzero;"/>
        </g>
        <g transform="matrix(3.204467,0,-0,4.16666,5433.070866,4013.71887)">
            <rect x="0" y="0.487" width="73.716" height="56.693" style="fill:rgb(145,53,47);fill-rule:nonzero;"/>
        </g>
        <g transform="matrix(3.204467,0,-0,4.16666,5669.291339,4013.71887)">
            <rect x="0" y="0.487" width="73.716" height="56.693" style="fill:rgb(145,53,47);fill-rule:nonzero;"/>
        </g>
        <g transform="matrix(3.204467,0,-0,4.16666,4488.188976,4013.71887)">
            <rect x="0" y="0.487" width="73.716" height="56.693" style="fill:rgb(145,53,47);fill-rule:nonzero;"/>
        </g>
        <g transform="matrix(3.204467,0,-0,4.16666,5905.511811,4013.71887)">
            <rect x="0" y="0.487" width="73.716" height="56.693" style="fill:rgb(145,53,47);fill-rule:nonzero;"/>
        </g>
        <g transform="matrix(3.204467,0,-0,4.16666,6141.732283,4013.71887)">
            <rect x="0" y="0.487" width="73.716" height="56.693" style="fill:rgb(145,53,47);fill-rule:nonzero;"/>
        </g>
        <g transform="matrix(3.204467,0,-0,4.16666,4960.629921,3305.057453)">
            <rect x="0" y="0.487" width="73.716" height="56.693" style="fill:rgb(39,70,54);fill-rule:nonzero;"/>
        </g>
        <g transform="matrix(3.204467,0,-0,4.16666,5196.850394,3305.057453)">
            <rect x="0" y="0.487" width="73.716" height="56.693" style="fill:rgb(39,70,54);fill-rule:nonzero;"/>
        </g>
        <g transform="matrix(3.204467,0,-0,4.16666,5433.070866,3305.057453)">
            <rect x="0" y="0.487" width="73.716" height="56.693" style="fill:rgb(39,70,54);fill-rule:nonzero;"/>
        </g>
        <g transform="matrix(3.204467,0,-0,4.16666,5669.291339,3305.057453)">
            <rect x="0" y="0.487" width="73.716" height="56.693" style="fill:rgb(39,70,54);fill-rule:nonzero;"/>
        </g>
        <g transform="matrix(3.204467,0,-0,4.16666,5905.511811,3305.057453)">
            <rect x="0" y="0.487" width="73.716" height="56.693" style="fill:rgb(39,70,54);fill-rule:nonzero;"/>
        </g>
        <g transform="matrix(3.204467,0,-0,4.16666,3779.527559,3541.277925)">
            <rect x="0" y="0.487" width="73.716" height="56.693" style="fill:rgb(73,122,68);fill-rule:nonzero;"/>
        </g>
        <g transform="matrix(3.204467,0,-0,4.16666,4015.748031,3541.277925)">
            <rect x="0" y="0.487" width="73.716" height="56.693" style="fill:rgb(73,122,68);fill-rule:nonzero;"/>
        </g>
        <g transform="matrix(3.204467,0,-0,4.16666,6141.732283,3305.057453)">
            <rect x="0" y="0.487" width="73.716" height="56.693" style="fill:rgb(73,122,68);fill-rule:nonzero;"/>
        </g>
        <g transform="matrix(3.204467,0,-0,4.16666,6377.952756,3305.057453)">
            <rect x="0" y="0.487" width="73.716" height="56.693" style="fill:rgb(73,122,68);fill-rule:nonzero;"/>
        </g>
        <g transform="matrix(3.204467,0,-0,4.16666,6614.173228,3305.057453)">
            <rect x="0" y="0.487" width="73.716" height="56.693" style="fill:rgb(73,122,68);fill-rule:nonzero;"/>
        </g>
        <g transform="matrix(3.204467,0,-0,4.16666,5196.850394,3541.277925)">
            <rect x="0" y="0.487" width="73.716" height="56.693" style="fill:rgb(212,210,85);fill-rule:nonzero;"/>
        </g>
        <g transform="matrix(3.204467,0,-0,4.16666,5433.070866,3541.277925)">
            <rect x="0" y="0.487" width="73.716" height="56.693" style="fill:rgb(212,210,85);fill-rule:nonzero;"/>
        </g>
        <g transform="matrix(3.204467,0,-0,4.16666,5669.291339,3541.277925)">
            <rect x="0" y="0.487" width="73.716" height="56.693" style="fill:rgb(212,210,85);fill-rule:nonzero;"/>
        </g>
        <g transform="matrix(3.204467,0,-0,4.16666,5905.511811,3541.277925)">
            <rect x="0" y="0.487" width="73.716" height="56.693" style="fill:rgb(212,210,85);fill-rule:nonzero;"/>
        </g>
        <g transform="matrix(3.204467,0,-0,4.16666,4488.188976,3541.277925)">
            <rect x="0" y="0.487" width="73.716" height="56.693" style="fill:rgb(212,210,85);fill-rule:nonzero;"/>
        </g>
        <g transform="matrix(3.204467,0,-0,4.16666,4724.409449,3541.277925)">
            <rect x="0" y="0.487" width="73.716" height="56.693" style="fill:rgb(212,210,85);fill-rule:nonzero;"/>
        </g>
        <g transform="matrix(3.204467,0,-0,4.16666,4960.629921,3541.277925)">
            <rect x="0" y="0.487" width="73.716" height="56.693" style="fill:rgb(212,210,85);fill-rule:nonzero;"/>
        </g>
        <g transform="matrix(3.204467,0,-0,4.16666,4251.968504,3541.277925)">
            <rect x="0" y="0.487" width="73.716" height="56.693" style="fill:rgb(212,210,85);fill-rule:nonzero;"/>
        </g>
        <g transform="matrix(3.204467,0,-0,4.16666,6141.732283,3541.277925)">
            <rect x="0" y="0.487" width="73.716" height="56.693" style="fill:rgb(212,210,85);fill-rule:nonzero;"/>
        </g>
        <g transform="matrix(3.204467,0,-0,4.16666,5196.850394,4249.939342)">
            <rect x="0" y="0.487" width="73.716" height="56.693" style="fill:rgb(36,28,82);fill-rule:nonzero;"/>
        </g>
        <g transform="matrix(3.204467,0,-0,4.16666,5433.070866,4249.939342)">
            <rect x="0" y="0.487" width="73.716" height="56.693" style="fill:rgb(36,28,82);fill-rule:nonzero;"/>
        </g>
        <g transform="matrix(3.204467,0,-0,4.16666,5669.291339,4249.939342)">
            <rect x="0" y="0.487" width="73.716" height="56.693" style="fill:rgb(36,28,82);fill-rule:nonzero;"/>
        </g>
        <g transform="matrix(3.204467,0,-0,4.16666,5905.511811,4249.939342)">
            <rect x="0" y="0.487" width="73.716" height="56.693" style="fill:rgb(36,28,82);fill-rule:nonzero;"/>
        </g>
        <g transform="matrix(3.204467,0,-0,4.16666,4488.188976,4249.939342)">
            <rect x="0" y="0.487" width="73.716" height="56.693" style="fill:rgb(36,28,82);fill-rule:nonzero;"/>
        </g>
        <g transform="matrix(3.204467,0,-0,4.16666,4724.409449,4249.939342)">
            <rect x="0" y="0.487" width="73.716" height="56.693" style="fill:rgb(36,28,82);fill-rule:nonzero;"/>
        </g>
        <g transform="matrix(3.204467,0,-0,4.16666,4960.629921,4249.939342)">
            <rect x="0" y="0.487" width="73.716" height="56.693" style="fill:rgb(36,28,82);fill-rule:nonzero;"/>
        </g>
        <g transform="matrix(3.204467,0,-0,4.16666,4251.968504,4249.939342)">
            <rect x="0" y="0.487" width="73.716" height="56.693" style="fill:rgb(36,28,82);fill-rule:nonzero;"/>
        </g>
        <g transform="matrix(3.204467,0,-0,4.16666,6141.732283,4249.939342)">
            <rect x="0" y="0.487" width="73.716" height="56.693" style="fill:rgb(36,28,82);fill-rule:nonzero;"/>
        </g>
        <g transform="matrix(3.204467,0,-0,4.16666,4015.748031,4249.939342)">
            <rect x="0" y="0.487" width="73.716" height="56.693" style="fill:rgb(36,28,82);fill-rule:nonzero;"/>
        </g>
        <g transform="matrix(0,3.204467,-4.16666,0,5907.540973,3070.866142)">
            <rect x="0" y="0.487" width="73.716" height="56.693" style="fill:rgb(183,192,198);fill-rule:nonzero;"/>
        </g>
        <g transform="matrix(0,3.204467,-4.16666,0,6379.981917,3070.866142)">
            <rect x="0" y="0.487" width="73.716" height="56.693" style="fill:rgb(183,192,198);fill-rule:nonzero;"/>
        </g>
        <g transform="matrix(0,3.204467,-4.16666,0,6143.761445,3070.866142)">
            <rect x="0" y="0.487" width="73.716" height="56.693" style="fill:rgb(183,192,198);fill-rule:nonzero;"/>
        </g>
        <g transform="matrix(0,3.204467,-4.16666,0,6616.20239,3543.307087)">
            <rect x="0" y="0.487" width="73.716" height="56.693" style="fill:rgb(153,127,49);fill-rule:nonzero;"/>
        </g>
        <g transform="matrix(0,3.204467,-4.16666,0,4017.777193,3779.527559)">
            <rect x="0" y="0.487" width="73.716" height="56.693" style="fill:rgb(153,127,49);fill-rule:nonzero;"/>
        </g>
        <g transform="matrix(0,3.204467,-4.16666,0,6852.422862,3543.307087)">
            <rect x="0" y="0.487" width="73.716" height="56.693" style="fill:rgb(153,127,49);fill-rule:nonzero;"/>
        </g>
        <g transform="matrix(0,3.204467,-4.16666,0,6616.20239,4015.748031)">
            <rect x="0" y="0.487" width="73.716" height="56.693" style="fill:rgb(152,74,79);fill-rule:nonzero;"/>
        </g>
        <g transform="matrix(0,3.204467,-4.16666,0,4017.777193,4251.968504)">
            <rect x="0" y="0.487" width="73.716" height="56.693" style="fill:rgb(152,74,79);fill-rule:nonzero;"/>
        </g>
        <g transform="matrix(0,3.204467,-4.16666,0,6852.422862,4015.748031)">
            <rect x="0" y="0.487" width="73.716" height="56.693" style="fill:rgb(152,74,79);fill-rule:nonzero;"/>
        </g>
    </g>
</svg>
