<?xml version="1.0" encoding="UTF-8" standalone="no"?><!DOCTYPE svg PUBLIC "-//W3C//DTD SVG 1.1//EN" "http://www.w3.org/Graphics/SVG/1.1/DTD/svg11.dtd"><svg width="100%" height="100%" viewBox="0 0 1667 1667" version="1.1" xmlns="http://www.w3.org/2000/svg" xmlns:xlink="http://www.w3.org/1999/xlink" xml:space="preserve" xmlns:serif="http://www.serif.com/" style="fill-rule:evenodd;clip-rule:evenodd;stroke-linejoin:round;stroke-miterlimit:2;"><g><rect x="6.042" y="715.223" width="307.15" height="236.221" style="fill:#252924;fill-rule:nonzero;"/><rect x="313.192" y="715.223" width="66.667" height="236.221" style="fill:#a4a79f;fill-rule:nonzero;"/><rect x="379.858" y="715.223" width="47.225" height="236.221" style="fill:#d6d7ce;fill-rule:nonzero;"/><rect x="493.75" y="715.223" width="350" height="236.221" style="fill:#2b4272;fill-rule:nonzero;"/><rect x="427.083" y="715.223" width="66.667" height="236.221" style="fill:#2d3756;fill-rule:nonzero;"/><rect x="1032.813" y="715.223" width="89.062" height="236.221" style="fill:#d4d255;fill-rule:nonzero;"/><rect x="843.75" y="715.223" width="33.333" height="236.221" style="fill:#b7c0c6;fill-rule:nonzero;"/><rect x="1121.875" y="715.223" width="32.292" height="236.221" style="fill:#997f31;fill-rule:nonzero;"/><rect x="1154.167" y="715.223" width="51.042" height="236.221" style="fill:#734927;fill-rule:nonzero;"/><rect x="877.083" y="715.223" width="64.583" height="236.221" style="fill:#3e74ac;fill-rule:nonzero;"/><rect x="941.667" y="715.223" width="48.958" height="236.221" style="fill:#274636;fill-rule:nonzero;"/><rect x="1383.333" y="715.223" width="32.292" height="236.221" style="fill:#984a4f;fill-rule:nonzero;"/><rect x="1515.625" y="715.223" width="145" height="236.221" style="fill:#777f9f;fill-rule:nonzero;"/><rect x="990.625" y="715.223" width="47.917" height="236.221" style="fill:#497a44;fill-rule:nonzero;"/><rect x="1205.208" y="715.223" width="46.875" height="236.221" style="fill:#231b0e;fill-rule:nonzero;"/><rect x="1300" y="715.223" width="83.333" height="236.221" style="fill:#91352f;fill-rule:nonzero;"/><rect x="1415.625" y="715.223" width="100" height="236.221" style="fill:#241c52;fill-rule:nonzero;"/><rect x="1252.083" y="715.223" width="47.917" height="236.221" style="fill:#a75435;fill-rule:nonzero;"/></g></svg>