<?xml version="1.0" encoding="UTF-8" standalone="no"?>
<!DOCTYPE svg PUBLIC "-//W3C//DTD SVG 1.1//EN" "http://www.w3.org/Graphics/SVG/1.1/DTD/svg11.dtd">
<svg width="100%" height="100%" viewBox="0 0 14174 14174" version="1.1" xmlns="http://www.w3.org/2000/svg" xmlns:xlink="http://www.w3.org/1999/xlink" xml:space="preserve" xmlns:serif="http://www.serif.com/" style="fill-rule:evenodd;clip-rule:evenodd;stroke-linecap:round;stroke-linejoin:round;stroke-miterlimit:1.5;">
    <g transform="matrix(0.241609,0,0,0.241609,7086.614173,7086.614173)">
        <g transform="matrix(1,0,0,1,-16620.833333,-16620.833333)">
            <g transform="matrix(4.166667,0,0,4.166667,0,0)">
                <rect x="2768.96" y="3050.394" width="35.197" height="2346.457"/>
            </g>
            <g transform="matrix(4.166667,0,0,4.166667,0,0)">
                <rect x="3049.745" y="3050.394" width="35.197" height="2346.457"/>
            </g>
            <g transform="matrix(4.166667,0,0,4.166667,0,0)">
                <rect x="2675.36" y="3050.394" width="35.197" height="2346.457"/>
            </g>
            <g transform="matrix(4.166667,0,0,4.166667,0,0)">
                <rect x="2581.102" y="3050.394" width="35.197" height="2346.457"/>
            </g>
            <g transform="matrix(4.166667,0,0,4.166667,0,0)">
                <rect x="3143.22" y="3050.394" width="35.197" height="2346.457"/>
            </g>
            <g transform="matrix(4.166667,0,0,4.166667,0,0)">
                <rect x="2862.677" y="3050.394" width="35.197" height="2346.457"/>
            </g>
            <g transform="matrix(4.166667,0,0,4.166667,0,0)">
                <rect x="2956.05" y="3050.394" width="35.197" height="2346.457"/>
            </g>
            <g transform="matrix(4.166667,0,0,4.166667,0,0)">
                <rect x="3588.906" y="4986.22" width="410.63" height="410.63"/>
            </g>
            <g transform="matrix(4.166667,0,0,4.166667,0,0)">
                <rect x="3295.598" y="4810.236" width="117.323" height="586.614"/>
            </g>
            <g transform="matrix(4.166667,0,0,4.166667,0,0)">
                <rect x="2463.78" y="2463.78" width="3050.394" height="3050.394" style="fill:none;"/>
            </g>
            <g transform="matrix(4.166667,0,0,4.166667,0,0)">
                <rect x="2463.78" y="2463.78" width="3050.394" height="3050.394" style="fill:none;stroke:black;stroke-width:4.14px;"/>
            </g>
        </g>
    </g>
</svg>
