<?xml version="1.0" encoding="UTF-8" standalone="no"?>
<!DOCTYPE svg PUBLIC "-//W3C//DTD SVG 1.1//EN" "http://www.w3.org/Graphics/SVG/1.1/DTD/svg11.dtd">
<svg width="100%" height="100%" viewBox="0 0 14174 14174" version="1.1" xmlns="http://www.w3.org/2000/svg" xmlns:xlink="http://www.w3.org/1999/xlink" xml:space="preserve" xmlns:serif="http://www.serif.com/" style="fill-rule:evenodd;clip-rule:evenodd;stroke-linecap:round;stroke-linejoin:round;stroke-miterlimit:1.5;">
    <g transform="matrix(5.063995,0,0,8.145534,-3132.527728,-4765.137116)">
        <rect x="1225" y="962" width="1586" height="986" style="fill:none;stroke:black;stroke-width:0.61px;"/>
    </g>
    <g transform="matrix(0.241609,0,0,0.241609,7086.614173,7086.614173)">
        <g transform="matrix(1,0,0,1,-16620.833333,-16620.833333)">
            <g transform="matrix(4.166667,0,0,4.166667,0,0)">
                <rect x="5218.484" y="1759.645" width="117.323" height="586.614"/>
                <rect x="5922.081" y="1759.645" width="117.323" height="586.614"/>
                <rect x="6625.678" y="1759.645" width="117.323" height="586.614"/>
                <rect x="3107.694" y="1759.645" width="117.323" height="586.614"/>
                <rect x="3811.291" y="1759.645" width="117.323" height="586.614"/>
                <rect x="4514.888" y="1759.645" width="117.323" height="586.614"/>
                <rect x="996.904" y="1759.645" width="117.323" height="586.614"/>
                <rect x="1700.501" y="1759.645" width="117.323" height="586.614"/>
                <rect x="2404.097" y="1759.645" width="117.323" height="586.614"/>
                <rect x="293.307" y="1759.645" width="117.323" height="586.614"/>
            </g>
            <g transform="matrix(4.166667,0,0,4.166667,0,0)">
                <rect x="844.314" y="2639.665" width="117.323" height="586.614"/>
                <rect x="7178.933" y="2639.665" width="117.323" height="586.614"/>
                <rect x="5771.331" y="2639.665" width="117.323" height="586.614"/>
                <rect x="6475.539" y="2639.566" width="117.323" height="586.614"/>
                <rect x="5067.936" y="2639.566" width="117.323" height="586.614"/>
                <rect x="4363.728" y="2639.566" width="117.323" height="586.614"/>
                <rect x="3660.334" y="2639.566" width="117.323" height="586.614"/>
                <rect x="2956.125" y="2639.566" width="117.323" height="586.614"/>
                <rect x="2252.731" y="2639.566" width="117.323" height="586.614"/>
                <rect x="1548.523" y="2639.566" width="117.323" height="586.614"/>
            </g>
            <g transform="matrix(4.166667,0,0,4.166667,0,0)">
                <rect x="4046.685" y="2346.259" width="117.323" height="293.307"/>
                <rect x="3342.748" y="2346.259" width="117.323" height="293.307"/>
                <rect x="4750.185" y="2346.259" width="117.323" height="293.307"/>
                <rect x="5454.393" y="2346.259" width="117.323" height="293.307"/>
                <rect x="6157.787" y="2346.259" width="117.323" height="293.307"/>
                <rect x="6861.182" y="2346.259" width="117.323" height="293.307"/>
                <rect x="2638.811" y="2346.259" width="117.323" height="293.307"/>
                <rect x="1934.874" y="2346.259" width="117.323" height="293.307"/>
                <rect x="1231.208" y="2346.259" width="117.323" height="293.307"/>
                <rect x="527.543" y="2346.259" width="117.323" height="293.307"/>
                <rect x="7564.576" y="2346.259" width="117.323" height="293.307"/>
            </g>
            <g transform="matrix(4.166667,0,0,4.166667,0,0)">
                <rect x="726.991" y="1173.129" width="117.323" height="586.614"/>
                <rect x="4246.361" y="1173.129" width="117.323" height="586.614"/>
                <rect x="4950.594" y="1173.03" width="117.323" height="586.614"/>
                <rect x="6359.464" y="1173.129" width="117.323" height="586.614"/>
                <rect x="5655.422" y="1173.129" width="117.323" height="586.614"/>
                <rect x="2839.379" y="1173.129" width="117.323" height="586.614"/>
                <rect x="3543.611" y="1173.129" width="117.323" height="586.614"/>
                <rect x="1430.909" y="1173.03" width="117.323" height="586.614"/>
                <rect x="2134.986" y="1173.129" width="117.323" height="586.614"/>
            </g>
            <g transform="matrix(4.166667,0,0,4.166667,0,0)">
                <rect x="1782.602" y="879.822" width="117.323" height="293.307"/>
                <rect x="3190.771" y="879.822" width="117.323" height="293.307"/>
                <rect x="2486.834" y="879.822" width="117.323" height="293.307"/>
                <rect x="4598.645" y="879.822" width="117.323" height="293.307"/>
                <rect x="6006.224" y="879.723" width="117.323" height="293.307"/>
                <rect x="6710.456" y="879.723" width="117.323" height="293.307"/>
                <rect x="5302.582" y="879.723" width="117.323" height="293.307"/>
                <rect x="3894.708" y="879.822" width="117.323" height="293.307"/>
                <rect x="1078.96" y="879.822" width="117.323" height="293.307"/>
            </g>
            <g transform="matrix(4.166667,0,0,4.166667,0,0)">
                <rect x="5772.434" y="293.307" width="117.283" height="586.416"/>
                <rect x="2956.366" y="293.307" width="117.283" height="586.416"/>
                <rect x="2252.349" y="293.307" width="117.283" height="586.416"/>
                <rect x="1548.331" y="293.307" width="117.283" height="586.416"/>
                <rect x="844.314" y="293.307" width="117.283" height="586.416"/>
                <rect x="5068.417" y="293.307" width="117.283" height="586.416"/>
                <rect x="4364.4" y="293.307" width="117.283" height="586.416"/>
                <rect x="3660.383" y="293.307" width="117.283" height="586.416"/>
            </g>
            <g transform="matrix(4.166667,0,0,4.166667,0,0)">
                <rect x="3460.095" y="2639.566" width="35.197" height="2933.071"/>
                <rect x="6275.677" y="2639.566" width="35.197" height="2933.071"/>
                <rect x="5571.197" y="2639.566" width="35.197" height="2933.071"/>
                <rect x="4867.698" y="2639.566" width="35.197" height="2933.071"/>
                <rect x="4164.008" y="2639.566" width="35.197" height="2933.071"/>
                <rect x="2755.863" y="2639.566" width="35.197" height="2933.071"/>
                <rect x="2052.197" y="2639.566" width="35.197" height="2933.071"/>
            </g>
            <g transform="matrix(4.166667,0,0,4.166667,0,0)">
                <rect x="3225.835" y="2346.259" width="35.197" height="1759.843"/>
                <rect x="6744.269" y="2346.259" width="35.197" height="1759.843"/>
                <rect x="3929.772" y="2346.259" width="35.197" height="1759.843"/>
                <rect x="4633.272" y="2346.259" width="35.197" height="1759.843"/>
                <rect x="6040.875" y="2346.259" width="35.197" height="1759.843"/>
                <rect x="5337.48" y="2346.259" width="35.197" height="1759.843"/>
                <rect x="2521.898" y="2346.259" width="35.197" height="1759.843"/>
                <rect x="1817.961" y="2346.259" width="35.197" height="1759.843"/>
                <rect x="1114.296" y="2346.259" width="35.197" height="1759.843"/>
                <rect x="410.63" y="2346.259" width="35.197" height="1759.843"/>
                <rect x="7447.663" y="2346.259" width="35.197" height="1759.843"/>
            </g>
            <g transform="matrix(4.166667,0,0,4.166667,0,0)">
                <rect x="5419.196" y="1173.129" width="35.197" height="879.921"/>
                <rect x="4714.988" y="1173.129" width="35.197" height="879.921"/>
                <rect x="4011.691" y="1173.129" width="35.197" height="879.921"/>
                <rect x="3307.754" y="1173.129" width="35.197" height="879.921"/>
                <rect x="1899.88" y="1173.129" width="35.197" height="879.921"/>
                <rect x="2603.817" y="1173.129" width="35.197" height="879.921"/>
                <rect x="6122.59" y="1173.129" width="35.197" height="879.921"/>
                <rect x="1196.283" y="1173.129" width="35.197" height="879.921"/>
            </g>
            <g transform="matrix(4.166667,0,0,4.166667,0,0)">
                <rect x="2369.632" y="879.723" width="35.197" height="879.921"/>
                <rect x="3073.864" y="879.723" width="35.197" height="879.921"/>
                <rect x="1665.239" y="879.723" width="35.197" height="879.921"/>
                <rect x="3777.05" y="879.822" width="35.197" height="879.921"/>
                <rect x="5185.675" y="879.723" width="35.197" height="879.921"/>
                <rect x="5889.717" y="879.723" width="35.197" height="879.921"/>
                <rect x="4481.443" y="879.723" width="35.197" height="879.921"/>
                <rect x="961.598" y="879.723" width="35.197" height="879.921"/>
            </g>
            <g transform="matrix(4.166667,0,0,4.166667,0,0)">
                <rect x="0" y="0" width="7977.953" height="7977.953" style="fill:none;"/>
            </g>
        </g>
    </g>
</svg>
