<?xml version="1.0" encoding="UTF-8" standalone="no"?><!DOCTYPE svg PUBLIC "-//W3C//DTD SVG 1.1//EN" "http://www.w3.org/Graphics/SVG/1.1/DTD/svg11.dtd"><svg width="100%" height="100%" viewBox="0 0 3071 3071" version="1.1" xmlns="http://www.w3.org/2000/svg" xmlns:xlink="http://www.w3.org/1999/xlink" xml:space="preserve" xmlns:serif="http://www.serif.com/" style="fill-rule:evenodd;clip-rule:evenodd;stroke-linejoin:round;stroke-miterlimit:2;"><g><path d="M1738.897,1299.213c-11.25,0 -20.938,-1.91 -29.062,-5.729c-8.125,-3.819 -15.035,-8.924 -20.729,-15.312l11.25,-9.792c5.139,5.417 10.764,9.583 16.875,12.5c6.111,2.917 13.472,4.375 22.083,4.375c8.333,0 15.174,-1.493 20.521,-4.479c5.347,-2.986 8.021,-7.674 8.021,-14.062c0,-2.778 -0.521,-5.104 -1.562,-6.979c-1.042,-1.875 -2.465,-3.368 -4.271,-4.479c-1.806,-1.111 -3.819,-1.979 -6.042,-2.604c-2.222,-0.625 -4.583,-1.146 -7.083,-1.562l-16.875,-2.5c-3.75,-0.556 -7.812,-1.319 -12.188,-2.292c-4.375,-0.972 -8.368,-2.535 -11.979,-4.688c-3.611,-2.153 -6.632,-5.035 -9.062,-8.646c-2.431,-3.611 -3.646,-8.333 -3.646,-14.167c0,-5.417 1.076,-10.104 3.229,-14.062c2.153,-3.958 5.174,-7.292 9.062,-10c3.889,-2.708 8.472,-4.722 13.75,-6.042c5.278,-1.319 11.042,-1.979 17.292,-1.979c9.722,0 18.16,1.528 25.312,4.583c7.153,3.056 13.299,7.292 18.438,12.708l-10.833,10.208c-1.25,-1.528 -2.812,-3.09 -4.688,-4.688c-1.875,-1.597 -4.167,-3.056 -6.875,-4.375c-2.708,-1.319 -5.868,-2.396 -9.479,-3.229c-3.611,-0.833 -7.778,-1.25 -12.5,-1.25c-8.472,0 -14.965,1.458 -19.479,4.375c-4.514,2.917 -6.771,7.153 -6.771,12.708c0,2.778 0.521,5.104 1.562,6.979c1.042,1.875 2.465,3.368 4.271,4.479c1.806,1.111 3.854,1.979 6.146,2.604c2.292,0.625 4.618,1.146 6.979,1.562l16.875,2.5c3.889,0.556 7.986,1.319 12.292,2.292c4.306,0.972 8.264,2.535 11.875,4.688c3.611,2.153 6.632,5.035 9.062,8.646c2.431,3.611 3.646,8.333 3.646,14.167c0,10.694 -4.132,18.958 -12.396,24.792c-8.264,5.833 -19.271,8.75 -33.021,8.75Z" style="fill-rule:nonzero;"/><path d="M1738.897,1062.992c-11.25,0 -20.938,-1.91 -29.062,-5.729c-8.125,-3.819 -15.035,-8.924 -20.729,-15.312l11.25,-9.792c5.139,5.417 10.764,9.583 16.875,12.5c6.111,2.917 13.472,4.375 22.083,4.375c8.333,0 15.174,-1.493 20.521,-4.479c5.347,-2.986 8.021,-7.674 8.021,-14.062c0,-2.778 -0.521,-5.104 -1.562,-6.979c-1.042,-1.875 -2.465,-3.368 -4.271,-4.479c-1.806,-1.111 -3.819,-1.979 -6.042,-2.604c-2.222,-0.625 -4.583,-1.146 -7.083,-1.562l-16.875,-2.5c-3.75,-0.556 -7.812,-1.319 -12.188,-2.292c-4.375,-0.972 -8.368,-2.535 -11.979,-4.688c-3.611,-2.153 -6.632,-5.035 -9.062,-8.646c-2.431,-3.611 -3.646,-8.333 -3.646,-14.167c0,-5.417 1.076,-10.104 3.229,-14.062c2.153,-3.958 5.174,-7.292 9.062,-10c3.889,-2.708 8.472,-4.722 13.75,-6.042c5.278,-1.319 11.042,-1.979 17.292,-1.979c9.722,0 18.16,1.528 25.312,4.583c7.153,3.056 13.299,7.292 18.438,12.708l-10.833,10.208c-1.25,-1.528 -2.812,-3.09 -4.688,-4.688c-1.875,-1.597 -4.167,-3.056 -6.875,-4.375c-2.708,-1.319 -5.868,-2.396 -9.479,-3.229c-3.611,-0.833 -7.778,-1.25 -12.5,-1.25c-8.472,0 -14.965,1.458 -19.479,4.375c-4.514,2.917 -6.771,7.153 -6.771,12.708c0,2.778 0.521,5.104 1.562,6.979c1.042,1.875 2.465,3.368 4.271,4.479c1.806,1.111 3.854,1.979 6.146,2.604c2.292,0.625 4.618,1.146 6.979,1.562l16.875,2.5c3.889,0.556 7.986,1.319 12.292,2.292c4.306,0.972 8.264,2.535 11.875,4.688c3.611,2.153 6.632,5.035 9.062,8.646c2.431,3.611 3.646,8.333 3.646,14.167c0,10.694 -4.132,18.958 -12.396,24.792c-8.264,5.833 -19.271,8.75 -33.021,8.75Z" style="fill-rule:nonzero;"/><path d="M1738.897,590.551c-11.25,0 -20.938,-1.91 -29.062,-5.729c-8.125,-3.819 -15.035,-8.924 -20.729,-15.312l11.25,-9.792c5.139,5.417 10.764,9.583 16.875,12.5c6.111,2.917 13.472,4.375 22.083,4.375c8.333,0 15.174,-1.493 20.521,-4.479c5.347,-2.986 8.021,-7.674 8.021,-14.062c0,-2.778 -0.521,-5.104 -1.562,-6.979c-1.042,-1.875 -2.465,-3.368 -4.271,-4.479c-1.806,-1.111 -3.819,-1.979 -6.042,-2.604c-2.222,-0.625 -4.583,-1.146 -7.083,-1.562l-16.875,-2.5c-3.75,-0.556 -7.812,-1.319 -12.188,-2.292c-4.375,-0.972 -8.368,-2.535 -11.979,-4.688c-3.611,-2.153 -6.632,-5.035 -9.062,-8.646c-2.431,-3.611 -3.646,-8.333 -3.646,-14.167c0,-5.417 1.076,-10.104 3.229,-14.062c2.153,-3.958 5.174,-7.292 9.062,-10c3.889,-2.708 8.472,-4.722 13.75,-6.042c5.278,-1.319 11.042,-1.979 17.292,-1.979c9.722,0 18.16,1.528 25.312,4.583c7.153,3.056 13.299,7.292 18.438,12.708l-10.833,10.208c-1.25,-1.528 -2.812,-3.09 -4.688,-4.688c-1.875,-1.597 -4.167,-3.056 -6.875,-4.375c-2.708,-1.319 -5.868,-2.396 -9.479,-3.229c-3.611,-0.833 -7.778,-1.25 -12.5,-1.25c-8.472,0 -14.965,1.458 -19.479,4.375c-4.514,2.917 -6.771,7.153 -6.771,12.708c0,2.778 0.521,5.104 1.562,6.979c1.042,1.875 2.465,3.368 4.271,4.479c1.806,1.111 3.854,1.979 6.146,2.604c2.292,0.625 4.618,1.146 6.979,1.562l16.875,2.5c3.889,0.556 7.986,1.319 12.292,2.292c4.306,0.972 8.264,2.535 11.875,4.688c3.611,2.153 6.632,5.035 9.062,8.646c2.431,3.611 3.646,8.333 3.646,14.167c0,10.694 -4.132,18.958 -12.396,24.792c-8.264,5.833 -19.271,8.75 -33.021,8.75Z" style="fill-rule:nonzero;"/><path d="M1738.768,354.331c-11.25,0 -20.938,-1.91 -29.062,-5.729c-8.125,-3.819 -15.035,-8.924 -20.729,-15.312l11.25,-9.792c5.139,5.417 10.764,9.583 16.875,12.5c6.111,2.917 13.472,4.375 22.083,4.375c8.333,0 15.174,-1.493 20.521,-4.479c5.347,-2.986 8.021,-7.674 8.021,-14.062c0,-2.778 -0.521,-5.104 -1.562,-6.979c-1.042,-1.875 -2.465,-3.368 -4.271,-4.479c-1.806,-1.111 -3.819,-1.979 -6.042,-2.604c-2.222,-0.625 -4.583,-1.146 -7.083,-1.562l-16.875,-2.5c-3.75,-0.556 -7.812,-1.319 -12.188,-2.292c-4.375,-0.972 -8.368,-2.535 -11.979,-4.688c-3.611,-2.153 -6.632,-5.035 -9.062,-8.646c-2.431,-3.611 -3.646,-8.333 -3.646,-14.167c0,-5.417 1.076,-10.104 3.229,-14.062c2.153,-3.958 5.174,-7.292 9.062,-10c3.889,-2.708 8.472,-4.722 13.75,-6.042c5.278,-1.319 11.042,-1.979 17.292,-1.979c9.722,0 18.16,1.528 25.312,4.583c7.153,3.056 13.299,7.292 18.438,12.708l-10.833,10.208c-1.25,-1.528 -2.812,-3.09 -4.688,-4.688c-1.875,-1.597 -4.167,-3.056 -6.875,-4.375c-2.708,-1.319 -5.868,-2.396 -9.479,-3.229c-3.611,-0.833 -7.778,-1.25 -12.5,-1.25c-8.472,0 -14.965,1.458 -19.479,4.375c-4.514,2.917 -6.771,7.153 -6.771,12.708c0,2.778 0.521,5.104 1.562,6.979c1.042,1.875 2.465,3.368 4.271,4.479c1.806,1.111 3.854,1.979 6.146,2.604c2.292,0.625 4.618,1.146 6.979,1.562l16.875,2.5c3.889,0.556 7.986,1.319 12.292,2.292c4.306,0.972 8.264,2.535 11.875,4.688c3.611,2.153 6.632,5.035 9.063,8.646c2.431,3.611 3.646,8.333 3.646,14.167c0,10.694 -4.132,18.958 -12.396,24.792c-8.264,5.833 -19.271,8.75 -33.021,8.75Z" style="fill-rule:nonzero;"/><path d="M1738.897,826.772c-11.25,0 -20.938,-1.91 -29.062,-5.729c-8.125,-3.819 -15.035,-8.924 -20.729,-15.312l11.25,-9.792c5.139,5.417 10.764,9.583 16.875,12.5c6.111,2.917 13.472,4.375 22.083,4.375c8.333,0 15.174,-1.493 20.521,-4.479c5.347,-2.986 8.021,-7.674 8.021,-14.062c0,-2.778 -0.521,-5.104 -1.562,-6.979c-1.042,-1.875 -2.465,-3.368 -4.271,-4.479c-1.806,-1.111 -3.819,-1.979 -6.042,-2.604c-2.222,-0.625 -4.583,-1.146 -7.083,-1.562l-16.875,-2.5c-3.75,-0.556 -7.812,-1.319 -12.188,-2.292c-4.375,-0.972 -8.368,-2.535 -11.979,-4.688c-3.611,-2.153 -6.632,-5.035 -9.062,-8.646c-2.431,-3.611 -3.646,-8.333 -3.646,-14.167c0,-5.417 1.076,-10.104 3.229,-14.062c2.153,-3.958 5.174,-7.292 9.062,-10c3.889,-2.708 8.472,-4.722 13.75,-6.042c5.278,-1.319 11.042,-1.979 17.292,-1.979c9.722,0 18.16,1.528 25.312,4.583c7.153,3.056 13.299,7.292 18.438,12.708l-10.833,10.208c-1.25,-1.528 -2.812,-3.09 -4.688,-4.688c-1.875,-1.597 -4.167,-3.056 -6.875,-4.375c-2.708,-1.319 -5.868,-2.396 -9.479,-3.229c-3.611,-0.833 -7.778,-1.25 -12.5,-1.25c-8.472,0 -14.965,1.458 -19.479,4.375c-4.514,2.917 -6.771,7.153 -6.771,12.708c0,2.778 0.521,5.104 1.562,6.979c1.042,1.875 2.465,3.368 4.271,4.479c1.806,1.111 3.854,1.979 6.146,2.604c2.292,0.625 4.618,1.146 6.979,1.562l16.875,2.5c3.889,0.556 7.986,1.319 12.292,2.292c4.306,0.972 8.264,2.535 11.875,4.688c3.611,2.153 6.632,5.035 9.062,8.646c2.431,3.611 3.646,8.333 3.646,14.167c0,10.694 -4.132,18.958 -12.396,24.792c-8.264,5.833 -19.271,8.75 -33.021,8.75Z" style="fill-rule:nonzero;"/></g><path d="M2007.904,242.126l16.667,0l-53.333,131.042c-1.25,3.056 -2.639,5.729 -4.167,8.021c-1.528,2.292 -3.333,4.167 -5.417,5.625c-2.083,1.458 -4.583,2.569 -7.5,3.333c-2.917,0.764 -6.389,1.146 -10.417,1.146l-15.833,0l0,-14.167l25,0l12.083,-29.583l-43.333,-105.417l17.083,0l18.125,45l16.042,40.833l0.833,0l16.042,-40.833l18.125,-45Z" style="fill-rule:nonzero;"/><g><path d="M1861.946,1299.213c-8.194,0 -14.201,-2.292 -18.021,-6.875c-3.819,-4.583 -5.729,-10.486 -5.729,-17.708l0,-68.75l-35.833,0l0,-14.167l26.667,0c3.611,0 6.146,-0.729 7.604,-2.188c1.458,-1.458 2.188,-3.993 2.188,-7.604l0,-28.125l16.042,0l0,37.917l48.958,0l0,14.167l-48.958,0l0,79.167l48.958,0l0,14.167l-41.875,0Z" style="fill-rule:nonzero;"/><path d="M1861.946,1062.992c-8.194,0 -14.201,-2.292 -18.021,-6.875c-3.819,-4.583 -5.729,-10.486 -5.729,-17.708l0,-68.75l-35.833,0l0,-14.167l26.667,0c3.611,0 6.146,-0.729 7.604,-2.188c1.458,-1.458 2.188,-3.993 2.188,-7.604l0,-28.125l16.042,0l0,37.917l48.958,0l0,14.167l-48.958,0l0,79.167l48.958,0l0,14.167l-41.875,0Z" style="fill-rule:nonzero;"/><path d="M1861.946,590.551c-8.194,0 -14.201,-2.292 -18.021,-6.875c-3.819,-4.583 -5.729,-10.486 -5.729,-17.708l0,-68.75l-35.833,0l0,-14.167l26.667,0c3.611,0 6.146,-0.729 7.604,-2.188c1.458,-1.458 2.188,-3.993 2.188,-7.604l0,-28.125l16.042,0l0,37.917l48.958,0l0,14.167l-48.958,0l0,79.167l48.958,0l0,14.167l-41.875,0Z" style="fill-rule:nonzero;"/><path d="M1861.946,354.331c-8.194,0 -14.201,-2.292 -18.021,-6.875c-3.819,-4.583 -5.729,-10.486 -5.729,-17.708l0,-68.75l-35.833,0l0,-14.167l26.667,0c3.611,0 6.146,-0.729 7.604,-2.188c1.458,-1.458 2.188,-3.993 2.188,-7.604l0,-28.125l16.042,0l0,37.917l48.958,0l0,14.167l-48.958,0l0,79.167l48.958,0l0,14.167l-41.875,0Z" style="fill-rule:nonzero;"/><path d="M1861.946,826.772c-8.194,0 -14.201,-2.292 -18.021,-6.875c-3.819,-4.583 -5.729,-10.486 -5.729,-17.708l0,-68.75l-35.833,0l0,-14.167l26.667,0c3.611,0 6.146,-0.729 7.604,-2.188c1.458,-1.458 2.188,-3.993 2.188,-7.604l0,-28.125l16.042,0l0,37.917l48.958,0l0,14.167l-48.958,0l0,79.167l48.958,0l0,14.167l-41.875,0Z" style="fill-rule:nonzero;"/><path d="M1861.946,1771.654c-8.194,0 -14.201,-2.292 -18.021,-6.875c-3.819,-4.583 -5.729,-10.486 -5.729,-17.708l0,-68.75l-35.833,0l0,-14.167l26.667,0c3.611,0 6.146,-0.729 7.604,-2.188c1.458,-1.458 2.188,-3.993 2.188,-7.604l0,-28.125l16.042,0l0,37.917l48.958,0l0,14.167l-48.958,0l0,79.167l48.958,0l0,14.167l-41.875,0Z" style="fill-rule:nonzero;"/><path d="M1861.946,1535.433c-8.194,0 -14.201,-2.292 -18.021,-6.875c-3.819,-4.583 -5.729,-10.486 -5.729,-17.708l0,-68.75l-35.833,0l0,-14.167l26.667,0c3.611,0 6.146,-0.729 7.604,-2.188c1.458,-1.458 2.188,-3.993 2.188,-7.604l0,-28.125l16.042,0l0,37.917l48.958,0l0,14.167l-48.958,0l0,79.167l48.958,0l0,14.167l-41.875,0Z" style="fill-rule:nonzero;"/></g><g><path d="M614.984,590.551c-7.778,0 -14.757,-1.319 -20.938,-3.958c-6.181,-2.639 -11.458,-6.424 -15.833,-11.354c-4.375,-4.931 -7.743,-10.833 -10.104,-17.708c-2.361,-6.875 -3.542,-14.549 -3.542,-23.021c0,-8.611 1.215,-16.389 3.646,-23.333c2.431,-6.944 5.799,-12.882 10.104,-17.812c4.306,-4.931 9.479,-8.715 15.521,-11.354c6.042,-2.639 12.743,-3.958 20.104,-3.958c7.222,0 13.785,1.319 19.688,3.958c5.903,2.639 10.938,6.285 15.104,10.938c4.167,4.653 7.361,10.174 9.583,16.562c2.222,6.389 3.333,13.403 3.333,21.042l0,7.917l-79.583,0l0,5c0,4.722 0.764,9.097 2.292,13.125c1.528,4.028 3.715,7.5 6.562,10.417c2.847,2.917 6.319,5.174 10.417,6.771c4.097,1.597 8.646,2.396 13.646,2.396c7.222,0 13.472,-1.667 18.75,-5c5.278,-3.333 9.306,-7.917 12.083,-13.75l12.292,8.333c-3.194,7.222 -8.507,13.16 -15.938,17.812c-7.431,4.653 -16.493,6.979 -27.188,6.979Zm-1.042,-98.75c-4.583,0 -8.819,0.833 -12.708,2.5c-3.889,1.667 -7.257,3.958 -10.104,6.875c-2.847,2.917 -5.069,6.354 -6.667,10.312c-1.597,3.958 -2.396,8.299 -2.396,13.021l0,1.458l61.667,0l0,-2.292c0,-4.722 -0.729,-9.028 -2.188,-12.917c-1.458,-3.889 -3.472,-7.257 -6.042,-10.104c-2.569,-2.847 -5.694,-5.035 -9.375,-6.563c-3.681,-1.528 -7.743,-2.292 -12.188,-2.292Z" style="fill-rule:nonzero;"/><path d="M614.984,354.331c-7.778,0 -14.757,-1.319 -20.938,-3.958c-6.181,-2.639 -11.458,-6.424 -15.833,-11.354c-4.375,-4.931 -7.743,-10.833 -10.104,-17.708c-2.361,-6.875 -3.542,-14.549 -3.542,-23.021c0,-8.611 1.215,-16.389 3.646,-23.333c2.431,-6.944 5.799,-12.882 10.104,-17.812c4.306,-4.931 9.479,-8.715 15.521,-11.354c6.042,-2.639 12.743,-3.958 20.104,-3.958c7.222,0 13.785,1.319 19.688,3.958c5.903,2.639 10.938,6.285 15.104,10.938c4.167,4.653 7.361,10.174 9.583,16.562c2.222,6.389 3.333,13.403 3.333,21.042l0,7.917l-79.583,0l0,5c0,4.722 0.764,9.097 2.292,13.125c1.528,4.028 3.715,7.5 6.562,10.417c2.847,2.917 6.319,5.174 10.417,6.771c4.097,1.597 8.646,2.396 13.646,2.396c7.222,0 13.472,-1.667 18.75,-5c5.278,-3.333 9.306,-7.917 12.083,-13.75l12.292,8.333c-3.194,7.222 -8.507,13.16 -15.938,17.812c-7.431,4.653 -16.493,6.979 -27.188,6.979Zm-1.042,-98.75c-4.583,0 -8.819,0.833 -12.708,2.5c-3.889,1.667 -7.257,3.958 -10.104,6.875c-2.847,2.917 -5.069,6.354 -6.667,10.312c-1.597,3.958 -2.396,8.299 -2.396,13.021l0,1.458l61.667,0l0,-2.292c0,-4.722 -0.729,-9.028 -2.188,-12.917c-1.458,-3.889 -3.472,-7.257 -6.042,-10.104c-2.569,-2.847 -5.694,-5.035 -9.375,-6.563c-3.681,-1.528 -7.743,-2.292 -12.188,-2.292Z" style="fill-rule:nonzero;"/><path d="M614.984,1062.992c-7.778,0 -14.757,-1.319 -20.938,-3.958c-6.181,-2.639 -11.458,-6.424 -15.833,-11.354c-4.375,-4.931 -7.743,-10.833 -10.104,-17.708c-2.361,-6.875 -3.542,-14.549 -3.542,-23.021c0,-8.611 1.215,-16.389 3.646,-23.333c2.431,-6.944 5.799,-12.882 10.104,-17.812c4.306,-4.931 9.479,-8.715 15.521,-11.354c6.042,-2.639 12.743,-3.958 20.104,-3.958c7.222,0 13.785,1.319 19.688,3.958c5.903,2.639 10.938,6.285 15.104,10.938c4.167,4.653 7.361,10.174 9.583,16.562c2.222,6.389 3.333,13.403 3.333,21.042l0,7.917l-79.583,0l0,5c0,4.722 0.764,9.097 2.292,13.125c1.528,4.028 3.715,7.5 6.562,10.417c2.847,2.917 6.319,5.174 10.417,6.771c4.097,1.597 8.646,2.396 13.646,2.396c7.222,0 13.472,-1.667 18.75,-5c5.278,-3.333 9.306,-7.917 12.083,-13.75l12.292,8.333c-3.194,7.222 -8.507,13.16 -15.938,17.812c-7.431,4.653 -16.493,6.979 -27.188,6.979Zm-1.042,-98.75c-4.583,0 -8.819,0.833 -12.708,2.5c-3.889,1.667 -7.257,3.958 -10.104,6.875c-2.847,2.917 -5.069,6.354 -6.667,10.312c-1.597,3.958 -2.396,8.299 -2.396,13.021l0,1.458l61.667,0l0,-2.292c0,-4.722 -0.729,-9.028 -2.188,-12.917c-1.458,-3.889 -3.472,-7.257 -6.042,-10.104c-2.569,-2.847 -5.694,-5.035 -9.375,-6.562c-3.681,-1.528 -7.743,-2.292 -12.188,-2.292Z" style="fill-rule:nonzero;"/><path d="M614.984,826.772c-7.778,0 -14.757,-1.319 -20.938,-3.958c-6.181,-2.639 -11.458,-6.424 -15.833,-11.354c-4.375,-4.931 -7.743,-10.833 -10.104,-17.708c-2.361,-6.875 -3.542,-14.549 -3.542,-23.021c0,-8.611 1.215,-16.389 3.646,-23.333c2.431,-6.944 5.799,-12.882 10.104,-17.812c4.306,-4.931 9.479,-8.715 15.521,-11.354c6.042,-2.639 12.743,-3.958 20.104,-3.958c7.222,0 13.785,1.319 19.688,3.958c5.903,2.639 10.938,6.285 15.104,10.938c4.167,4.653 7.361,10.174 9.583,16.562c2.222,6.389 3.333,13.403 3.333,21.042l0,7.917l-79.583,0l0,5c0,4.722 0.764,9.097 2.292,13.125c1.528,4.028 3.715,7.5 6.562,10.417c2.847,2.917 6.319,5.174 10.417,6.771c4.097,1.597 8.646,2.396 13.646,2.396c7.222,0 13.472,-1.667 18.75,-5c5.278,-3.333 9.306,-7.917 12.083,-13.75l12.292,8.333c-3.194,7.222 -8.507,13.16 -15.938,17.812c-7.431,4.653 -16.493,6.979 -27.188,6.979Zm-1.042,-98.75c-4.583,0 -8.819,0.833 -12.708,2.5c-3.889,1.667 -7.257,3.958 -10.104,6.875c-2.847,2.917 -5.069,6.354 -6.667,10.312c-1.597,3.958 -2.396,8.299 -2.396,13.021l0,1.458l61.667,0l0,-2.292c0,-4.722 -0.729,-9.028 -2.188,-12.917c-1.458,-3.889 -3.472,-7.257 -6.042,-10.104c-2.569,-2.847 -5.694,-5.035 -9.375,-6.562c-3.681,-1.528 -7.743,-2.292 -12.188,-2.292Z" style="fill-rule:nonzero;"/><path d="M614.984,1299.213c-7.778,0 -14.757,-1.319 -20.938,-3.958c-6.181,-2.639 -11.458,-6.424 -15.833,-11.354c-4.375,-4.931 -7.743,-10.833 -10.104,-17.708c-2.361,-6.875 -3.542,-14.549 -3.542,-23.021c0,-8.611 1.215,-16.389 3.646,-23.333c2.431,-6.944 5.799,-12.882 10.104,-17.812c4.306,-4.931 9.479,-8.715 15.521,-11.354c6.042,-2.639 12.743,-3.958 20.104,-3.958c7.222,0 13.785,1.319 19.688,3.958c5.903,2.639 10.938,6.285 15.104,10.938c4.167,4.653 7.361,10.174 9.583,16.562c2.222,6.389 3.333,13.403 3.333,21.042l0,7.917l-79.583,0l0,5c0,4.722 0.764,9.097 2.292,13.125c1.528,4.028 3.715,7.5 6.562,10.417c2.847,2.917 6.319,5.174 10.417,6.771c4.097,1.597 8.646,2.396 13.646,2.396c7.222,0 13.472,-1.667 18.75,-5c5.278,-3.333 9.306,-7.917 12.083,-13.75l12.292,8.333c-3.194,7.222 -8.507,13.16 -15.938,17.812c-7.431,4.653 -16.493,6.979 -27.188,6.979Zm-1.042,-98.75c-4.583,0 -8.819,0.833 -12.708,2.5c-3.889,1.667 -7.257,3.958 -10.104,6.875c-2.847,2.917 -5.069,6.354 -6.667,10.312c-1.597,3.958 -2.396,8.299 -2.396,13.021l0,1.458l61.667,0l0,-2.292c0,-4.722 -0.729,-9.028 -2.188,-12.917c-1.458,-3.889 -3.472,-7.257 -6.042,-10.104c-2.569,-2.847 -5.694,-5.035 -9.375,-6.562c-3.681,-1.528 -7.743,-2.292 -12.188,-2.292Z" style="fill-rule:nonzero;"/><path d="M614.984,1535.433c-7.778,0 -14.757,-1.319 -20.938,-3.958c-6.181,-2.639 -11.458,-6.424 -15.833,-11.354c-4.375,-4.931 -7.743,-10.833 -10.104,-17.708c-2.361,-6.875 -3.542,-14.549 -3.542,-23.021c0,-8.611 1.215,-16.389 3.646,-23.333c2.431,-6.944 5.799,-12.882 10.104,-17.812c4.306,-4.931 9.479,-8.715 15.521,-11.354c6.042,-2.639 12.743,-3.958 20.104,-3.958c7.222,0 13.785,1.319 19.688,3.958c5.903,2.639 10.938,6.285 15.104,10.938c4.167,4.653 7.361,10.174 9.583,16.562c2.222,6.389 3.333,13.403 3.333,21.042l0,7.917l-79.583,0l0,5c0,4.722 0.764,9.097 2.292,13.125c1.528,4.028 3.715,7.5 6.562,10.417c2.847,2.917 6.319,5.174 10.417,6.771c4.097,1.597 8.646,2.396 13.646,2.396c7.222,0 13.472,-1.667 18.75,-5c5.278,-3.333 9.306,-7.917 12.083,-13.75l12.292,8.333c-3.194,7.222 -8.507,13.16 -15.938,17.812c-7.431,4.653 -16.493,6.979 -27.188,6.979Zm-1.042,-98.75c-4.583,0 -8.819,0.833 -12.708,2.5c-3.889,1.667 -7.257,3.958 -10.104,6.875c-2.847,2.917 -5.069,6.354 -6.667,10.312c-1.597,3.958 -2.396,8.299 -2.396,13.021l0,1.458l61.667,0l0,-2.292c0,-4.722 -0.729,-9.028 -2.188,-12.917c-1.458,-3.889 -3.472,-7.257 -6.042,-10.104c-2.569,-2.847 -5.694,-5.035 -9.375,-6.562c-3.681,-1.528 -7.743,-2.292 -12.188,-2.292Z" style="fill-rule:nonzero;"/><path d="M614.984,1771.654c-7.778,0 -14.757,-1.319 -20.938,-3.958c-6.181,-2.639 -11.458,-6.424 -15.833,-11.354c-4.375,-4.931 -7.743,-10.833 -10.104,-17.708c-2.361,-6.875 -3.542,-14.549 -3.542,-23.021c0,-8.611 1.215,-16.389 3.646,-23.333c2.431,-6.944 5.799,-12.882 10.104,-17.812c4.306,-4.931 9.479,-8.715 15.521,-11.354c6.042,-2.639 12.743,-3.958 20.104,-3.958c7.222,0 13.785,1.319 19.688,3.958c5.903,2.639 10.938,6.285 15.104,10.938c4.167,4.653 7.361,10.174 9.583,16.562c2.222,6.389 3.333,13.403 3.333,21.042l0,7.917l-79.583,0l0,5c0,4.722 0.764,9.097 2.292,13.125c1.528,4.028 3.715,7.5 6.562,10.417c2.847,2.917 6.319,5.174 10.417,6.771c4.097,1.597 8.646,2.396 13.646,2.396c7.222,0 13.472,-1.667 18.75,-5c5.278,-3.333 9.306,-7.917 12.083,-13.75l12.292,8.333c-3.194,7.222 -8.507,13.16 -15.938,17.812c-7.431,4.653 -16.493,6.979 -27.188,6.979Zm-1.042,-98.75c-4.583,0 -8.819,0.833 -12.708,2.5c-3.889,1.667 -7.257,3.958 -10.104,6.875c-2.847,2.917 -5.069,6.354 -6.667,10.312c-1.597,3.958 -2.396,8.299 -2.396,13.021l0,1.458l61.667,0l0,-2.292c0,-4.722 -0.729,-9.028 -2.188,-12.917c-1.458,-3.889 -3.472,-7.257 -6.042,-10.104c-2.569,-2.847 -5.694,-5.035 -9.375,-6.562c-3.681,-1.528 -7.743,-2.292 -12.188,-2.292Z" style="fill-rule:nonzero;"/></g><g><path d="M1122.047,590.551l0,-107.5l15.417,0l0,12.5l0.833,0c1.667,-4.167 4.028,-7.708 7.083,-10.625c3.056,-2.917 7.569,-4.375 13.542,-4.375c6.25,0 10.903,1.562 13.958,4.688c3.056,3.125 4.931,7.188 5.625,12.188l0.625,0c1.944,-4.861 4.722,-8.889 8.333,-12.083c3.611,-3.194 8.611,-4.792 15,-4.792c8.75,0 14.618,3.056 17.604,9.167c2.986,6.111 4.479,14.861 4.479,26.25l0,74.583l-15.417,0l0,-71.875c0,-9.167 -0.938,-15.521 -2.812,-19.062c-1.875,-3.542 -5.312,-5.312 -10.312,-5.312c-4.444,0 -8.056,1.424 -10.833,4.271c-2.778,2.847 -4.167,7.188 -4.167,13.021l0,78.958l-15.417,0l0,-71.875c0,-9.167 -0.938,-15.521 -2.812,-19.062c-1.875,-3.542 -5.243,-5.312 -10.104,-5.312c-4.444,0 -8.09,1.424 -10.938,4.271c-2.847,2.847 -4.271,7.188 -4.271,13.021l0,78.958l-15.417,0Z" style="fill-rule:nonzero;"/><path d="M1122.047,354.331l0,-107.5l15.417,0l0,12.5l0.833,0c1.667,-4.167 4.028,-7.708 7.083,-10.625c3.056,-2.917 7.569,-4.375 13.542,-4.375c6.25,0 10.903,1.562 13.958,4.688c3.056,3.125 4.931,7.188 5.625,12.188l0.625,0c1.944,-4.861 4.722,-8.889 8.333,-12.083c3.611,-3.194 8.611,-4.792 15,-4.792c8.75,0 14.618,3.056 17.604,9.167c2.986,6.111 4.479,14.861 4.479,26.25l0,74.583l-15.417,0l0,-71.875c0,-9.167 -0.938,-15.521 -2.812,-19.062c-1.875,-3.542 -5.312,-5.312 -10.312,-5.312c-4.444,0 -8.056,1.424 -10.833,4.271c-2.778,2.847 -4.167,7.188 -4.167,13.021l0,78.958l-15.417,0l0,-71.875c0,-9.167 -0.938,-15.521 -2.812,-19.062c-1.875,-3.542 -5.243,-5.312 -10.104,-5.312c-4.444,0 -8.09,1.424 -10.938,4.271c-2.847,2.847 -4.271,7.188 -4.271,13.021l0,78.958l-15.417,0Z" style="fill-rule:nonzero;"/></g><g><path d="M207.485,588.051c-6.528,0 -11.181,-1.667 -13.958,-5c-2.778,-3.333 -4.514,-7.5 -5.208,-12.5l-1.042,0c-2.361,6.25 -6.146,11.146 -11.354,14.688c-5.208,3.542 -12.188,5.312 -20.938,5.312c-11.25,0 -20.208,-2.917 -26.875,-8.75c-6.667,-5.833 -10,-13.819 -10,-23.958c0,-10 3.646,-17.708 10.938,-23.125c7.292,-5.417 19.062,-8.125 35.312,-8.125l22.917,0l0,-10.625c-0,-7.917 -2.222,-13.854 -6.667,-17.812c-4.444,-3.958 -10.764,-5.938 -18.958,-5.938c-7.222,0 -13.125,1.424 -17.708,4.271c-4.583,2.847 -8.264,6.701 -11.042,11.562l-11.25,-8.333c1.389,-2.778 3.264,-5.486 5.625,-8.125c2.361,-2.639 5.278,-4.965 8.75,-6.979c3.472,-2.014 7.431,-3.611 11.875,-4.792c4.444,-1.181 9.375,-1.771 14.792,-1.771c12.639,0 22.674,3.194 30.104,9.583c7.431,6.389 11.146,15.278 11.146,26.667l0,59.167l15,0l0,14.583l-11.458,0Zm-49.583,-11.458c4.306,0 8.229,-0.521 11.771,-1.562c3.542,-1.042 6.632,-2.431 9.271,-4.167c2.639,-1.736 4.688,-3.819 6.146,-6.25c1.458,-2.431 2.187,-5.035 2.188,-7.812l0,-17.708l-22.917,0c-10,0 -17.292,1.389 -21.875,4.167c-4.583,2.778 -6.875,6.806 -6.875,12.083l0,4.375c0,5.556 1.979,9.757 5.938,12.604c3.958,2.847 9.41,4.271 16.354,4.271Z" style="fill-rule:nonzero;"/><path d="M207.485,351.831c-6.528,0 -11.181,-1.667 -13.958,-5c-2.778,-3.333 -4.514,-7.5 -5.208,-12.5l-1.042,0c-2.361,6.25 -6.146,11.146 -11.354,14.688c-5.208,3.542 -12.188,5.312 -20.938,5.312c-11.25,0 -20.208,-2.917 -26.875,-8.75c-6.667,-5.833 -10,-13.819 -10,-23.958c0,-10 3.646,-17.708 10.938,-23.125c7.292,-5.417 19.062,-8.125 35.312,-8.125l22.917,0l0,-10.625c-0,-7.917 -2.222,-13.854 -6.667,-17.812c-4.444,-3.958 -10.764,-5.937 -18.958,-5.937c-7.222,0 -13.125,1.424 -17.708,4.271c-4.583,2.847 -8.264,6.701 -11.042,11.562l-11.25,-8.333c1.389,-2.778 3.264,-5.486 5.625,-8.125c2.361,-2.639 5.278,-4.965 8.75,-6.979c3.472,-2.014 7.431,-3.611 11.875,-4.792c4.444,-1.181 9.375,-1.771 14.792,-1.771c12.639,0 22.674,3.194 30.104,9.583c7.431,6.389 11.146,15.278 11.146,26.667l0,59.167l15,0l0,14.583l-11.458,0Zm-49.583,-11.458c4.306,0 8.229,-0.521 11.771,-1.562c3.542,-1.042 6.632,-2.431 9.271,-4.167c2.639,-1.736 4.688,-3.819 6.146,-6.25c1.458,-2.431 2.187,-5.035 2.188,-7.812l0,-17.708l-22.917,0c-10,0 -17.292,1.389 -21.875,4.167c-4.583,2.778 -6.875,6.806 -6.875,12.083l0,4.375c0,5.556 1.979,9.757 5.938,12.604c3.958,2.847 9.41,4.271 16.354,4.271Z" style="fill-rule:nonzero;"/><path d="M207.485,824.272c-6.528,0 -11.181,-1.667 -13.958,-5c-2.778,-3.333 -4.514,-7.5 -5.208,-12.5l-1.042,0c-2.361,6.25 -6.146,11.146 -11.354,14.688c-5.208,3.542 -12.188,5.312 -20.938,5.312c-11.25,0 -20.208,-2.917 -26.875,-8.75c-6.667,-5.833 -10,-13.819 -10,-23.958c0,-10 3.646,-17.708 10.938,-23.125c7.292,-5.417 19.062,-8.125 35.312,-8.125l22.917,0l0,-10.625c-0,-7.917 -2.222,-13.854 -6.667,-17.812c-4.444,-3.958 -10.764,-5.938 -18.958,-5.938c-7.222,0 -13.125,1.424 -17.708,4.271c-4.583,2.847 -8.264,6.701 -11.042,11.562l-11.25,-8.333c1.389,-2.778 3.264,-5.486 5.625,-8.125c2.361,-2.639 5.278,-4.965 8.75,-6.979c3.472,-2.014 7.431,-3.611 11.875,-4.792c4.444,-1.181 9.375,-1.771 14.792,-1.771c12.639,0 22.674,3.194 30.104,9.583c7.431,6.389 11.146,15.278 11.146,26.667l0,59.167l15,0l0,14.583l-11.458,0Zm-49.583,-11.458c4.306,0 8.229,-0.521 11.771,-1.562c3.542,-1.042 6.632,-2.431 9.271,-4.167c2.639,-1.736 4.688,-3.819 6.146,-6.25c1.458,-2.431 2.187,-5.035 2.188,-7.812l0,-17.708l-22.917,0c-10,0 -17.292,1.389 -21.875,4.167c-4.583,2.778 -6.875,6.806 -6.875,12.083l0,4.375c0,5.556 1.979,9.757 5.938,12.604c3.958,2.847 9.41,4.271 16.354,4.271Z" style="fill-rule:nonzero;"/></g><g><path d="M949.446,223.081c-4.861,0 -8.264,-1.007 -10.208,-3.021c-1.944,-2.014 -2.917,-4.549 -2.917,-7.604l0,-3.333c0,-3.056 0.972,-5.59 2.917,-7.604c1.944,-2.014 5.347,-3.021 10.208,-3.021c4.861,0 8.264,1.007 10.208,3.021c1.944,2.014 2.917,4.549 2.917,7.604l0,3.333c0,3.056 -0.972,5.59 -2.917,7.604c-1.944,2.014 -5.347,3.021 -10.208,3.021Zm-47.083,117.083l38.75,0l0,-79.167l-38.75,0l0,-14.167l55.417,0l0,93.333l36.25,0l0,14.167l-91.667,0l0,-14.167Z" style="fill-rule:nonzero;"/><path d="M949.446,459.301c-4.861,0 -8.264,-1.007 -10.208,-3.021c-1.944,-2.014 -2.917,-4.549 -2.917,-7.604l0,-3.333c0,-3.056 0.972,-5.59 2.917,-7.604c1.944,-2.014 5.347,-3.021 10.208,-3.021c4.861,0 8.264,1.007 10.208,3.021c1.944,2.014 2.917,4.549 2.917,7.604l0,3.333c0,3.056 -0.972,5.59 -2.917,7.604c-1.944,2.014 -5.347,3.021 -10.208,3.021Zm-47.083,117.083l38.75,0l0,-79.167l-38.75,0l0,-14.167l55.417,0l0,93.333l36.25,0l0,14.167l-91.667,0l0,-14.167Z" style="fill-rule:nonzero;"/><path d="M949.446,695.522c-4.861,0 -8.264,-1.007 -10.208,-3.021c-1.944,-2.014 -2.917,-4.549 -2.917,-7.604l0,-3.333c0,-3.056 0.972,-5.59 2.917,-7.604c1.944,-2.014 5.347,-3.021 10.208,-3.021c4.861,0 8.264,1.007 10.208,3.021c1.944,2.014 2.917,4.549 2.917,7.604l0,3.333c0,3.056 -0.972,5.59 -2.917,7.604c-1.944,2.014 -5.347,3.021 -10.208,3.021Zm-47.083,117.083l38.75,0l0,-79.167l-38.75,0l0,-14.167l55.417,0l0,93.333l36.25,0l0,14.167l-91.667,0l0,-14.167Z" style="fill-rule:nonzero;"/><path d="M949.446,931.742c-4.861,0 -8.264,-1.007 -10.208,-3.021c-1.944,-2.014 -2.917,-4.549 -2.917,-7.604l0,-3.333c0,-3.056 0.972,-5.59 2.917,-7.604c1.944,-2.014 5.347,-3.021 10.208,-3.021c4.861,0 8.264,1.007 10.208,3.021c1.944,2.014 2.917,4.549 2.917,7.604l0,3.333c0,3.056 -0.972,5.59 -2.917,7.604c-1.944,2.014 -5.347,3.021 -10.208,3.021Zm-47.083,117.083l38.75,0l0,-79.167l-38.75,0l0,-14.167l55.417,0l0,93.333l36.25,0l0,14.167l-91.667,0l0,-14.167Z" style="fill-rule:nonzero;"/></g><g><path d="M395.404,354.331c-7.778,0 -14.688,-1.354 -20.729,-4.062c-6.042,-2.708 -11.146,-6.493 -15.312,-11.354c-4.167,-4.861 -7.326,-10.764 -9.479,-17.708c-2.153,-6.944 -3.229,-14.653 -3.229,-23.125c0,-8.472 1.111,-16.181 3.333,-23.125c2.222,-6.944 5.417,-12.882 9.583,-17.812c4.167,-4.931 9.236,-8.715 15.208,-11.354c5.972,-2.639 12.778,-3.958 20.417,-3.958c10.417,0 18.889,2.292 25.417,6.875c6.528,4.583 11.319,10.556 14.375,17.917l-13.333,7.083c-1.944,-5.556 -5.174,-9.861 -9.688,-12.917c-4.514,-3.056 -10.104,-4.583 -16.771,-4.583c-4.861,0 -9.201,0.799 -13.021,2.396c-3.819,1.597 -7.049,3.854 -9.688,6.771c-2.639,2.917 -4.618,6.389 -5.938,10.417c-1.319,4.028 -1.979,8.403 -1.979,13.125l0,18.333c0,4.722 0.66,9.097 1.979,13.125c1.319,4.028 3.299,7.5 5.938,10.417c2.639,2.917 5.903,5.174 9.792,6.771c3.889,1.597 8.333,2.396 13.333,2.396c7.222,0 13.194,-1.667 17.917,-5c4.722,-3.333 8.472,-7.917 11.25,-13.75l11.875,8.125c-3.194,7.222 -8.16,13.194 -14.896,17.917c-6.736,4.722 -15.521,7.083 -26.354,7.083Z" style="fill-rule:nonzero;"/><path d="M395.404,590.551c-7.778,0 -14.688,-1.354 -20.729,-4.062c-6.042,-2.708 -11.146,-6.493 -15.312,-11.354c-4.167,-4.861 -7.326,-10.764 -9.479,-17.708c-2.153,-6.944 -3.229,-14.653 -3.229,-23.125c0,-8.472 1.111,-16.181 3.333,-23.125c2.222,-6.944 5.417,-12.882 9.583,-17.812c4.167,-4.931 9.236,-8.715 15.208,-11.354c5.972,-2.639 12.778,-3.958 20.417,-3.958c10.417,0 18.889,2.292 25.417,6.875c6.528,4.583 11.319,10.556 14.375,17.917l-13.333,7.083c-1.944,-5.556 -5.174,-9.861 -9.688,-12.917c-4.514,-3.056 -10.104,-4.583 -16.771,-4.583c-4.861,0 -9.201,0.799 -13.021,2.396c-3.819,1.597 -7.049,3.854 -9.688,6.771c-2.639,2.917 -4.618,6.389 -5.938,10.417c-1.319,4.028 -1.979,8.403 -1.979,13.125l0,18.333c0,4.722 0.66,9.097 1.979,13.125c1.319,4.028 3.299,7.5 5.938,10.417c2.639,2.917 5.903,5.174 9.792,6.771c3.889,1.597 8.333,2.396 13.333,2.396c7.222,0 13.194,-1.667 17.917,-5c4.722,-3.333 8.472,-7.917 11.25,-13.75l11.875,8.125c-3.194,7.222 -8.16,13.194 -14.896,17.917c-6.736,4.722 -15.521,7.083 -26.354,7.083Z" style="fill-rule:nonzero;"/><path d="M395.404,826.772c-7.778,0 -14.688,-1.354 -20.729,-4.062c-6.042,-2.708 -11.146,-6.493 -15.312,-11.354c-4.167,-4.861 -7.326,-10.764 -9.479,-17.708c-2.153,-6.944 -3.229,-14.653 -3.229,-23.125c0,-8.472 1.111,-16.181 3.333,-23.125c2.222,-6.944 5.417,-12.882 9.583,-17.812c4.167,-4.931 9.236,-8.715 15.208,-11.354c5.972,-2.639 12.778,-3.958 20.417,-3.958c10.417,0 18.889,2.292 25.417,6.875c6.528,4.583 11.319,10.556 14.375,17.917l-13.333,7.083c-1.944,-5.556 -5.174,-9.861 -9.688,-12.917c-4.514,-3.056 -10.104,-4.583 -16.771,-4.583c-4.861,0 -9.201,0.799 -13.021,2.396c-3.819,1.597 -7.049,3.854 -9.688,6.771c-2.639,2.917 -4.618,6.389 -5.938,10.417c-1.319,4.028 -1.979,8.403 -1.979,13.125l0,18.333c0,4.722 0.66,9.097 1.979,13.125c1.319,4.028 3.299,7.5 5.938,10.417c2.639,2.917 5.903,5.174 9.792,6.771c3.889,1.597 8.333,2.396 13.333,2.396c7.222,0 13.194,-1.667 17.917,-5c4.722,-3.333 8.472,-7.917 11.25,-13.75l11.875,8.125c-3.194,7.222 -8.16,13.194 -14.896,17.917c-6.736,4.722 -15.521,7.083 -26.354,7.083Z" style="fill-rule:nonzero;"/></g><g><path d="M799.229,436.385l16.667,0l0,64.167l0.833,0c1.111,-2.639 2.5,-5.174 4.167,-7.604c1.667,-2.431 3.715,-4.549 6.146,-6.354c2.431,-1.806 5.312,-3.264 8.646,-4.375c3.333,-1.111 7.222,-1.667 11.667,-1.667c11.25,0 20.278,3.576 27.083,10.729c6.806,7.153 10.208,17.257 10.208,30.312l0,68.958l-16.667,0l0,-66.042c0,-9.861 -2.153,-17.188 -6.458,-21.979c-4.306,-4.792 -10.625,-7.188 -18.958,-7.188c-3.333,0 -6.597,0.417 -9.792,1.25c-3.194,0.833 -6.042,2.083 -8.542,3.75c-2.5,1.667 -4.514,3.819 -6.042,6.458c-1.528,2.639 -2.292,5.694 -2.292,9.167l0,74.583l-16.667,0l0,-154.167Z" style="fill-rule:nonzero;"/><path d="M799.229,200.164l16.667,0l0,64.167l0.833,0c1.111,-2.639 2.5,-5.174 4.167,-7.604c1.667,-2.431 3.715,-4.549 6.146,-6.354c2.431,-1.806 5.312,-3.264 8.646,-4.375c3.333,-1.111 7.222,-1.667 11.667,-1.667c11.25,0 20.278,3.576 27.083,10.729c6.806,7.153 10.208,17.257 10.208,30.312l0,68.958l-16.667,0l0,-66.042c0,-9.861 -2.153,-17.188 -6.458,-21.979c-4.306,-4.792 -10.625,-7.188 -18.958,-7.188c-3.333,0 -6.597,0.417 -9.792,1.25c-3.194,0.833 -6.042,2.083 -8.542,3.75c-2.5,1.667 -4.514,3.819 -6.042,6.458c-1.528,2.639 -2.292,5.694 -2.292,9.167l0,74.583l-16.667,0l0,-154.167Z" style="fill-rule:nonzero;"/><path d="M799.229,672.605l16.667,0l0,64.167l0.833,0c1.111,-2.639 2.5,-5.174 4.167,-7.604c1.667,-2.431 3.715,-4.549 6.146,-6.354c2.431,-1.806 5.312,-3.264 8.646,-4.375c3.333,-1.111 7.222,-1.667 11.667,-1.667c11.25,0 20.278,3.576 27.083,10.729c6.806,7.153 10.208,17.257 10.208,30.312l0,68.958l-16.667,0l0,-66.042c0,-9.861 -2.153,-17.188 -6.458,-21.979c-4.306,-4.792 -10.625,-7.188 -18.958,-7.188c-3.333,0 -6.597,0.417 -9.792,1.25c-3.194,0.833 -6.042,2.083 -8.542,3.75c-2.5,1.667 -4.514,3.819 -6.042,6.458c-1.528,2.639 -2.292,5.694 -2.292,9.167l0,74.583l-16.667,0l0,-154.167Z" style="fill-rule:nonzero;"/><path d="M799.229,908.825l16.667,0l0,64.167l0.833,0c1.111,-2.639 2.5,-5.174 4.167,-7.604c1.667,-2.431 3.715,-4.549 6.146,-6.354c2.431,-1.806 5.312,-3.264 8.646,-4.375c3.333,-1.111 7.222,-1.667 11.667,-1.667c11.25,0 20.278,3.576 27.083,10.729c6.806,7.153 10.208,17.257 10.208,30.312l0,68.958l-16.667,0l0,-66.042c0,-9.861 -2.153,-17.188 -6.458,-21.979c-4.306,-4.792 -10.625,-7.188 -18.958,-7.188c-3.333,0 -6.597,0.417 -9.792,1.25c-3.194,0.833 -6.042,2.083 -8.542,3.75c-2.5,1.667 -4.514,3.819 -6.042,6.458c-1.528,2.639 -2.292,5.694 -2.292,9.167l0,74.583l-16.667,0l0,-154.167Z" style="fill-rule:nonzero;"/></g><g><path d="M236.22,433.885l16.667,0l0,64.167l0.833,0c6.944,-13.333 17.986,-20 33.125,-20c13.194,0 23.507,4.931 30.938,14.792c7.431,9.861 11.146,23.681 11.146,41.458c0,17.778 -3.715,31.597 -11.146,41.458c-7.431,9.861 -17.743,14.792 -30.938,14.792c-15.139,0 -26.181,-6.667 -33.125,-20l-0.833,0l0,17.5l-16.667,0l0,-154.167Zm44.167,141.875c9.722,0 17.257,-2.951 22.604,-8.854c5.347,-5.903 8.021,-13.715 8.021,-23.438l0,-18.333c0,-9.722 -2.674,-17.535 -8.021,-23.438c-5.347,-5.903 -12.882,-8.854 -22.604,-8.854c-3.75,0 -7.292,0.486 -10.625,1.458c-3.333,0.972 -6.25,2.396 -8.75,4.271c-2.5,1.875 -4.479,4.167 -5.937,6.875c-1.458,2.708 -2.188,5.868 -2.188,9.479l0,38.75c0,3.611 0.729,6.771 2.188,9.479c1.458,2.708 3.437,5 5.937,6.875c2.5,1.875 5.417,3.299 8.75,4.271c3.333,0.972 6.875,1.458 10.625,1.458Z" style="fill-rule:nonzero;"/><path d="M236.22,197.664l16.667,0l0,64.167l0.833,0c6.944,-13.333 17.986,-20 33.125,-20c13.194,0 23.507,4.931 30.938,14.792c7.431,9.861 11.146,23.681 11.146,41.458c0,17.778 -3.715,31.597 -11.146,41.458c-7.431,9.861 -17.743,14.792 -30.938,14.792c-15.139,0 -26.181,-6.667 -33.125,-20l-0.833,0l0,17.5l-16.667,0l0,-154.167Zm44.167,141.875c9.722,0 17.257,-2.951 22.604,-8.854c5.347,-5.903 8.021,-13.715 8.021,-23.438l0,-18.333c0,-9.722 -2.674,-17.535 -8.021,-23.438c-5.347,-5.903 -12.882,-8.854 -22.604,-8.854c-3.75,0 -7.292,0.486 -10.625,1.458c-3.333,0.972 -6.25,2.396 -8.75,4.271c-2.5,1.875 -4.479,4.167 -5.937,6.875c-1.458,2.708 -2.188,5.868 -2.188,9.479l0,38.75c0,3.611 0.729,6.771 2.188,9.479c1.458,2.708 3.437,5 5.937,6.875c2.5,1.875 5.417,3.299 8.75,4.271c3.333,0.972 6.875,1.458 10.625,1.458Z" style="fill-rule:nonzero;"/></g><g><path d="M782.051,376.501c0,10.833 -4.514,18.854 -13.542,24.062c-9.028,5.208 -22.569,7.812 -40.625,7.812c-17.361,0 -29.826,-2.292 -37.396,-6.875c-7.569,-4.583 -11.354,-11.181 -11.354,-19.792c0,-5.833 1.528,-10.347 4.583,-13.542c3.056,-3.194 7.361,-5.556 12.917,-7.083l0,-2.5c-3.056,-1.528 -5.417,-3.472 -7.083,-5.833c-1.667,-2.361 -2.5,-5.347 -2.5,-8.958c0,-5.556 1.84,-9.722 5.521,-12.5c3.681,-2.778 8.299,-4.861 13.854,-6.25l0,-0.833c-6.667,-2.917 -11.84,-7.222 -15.521,-12.917c-3.681,-5.694 -5.521,-12.361 -5.521,-20c0,-5.417 0.972,-10.417 2.917,-15c1.944,-4.583 4.757,-8.507 8.438,-11.771c3.681,-3.264 8.09,-5.799 13.229,-7.604c5.139,-1.806 10.833,-2.708 17.083,-2.708c8.056,0 15.139,1.458 21.25,4.375l0,-1.875c0,-4.167 0.972,-7.639 2.917,-10.417c1.944,-2.778 5.278,-4.167 10,-4.167l19.792,0l0,14.583l-24.167,0l0,7.292c3.889,3.333 6.875,7.292 8.958,11.875c2.083,4.583 3.125,9.722 3.125,15.417c0,5.417 -1.007,10.417 -3.021,15c-2.014,4.583 -4.826,8.507 -8.438,11.771c-3.611,3.264 -8.021,5.799 -13.229,7.604c-5.208,1.806 -10.938,2.708 -17.188,2.708c-1.806,0 -3.542,-0.069 -5.208,-0.208c-1.667,-0.139 -3.333,-0.347 -5,-0.625c-1.667,0.278 -3.403,0.729 -5.208,1.354c-1.806,0.625 -3.472,1.458 -5,2.5c-1.528,1.042 -2.778,2.257 -3.75,3.646c-0.972,1.389 -1.458,2.986 -1.458,4.792c0,3.194 1.597,5.312 4.792,6.354c3.194,1.042 7.361,1.562 12.5,1.562l23.75,0c13.889,0 23.958,2.604 30.208,7.812c6.25,5.208 9.375,12.188 9.375,20.938Zm-15.625,0.833c0,-4.306 -1.736,-7.743 -5.208,-10.312c-3.472,-2.569 -9.514,-3.854 -18.125,-3.854l-37.292,0c-7.222,2.917 -10.833,7.778 -10.833,14.583c0,4.722 1.875,8.785 5.625,12.188c3.75,3.403 10,5.104 18.75,5.104l16.25,0c9.722,0 17.292,-1.493 22.708,-4.479c5.417,-2.986 8.125,-7.396 8.125,-13.229Zm-39.375,-61.875c8.333,0 14.479,-1.944 18.438,-5.833c3.958,-3.889 5.938,-9.028 5.938,-15.417l0,-6.042c0,-6.389 -1.979,-11.493 -5.938,-15.312c-3.958,-3.819 -10.104,-5.729 -18.438,-5.729c-8.333,0 -14.444,1.91 -18.333,5.729c-3.889,3.819 -5.833,8.924 -5.833,15.312l0,6.042c0,6.389 1.944,11.528 5.833,15.417c3.889,3.889 10,5.833 18.333,5.833Z" style="fill-rule:nonzero;"/><path d="M782.051,848.942c0,10.833 -4.514,18.854 -13.542,24.062c-9.028,5.208 -22.569,7.812 -40.625,7.812c-17.361,0 -29.826,-2.292 -37.396,-6.875c-7.569,-4.583 -11.354,-11.181 -11.354,-19.792c0,-5.833 1.528,-10.347 4.583,-13.542c3.056,-3.194 7.361,-5.556 12.917,-7.083l0,-2.5c-3.056,-1.528 -5.417,-3.472 -7.083,-5.833c-1.667,-2.361 -2.5,-5.347 -2.5,-8.958c0,-5.556 1.84,-9.722 5.521,-12.5c3.681,-2.778 8.299,-4.861 13.854,-6.25l0,-0.833c-6.667,-2.917 -11.84,-7.222 -15.521,-12.917c-3.681,-5.694 -5.521,-12.361 -5.521,-20c0,-5.417 0.972,-10.417 2.917,-15c1.944,-4.583 4.757,-8.507 8.438,-11.771c3.681,-3.264 8.09,-5.799 13.229,-7.604c5.139,-1.806 10.833,-2.708 17.083,-2.708c8.056,0 15.139,1.458 21.25,4.375l0,-1.875c0,-4.167 0.972,-7.639 2.917,-10.417c1.944,-2.778 5.278,-4.167 10,-4.167l19.792,0l0,14.583l-24.167,0l0,7.292c3.889,3.333 6.875,7.292 8.958,11.875c2.083,4.583 3.125,9.722 3.125,15.417c0,5.417 -1.007,10.417 -3.021,15c-2.014,4.583 -4.826,8.507 -8.438,11.771c-3.611,3.264 -8.021,5.799 -13.229,7.604c-5.208,1.806 -10.938,2.708 -17.188,2.708c-1.806,0 -3.542,-0.069 -5.208,-0.208c-1.667,-0.139 -3.333,-0.347 -5,-0.625c-1.667,0.278 -3.403,0.729 -5.208,1.354c-1.806,0.625 -3.472,1.458 -5,2.5c-1.528,1.042 -2.778,2.257 -3.75,3.646c-0.972,1.389 -1.458,2.986 -1.458,4.792c0,3.194 1.597,5.312 4.792,6.354c3.194,1.042 7.361,1.562 12.5,1.562l23.75,0c13.889,0 23.958,2.604 30.208,7.812c6.25,5.208 9.375,12.188 9.375,20.938Zm-15.625,0.833c0,-4.306 -1.736,-7.743 -5.208,-10.312c-3.472,-2.569 -9.514,-3.854 -18.125,-3.854l-37.292,0c-7.222,2.917 -10.833,7.778 -10.833,14.583c0,4.722 1.875,8.785 5.625,12.188c3.75,3.403 10,5.104 18.75,5.104l16.25,0c9.722,0 17.292,-1.493 22.708,-4.479c5.417,-2.986 8.125,-7.396 8.125,-13.229Zm-39.375,-61.875c8.333,0 14.479,-1.944 18.438,-5.833c3.958,-3.889 5.938,-9.028 5.938,-15.417l0,-6.042c0,-6.389 -1.979,-11.493 -5.938,-15.312c-3.958,-3.819 -10.104,-5.729 -18.438,-5.729c-8.333,0 -14.444,1.91 -18.333,5.729c-3.889,3.819 -5.833,8.924 -5.833,15.312l0,6.042c0,6.389 1.944,11.528 5.833,15.417c3.889,3.889 10,5.833 18.333,5.833Z" style="fill-rule:nonzero;"/><path d="M782.051,1085.162c0,10.833 -4.514,18.854 -13.542,24.062c-9.028,5.208 -22.569,7.812 -40.625,7.812c-17.361,0 -29.826,-2.292 -37.396,-6.875c-7.569,-4.583 -11.354,-11.181 -11.354,-19.792c0,-5.833 1.528,-10.347 4.583,-13.542c3.056,-3.194 7.361,-5.556 12.917,-7.083l0,-2.5c-3.056,-1.528 -5.417,-3.472 -7.083,-5.833c-1.667,-2.361 -2.5,-5.347 -2.5,-8.958c0,-5.556 1.84,-9.722 5.521,-12.5c3.681,-2.778 8.299,-4.861 13.854,-6.25l0,-0.833c-6.667,-2.917 -11.84,-7.222 -15.521,-12.917c-3.681,-5.694 -5.521,-12.361 -5.521,-20c0,-5.417 0.972,-10.417 2.917,-15c1.944,-4.583 4.757,-8.507 8.438,-11.771c3.681,-3.264 8.09,-5.799 13.229,-7.604c5.139,-1.806 10.833,-2.708 17.083,-2.708c8.056,0 15.139,1.458 21.25,4.375l0,-1.875c0,-4.167 0.972,-7.639 2.917,-10.417c1.944,-2.778 5.278,-4.167 10,-4.167l19.792,0l0,14.583l-24.167,0l0,7.292c3.889,3.333 6.875,7.292 8.958,11.875c2.083,4.583 3.125,9.722 3.125,15.417c0,5.417 -1.007,10.417 -3.021,15c-2.014,4.583 -4.826,8.507 -8.438,11.771c-3.611,3.264 -8.021,5.799 -13.229,7.604c-5.208,1.806 -10.938,2.708 -17.188,2.708c-1.806,0 -3.542,-0.069 -5.208,-0.208c-1.667,-0.139 -3.333,-0.347 -5,-0.625c-1.667,0.278 -3.403,0.729 -5.208,1.354c-1.806,0.625 -3.472,1.458 -5,2.5c-1.528,1.042 -2.778,2.257 -3.75,3.646c-0.972,1.389 -1.458,2.986 -1.458,4.792c0,3.194 1.597,5.312 4.792,6.354c3.194,1.042 7.361,1.562 12.5,1.562l23.75,0c13.889,0 23.958,2.604 30.208,7.812c6.25,5.208 9.375,12.188 9.375,20.938Zm-15.625,0.833c0,-4.306 -1.736,-7.743 -5.208,-10.312c-3.472,-2.569 -9.514,-3.854 -18.125,-3.854l-37.292,0c-7.222,2.917 -10.833,7.778 -10.833,14.583c0,4.722 1.875,8.785 5.625,12.188c3.75,3.403 10,5.104 18.75,5.104l16.25,0c9.722,0 17.292,-1.493 22.708,-4.479c5.417,-2.986 8.125,-7.396 8.125,-13.229Zm-39.375,-61.875c8.333,0 14.479,-1.944 18.438,-5.833c3.958,-3.889 5.938,-9.028 5.938,-15.417l0,-6.042c0,-6.389 -1.979,-11.493 -5.938,-15.312c-3.958,-3.819 -10.104,-5.729 -18.438,-5.729c-8.333,0 -14.444,1.91 -18.333,5.729c-3.889,3.819 -5.833,8.924 -5.833,15.312l0,6.042c0,6.389 1.944,11.528 5.833,15.417c3.889,3.889 10,5.833 18.333,5.833Z" style="fill-rule:nonzero;"/><path d="M782.051,612.721c0,10.833 -4.514,18.854 -13.542,24.062c-9.028,5.208 -22.569,7.812 -40.625,7.812c-17.361,0 -29.826,-2.292 -37.396,-6.875c-7.569,-4.583 -11.354,-11.181 -11.354,-19.792c0,-5.833 1.528,-10.347 4.583,-13.542c3.056,-3.194 7.361,-5.556 12.917,-7.083l0,-2.5c-3.056,-1.528 -5.417,-3.472 -7.083,-5.833c-1.667,-2.361 -2.5,-5.347 -2.5,-8.958c0,-5.556 1.84,-9.722 5.521,-12.5c3.681,-2.778 8.299,-4.861 13.854,-6.25l0,-0.833c-6.667,-2.917 -11.84,-7.222 -15.521,-12.917c-3.681,-5.694 -5.521,-12.361 -5.521,-20c0,-5.417 0.972,-10.417 2.917,-15c1.944,-4.583 4.757,-8.507 8.438,-11.771c3.681,-3.264 8.09,-5.799 13.229,-7.604c5.139,-1.806 10.833,-2.708 17.083,-2.708c8.056,0 15.139,1.458 21.25,4.375l0,-1.875c0,-4.167 0.972,-7.639 2.917,-10.417c1.944,-2.778 5.278,-4.167 10,-4.167l19.792,0l0,14.583l-24.167,0l0,7.292c3.889,3.333 6.875,7.292 8.958,11.875c2.083,4.583 3.125,9.722 3.125,15.417c0,5.417 -1.007,10.417 -3.021,15c-2.014,4.583 -4.826,8.507 -8.438,11.771c-3.611,3.264 -8.021,5.799 -13.229,7.604c-5.208,1.806 -10.938,2.708 -17.188,2.708c-1.806,0 -3.542,-0.069 -5.208,-0.208c-1.667,-0.139 -3.333,-0.347 -5,-0.625c-1.667,0.278 -3.403,0.729 -5.208,1.354c-1.806,0.625 -3.472,1.458 -5,2.5c-1.528,1.042 -2.778,2.257 -3.75,3.646c-0.972,1.389 -1.458,2.986 -1.458,4.792c0,3.194 1.597,5.312 4.792,6.354c3.194,1.042 7.361,1.562 12.5,1.562l23.75,0c13.889,0 23.958,2.604 30.208,7.812c6.25,5.208 9.375,12.188 9.375,20.938Zm-15.625,0.833c0,-4.306 -1.736,-7.743 -5.208,-10.312c-3.472,-2.569 -9.514,-3.854 -18.125,-3.854l-37.292,0c-7.222,2.917 -10.833,7.778 -10.833,14.583c0,4.722 1.875,8.785 5.625,12.188c3.75,3.403 10,5.104 18.75,5.104l16.25,0c9.722,0 17.292,-1.493 22.708,-4.479c5.417,-2.986 8.125,-7.396 8.125,-13.229Zm-39.375,-61.875c8.333,0 14.479,-1.944 18.438,-5.833c3.958,-3.889 5.938,-9.028 5.938,-15.417l0,-6.042c0,-6.389 -1.979,-11.493 -5.938,-15.313c-3.958,-3.819 -10.104,-5.729 -18.438,-5.729c-8.333,0 -14.444,1.91 -18.333,5.729c-3.889,3.819 -5.833,8.924 -5.833,15.313l0,6.042c0,6.389 1.944,11.528 5.833,15.417c3.889,3.889 10,5.833 18.333,5.833Z" style="fill-rule:nonzero;"/></g><path d="M1570.866,340.164l31.458,0l0,-79.167l-31.458,0l0,-14.167l48.125,0l0,27.083l1.042,0c2.222,-8.472 6.424,-15.104 12.604,-19.896c6.181,-4.792 14.062,-7.188 23.646,-7.188l15,0l0,16.667l-20.208,0c-9.583,0 -17.326,2.778 -23.229,8.333c-5.903,5.556 -8.854,12.847 -8.854,21.875l0,46.458l41.667,0l0,14.167l-89.792,0l0,-14.167Z" style="fill-rule:nonzero;"/><g><path d="M1012.205,340.164l37.5,0l0,-125.833l-37.5,0l0,-14.167l54.167,0l0,140l37.5,0l0,14.167l-91.667,0l0,-14.167Z" style="fill-rule:nonzero;"/><path d="M1012.205,576.385l37.5,0l0,-125.833l-37.5,0l0,-14.167l54.167,0l0,140l37.5,0l0,14.167l-91.667,0l0,-14.167Z" style="fill-rule:nonzero;"/></g><path d="M1394.026,354.331c-7.5,0 -14.271,-1.319 -20.312,-3.958c-6.042,-2.639 -11.181,-6.424 -15.417,-11.354c-4.236,-4.931 -7.465,-10.833 -9.688,-17.708c-2.222,-6.875 -3.333,-14.618 -3.333,-23.229c0,-8.472 1.111,-16.181 3.333,-23.125c2.222,-6.944 5.451,-12.882 9.688,-17.812c4.236,-4.931 9.375,-8.715 15.417,-11.354c6.042,-2.639 12.812,-3.958 20.312,-3.958c7.5,0 14.271,1.319 20.312,3.958c6.042,2.639 11.181,6.424 15.417,11.354c4.236,4.931 7.465,10.868 9.688,17.812c2.222,6.944 3.333,14.653 3.333,23.125c0,8.611 -1.111,16.354 -3.333,23.229c-2.222,6.875 -5.451,12.778 -9.688,17.708c-4.236,4.931 -9.375,8.715 -15.417,11.354c-6.042,2.639 -12.812,3.958 -20.312,3.958Zm0,-14.375c9.306,0 16.806,-2.778 22.5,-8.333c5.694,-5.556 8.542,-14.167 8.542,-25.833l0,-15.417c0,-11.667 -2.847,-20.278 -8.542,-25.833c-5.694,-5.556 -13.194,-8.333 -22.5,-8.333c-9.306,0 -16.806,2.778 -22.5,8.333c-5.694,5.556 -8.542,14.167 -8.542,25.833l0,15.417c0,11.667 2.847,20.278 8.542,25.833c5.694,5.556 13.194,8.333 22.5,8.333Z" style="fill-rule:nonzero;"/><path d="M530.766,334.331l-0.833,0c-6.944,13.333 -17.986,20 -33.125,20c-13.194,0 -23.507,-4.931 -30.938,-14.792c-7.431,-9.861 -11.146,-23.681 -11.146,-41.458c0,-17.778 3.715,-31.597 11.146,-41.458c7.431,-9.861 17.743,-14.792 30.938,-14.792c15.139,0 26.181,6.667 33.125,20l0.833,0l0,-64.167l16.667,0l0,154.167l-16.667,0l0,-17.5Zm-27.5,5.208c3.75,0 7.292,-0.486 10.625,-1.458c3.333,-0.972 6.25,-2.396 8.75,-4.271c2.5,-1.875 4.479,-4.167 5.938,-6.875c1.458,-2.708 2.188,-5.868 2.188,-9.479l0,-38.75c0,-3.611 -0.729,-6.771 -2.188,-9.479c-1.458,-2.708 -3.438,-5 -5.938,-6.875c-2.5,-1.875 -5.417,-3.299 -8.75,-4.271c-3.333,-0.972 -6.875,-1.458 -10.625,-1.458c-9.722,0 -17.257,2.951 -22.604,8.854c-5.347,5.903 -8.021,13.715 -8.021,23.438l0,18.333c0,9.722 2.674,17.535 8.021,23.438c5.347,5.903 12.882,8.854 22.604,8.854Z" style="fill-rule:nonzero;"/><path d="M1461.024,244.626l16.667,0l0,17.5l0.833,0c6.944,-13.333 17.986,-20 33.125,-20c13.194,0 23.507,4.931 30.938,14.792c7.431,9.861 11.146,23.681 11.146,41.458c0,17.778 -3.715,31.597 -11.146,41.458c-7.431,9.861 -17.743,14.792 -30.938,14.792c-15.139,0 -26.181,-6.667 -33.125,-20l-0.833,0l0,59.167l-16.667,0l0,-149.167Zm44.167,95.208c9.722,0 17.257,-2.951 22.604,-8.854c5.347,-5.903 8.021,-13.715 8.021,-23.438l0,-18.333c0,-9.722 -2.674,-17.535 -8.021,-23.438c-5.347,-5.903 -12.882,-8.854 -22.604,-8.854c-3.75,0 -7.292,0.486 -10.625,1.458c-3.333,0.972 -6.25,2.396 -8.75,4.271c-2.5,1.875 -4.479,4.167 -5.938,6.875c-1.458,2.708 -2.188,5.868 -2.188,9.479l0,38.75c0,3.611 0.729,6.771 2.188,9.479c1.458,2.708 3.438,5 5.938,6.875c2.5,1.875 5.417,3.299 8.75,4.271c3.333,0.972 6.875,1.458 10.625,1.458Z" style="fill-rule:nonzero;"/><path d="M1242.52,354.331l0,-107.5l16.667,0l0,17.5l0.833,0c1.111,-2.639 2.5,-5.174 4.167,-7.604c1.667,-2.431 3.715,-4.549 6.146,-6.354c2.431,-1.806 5.312,-3.264 8.646,-4.375c3.333,-1.111 7.222,-1.667 11.667,-1.667c11.25,0 20.278,3.576 27.083,10.729c6.806,7.153 10.208,17.257 10.208,30.312l0,68.958l-16.667,0l0,-66.042c0,-9.861 -2.153,-17.188 -6.458,-21.979c-4.306,-4.792 -10.625,-7.188 -18.958,-7.188c-3.333,0 -6.597,0.417 -9.792,1.25c-3.194,0.833 -6.042,2.083 -8.542,3.75c-2.5,1.667 -4.514,3.819 -6.042,6.458c-1.528,2.639 -2.292,5.694 -2.292,9.167l0,74.583l-16.667,0Z" style="fill-rule:nonzero;"/></svg>