<?xml version="1.0" encoding="UTF-8" standalone="no"?><!DOCTYPE svg PUBLIC "-//W3C//DTD SVG 1.1//EN" "http://www.w3.org/Graphics/SVG/1.1/DTD/svg11.dtd"><svg width="100%" height="100%" viewBox="0 0 3071 3071" version="1.1" xmlns="http://www.w3.org/2000/svg" xmlns:xlink="http://www.w3.org/1999/xlink" xml:space="preserve" xmlns:serif="http://www.serif.com/" style="fill-rule:evenodd;clip-rule:evenodd;stroke-linejoin:round;stroke-miterlimit:2;"><g transform="matrix(1,0,0,1,-14.924097,117.492971)"><g><g transform="matrix(70.992153,0,0,70.992153,127,1654)"><path d="M0.269,-0.342l-0.1,0.118l0,0.224l-0.084,-0l0,-0.698l0.084,0l0,0.364l0.003,0l0.092,-0.116l0.206,-0.248l0.101,0l-0.245,0.294l0.252,0.404l-0.098,-0l-0.211,-0.342Z" style="fill-rule:nonzero;"/></g><g transform="matrix(70.992153,0,0,70.992153,169.595292,1654)"><path d="M0.08,-0.068l0.18,0l0,-0.604l-0.18,0l-0,-0.068l0.26,0l0,0.672l0.18,0l0,0.068l-0.44,-0l-0,-0.068Z" style="fill-rule:nonzero;"/></g><g transform="matrix(70.992153,0,0,70.992153,212.190583,1654)"><path d="M0.495,-0c-0.031,-0 -0.054,-0.008 -0.067,-0.024c-0.013,-0.016 -0.022,-0.036 -0.025,-0.06l-0.005,0c-0.011,0.03 -0.029,0.054 -0.054,0.071c-0.025,0.017 -0.059,0.026 -0.101,0.025c-0.054,0 -0.097,-0.014 -0.129,-0.042c-0.032,-0.028 -0.048,-0.066 -0.048,-0.115c0,-0.048 0.018,-0.085 0.053,-0.111c0.035,-0.026 0.092,-0.039 0.17,-0.039l0.11,0l0,-0.051c-0,-0.038 -0.011,-0.067 -0.032,-0.085c-0.021,-0.019 -0.052,-0.029 -0.091,-0.029c-0.035,0 -0.063,0.007 -0.085,0.021c-0.022,0.014 -0.04,0.032 -0.053,0.055l-0.054,-0.04c0.007,-0.013 0.016,-0.026 0.027,-0.039c0.011,-0.013 0.025,-0.024 0.042,-0.033c0.017,-0.01 0.036,-0.017 0.057,-0.023c0.021,-0.006 0.045,-0.009 0.071,-0.009c0.061,0 0.109,0.015 0.144,0.046c0.036,0.031 0.054,0.073 0.054,0.128l0,0.284l0.072,0l0,0.07l-0.055,-0Zm-0.238,-0.055c0.021,0 0.04,-0.002 0.056,-0.007c0.017,-0.005 0.032,-0.012 0.044,-0.02c0.013,-0.008 0.023,-0.018 0.03,-0.03c0.007,-0.012 0.01,-0.024 0.011,-0.037l0,-0.085l-0.11,0c-0.048,0 -0.083,0.007 -0.105,0.02c-0.022,0.013 -0.033,0.033 -0.033,0.058l0,0.021c0,0.027 0.01,0.047 0.028,0.061c0.019,0.014 0.045,0.02 0.079,0.02Z" style="fill-rule:nonzero;"/></g><g transform="matrix(70.992153,0,0,70.992153,254.785875,1654)"><path d="M0.077,-0.068l0.151,0l-0,-0.38l-0.151,0l0,-0.068l0.231,0l0,0.13l0.005,0c0.011,-0.041 0.031,-0.072 0.06,-0.095c0.03,-0.023 0.068,-0.035 0.113,-0.035l0.072,0l0,0.08l-0.097,0c-0.046,0 -0.083,0.013 -0.111,0.04c-0.028,0.027 -0.043,0.062 -0.043,0.105l0,0.223l0.2,0l0,0.068l-0.431,-0l-0,-0.068Z" style="fill-rule:nonzero;"/></g><g transform="matrix(70.992153,0,0,70.992153,297.381167,1654)"><path d="M0.098,-0.74l0.08,0l0,0.308l0.004,0c0.005,-0.013 0.012,-0.025 0.02,-0.037c0.008,-0.012 0.018,-0.022 0.029,-0.03c0.012,-0.009 0.025,-0.016 0.042,-0.021c0.016,-0.005 0.035,-0.008 0.056,-0.008c0.054,0 0.097,0.017 0.13,0.051c0.033,0.034 0.049,0.083 0.049,0.146l0,0.331l-0.08,-0l0,-0.317c0,-0.047 -0.01,-0.083 -0.031,-0.105c-0.021,-0.023 -0.051,-0.035 -0.091,-0.035c-0.016,0 -0.032,0.002 -0.047,0.006c-0.015,0.004 -0.029,0.01 -0.041,0.018c-0.012,0.008 -0.022,0.018 -0.029,0.031c-0.007,0.013 -0.011,0.027 -0.011,0.044l0,0.358l-0.08,-0l0,-0.74Z" style="fill-rule:nonzero;"/></g><g transform="matrix(70.992153,0,0,70.992153,339.976458,1654)"><path d="M0.309,0.012c-0.037,0 -0.071,-0.006 -0.101,-0.019c-0.03,-0.013 -0.055,-0.031 -0.076,-0.054c-0.021,-0.024 -0.037,-0.052 -0.049,-0.085c-0.011,-0.033 -0.017,-0.07 -0.017,-0.111c0,-0.041 0.006,-0.079 0.018,-0.112c0.012,-0.033 0.028,-0.062 0.049,-0.086c0.021,-0.024 0.046,-0.042 0.075,-0.054c0.029,-0.013 0.061,-0.019 0.096,-0.019c0.035,0 0.066,0.006 0.095,0.019c0.028,0.013 0.052,0.03 0.073,0.052c0.02,0.022 0.035,0.049 0.046,0.08c0.011,0.031 0.016,0.064 0.016,0.101l0,0.038l-0.382,0l-0,0.024c0,0.023 0.004,0.044 0.011,0.063c0.007,0.019 0.018,0.036 0.032,0.05c0.014,0.014 0.03,0.025 0.05,0.033c0.02,0.008 0.041,0.012 0.066,0.012c0.035,0 0.065,-0.008 0.09,-0.024c0.025,-0.016 0.045,-0.038 0.058,-0.066l0.059,0.04c-0.015,0.035 -0.041,0.063 -0.077,0.085c-0.036,0.022 -0.079,0.034 -0.131,0.034Zm-0.005,-0.474c-0.022,0 -0.042,0.004 -0.061,0.012c-0.019,0.008 -0.035,0.019 -0.048,0.033c-0.014,0.014 -0.024,0.03 -0.032,0.049c-0.008,0.019 -0.012,0.04 -0.012,0.062l0,0.007l0.296,0l-0,-0.011c0,-0.023 -0.004,-0.043 -0.011,-0.062c-0.007,-0.019 -0.017,-0.035 -0.029,-0.048c-0.012,-0.014 -0.027,-0.024 -0.045,-0.032c-0.018,-0.007 -0.037,-0.011 -0.058,-0.011Z" style="fill-rule:nonzero;"/></g><g transform="matrix(70.992153,0,0,70.992153,382.57175,1654)"><path d="M0.332,-0.63c-0.023,0 -0.04,-0.005 -0.049,-0.014c-0.009,-0.01 -0.014,-0.022 -0.014,-0.037l0,-0.016c0,-0.015 0.005,-0.027 0.014,-0.036c0.009,-0.01 0.026,-0.014 0.049,-0.014c0.023,0 0.04,0.005 0.049,0.014c0.009,0.01 0.014,0.022 0.014,0.036l0,0.016c0,0.015 -0.005,0.027 -0.014,0.037c-0.009,0.01 -0.026,0.014 -0.049,0.014Zm-0.226,0.562l0.186,-0l0,-0.38l-0.186,0l0,-0.068l0.266,0l0,0.448l0.174,0l0,0.068l-0.44,-0l0,-0.068Z" style="fill-rule:nonzero;"/></g><g transform="matrix(70.992153,0,0,70.992153,425.167042,1654)"><path d="M0.325,-0c-0.039,-0 -0.068,-0.011 -0.086,-0.033c-0.018,-0.022 -0.028,-0.05 -0.028,-0.085l0,-0.33l-0.172,0l-0,-0.068l0.128,0c0.017,0 0.029,-0.003 0.037,-0.01c0.007,-0.007 0.01,-0.019 0.01,-0.037l0,-0.135l0.077,0l0,0.182l0.235,0l0,0.068l-0.235,0l0,0.38l0.235,0l0,0.068l-0.201,-0Z" style="fill-rule:nonzero;"/></g></g></g><g transform="matrix(1,0,0,1,-13,117.666199)"><g><g transform="matrix(70.992153,0,0,70.992153,1533,944.88189)"><path d="M0.09,-0l0,-0.698l0.254,0c0.065,0 0.114,0.018 0.148,0.053c0.034,0.035 0.051,0.085 0.051,0.148c0,0.063 -0.017,0.113 -0.051,0.148c-0.034,0.035 -0.083,0.053 -0.148,0.053l-0.17,0l0,0.296l-0.084,-0Zm0.084,-0.369l0.168,0c0.035,0 0.063,-0.009 0.082,-0.027c0.02,-0.018 0.03,-0.043 0.03,-0.076l0,-0.052c0,-0.033 -0.01,-0.058 -0.03,-0.076c-0.02,-0.018 -0.047,-0.026 -0.082,-0.026l-0.168,0l0,0.256Z" style="fill-rule:nonzero;"/></g><g transform="matrix(70.992153,0,0,70.992153,1575.595292,944.88189)"><path d="M0.077,-0.068l0.151,0l-0,-0.38l-0.151,0l0,-0.068l0.231,0l0,0.13l0.005,0c0.011,-0.041 0.031,-0.072 0.06,-0.095c0.03,-0.023 0.068,-0.035 0.113,-0.035l0.072,0l0,0.08l-0.097,0c-0.046,0 -0.083,0.013 -0.111,0.04c-0.028,0.027 -0.043,0.062 -0.043,0.105l0,0.223l0.2,0l0,0.068l-0.431,-0l-0,-0.068Z" style="fill-rule:nonzero;"/></g><g transform="matrix(70.992153,0,0,70.992153,1618.190583,944.88189)"><path d="M0.495,-0c-0.031,-0 -0.054,-0.008 -0.067,-0.024c-0.013,-0.016 -0.022,-0.036 -0.025,-0.06l-0.005,0c-0.011,0.03 -0.029,0.054 -0.054,0.071c-0.025,0.017 -0.059,0.026 -0.101,0.025c-0.054,0 -0.097,-0.014 -0.129,-0.042c-0.032,-0.028 -0.048,-0.066 -0.048,-0.115c0,-0.048 0.018,-0.085 0.053,-0.111c0.035,-0.026 0.092,-0.039 0.17,-0.039l0.11,0l0,-0.051c-0,-0.038 -0.011,-0.067 -0.032,-0.085c-0.021,-0.019 -0.052,-0.029 -0.091,-0.029c-0.035,0 -0.063,0.007 -0.085,0.021c-0.022,0.014 -0.04,0.032 -0.053,0.055l-0.054,-0.04c0.007,-0.013 0.016,-0.026 0.027,-0.039c0.011,-0.013 0.025,-0.024 0.042,-0.033c0.017,-0.01 0.036,-0.017 0.057,-0.023c0.021,-0.006 0.045,-0.009 0.071,-0.009c0.061,0 0.109,0.015 0.144,0.046c0.036,0.031 0.054,0.073 0.054,0.128l0,0.284l0.072,0l0,0.07l-0.055,-0Zm-0.238,-0.055c0.021,0 0.04,-0.002 0.056,-0.007c0.017,-0.005 0.032,-0.012 0.044,-0.02c0.013,-0.008 0.023,-0.018 0.03,-0.03c0.007,-0.012 0.01,-0.024 0.011,-0.037l0,-0.085l-0.11,0c-0.048,0 -0.083,0.007 -0.105,0.02c-0.022,0.013 -0.033,0.033 -0.033,0.058l0,0.021c0,0.027 0.01,0.047 0.028,0.061c0.019,0.014 0.045,0.02 0.079,0.02Zm-0.066,-0.563c-0.021,0 -0.035,-0.004 -0.044,-0.013c-0.009,-0.009 -0.013,-0.02 -0.013,-0.033l0,-0.014c0,-0.013 0.004,-0.024 0.013,-0.033c0.009,-0.009 0.023,-0.013 0.044,-0.013c0.021,0 0.035,0.004 0.044,0.013c0.009,0.009 0.013,0.02 0.013,0.033l0,0.014c0,0.013 -0.004,0.024 -0.013,0.033c-0.009,0.009 -0.023,0.013 -0.044,0.013Zm0.186,0c-0.021,0 -0.035,-0.004 -0.044,-0.013c-0.009,-0.009 -0.013,-0.02 -0.013,-0.033l0,-0.014c0,-0.013 0.004,-0.024 0.013,-0.033c0.009,-0.009 0.023,-0.013 0.044,-0.013c0.021,0 0.035,0.004 0.044,0.013c0.009,0.009 0.013,0.02 0.013,0.033l0,0.014c0,0.013 -0.004,0.024 -0.013,0.033c-0.009,0.009 -0.023,0.013 -0.044,0.013Z" style="fill-rule:nonzero;"/></g><g transform="matrix(70.992153,0,0,70.992153,1660.785875,944.88189)"><path d="M0.085,-0l0,-0.077l0.333,-0.371l-0.322,0l-0,-0.068l0.409,0l0,0.077l-0.333,0.371l0.343,0l0,0.068l-0.43,-0Z" style="fill-rule:nonzero;"/></g><g transform="matrix(70.992153,0,0,70.992153,1703.381167,944.88189)"><path d="M0.332,-0.63c-0.023,0 -0.04,-0.005 -0.049,-0.014c-0.009,-0.01 -0.014,-0.022 -0.014,-0.037l0,-0.016c0,-0.015 0.005,-0.027 0.014,-0.036c0.009,-0.01 0.026,-0.014 0.049,-0.014c0.023,0 0.04,0.005 0.049,0.014c0.009,0.01 0.014,0.022 0.014,0.036l0,0.016c0,0.015 -0.005,0.027 -0.014,0.037c-0.009,0.01 -0.026,0.014 -0.049,0.014Zm-0.226,0.562l0.186,-0l0,-0.38l-0.186,0l0,-0.068l0.266,0l0,0.448l0.174,0l0,0.068l-0.44,-0l0,-0.068Z" style="fill-rule:nonzero;"/></g><g transform="matrix(70.992153,0,0,70.992153,1745.976458,944.88189)"><path d="M0.306,0.012c-0.054,0 -0.1,-0.009 -0.139,-0.028c-0.039,-0.018 -0.072,-0.043 -0.1,-0.073l0.054,-0.047c0.025,0.026 0.052,0.046 0.081,0.06c0.029,0.014 0.065,0.021 0.106,0.021c0.04,0 0.073,-0.007 0.099,-0.021c0.026,-0.014 0.038,-0.037 0.038,-0.068c0,-0.013 -0.002,-0.024 -0.008,-0.033c-0.005,-0.009 -0.012,-0.016 -0.021,-0.022c-0.009,-0.005 -0.018,-0.01 -0.029,-0.012c-0.011,-0.003 -0.022,-0.006 -0.034,-0.008l-0.081,-0.012c-0.018,-0.003 -0.038,-0.006 -0.059,-0.011c-0.021,-0.005 -0.04,-0.012 -0.057,-0.023c-0.017,-0.01 -0.032,-0.024 -0.043,-0.041c-0.012,-0.017 -0.017,-0.04 -0.018,-0.068c0,-0.026 0.005,-0.049 0.015,-0.068c0.01,-0.019 0.025,-0.035 0.043,-0.048c0.019,-0.013 0.041,-0.023 0.066,-0.029c0.025,-0.006 0.053,-0.01 0.083,-0.01c0.047,0 0.087,0.007 0.121,0.022c0.034,0.015 0.064,0.035 0.089,0.061l-0.052,0.049c-0.006,-0.007 -0.014,-0.015 -0.023,-0.022c-0.009,-0.008 -0.02,-0.015 -0.033,-0.021c-0.013,-0.006 -0.028,-0.012 -0.046,-0.016c-0.017,-0.004 -0.037,-0.006 -0.06,-0.006c-0.041,0 -0.072,0.007 -0.093,0.021c-0.022,0.014 -0.033,0.034 -0.033,0.061c0,0.013 0.002,0.025 0.007,0.033c0.005,0.009 0.012,0.016 0.021,0.022c0.009,0.005 0.018,0.01 0.029,0.013c0.011,0.003 0.022,0.006 0.034,0.008l0.081,0.012c0.019,0.003 0.038,0.006 0.059,0.011c0.021,0.005 0.04,0.012 0.057,0.023c0.017,0.01 0.032,0.024 0.044,0.042c0.012,0.017 0.017,0.04 0.017,0.068c0,0.051 -0.02,0.091 -0.059,0.119c-0.04,0.028 -0.092,0.042 -0.159,0.042Z" style="fill-rule:nonzero;"/></g><g transform="matrix(70.992153,0,0,70.992153,1788.57175,944.88189)"><path d="M0.332,-0.63c-0.023,0 -0.04,-0.005 -0.049,-0.014c-0.009,-0.01 -0.014,-0.022 -0.014,-0.037l0,-0.016c0,-0.015 0.005,-0.027 0.014,-0.036c0.009,-0.01 0.026,-0.014 0.049,-0.014c0.023,0 0.04,0.005 0.049,0.014c0.009,0.01 0.014,0.022 0.014,0.036l0,0.016c0,0.015 -0.005,0.027 -0.014,0.037c-0.009,0.01 -0.026,0.014 -0.049,0.014Zm-0.226,0.562l0.186,-0l0,-0.38l-0.186,0l0,-0.068l0.266,0l0,0.448l0.174,0l0,0.068l-0.44,-0l0,-0.068Z" style="fill-rule:nonzero;"/></g><g transform="matrix(70.992153,0,0,70.992153,1831.167042,944.88189)"><path d="M0.3,0.012c-0.036,0 -0.068,-0.006 -0.097,-0.019c-0.029,-0.013 -0.054,-0.031 -0.074,-0.054c-0.02,-0.024 -0.036,-0.052 -0.046,-0.085c-0.011,-0.033 -0.016,-0.07 -0.016,-0.112c0,-0.041 0.005,-0.078 0.016,-0.111c0.011,-0.033 0.026,-0.062 0.046,-0.086c0.02,-0.024 0.045,-0.042 0.074,-0.054c0.029,-0.013 0.061,-0.019 0.097,-0.019c0.036,0 0.069,0.006 0.098,0.019c0.029,0.013 0.054,0.031 0.074,0.054c0.02,0.024 0.036,0.052 0.046,0.086c0.011,0.033 0.016,0.07 0.016,0.111c0,0.041 -0.005,0.079 -0.016,0.112c-0.011,0.033 -0.026,0.061 -0.046,0.085c-0.02,0.024 -0.045,0.042 -0.074,0.054c-0.029,0.013 -0.061,0.019 -0.098,0.019Zm0,-0.069c0.045,0 0.081,-0.013 0.108,-0.04c0.027,-0.027 0.041,-0.068 0.041,-0.124l0,-0.074c0,-0.056 -0.014,-0.097 -0.041,-0.124c-0.027,-0.027 -0.063,-0.04 -0.108,-0.04c-0.045,0 -0.081,0.013 -0.108,0.04c-0.027,0.027 -0.041,0.068 -0.041,0.124l0,0.074c0,0.056 0.014,0.097 0.041,0.124c0.027,0.027 0.063,0.04 0.108,0.04Z" style="fill-rule:nonzero;"/></g><g transform="matrix(70.992153,0,0,70.992153,1873.762333,944.88189)"><path d="M0.098,-0l0,-0.516l0.08,0l0,0.084l0.004,0c0.005,-0.013 0.012,-0.025 0.02,-0.037c0.008,-0.012 0.018,-0.022 0.029,-0.03c0.012,-0.009 0.025,-0.016 0.042,-0.021c0.016,-0.005 0.035,-0.008 0.056,-0.008c0.054,0 0.097,0.017 0.13,0.051c0.033,0.034 0.049,0.083 0.049,0.146l0,0.331l-0.08,-0l0,-0.317c0,-0.047 -0.01,-0.083 -0.031,-0.105c-0.021,-0.023 -0.051,-0.035 -0.091,-0.035c-0.016,0 -0.032,0.002 -0.047,0.006c-0.015,0.004 -0.029,0.01 -0.041,0.018c-0.012,0.008 -0.022,0.018 -0.029,0.031c-0.007,0.013 -0.011,0.027 -0.011,0.044l0,0.358l-0.08,-0Z" style="fill-rule:nonzero;"/></g></g></g><g transform="matrix(1,0,0,1,-24,109.548089)"><g><g transform="matrix(70.992153,0,0,70.992153,947,953)"><path d="M0.09,-0l-0.055,-0.698l0.075,0l0.029,0.4l0.015,0.211l0.008,0l0.092,-0.429l0.094,0l0.092,0.429l0.008,0l0.015,-0.211l0.029,-0.4l0.073,0l-0.055,0.698l-0.121,-0l-0.085,-0.417l-0.008,0l-0.085,0.417l-0.121,-0Z" style="fill-rule:nonzero;"/></g><g transform="matrix(70.992153,0,0,70.992153,989.595292,953)"><path d="M0.332,-0.63c-0.023,0 -0.04,-0.005 -0.049,-0.014c-0.009,-0.01 -0.014,-0.022 -0.014,-0.037l0,-0.016c0,-0.015 0.005,-0.027 0.014,-0.036c0.009,-0.01 0.026,-0.014 0.049,-0.014c0.023,0 0.04,0.005 0.049,0.014c0.009,0.01 0.014,0.022 0.014,0.036l0,0.016c0,0.015 -0.005,0.027 -0.014,0.037c-0.009,0.01 -0.026,0.014 -0.049,0.014Zm-0.226,0.562l0.186,-0l0,-0.38l-0.186,0l0,-0.068l0.266,0l0,0.448l0.174,0l0,0.068l-0.44,-0l0,-0.068Z" style="fill-rule:nonzero;"/></g><g transform="matrix(70.992153,0,0,70.992153,1032.190583,953)"><path d="M0.309,0.012c-0.037,0 -0.071,-0.006 -0.101,-0.019c-0.03,-0.013 -0.055,-0.031 -0.076,-0.054c-0.021,-0.024 -0.037,-0.052 -0.049,-0.085c-0.011,-0.033 -0.017,-0.07 -0.017,-0.111c0,-0.041 0.006,-0.079 0.018,-0.112c0.012,-0.033 0.028,-0.062 0.049,-0.086c0.021,-0.024 0.046,-0.042 0.075,-0.054c0.029,-0.013 0.061,-0.019 0.096,-0.019c0.035,0 0.066,0.006 0.095,0.019c0.028,0.013 0.052,0.03 0.073,0.052c0.02,0.022 0.035,0.049 0.046,0.08c0.011,0.031 0.016,0.064 0.016,0.101l0,0.038l-0.382,0l-0,0.024c0,0.023 0.004,0.044 0.011,0.063c0.007,0.019 0.018,0.036 0.032,0.05c0.014,0.014 0.03,0.025 0.05,0.033c0.02,0.008 0.041,0.012 0.066,0.012c0.035,0 0.065,-0.008 0.09,-0.024c0.025,-0.016 0.045,-0.038 0.058,-0.066l0.059,0.04c-0.015,0.035 -0.041,0.063 -0.077,0.085c-0.036,0.022 -0.079,0.034 -0.131,0.034Zm-0.005,-0.474c-0.022,0 -0.042,0.004 -0.061,0.012c-0.019,0.008 -0.035,0.019 -0.048,0.033c-0.014,0.014 -0.024,0.03 -0.032,0.049c-0.008,0.019 -0.012,0.04 -0.012,0.062l0,0.007l0.296,0l-0,-0.011c0,-0.023 -0.004,-0.043 -0.011,-0.062c-0.007,-0.019 -0.017,-0.035 -0.029,-0.048c-0.012,-0.014 -0.027,-0.024 -0.045,-0.032c-0.018,-0.007 -0.037,-0.011 -0.058,-0.011Z" style="fill-rule:nonzero;"/></g><g transform="matrix(70.992153,0,0,70.992153,1074.785875,953)"><path d="M0.425,-0.084l-0.004,0c-0.033,0.064 -0.086,0.096 -0.159,0.096c-0.063,0 -0.113,-0.024 -0.149,-0.071c-0.036,-0.047 -0.053,-0.114 -0.053,-0.199c0,-0.085 0.018,-0.152 0.054,-0.199c0.036,-0.047 0.085,-0.071 0.149,-0.071c0.073,0 0.126,0.032 0.159,0.096l0.004,0l0,-0.308l0.08,0l0,0.74l-0.08,-0l0,-0.084Zm-0.132,0.025c0.018,0 0.035,-0.002 0.051,-0.007c0.016,-0.005 0.03,-0.011 0.042,-0.021c0.012,-0.009 0.022,-0.02 0.029,-0.033c0.007,-0.013 0.01,-0.028 0.01,-0.045l0,-0.186c0,-0.017 -0.004,-0.032 -0.01,-0.045c-0.007,-0.013 -0.017,-0.024 -0.029,-0.033c-0.012,-0.009 -0.026,-0.016 -0.042,-0.021c-0.016,-0.005 -0.033,-0.007 -0.051,-0.007c-0.047,0 -0.083,0.014 -0.108,0.042c-0.026,0.028 -0.039,0.066 -0.039,0.113l0,0.088c0,0.047 0.013,0.084 0.039,0.112c0.026,0.028 0.062,0.043 0.108,0.043Z" style="fill-rule:nonzero;"/></g><g transform="matrix(70.992153,0,0,70.992153,1117.381167,953)"><path d="M0.309,0.012c-0.037,0 -0.071,-0.006 -0.101,-0.019c-0.03,-0.013 -0.055,-0.031 -0.076,-0.054c-0.021,-0.024 -0.037,-0.052 -0.049,-0.085c-0.011,-0.033 -0.017,-0.07 -0.017,-0.111c0,-0.041 0.006,-0.079 0.018,-0.112c0.012,-0.033 0.028,-0.062 0.049,-0.086c0.021,-0.024 0.046,-0.042 0.075,-0.054c0.029,-0.013 0.061,-0.019 0.096,-0.019c0.035,0 0.066,0.006 0.095,0.019c0.028,0.013 0.052,0.03 0.073,0.052c0.02,0.022 0.035,0.049 0.046,0.08c0.011,0.031 0.016,0.064 0.016,0.101l0,0.038l-0.382,0l-0,0.024c0,0.023 0.004,0.044 0.011,0.063c0.007,0.019 0.018,0.036 0.032,0.05c0.014,0.014 0.03,0.025 0.05,0.033c0.02,0.008 0.041,0.012 0.066,0.012c0.035,0 0.065,-0.008 0.09,-0.024c0.025,-0.016 0.045,-0.038 0.058,-0.066l0.059,0.04c-0.015,0.035 -0.041,0.063 -0.077,0.085c-0.036,0.022 -0.079,0.034 -0.131,0.034Zm-0.005,-0.474c-0.022,0 -0.042,0.004 -0.061,0.012c-0.019,0.008 -0.035,0.019 -0.048,0.033c-0.014,0.014 -0.024,0.03 -0.032,0.049c-0.008,0.019 -0.012,0.04 -0.012,0.062l0,0.007l0.296,0l-0,-0.011c0,-0.023 -0.004,-0.043 -0.011,-0.062c-0.007,-0.019 -0.017,-0.035 -0.029,-0.048c-0.012,-0.014 -0.027,-0.024 -0.045,-0.032c-0.018,-0.007 -0.037,-0.011 -0.058,-0.011Z" style="fill-rule:nonzero;"/></g><g transform="matrix(70.992153,0,0,70.992153,1159.976458,953)"><path d="M0.077,-0.068l0.151,0l-0,-0.38l-0.151,0l0,-0.068l0.231,0l0,0.13l0.005,0c0.011,-0.041 0.031,-0.072 0.06,-0.095c0.03,-0.023 0.068,-0.035 0.113,-0.035l0.072,0l0,0.08l-0.097,0c-0.046,0 -0.083,0.013 -0.111,0.04c-0.028,0.027 -0.043,0.062 -0.043,0.105l0,0.223l0.2,0l0,0.068l-0.431,-0l-0,-0.068Z" style="fill-rule:nonzero;"/></g><g transform="matrix(70.992153,0,0,70.992153,1202.57175,953)"><path d="M0.098,-0.74l0.08,0l0,0.308l0.004,0c0.005,-0.013 0.012,-0.025 0.02,-0.037c0.008,-0.012 0.018,-0.022 0.029,-0.03c0.012,-0.009 0.025,-0.016 0.042,-0.021c0.016,-0.005 0.035,-0.008 0.056,-0.008c0.054,0 0.097,0.017 0.13,0.051c0.033,0.034 0.049,0.083 0.049,0.146l0,0.331l-0.08,-0l0,-0.317c0,-0.047 -0.01,-0.083 -0.031,-0.105c-0.021,-0.023 -0.051,-0.035 -0.091,-0.035c-0.016,0 -0.032,0.002 -0.047,0.006c-0.015,0.004 -0.029,0.01 -0.041,0.018c-0.012,0.008 -0.022,0.018 -0.029,0.031c-0.007,0.013 -0.011,0.027 -0.011,0.044l0,0.358l-0.08,-0l0,-0.74Z" style="fill-rule:nonzero;"/></g><g transform="matrix(70.992153,0,0,70.992153,1245.167042,953)"><path d="M0.3,0.012c-0.036,0 -0.068,-0.006 -0.097,-0.019c-0.029,-0.013 -0.054,-0.031 -0.074,-0.054c-0.02,-0.024 -0.036,-0.052 -0.046,-0.085c-0.011,-0.033 -0.016,-0.07 -0.016,-0.112c0,-0.041 0.005,-0.078 0.016,-0.111c0.011,-0.033 0.026,-0.062 0.046,-0.086c0.02,-0.024 0.045,-0.042 0.074,-0.054c0.029,-0.013 0.061,-0.019 0.097,-0.019c0.036,0 0.069,0.006 0.098,0.019c0.029,0.013 0.054,0.031 0.074,0.054c0.02,0.024 0.036,0.052 0.046,0.086c0.011,0.033 0.016,0.07 0.016,0.111c0,0.041 -0.005,0.079 -0.016,0.112c-0.011,0.033 -0.026,0.061 -0.046,0.085c-0.02,0.024 -0.045,0.042 -0.074,0.054c-0.029,0.013 -0.061,0.019 -0.098,0.019Zm0,-0.069c0.045,0 0.081,-0.013 0.108,-0.04c0.027,-0.027 0.041,-0.068 0.041,-0.124l0,-0.074c0,-0.056 -0.014,-0.097 -0.041,-0.124c-0.027,-0.027 -0.063,-0.04 -0.108,-0.04c-0.045,0 -0.081,0.013 -0.108,0.04c-0.027,0.027 -0.041,0.068 -0.041,0.124l0,0.074c0,0.056 0.014,0.097 0.041,0.124c0.027,0.027 0.063,0.04 0.108,0.04Z" style="fill-rule:nonzero;"/></g><g transform="matrix(70.992153,0,0,70.992153,1287.762333,953)"><path d="M0.08,-0.068l0.18,0l0,-0.604l-0.18,0l-0,-0.068l0.26,0l0,0.672l0.18,0l0,0.068l-0.44,-0l-0,-0.068Z" style="fill-rule:nonzero;"/></g><g transform="matrix(70.992153,0,0,70.992153,1330.357625,953)"><path d="M0.422,-0.084l-0.004,0c-0.005,0.013 -0.012,0.025 -0.02,0.037c-0.008,0.012 -0.018,0.022 -0.03,0.03c-0.012,0.009 -0.025,0.016 -0.041,0.021c-0.016,0.005 -0.035,0.008 -0.056,0.008c-0.054,0 -0.097,-0.017 -0.13,-0.052c-0.033,-0.034 -0.049,-0.083 -0.049,-0.145l0,-0.331l0.08,0l0,0.317c0,0.047 0.01,0.083 0.031,0.106c0.021,0.023 0.051,0.034 0.091,0.034c0.016,0 0.032,-0.002 0.047,-0.006c0.015,-0.004 0.029,-0.01 0.041,-0.018c0.012,-0.008 0.022,-0.018 0.029,-0.03c0.007,-0.012 0.011,-0.027 0.011,-0.044l0,-0.358l0.08,0l0,0.516l-0.08,-0l0,-0.084Z" style="fill-rule:nonzero;"/></g><g transform="matrix(70.992153,0,0,70.992153,1372.952917,953)"><path d="M0.098,-0l0,-0.516l0.08,0l0,0.084l0.004,0c0.005,-0.013 0.012,-0.025 0.02,-0.037c0.008,-0.012 0.018,-0.022 0.029,-0.03c0.012,-0.009 0.025,-0.016 0.042,-0.021c0.016,-0.005 0.035,-0.008 0.056,-0.008c0.054,0 0.097,0.017 0.13,0.051c0.033,0.034 0.049,0.083 0.049,0.146l0,0.331l-0.08,-0l0,-0.317c0,-0.047 -0.01,-0.083 -0.031,-0.105c-0.021,-0.023 -0.051,-0.035 -0.091,-0.035c-0.016,0 -0.032,0.002 -0.047,0.006c-0.015,0.004 -0.029,0.01 -0.041,0.018c-0.012,0.008 -0.022,0.018 -0.029,0.031c-0.007,0.013 -0.011,0.027 -0.011,0.044l0,0.358l-0.08,-0Z" style="fill-rule:nonzero;"/></g><g transform="matrix(70.992153,0,0,70.992153,1415.548209,953)"><path d="M0.561,0.059c0,0.052 -0.022,0.09 -0.065,0.116c-0.043,0.025 -0.108,0.037 -0.195,0.037c-0.083,0 -0.143,-0.011 -0.179,-0.033c-0.036,-0.022 -0.054,-0.054 -0.054,-0.095c0,-0.028 0.007,-0.05 0.022,-0.065c0.015,-0.015 0.035,-0.027 0.062,-0.034l0,-0.012c-0.015,-0.007 -0.026,-0.017 -0.034,-0.028c-0.008,-0.011 -0.012,-0.026 -0.012,-0.043c0,-0.027 0.009,-0.047 0.027,-0.06c0.018,-0.013 0.04,-0.023 0.067,-0.03l0,-0.004c-0.032,-0.014 -0.057,-0.035 -0.075,-0.062c-0.018,-0.027 -0.026,-0.059 -0.026,-0.096c0,-0.026 0.005,-0.05 0.014,-0.072c0.009,-0.022 0.023,-0.041 0.04,-0.057c0.018,-0.016 0.039,-0.028 0.064,-0.036c0.025,-0.009 0.052,-0.013 0.082,-0.013c0.039,0 0.073,0.007 0.102,0.021l0,-0.009c0,-0.02 0.005,-0.037 0.014,-0.05c0.009,-0.013 0.025,-0.02 0.048,-0.02l0.095,0l0,0.07l-0.116,0l0,0.035c0.019,0.016 0.033,0.035 0.043,0.057c0.01,0.022 0.015,0.047 0.015,0.074c0,0.026 -0.005,0.05 -0.015,0.072c-0.01,0.022 -0.023,0.041 -0.04,0.057c-0.017,0.016 -0.038,0.028 -0.064,0.037c-0.025,0.009 -0.052,0.013 -0.083,0.013c-0.009,0 -0.017,-0 -0.025,-0.001c-0.008,-0.001 -0.016,-0.002 -0.024,-0.003c-0.008,0.001 -0.016,0.003 -0.025,0.006c-0.009,0.003 -0.017,0.007 -0.024,0.012c-0.007,0.005 -0.013,0.011 -0.018,0.017c-0.005,0.007 -0.007,0.014 -0.007,0.023c0,0.015 0.008,0.025 0.023,0.03c0.015,0.005 0.035,0.008 0.06,0.008l0.114,0c0.067,0 0.115,0.012 0.145,0.037c0.03,0.025 0.045,0.059 0.045,0.101Zm-0.075,0.004c0,-0.021 -0.008,-0.037 -0.025,-0.05c-0.017,-0.012 -0.046,-0.018 -0.087,-0.018l-0.179,0c-0.035,0.014 -0.052,0.037 -0.052,0.07c0,0.023 0.009,0.042 0.027,0.058c0.018,0.016 0.048,0.024 0.09,0.024l0.078,0c0.047,0 0.083,-0.007 0.109,-0.021c0.026,-0.014 0.039,-0.035 0.039,-0.064Zm-0.189,-0.297c0.04,0 0.07,-0.009 0.089,-0.028c0.019,-0.019 0.028,-0.043 0.029,-0.074l0,-0.029c-0,-0.031 -0.01,-0.055 -0.029,-0.074c-0.019,-0.018 -0.049,-0.028 -0.089,-0.028c-0.04,0 -0.069,0.009 -0.088,0.028c-0.019,0.018 -0.028,0.043 -0.028,0.074l0,0.029c-0,0.031 0.009,0.055 0.028,0.074c0.019,0.019 0.048,0.028 0.088,0.028Z" style="fill-rule:nonzero;"/></g></g></g><g transform="matrix(1,0,0,1,-4.259529,116.548089)"><g><g transform="matrix(70.992153,0,0,70.992153,118.110236,946)"><path d="M0.425,-0.084l-0.004,0c-0.033,0.064 -0.086,0.096 -0.159,0.096c-0.063,0 -0.113,-0.024 -0.149,-0.071c-0.036,-0.047 -0.053,-0.114 -0.053,-0.199c0,-0.085 0.018,-0.152 0.054,-0.199c0.036,-0.047 0.085,-0.071 0.149,-0.071c0.073,0 0.126,0.032 0.159,0.096l0.004,0l0,-0.308l0.08,0l0,0.74l-0.08,-0l0,-0.084Zm-0.132,0.025c0.018,0 0.035,-0.002 0.051,-0.007c0.016,-0.005 0.03,-0.011 0.042,-0.021c0.012,-0.009 0.022,-0.02 0.029,-0.033c0.007,-0.013 0.01,-0.028 0.01,-0.045l0,-0.186c0,-0.017 -0.004,-0.032 -0.01,-0.045c-0.007,-0.013 -0.017,-0.024 -0.029,-0.033c-0.012,-0.009 -0.026,-0.016 -0.042,-0.021c-0.016,-0.005 -0.033,-0.007 -0.051,-0.007c-0.047,0 -0.083,0.014 -0.108,0.042c-0.026,0.028 -0.039,0.066 -0.039,0.113l0,0.088c0,0.047 0.013,0.084 0.039,0.112c0.026,0.028 0.062,0.043 0.108,0.043Z" style="fill-rule:nonzero;"/></g><g transform="matrix(70.992153,0,0,70.992153,160.705528,946)"><path d="M0.309,0.012c-0.037,0 -0.071,-0.006 -0.101,-0.019c-0.03,-0.013 -0.055,-0.031 -0.076,-0.054c-0.021,-0.024 -0.037,-0.052 -0.049,-0.085c-0.011,-0.033 -0.017,-0.07 -0.017,-0.111c0,-0.041 0.006,-0.079 0.018,-0.112c0.012,-0.033 0.028,-0.062 0.049,-0.086c0.021,-0.024 0.046,-0.042 0.075,-0.054c0.029,-0.013 0.061,-0.019 0.096,-0.019c0.035,0 0.066,0.006 0.095,0.019c0.028,0.013 0.052,0.03 0.073,0.052c0.02,0.022 0.035,0.049 0.046,0.08c0.011,0.031 0.016,0.064 0.016,0.101l0,0.038l-0.382,0l-0,0.024c0,0.023 0.004,0.044 0.011,0.063c0.007,0.019 0.018,0.036 0.032,0.05c0.014,0.014 0.03,0.025 0.05,0.033c0.02,0.008 0.041,0.012 0.066,0.012c0.035,0 0.065,-0.008 0.09,-0.024c0.025,-0.016 0.045,-0.038 0.058,-0.066l0.059,0.04c-0.015,0.035 -0.041,0.063 -0.077,0.085c-0.036,0.022 -0.079,0.034 -0.131,0.034Zm-0.005,-0.474c-0.022,0 -0.042,0.004 -0.061,0.012c-0.019,0.008 -0.035,0.019 -0.048,0.033c-0.014,0.014 -0.024,0.03 -0.032,0.049c-0.008,0.019 -0.012,0.04 -0.012,0.062l0,0.007l0.296,0l-0,-0.011c0,-0.023 -0.004,-0.043 -0.011,-0.062c-0.007,-0.019 -0.017,-0.035 -0.029,-0.048c-0.012,-0.014 -0.027,-0.024 -0.045,-0.032c-0.018,-0.007 -0.037,-0.011 -0.058,-0.011Z" style="fill-rule:nonzero;"/></g><g transform="matrix(70.992153,0,0,70.992153,203.30082,946)"><path d="M0.108,-0.448l-0.07,0l0,-0.068l0.07,0l-0,-0.106c0,-0.035 0.009,-0.063 0.028,-0.085c0.018,-0.022 0.047,-0.033 0.086,-0.033l0.113,0l0,0.068l-0.147,0l0,0.156l0.314,0l0,0.516l-0.08,-0l0,-0.448l-0.234,0l0,0.448l-0.08,-0l0,-0.448Zm0.354,-0.182c-0.023,0 -0.04,-0.005 -0.049,-0.014c-0.009,-0.01 -0.014,-0.022 -0.014,-0.037l0,-0.016c0,-0.015 0.005,-0.027 0.014,-0.036c0.009,-0.01 0.026,-0.014 0.049,-0.014c0.023,0 0.04,0.005 0.049,0.014c0.009,0.01 0.014,0.022 0.014,0.036l0,0.016c0,0.015 -0.005,0.027 -0.014,0.037c-0.009,0.01 -0.026,0.014 -0.049,0.014Z" style="fill-rule:nonzero;"/></g><g transform="matrix(70.992153,0,0,70.992153,245.896111,946)"><path d="M0.098,-0l0,-0.516l0.08,0l0,0.084l0.004,0c0.005,-0.013 0.012,-0.025 0.02,-0.037c0.008,-0.012 0.018,-0.022 0.029,-0.03c0.012,-0.009 0.025,-0.016 0.042,-0.021c0.016,-0.005 0.035,-0.008 0.056,-0.008c0.054,0 0.097,0.017 0.13,0.051c0.033,0.034 0.049,0.083 0.049,0.146l0,0.331l-0.08,-0l0,-0.317c0,-0.047 -0.01,-0.083 -0.031,-0.105c-0.021,-0.023 -0.051,-0.035 -0.091,-0.035c-0.016,0 -0.032,0.002 -0.047,0.006c-0.015,0.004 -0.029,0.01 -0.041,0.018c-0.012,0.008 -0.022,0.018 -0.029,0.031c-0.007,0.013 -0.011,0.027 -0.011,0.044l0,0.358l-0.08,-0Z" style="fill-rule:nonzero;"/></g><g transform="matrix(70.992153,0,0,70.992153,288.491403,946)"><path d="M0.332,-0.63c-0.023,0 -0.04,-0.005 -0.049,-0.014c-0.009,-0.01 -0.014,-0.022 -0.014,-0.037l0,-0.016c0,-0.015 0.005,-0.027 0.014,-0.036c0.009,-0.01 0.026,-0.014 0.049,-0.014c0.023,0 0.04,0.005 0.049,0.014c0.009,0.01 0.014,0.022 0.014,0.036l0,0.016c0,0.015 -0.005,0.027 -0.014,0.037c-0.009,0.01 -0.026,0.014 -0.049,0.014Zm-0.226,0.562l0.186,-0l0,-0.38l-0.186,0l0,-0.068l0.266,0l0,0.448l0.174,0l0,0.068l-0.44,-0l0,-0.068Z" style="fill-rule:nonzero;"/></g><g transform="matrix(70.992153,0,0,70.992153,331.086695,946)"><path d="M0.309,0.012c-0.037,0 -0.071,-0.006 -0.101,-0.019c-0.03,-0.013 -0.055,-0.031 -0.076,-0.054c-0.021,-0.024 -0.037,-0.052 -0.049,-0.085c-0.011,-0.033 -0.017,-0.07 -0.017,-0.111c0,-0.041 0.006,-0.079 0.018,-0.112c0.012,-0.033 0.028,-0.062 0.049,-0.086c0.021,-0.024 0.046,-0.042 0.075,-0.054c0.029,-0.013 0.061,-0.019 0.096,-0.019c0.035,0 0.066,0.006 0.095,0.019c0.028,0.013 0.052,0.03 0.073,0.052c0.02,0.022 0.035,0.049 0.046,0.08c0.011,0.031 0.016,0.064 0.016,0.101l0,0.038l-0.382,0l-0,0.024c0,0.023 0.004,0.044 0.011,0.063c0.007,0.019 0.018,0.036 0.032,0.05c0.014,0.014 0.03,0.025 0.05,0.033c0.02,0.008 0.041,0.012 0.066,0.012c0.035,0 0.065,-0.008 0.09,-0.024c0.025,-0.016 0.045,-0.038 0.058,-0.066l0.059,0.04c-0.015,0.035 -0.041,0.063 -0.077,0.085c-0.036,0.022 -0.079,0.034 -0.131,0.034Zm-0.005,-0.474c-0.022,0 -0.042,0.004 -0.061,0.012c-0.019,0.008 -0.035,0.019 -0.048,0.033c-0.014,0.014 -0.024,0.03 -0.032,0.049c-0.008,0.019 -0.012,0.04 -0.012,0.062l0,0.007l0.296,0l-0,-0.011c0,-0.023 -0.004,-0.043 -0.011,-0.062c-0.007,-0.019 -0.017,-0.035 -0.029,-0.048c-0.012,-0.014 -0.027,-0.024 -0.045,-0.032c-0.018,-0.007 -0.037,-0.011 -0.058,-0.011Z" style="fill-rule:nonzero;"/></g><g transform="matrix(70.992153,0,0,70.992153,373.681986,946)"><path d="M0.077,-0.068l0.151,0l-0,-0.38l-0.151,0l0,-0.068l0.231,0l0,0.13l0.005,0c0.011,-0.041 0.031,-0.072 0.06,-0.095c0.03,-0.023 0.068,-0.035 0.113,-0.035l0.072,0l0,0.08l-0.097,0c-0.046,0 -0.083,0.013 -0.111,0.04c-0.028,0.027 -0.043,0.062 -0.043,0.105l0,0.223l0.2,0l0,0.068l-0.431,-0l-0,-0.068Z" style="fill-rule:nonzero;"/></g><g transform="matrix(70.992153,0,0,70.992153,416.277278,946)"><path d="M0.325,-0c-0.039,-0 -0.068,-0.011 -0.086,-0.033c-0.018,-0.022 -0.028,-0.05 -0.028,-0.085l0,-0.33l-0.172,0l-0,-0.068l0.128,0c0.017,0 0.029,-0.003 0.037,-0.01c0.007,-0.007 0.01,-0.019 0.01,-0.037l0,-0.135l0.077,0l0,0.182l0.235,0l0,0.068l-0.235,0l0,0.38l0.235,0l0,0.068l-0.201,-0Z" style="fill-rule:nonzero;"/></g><g transform="matrix(70.992153,0,0,70.992153,458.87257,946)"><path d="M0.309,0.012c-0.037,0 -0.071,-0.006 -0.101,-0.019c-0.03,-0.013 -0.055,-0.031 -0.076,-0.054c-0.021,-0.024 -0.037,-0.052 -0.049,-0.085c-0.011,-0.033 -0.017,-0.07 -0.017,-0.111c0,-0.041 0.006,-0.079 0.018,-0.112c0.012,-0.033 0.028,-0.062 0.049,-0.086c0.021,-0.024 0.046,-0.042 0.075,-0.054c0.029,-0.013 0.061,-0.019 0.096,-0.019c0.035,0 0.066,0.006 0.095,0.019c0.028,0.013 0.052,0.03 0.073,0.052c0.02,0.022 0.035,0.049 0.046,0.08c0.011,0.031 0.016,0.064 0.016,0.101l0,0.038l-0.382,0l-0,0.024c0,0.023 0.004,0.044 0.011,0.063c0.007,0.019 0.018,0.036 0.032,0.05c0.014,0.014 0.03,0.025 0.05,0.033c0.02,0.008 0.041,0.012 0.066,0.012c0.035,0 0.065,-0.008 0.09,-0.024c0.025,-0.016 0.045,-0.038 0.058,-0.066l0.059,0.04c-0.015,0.035 -0.041,0.063 -0.077,0.085c-0.036,0.022 -0.079,0.034 -0.131,0.034Zm-0.005,-0.474c-0.022,0 -0.042,0.004 -0.061,0.012c-0.019,0.008 -0.035,0.019 -0.048,0.033c-0.014,0.014 -0.024,0.03 -0.032,0.049c-0.008,0.019 -0.012,0.04 -0.012,0.062l0,0.007l0.296,0l-0,-0.011c0,-0.023 -0.004,-0.043 -0.011,-0.062c-0.007,-0.019 -0.017,-0.035 -0.029,-0.048c-0.012,-0.014 -0.027,-0.024 -0.045,-0.032c-0.018,-0.007 -0.037,-0.011 -0.058,-0.011Z" style="fill-rule:nonzero;"/></g><g transform="matrix(70.992153,0,0,70.992153,501.467861,946)"><path d="M0.098,-0l0,-0.516l0.08,0l0,0.084l0.004,0c0.005,-0.013 0.012,-0.025 0.02,-0.037c0.008,-0.012 0.018,-0.022 0.029,-0.03c0.012,-0.009 0.025,-0.016 0.042,-0.021c0.016,-0.005 0.035,-0.008 0.056,-0.008c0.054,0 0.097,0.017 0.13,0.051c0.033,0.034 0.049,0.083 0.049,0.146l0,0.331l-0.08,-0l0,-0.317c0,-0.047 -0.01,-0.083 -0.031,-0.105c-0.021,-0.023 -0.051,-0.035 -0.091,-0.035c-0.016,0 -0.032,0.002 -0.047,0.006c-0.015,0.004 -0.029,0.01 -0.041,0.018c-0.012,0.008 -0.022,0.018 -0.029,0.031c-0.007,0.013 -0.011,0.027 -0.011,0.044l0,0.358l-0.08,-0Z" style="fill-rule:nonzero;"/></g><g transform="matrix(70.992153,0,0,70.992153,586.658445,946)"><path d="M0.174,-0l-0.084,-0l0,-0.698l0.254,0c0.065,0 0.114,0.018 0.148,0.053c0.034,0.035 0.051,0.085 0.051,0.148c0,0.057 -0.015,0.102 -0.044,0.136c-0.029,0.034 -0.072,0.054 -0.128,0.059l0.178,0.302l-0.094,-0l-0.17,-0.298l-0.111,0l0,0.298Zm0.168,-0.369c0.035,0 0.063,-0.009 0.082,-0.027c0.02,-0.018 0.03,-0.043 0.03,-0.076l0,-0.052c0,-0.033 -0.01,-0.058 -0.03,-0.076c-0.02,-0.018 -0.047,-0.026 -0.082,-0.026l-0.168,0l0,0.256l0.168,0Z" style="fill-rule:nonzero;"/></g><g transform="matrix(70.992153,0,0,70.992153,629.253736,946)"><path d="M0.309,0.012c-0.037,0 -0.071,-0.006 -0.101,-0.019c-0.03,-0.013 -0.055,-0.031 -0.076,-0.054c-0.021,-0.024 -0.037,-0.052 -0.049,-0.085c-0.011,-0.033 -0.017,-0.07 -0.017,-0.111c0,-0.041 0.006,-0.079 0.018,-0.112c0.012,-0.033 0.028,-0.062 0.049,-0.086c0.021,-0.024 0.046,-0.042 0.075,-0.054c0.029,-0.013 0.061,-0.019 0.096,-0.019c0.035,0 0.066,0.006 0.095,0.019c0.028,0.013 0.052,0.03 0.073,0.052c0.02,0.022 0.035,0.049 0.046,0.08c0.011,0.031 0.016,0.064 0.016,0.101l0,0.038l-0.382,0l-0,0.024c0,0.023 0.004,0.044 0.011,0.063c0.007,0.019 0.018,0.036 0.032,0.05c0.014,0.014 0.03,0.025 0.05,0.033c0.02,0.008 0.041,0.012 0.066,0.012c0.035,0 0.065,-0.008 0.09,-0.024c0.025,-0.016 0.045,-0.038 0.058,-0.066l0.059,0.04c-0.015,0.035 -0.041,0.063 -0.077,0.085c-0.036,0.022 -0.079,0.034 -0.131,0.034Zm-0.005,-0.474c-0.022,0 -0.042,0.004 -0.061,0.012c-0.019,0.008 -0.035,0.019 -0.048,0.033c-0.014,0.014 -0.024,0.03 -0.032,0.049c-0.008,0.019 -0.012,0.04 -0.012,0.062l0,0.007l0.296,0l-0,-0.011c0,-0.023 -0.004,-0.043 -0.011,-0.062c-0.007,-0.019 -0.017,-0.035 -0.029,-0.048c-0.012,-0.014 -0.027,-0.024 -0.045,-0.032c-0.018,-0.007 -0.037,-0.011 -0.058,-0.011Z" style="fill-rule:nonzero;"/></g><g transform="matrix(70.992153,0,0,70.992153,671.849028,946)"><path d="M0.561,0.059c0,0.052 -0.022,0.09 -0.065,0.116c-0.043,0.025 -0.108,0.037 -0.195,0.037c-0.083,0 -0.143,-0.011 -0.179,-0.033c-0.036,-0.022 -0.054,-0.054 -0.054,-0.095c0,-0.028 0.007,-0.05 0.022,-0.065c0.015,-0.015 0.035,-0.027 0.062,-0.034l0,-0.012c-0.015,-0.007 -0.026,-0.017 -0.034,-0.028c-0.008,-0.011 -0.012,-0.026 -0.012,-0.043c0,-0.027 0.009,-0.047 0.027,-0.06c0.018,-0.013 0.04,-0.023 0.067,-0.03l0,-0.004c-0.032,-0.014 -0.057,-0.035 -0.075,-0.062c-0.018,-0.027 -0.026,-0.059 -0.026,-0.096c0,-0.026 0.005,-0.05 0.014,-0.072c0.009,-0.022 0.023,-0.041 0.04,-0.057c0.018,-0.016 0.039,-0.028 0.064,-0.036c0.025,-0.009 0.052,-0.013 0.082,-0.013c0.039,0 0.073,0.007 0.102,0.021l0,-0.009c0,-0.02 0.005,-0.037 0.014,-0.05c0.009,-0.013 0.025,-0.02 0.048,-0.02l0.095,0l0,0.07l-0.116,0l0,0.035c0.019,0.016 0.033,0.035 0.043,0.057c0.01,0.022 0.015,0.047 0.015,0.074c0,0.026 -0.005,0.05 -0.015,0.072c-0.01,0.022 -0.023,0.041 -0.04,0.057c-0.017,0.016 -0.038,0.028 -0.064,0.037c-0.025,0.009 -0.052,0.013 -0.083,0.013c-0.009,0 -0.017,-0 -0.025,-0.001c-0.008,-0.001 -0.016,-0.002 -0.024,-0.003c-0.008,0.001 -0.016,0.003 -0.025,0.006c-0.009,0.003 -0.017,0.007 -0.024,0.012c-0.007,0.005 -0.013,0.011 -0.018,0.017c-0.005,0.007 -0.007,0.014 -0.007,0.023c0,0.015 0.008,0.025 0.023,0.03c0.015,0.005 0.035,0.008 0.06,0.008l0.114,0c0.067,0 0.115,0.012 0.145,0.037c0.03,0.025 0.045,0.059 0.045,0.101Zm-0.075,0.004c0,-0.021 -0.008,-0.037 -0.025,-0.05c-0.017,-0.012 -0.046,-0.018 -0.087,-0.018l-0.179,0c-0.035,0.014 -0.052,0.037 -0.052,0.07c0,0.023 0.009,0.042 0.027,0.058c0.018,0.016 0.048,0.024 0.09,0.024l0.078,0c0.047,0 0.083,-0.007 0.109,-0.021c0.026,-0.014 0.039,-0.035 0.039,-0.064Zm-0.189,-0.297c0.04,0 0.07,-0.009 0.089,-0.028c0.019,-0.019 0.028,-0.043 0.029,-0.074l0,-0.029c-0,-0.031 -0.01,-0.055 -0.029,-0.074c-0.019,-0.018 -0.049,-0.028 -0.089,-0.028c-0.04,0 -0.069,0.009 -0.088,0.028c-0.019,0.018 -0.028,0.043 -0.028,0.074l0,0.029c-0,0.031 0.009,0.055 0.028,0.074c0.019,0.019 0.048,0.028 0.088,0.028Z" style="fill-rule:nonzero;"/></g><g transform="matrix(70.992153,0,0,70.992153,714.44432,946)"><path d="M0.309,0.012c-0.037,0 -0.071,-0.006 -0.101,-0.019c-0.03,-0.013 -0.055,-0.031 -0.076,-0.054c-0.021,-0.024 -0.037,-0.052 -0.049,-0.085c-0.011,-0.033 -0.017,-0.07 -0.017,-0.111c0,-0.041 0.006,-0.079 0.018,-0.112c0.012,-0.033 0.028,-0.062 0.049,-0.086c0.021,-0.024 0.046,-0.042 0.075,-0.054c0.029,-0.013 0.061,-0.019 0.096,-0.019c0.035,0 0.066,0.006 0.095,0.019c0.028,0.013 0.052,0.03 0.073,0.052c0.02,0.022 0.035,0.049 0.046,0.08c0.011,0.031 0.016,0.064 0.016,0.101l0,0.038l-0.382,0l-0,0.024c0,0.023 0.004,0.044 0.011,0.063c0.007,0.019 0.018,0.036 0.032,0.05c0.014,0.014 0.03,0.025 0.05,0.033c0.02,0.008 0.041,0.012 0.066,0.012c0.035,0 0.065,-0.008 0.09,-0.024c0.025,-0.016 0.045,-0.038 0.058,-0.066l0.059,0.04c-0.015,0.035 -0.041,0.063 -0.077,0.085c-0.036,0.022 -0.079,0.034 -0.131,0.034Zm-0.005,-0.474c-0.022,0 -0.042,0.004 -0.061,0.012c-0.019,0.008 -0.035,0.019 -0.048,0.033c-0.014,0.014 -0.024,0.03 -0.032,0.049c-0.008,0.019 -0.012,0.04 -0.012,0.062l0,0.007l0.296,0l-0,-0.011c0,-0.023 -0.004,-0.043 -0.011,-0.062c-0.007,-0.019 -0.017,-0.035 -0.029,-0.048c-0.012,-0.014 -0.027,-0.024 -0.045,-0.032c-0.018,-0.007 -0.037,-0.011 -0.058,-0.011Z" style="fill-rule:nonzero;"/></g><g transform="matrix(70.992153,0,0,70.992153,757.039611,946)"><path d="M0.08,-0.068l0.18,0l0,-0.604l-0.18,0l-0,-0.068l0.26,0l0,0.672l0.18,0l0,0.068l-0.44,-0l-0,-0.068Z" style="fill-rule:nonzero;"/></g><g transform="matrix(70.992153,0,0,70.992153,799.634903,946)"><path d="M0.098,-0l0,-0.516l0.08,0l0,0.084l0.004,0c0.005,-0.013 0.012,-0.025 0.02,-0.037c0.008,-0.012 0.018,-0.022 0.029,-0.03c0.012,-0.009 0.025,-0.016 0.042,-0.021c0.016,-0.005 0.035,-0.008 0.056,-0.008c0.054,0 0.097,0.017 0.13,0.051c0.033,0.034 0.049,0.083 0.049,0.146l0,0.331l-0.08,-0l0,-0.317c0,-0.047 -0.01,-0.083 -0.031,-0.105c-0.021,-0.023 -0.051,-0.035 -0.091,-0.035c-0.016,0 -0.032,0.002 -0.047,0.006c-0.015,0.004 -0.029,0.01 -0.041,0.018c-0.012,0.008 -0.022,0.018 -0.029,0.031c-0.007,0.013 -0.011,0.027 -0.011,0.044l0,0.358l-0.08,-0Z" style="fill-rule:nonzero;"/></g></g></g><g transform="matrix(1,0,0,1,-23,112.428698)"><g><g transform="matrix(70.992153,0,0,70.992153,945,713.11939)"><path d="M0.08,-0.068l0.18,0l0,-0.604l-0.18,0l-0,-0.068l0.26,0l0,0.672l0.18,0l0,0.068l-0.44,-0l-0,-0.068Z" style="fill-rule:nonzero;"/></g><g transform="matrix(70.992153,0,0,70.992153,987.595292,713.11939)"><path d="M0.3,0.012c-0.036,0 -0.068,-0.006 -0.097,-0.019c-0.029,-0.013 -0.054,-0.031 -0.074,-0.054c-0.02,-0.024 -0.036,-0.052 -0.046,-0.085c-0.011,-0.033 -0.016,-0.07 -0.016,-0.112c0,-0.041 0.005,-0.078 0.016,-0.111c0.011,-0.033 0.026,-0.062 0.046,-0.086c0.02,-0.024 0.045,-0.042 0.074,-0.054c0.029,-0.013 0.061,-0.019 0.097,-0.019c0.036,0 0.069,0.006 0.098,0.019c0.029,0.013 0.054,0.031 0.074,0.054c0.02,0.024 0.036,0.052 0.046,0.086c0.011,0.033 0.016,0.07 0.016,0.111c0,0.041 -0.005,0.079 -0.016,0.112c-0.011,0.033 -0.026,0.061 -0.046,0.085c-0.02,0.024 -0.045,0.042 -0.074,0.054c-0.029,0.013 -0.061,0.019 -0.098,0.019Zm0,-0.069c0.045,0 0.081,-0.013 0.108,-0.04c0.027,-0.027 0.041,-0.068 0.041,-0.124l0,-0.074c0,-0.056 -0.014,-0.097 -0.041,-0.124c-0.027,-0.027 -0.063,-0.04 -0.108,-0.04c-0.045,0 -0.081,0.013 -0.108,0.04c-0.027,0.027 -0.041,0.068 -0.041,0.124l0,0.074c0,0.056 0.014,0.097 0.041,0.124c0.027,0.027 0.063,0.04 0.108,0.04Z" style="fill-rule:nonzero;"/></g><g transform="matrix(70.992153,0,0,70.992153,1030.190583,713.11939)"><path d="M0.561,0.059c0,0.052 -0.022,0.09 -0.065,0.116c-0.043,0.025 -0.108,0.037 -0.195,0.037c-0.083,0 -0.143,-0.011 -0.179,-0.033c-0.036,-0.022 -0.054,-0.054 -0.054,-0.095c0,-0.028 0.007,-0.05 0.022,-0.065c0.015,-0.015 0.035,-0.027 0.062,-0.034l0,-0.012c-0.015,-0.007 -0.026,-0.017 -0.034,-0.028c-0.008,-0.011 -0.012,-0.026 -0.012,-0.043c0,-0.027 0.009,-0.047 0.027,-0.06c0.018,-0.013 0.04,-0.023 0.067,-0.03l0,-0.004c-0.032,-0.014 -0.057,-0.035 -0.075,-0.062c-0.018,-0.027 -0.026,-0.059 -0.026,-0.096c0,-0.026 0.005,-0.05 0.014,-0.072c0.009,-0.022 0.023,-0.041 0.04,-0.057c0.018,-0.016 0.039,-0.028 0.064,-0.036c0.025,-0.009 0.052,-0.013 0.082,-0.013c0.039,0 0.073,0.007 0.102,0.021l0,-0.009c0,-0.02 0.005,-0.037 0.014,-0.05c0.009,-0.013 0.025,-0.02 0.048,-0.02l0.095,0l0,0.07l-0.116,0l0,0.035c0.019,0.016 0.033,0.035 0.043,0.057c0.01,0.022 0.015,0.047 0.015,0.074c0,0.026 -0.005,0.05 -0.015,0.072c-0.01,0.022 -0.023,0.041 -0.04,0.057c-0.017,0.016 -0.038,0.028 -0.064,0.037c-0.025,0.009 -0.052,0.013 -0.083,0.013c-0.009,0 -0.017,-0 -0.025,-0.001c-0.008,-0.001 -0.016,-0.002 -0.024,-0.003c-0.008,0.001 -0.016,0.003 -0.025,0.006c-0.009,0.003 -0.017,0.007 -0.024,0.012c-0.007,0.005 -0.013,0.011 -0.018,0.017c-0.005,0.007 -0.007,0.014 -0.007,0.023c0,0.015 0.008,0.025 0.023,0.03c0.015,0.005 0.035,0.008 0.06,0.008l0.114,0c0.067,0 0.115,0.012 0.145,0.037c0.03,0.025 0.045,0.059 0.045,0.101Zm-0.075,0.004c0,-0.021 -0.008,-0.037 -0.025,-0.05c-0.017,-0.012 -0.046,-0.018 -0.087,-0.018l-0.179,0c-0.035,0.014 -0.052,0.037 -0.052,0.07c0,0.023 0.009,0.042 0.027,0.058c0.018,0.016 0.048,0.024 0.09,0.024l0.078,0c0.047,0 0.083,-0.007 0.109,-0.021c0.026,-0.014 0.039,-0.035 0.039,-0.064Zm-0.189,-0.297c0.04,0 0.07,-0.009 0.089,-0.028c0.019,-0.019 0.028,-0.043 0.029,-0.074l0,-0.029c-0,-0.031 -0.01,-0.055 -0.029,-0.074c-0.019,-0.018 -0.049,-0.028 -0.089,-0.028c-0.04,0 -0.069,0.009 -0.088,0.028c-0.019,0.018 -0.028,0.043 -0.028,0.074l0,0.029c-0,0.031 0.009,0.055 0.028,0.074c0.019,0.019 0.048,0.028 0.088,0.028Z" style="fill-rule:nonzero;"/></g><g transform="matrix(70.992153,0,0,70.992153,1072.785875,713.11939)"><path d="M0.332,-0.63c-0.023,0 -0.04,-0.005 -0.049,-0.014c-0.009,-0.01 -0.014,-0.022 -0.014,-0.037l0,-0.016c0,-0.015 0.005,-0.027 0.014,-0.036c0.009,-0.01 0.026,-0.014 0.049,-0.014c0.023,0 0.04,0.005 0.049,0.014c0.009,0.01 0.014,0.022 0.014,0.036l0,0.016c0,0.015 -0.005,0.027 -0.014,0.037c-0.009,0.01 -0.026,0.014 -0.049,0.014Zm-0.226,0.562l0.186,-0l0,-0.38l-0.186,0l0,-0.068l0.266,0l0,0.448l0.174,0l0,0.068l-0.44,-0l0,-0.068Z" style="fill-rule:nonzero;"/></g><g transform="matrix(70.992153,0,0,70.992153,1115.381167,713.11939)"><path d="M0.306,0.012c-0.054,0 -0.1,-0.009 -0.139,-0.028c-0.039,-0.018 -0.072,-0.043 -0.1,-0.073l0.054,-0.047c0.025,0.026 0.052,0.046 0.081,0.06c0.029,0.014 0.065,0.021 0.106,0.021c0.04,0 0.073,-0.007 0.099,-0.021c0.026,-0.014 0.038,-0.037 0.038,-0.068c0,-0.013 -0.002,-0.024 -0.008,-0.033c-0.005,-0.009 -0.012,-0.016 -0.021,-0.022c-0.009,-0.005 -0.018,-0.01 -0.029,-0.012c-0.011,-0.003 -0.022,-0.006 -0.034,-0.008l-0.081,-0.012c-0.018,-0.003 -0.038,-0.006 -0.059,-0.011c-0.021,-0.005 -0.04,-0.012 -0.057,-0.023c-0.017,-0.01 -0.032,-0.024 -0.043,-0.041c-0.012,-0.017 -0.017,-0.04 -0.018,-0.068c0,-0.026 0.005,-0.049 0.015,-0.068c0.01,-0.019 0.025,-0.035 0.043,-0.048c0.019,-0.013 0.041,-0.023 0.066,-0.029c0.025,-0.006 0.053,-0.01 0.083,-0.01c0.047,0 0.087,0.007 0.121,0.022c0.034,0.015 0.064,0.035 0.089,0.061l-0.052,0.049c-0.006,-0.007 -0.014,-0.015 -0.023,-0.022c-0.009,-0.008 -0.02,-0.015 -0.033,-0.021c-0.013,-0.006 -0.028,-0.012 -0.046,-0.016c-0.017,-0.004 -0.037,-0.006 -0.06,-0.006c-0.041,0 -0.072,0.007 -0.093,0.021c-0.022,0.014 -0.033,0.034 -0.033,0.061c0,0.013 0.002,0.025 0.007,0.033c0.005,0.009 0.012,0.016 0.021,0.022c0.009,0.005 0.018,0.01 0.029,0.013c0.011,0.003 0.022,0.006 0.034,0.008l0.081,0.012c0.019,0.003 0.038,0.006 0.059,0.011c0.021,0.005 0.04,0.012 0.057,0.023c0.017,0.01 0.032,0.024 0.044,0.042c0.012,0.017 0.017,0.04 0.017,0.068c0,0.051 -0.02,0.091 -0.059,0.119c-0.04,0.028 -0.092,0.042 -0.159,0.042Z" style="fill-rule:nonzero;"/></g><g transform="matrix(70.992153,0,0,70.992153,1157.976458,713.11939)"><path d="M0.318,0.012c-0.037,0 -0.07,-0.006 -0.1,-0.019c-0.029,-0.013 -0.053,-0.031 -0.074,-0.054c-0.02,-0.023 -0.035,-0.052 -0.045,-0.085c-0.01,-0.033 -0.015,-0.07 -0.015,-0.111c0,-0.041 0.005,-0.078 0.016,-0.111c0.011,-0.033 0.026,-0.062 0.046,-0.086c0.02,-0.024 0.044,-0.042 0.073,-0.054c0.029,-0.013 0.061,-0.019 0.098,-0.019c0.05,0 0.091,0.011 0.122,0.033c0.031,0.022 0.054,0.051 0.069,0.086l-0.064,0.034c-0.009,-0.027 -0.025,-0.047 -0.046,-0.062c-0.022,-0.015 -0.049,-0.022 -0.081,-0.022c-0.023,0 -0.044,0.004 -0.062,0.012c-0.018,0.008 -0.034,0.019 -0.046,0.032c-0.013,0.014 -0.022,0.031 -0.029,0.05c-0.006,0.019 -0.009,0.04 -0.009,0.063l0,0.088c0,0.023 0.003,0.044 0.009,0.063c0.006,0.019 0.016,0.036 0.029,0.05c0.013,0.014 0.028,0.025 0.047,0.033c0.019,0.008 0.04,0.012 0.064,0.012c0.035,0 0.063,-0.008 0.086,-0.024c0.023,-0.016 0.041,-0.038 0.054,-0.066l0.057,0.039c-0.015,0.035 -0.039,0.063 -0.072,0.086c-0.032,0.023 -0.074,0.034 -0.127,0.034Z" style="fill-rule:nonzero;"/></g><g transform="matrix(70.992153,0,0,70.992153,1200.57175,713.11939)"><path d="M0.098,-0.74l0.08,0l0,0.308l0.004,0c0.005,-0.013 0.012,-0.025 0.02,-0.037c0.008,-0.012 0.018,-0.022 0.029,-0.03c0.012,-0.009 0.025,-0.016 0.042,-0.021c0.016,-0.005 0.035,-0.008 0.056,-0.008c0.054,0 0.097,0.017 0.13,0.051c0.033,0.034 0.049,0.083 0.049,0.146l0,0.331l-0.08,-0l0,-0.317c0,-0.047 -0.01,-0.083 -0.031,-0.105c-0.021,-0.023 -0.051,-0.035 -0.091,-0.035c-0.016,0 -0.032,0.002 -0.047,0.006c-0.015,0.004 -0.029,0.01 -0.041,0.018c-0.012,0.008 -0.022,0.018 -0.029,0.031c-0.007,0.013 -0.011,0.027 -0.011,0.044l0,0.358l-0.08,-0l0,-0.74Z" style="fill-rule:nonzero;"/></g></g></g><g transform="matrix(1,0,0,1,-4,116.938682)"><g><g transform="matrix(70.833333,0,0,70.833333,715,472.440945)"><path d="M0.3,0.012c-0.036,0 -0.068,-0.006 -0.097,-0.019c-0.029,-0.013 -0.054,-0.031 -0.074,-0.054c-0.02,-0.024 -0.036,-0.052 -0.046,-0.085c-0.011,-0.033 -0.016,-0.07 -0.016,-0.112c0,-0.041 0.005,-0.078 0.016,-0.111c0.011,-0.033 0.026,-0.062 0.046,-0.086c0.02,-0.024 0.045,-0.042 0.074,-0.054c0.029,-0.013 0.061,-0.019 0.097,-0.019c0.036,0 0.069,0.006 0.098,0.019c0.029,0.013 0.054,0.031 0.074,0.054c0.02,0.024 0.036,0.052 0.046,0.086c0.011,0.033 0.016,0.07 0.016,0.111c0,0.041 -0.005,0.079 -0.016,0.112c-0.011,0.033 -0.026,0.061 -0.046,0.085c-0.02,0.024 -0.045,0.042 -0.074,0.054c-0.029,0.013 -0.061,0.019 -0.098,0.019Zm0,-0.069c0.045,0 0.081,-0.013 0.108,-0.04c0.027,-0.027 0.041,-0.068 0.041,-0.124l0,-0.074c0,-0.056 -0.014,-0.097 -0.041,-0.124c-0.027,-0.027 -0.063,-0.04 -0.108,-0.04c-0.045,0 -0.081,0.013 -0.108,0.04c-0.027,0.027 -0.041,0.068 -0.041,0.124l0,0.074c0,0.056 0.014,0.097 0.041,0.124c0.027,0.027 0.063,0.04 0.108,0.04Z" style="fill-rule:nonzero;"/></g><g transform="matrix(70.833333,0,0,70.833333,757.5,472.440945)"><path d="M0.077,-0.068l0.151,0l-0,-0.38l-0.151,0l0,-0.068l0.231,0l0,0.13l0.005,0c0.011,-0.041 0.031,-0.072 0.06,-0.095c0.03,-0.023 0.068,-0.035 0.113,-0.035l0.072,0l0,0.08l-0.097,0c-0.046,0 -0.083,0.013 -0.111,0.04c-0.028,0.027 -0.043,0.062 -0.043,0.105l0,0.223l0.2,0l0,0.068l-0.431,-0l-0,-0.068Z" style="fill-rule:nonzero;"/></g><g transform="matrix(70.833333,0,0,70.833333,800,472.440945)"><path d="M0.425,-0.084l-0.004,0c-0.033,0.064 -0.086,0.096 -0.159,0.096c-0.063,0 -0.113,-0.024 -0.149,-0.071c-0.036,-0.047 -0.053,-0.114 -0.053,-0.199c0,-0.085 0.018,-0.152 0.054,-0.199c0.036,-0.047 0.085,-0.071 0.149,-0.071c0.073,0 0.126,0.032 0.159,0.096l0.004,0l0,-0.308l0.08,0l0,0.74l-0.08,-0l0,-0.084Zm-0.132,0.025c0.018,0 0.035,-0.002 0.051,-0.007c0.016,-0.005 0.03,-0.011 0.042,-0.021c0.012,-0.009 0.022,-0.02 0.029,-0.033c0.007,-0.013 0.01,-0.028 0.01,-0.045l0,-0.186c0,-0.017 -0.004,-0.032 -0.01,-0.045c-0.007,-0.013 -0.017,-0.024 -0.029,-0.033c-0.012,-0.009 -0.026,-0.016 -0.042,-0.021c-0.016,-0.005 -0.033,-0.007 -0.051,-0.007c-0.047,0 -0.083,0.014 -0.108,0.042c-0.026,0.028 -0.039,0.066 -0.039,0.113l0,0.088c0,0.047 0.013,0.084 0.039,0.112c0.026,0.028 0.062,0.043 0.108,0.043Z" style="fill-rule:nonzero;"/></g><g transform="matrix(70.833333,0,0,70.833333,842.5,472.440945)"><path d="M0.098,-0l0,-0.516l0.08,0l0,0.084l0.004,0c0.005,-0.013 0.012,-0.025 0.02,-0.037c0.008,-0.012 0.018,-0.022 0.029,-0.03c0.012,-0.009 0.025,-0.016 0.042,-0.021c0.016,-0.005 0.035,-0.008 0.056,-0.008c0.054,0 0.097,0.017 0.13,0.051c0.033,0.034 0.049,0.083 0.049,0.146l0,0.331l-0.08,-0l0,-0.317c0,-0.047 -0.01,-0.083 -0.031,-0.105c-0.021,-0.023 -0.051,-0.035 -0.091,-0.035c-0.016,0 -0.032,0.002 -0.047,0.006c-0.015,0.004 -0.029,0.01 -0.041,0.018c-0.012,0.008 -0.022,0.018 -0.029,0.031c-0.007,0.013 -0.011,0.027 -0.011,0.044l0,0.358l-0.08,-0Z" style="fill-rule:nonzero;"/></g><g transform="matrix(70.833333,0,0,70.833333,885,472.440945)"><path d="M0.309,0.012c-0.037,0 -0.071,-0.006 -0.101,-0.019c-0.03,-0.013 -0.055,-0.031 -0.076,-0.054c-0.021,-0.024 -0.037,-0.052 -0.049,-0.085c-0.011,-0.033 -0.017,-0.07 -0.017,-0.111c0,-0.041 0.006,-0.079 0.018,-0.112c0.012,-0.033 0.028,-0.062 0.049,-0.086c0.021,-0.024 0.046,-0.042 0.075,-0.054c0.029,-0.013 0.061,-0.019 0.096,-0.019c0.035,0 0.066,0.006 0.095,0.019c0.028,0.013 0.052,0.03 0.073,0.052c0.02,0.022 0.035,0.049 0.046,0.08c0.011,0.031 0.016,0.064 0.016,0.101l0,0.038l-0.382,0l-0,0.024c0,0.023 0.004,0.044 0.011,0.063c0.007,0.019 0.018,0.036 0.032,0.05c0.014,0.014 0.03,0.025 0.05,0.033c0.02,0.008 0.041,0.012 0.066,0.012c0.035,0 0.065,-0.008 0.09,-0.024c0.025,-0.016 0.045,-0.038 0.058,-0.066l0.059,0.04c-0.015,0.035 -0.041,0.063 -0.077,0.085c-0.036,0.022 -0.079,0.034 -0.131,0.034Zm-0.005,-0.474c-0.022,0 -0.042,0.004 -0.061,0.012c-0.019,0.008 -0.035,0.019 -0.048,0.033c-0.014,0.014 -0.024,0.03 -0.032,0.049c-0.008,0.019 -0.012,0.04 -0.012,0.062l0,0.007l0.296,0l-0,-0.011c0,-0.023 -0.004,-0.043 -0.011,-0.062c-0.007,-0.019 -0.017,-0.035 -0.029,-0.048c-0.012,-0.014 -0.027,-0.024 -0.045,-0.032c-0.018,-0.007 -0.037,-0.011 -0.058,-0.011Z" style="fill-rule:nonzero;"/></g><g transform="matrix(70.833333,0,0,70.833333,927.5,472.440945)"><path d="M0.098,-0l0,-0.516l0.08,0l0,0.084l0.004,0c0.005,-0.013 0.012,-0.025 0.02,-0.037c0.008,-0.012 0.018,-0.022 0.029,-0.03c0.012,-0.009 0.025,-0.016 0.042,-0.021c0.016,-0.005 0.035,-0.008 0.056,-0.008c0.054,0 0.097,0.017 0.13,0.051c0.033,0.034 0.049,0.083 0.049,0.146l0,0.331l-0.08,-0l0,-0.317c0,-0.047 -0.01,-0.083 -0.031,-0.105c-0.021,-0.023 -0.051,-0.035 -0.091,-0.035c-0.016,0 -0.032,0.002 -0.047,0.006c-0.015,0.004 -0.029,0.01 -0.041,0.018c-0.012,0.008 -0.022,0.018 -0.029,0.031c-0.007,0.013 -0.011,0.027 -0.011,0.044l0,0.358l-0.08,-0Z" style="fill-rule:nonzero;"/></g></g></g><g transform="matrix(1,0,0,1,-3.194647,103.377721)"><g><g transform="matrix(70.992153,0,0,70.992153,118.110236,486)"><path d="M0.298,0.012c-0.063,0 -0.114,-0.011 -0.154,-0.035c-0.04,-0.023 -0.073,-0.052 -0.099,-0.088l0.061,-0.05c0.027,0.034 0.056,0.059 0.087,0.076c0.03,0.017 0.067,0.025 0.108,0.025c0.051,0 0.089,-0.012 0.116,-0.035c0.027,-0.023 0.04,-0.056 0.04,-0.098c0,-0.034 -0.01,-0.06 -0.029,-0.08c-0.019,-0.019 -0.053,-0.032 -0.101,-0.04l-0.078,-0.013c-0.034,-0.006 -0.062,-0.015 -0.085,-0.027c-0.023,-0.012 -0.042,-0.027 -0.056,-0.044c-0.014,-0.017 -0.024,-0.036 -0.03,-0.056c-0.006,-0.02 -0.009,-0.041 -0.009,-0.064c0,-0.064 0.021,-0.112 0.063,-0.145c0.042,-0.033 0.099,-0.049 0.17,-0.049c0.056,0 0.103,0.009 0.142,0.028c0.038,0.019 0.069,0.045 0.093,0.079l-0.059,0.051c-0.019,-0.025 -0.043,-0.046 -0.07,-0.062c-0.027,-0.016 -0.063,-0.024 -0.106,-0.024c-0.047,0 -0.084,0.01 -0.109,0.03c-0.025,0.02 -0.038,0.05 -0.038,0.09c0,0.031 0.01,0.057 0.028,0.077c0.019,0.02 0.053,0.034 0.103,0.042l0.075,0.013c0.034,0.006 0.063,0.015 0.086,0.027c0.023,0.012 0.042,0.026 0.057,0.043c0.014,0.017 0.024,0.035 0.03,0.056c0.006,0.021 0.009,0.042 0.009,0.065c0,0.065 -0.021,0.115 -0.064,0.152c-0.042,0.037 -0.102,0.055 -0.181,0.055Z" style="fill-rule:nonzero;"/></g><g transform="matrix(70.992153,0,0,70.992153,160.705528,486)"><path d="M0.325,-0c-0.039,-0 -0.068,-0.011 -0.086,-0.033c-0.018,-0.022 -0.028,-0.05 -0.028,-0.085l0,-0.33l-0.172,0l-0,-0.068l0.128,0c0.017,0 0.029,-0.003 0.037,-0.01c0.007,-0.007 0.01,-0.019 0.01,-0.037l0,-0.135l0.077,0l0,0.182l0.235,0l0,0.068l-0.235,0l0,0.38l0.235,0l0,0.068l-0.201,-0Z" style="fill-rule:nonzero;"/></g><g transform="matrix(70.992153,0,0,70.992153,203.30082,486)"><path d="M0.077,-0.068l0.151,0l-0,-0.38l-0.151,0l0,-0.068l0.231,0l0,0.13l0.005,0c0.011,-0.041 0.031,-0.072 0.06,-0.095c0.03,-0.023 0.068,-0.035 0.113,-0.035l0.072,0l0,0.08l-0.097,0c-0.046,0 -0.083,0.013 -0.111,0.04c-0.028,0.027 -0.043,0.062 -0.043,0.105l0,0.223l0.2,0l0,0.068l-0.431,-0l-0,-0.068Z" style="fill-rule:nonzero;"/></g><g transform="matrix(70.992153,0,0,70.992153,245.896111,486)"><path d="M0.422,-0.084l-0.004,0c-0.005,0.013 -0.012,0.025 -0.02,0.037c-0.008,0.012 -0.018,0.022 -0.03,0.03c-0.012,0.009 -0.025,0.016 -0.041,0.021c-0.016,0.005 -0.035,0.008 -0.056,0.008c-0.054,0 -0.097,-0.017 -0.13,-0.052c-0.033,-0.034 -0.049,-0.083 -0.049,-0.145l0,-0.331l0.08,0l0,0.317c0,0.047 0.01,0.083 0.031,0.106c0.021,0.023 0.051,0.034 0.091,0.034c0.016,0 0.032,-0.002 0.047,-0.006c0.015,-0.004 0.029,-0.01 0.041,-0.018c0.012,-0.008 0.022,-0.018 0.029,-0.03c0.007,-0.012 0.011,-0.027 0.011,-0.044l0,-0.358l0.08,0l0,0.516l-0.08,-0l0,-0.084Z" style="fill-rule:nonzero;"/></g><g transform="matrix(70.992153,0,0,70.992153,288.491403,486)"><path d="M0.105,-0.74l0.08,0l0,0.467l0.004,0l0.09,-0.085l0.172,-0.158l0.098,0l-0.214,0.202l0.239,0.314l-0.099,-0l-0.201,-0.268l-0.089,0.081l0,0.187l-0.08,-0l0,-0.74Z" style="fill-rule:nonzero;"/></g><g transform="matrix(70.992153,0,0,70.992153,331.086695,486)"><path d="M0.325,-0c-0.039,-0 -0.068,-0.011 -0.086,-0.033c-0.018,-0.022 -0.028,-0.05 -0.028,-0.085l0,-0.33l-0.172,0l-0,-0.068l0.128,0c0.017,0 0.029,-0.003 0.037,-0.01c0.007,-0.007 0.01,-0.019 0.01,-0.037l0,-0.135l0.077,0l0,0.182l0.235,0l0,0.068l-0.235,0l0,0.38l0.235,0l0,0.068l-0.201,-0Z" style="fill-rule:nonzero;"/></g><g transform="matrix(70.992153,0,0,70.992153,373.681986,486)"><path d="M0.422,-0.084l-0.004,0c-0.005,0.013 -0.012,0.025 -0.02,0.037c-0.008,0.012 -0.018,0.022 -0.03,0.03c-0.012,0.009 -0.025,0.016 -0.041,0.021c-0.016,0.005 -0.035,0.008 -0.056,0.008c-0.054,0 -0.097,-0.017 -0.13,-0.052c-0.033,-0.034 -0.049,-0.083 -0.049,-0.145l0,-0.331l0.08,0l0,0.317c0,0.047 0.01,0.083 0.031,0.106c0.021,0.023 0.051,0.034 0.091,0.034c0.016,0 0.032,-0.002 0.047,-0.006c0.015,-0.004 0.029,-0.01 0.041,-0.018c0.012,-0.008 0.022,-0.018 0.029,-0.03c0.007,-0.012 0.011,-0.027 0.011,-0.044l0,-0.358l0.08,0l0,0.516l-0.08,-0l0,-0.084Z" style="fill-rule:nonzero;"/></g><g transform="matrix(70.992153,0,0,70.992153,416.277278,486)"><path d="M0.077,-0.068l0.151,0l-0,-0.38l-0.151,0l0,-0.068l0.231,0l0,0.13l0.005,0c0.011,-0.041 0.031,-0.072 0.06,-0.095c0.03,-0.023 0.068,-0.035 0.113,-0.035l0.072,0l0,0.08l-0.097,0c-0.046,0 -0.083,0.013 -0.111,0.04c-0.028,0.027 -0.043,0.062 -0.043,0.105l0,0.223l0.2,0l0,0.068l-0.431,-0l-0,-0.068Z" style="fill-rule:nonzero;"/></g><g transform="matrix(70.992153,0,0,70.992153,458.87257,486)"><path d="M0.309,0.012c-0.037,0 -0.071,-0.006 -0.101,-0.019c-0.03,-0.013 -0.055,-0.031 -0.076,-0.054c-0.021,-0.024 -0.037,-0.052 -0.049,-0.085c-0.011,-0.033 -0.017,-0.07 -0.017,-0.111c0,-0.041 0.006,-0.079 0.018,-0.112c0.012,-0.033 0.028,-0.062 0.049,-0.086c0.021,-0.024 0.046,-0.042 0.075,-0.054c0.029,-0.013 0.061,-0.019 0.096,-0.019c0.035,0 0.066,0.006 0.095,0.019c0.028,0.013 0.052,0.03 0.073,0.052c0.02,0.022 0.035,0.049 0.046,0.08c0.011,0.031 0.016,0.064 0.016,0.101l0,0.038l-0.382,0l-0,0.024c0,0.023 0.004,0.044 0.011,0.063c0.007,0.019 0.018,0.036 0.032,0.05c0.014,0.014 0.03,0.025 0.05,0.033c0.02,0.008 0.041,0.012 0.066,0.012c0.035,0 0.065,-0.008 0.09,-0.024c0.025,-0.016 0.045,-0.038 0.058,-0.066l0.059,0.04c-0.015,0.035 -0.041,0.063 -0.077,0.085c-0.036,0.022 -0.079,0.034 -0.131,0.034Zm-0.005,-0.474c-0.022,0 -0.042,0.004 -0.061,0.012c-0.019,0.008 -0.035,0.019 -0.048,0.033c-0.014,0.014 -0.024,0.03 -0.032,0.049c-0.008,0.019 -0.012,0.04 -0.012,0.062l0,0.007l0.296,0l-0,-0.011c0,-0.023 -0.004,-0.043 -0.011,-0.062c-0.007,-0.019 -0.017,-0.035 -0.029,-0.048c-0.012,-0.014 -0.027,-0.024 -0.045,-0.032c-0.018,-0.007 -0.037,-0.011 -0.058,-0.011Z" style="fill-rule:nonzero;"/></g><g transform="matrix(70.992153,0,0,70.992153,501.467861,486)"><path d="M0.098,-0l0,-0.516l0.08,0l0,0.084l0.004,0c0.005,-0.013 0.012,-0.025 0.02,-0.037c0.008,-0.012 0.018,-0.022 0.029,-0.03c0.012,-0.009 0.025,-0.016 0.042,-0.021c0.016,-0.005 0.035,-0.008 0.056,-0.008c0.054,0 0.097,0.017 0.13,0.051c0.033,0.034 0.049,0.083 0.049,0.146l0,0.331l-0.08,-0l0,-0.317c0,-0.047 -0.01,-0.083 -0.031,-0.105c-0.021,-0.023 -0.051,-0.035 -0.091,-0.035c-0.016,0 -0.032,0.002 -0.047,0.006c-0.015,0.004 -0.029,0.01 -0.041,0.018c-0.012,0.008 -0.022,0.018 -0.029,0.031c-0.007,0.013 -0.011,0.027 -0.011,0.044l0,0.358l-0.08,-0Z" style="fill-rule:nonzero;"/></g></g></g><g transform="matrix(1,0,0,1,-3.194647,113.377721)"><g><g transform="matrix(70.992153,0,0,70.992153,118.110236,240)"><path d="M0.298,0.012c-0.063,0 -0.114,-0.011 -0.154,-0.035c-0.04,-0.023 -0.073,-0.052 -0.099,-0.088l0.061,-0.05c0.027,0.034 0.056,0.059 0.087,0.076c0.03,0.017 0.067,0.025 0.108,0.025c0.051,0 0.089,-0.012 0.116,-0.035c0.027,-0.023 0.04,-0.056 0.04,-0.098c0,-0.034 -0.01,-0.06 -0.029,-0.08c-0.019,-0.019 -0.053,-0.032 -0.101,-0.04l-0.078,-0.013c-0.034,-0.006 -0.062,-0.015 -0.085,-0.027c-0.023,-0.012 -0.042,-0.027 -0.056,-0.044c-0.014,-0.017 -0.024,-0.036 -0.03,-0.056c-0.006,-0.02 -0.009,-0.041 -0.009,-0.064c0,-0.064 0.021,-0.112 0.063,-0.145c0.042,-0.033 0.099,-0.049 0.17,-0.049c0.056,0 0.103,0.009 0.142,0.028c0.038,0.019 0.069,0.045 0.093,0.079l-0.059,0.051c-0.019,-0.025 -0.043,-0.046 -0.07,-0.062c-0.027,-0.016 -0.063,-0.024 -0.106,-0.024c-0.047,0 -0.084,0.01 -0.109,0.03c-0.025,0.02 -0.038,0.05 -0.038,0.09c0,0.031 0.01,0.057 0.028,0.077c0.019,0.02 0.053,0.034 0.103,0.042l0.075,0.013c0.034,0.006 0.063,0.015 0.086,0.027c0.023,0.012 0.042,0.026 0.057,0.043c0.014,0.017 0.024,0.035 0.03,0.056c0.006,0.021 0.009,0.042 0.009,0.065c0,0.065 -0.021,0.115 -0.064,0.152c-0.042,0.037 -0.102,0.055 -0.181,0.055Z" style="fill:#2b4272;fill-rule:nonzero;"/></g><g transform="matrix(70.992153,0,0,70.992153,160.705528,240)"><path d="M0.467,-0.516l0.08,0l-0.256,0.629c-0.006,0.015 -0.013,0.027 -0.02,0.039c-0.007,0.011 -0.016,0.02 -0.026,0.027c-0.01,0.007 -0.022,0.012 -0.036,0.016c-0.014,0.004 -0.031,0.006 -0.05,0.006l-0.076,0l0,-0.068l0.12,0l0.058,-0.142l-0.208,-0.506l0.082,0l0.087,0.216l0.077,0.196l0.004,0l0.077,-0.196l0.087,-0.216Z" style="fill:#2b4272;fill-rule:nonzero;"/></g><g transform="matrix(70.992153,0,0,70.992153,203.30082,240)"><path d="M0.306,0.012c-0.054,0 -0.1,-0.009 -0.139,-0.028c-0.039,-0.018 -0.072,-0.043 -0.1,-0.073l0.054,-0.047c0.025,0.026 0.052,0.046 0.081,0.06c0.029,0.014 0.065,0.021 0.106,0.021c0.04,0 0.073,-0.007 0.099,-0.021c0.026,-0.014 0.038,-0.037 0.038,-0.068c0,-0.013 -0.002,-0.024 -0.008,-0.033c-0.005,-0.009 -0.012,-0.016 -0.021,-0.022c-0.009,-0.005 -0.018,-0.01 -0.029,-0.012c-0.011,-0.003 -0.022,-0.006 -0.034,-0.008l-0.081,-0.012c-0.018,-0.003 -0.038,-0.006 -0.059,-0.011c-0.021,-0.005 -0.04,-0.012 -0.057,-0.023c-0.017,-0.01 -0.032,-0.024 -0.043,-0.041c-0.012,-0.017 -0.017,-0.04 -0.018,-0.068c0,-0.026 0.005,-0.049 0.015,-0.068c0.01,-0.019 0.025,-0.035 0.043,-0.048c0.019,-0.013 0.041,-0.023 0.066,-0.029c0.025,-0.006 0.053,-0.01 0.083,-0.01c0.047,0 0.087,0.007 0.121,0.022c0.034,0.015 0.064,0.035 0.089,0.061l-0.052,0.049c-0.006,-0.007 -0.014,-0.015 -0.023,-0.022c-0.009,-0.008 -0.02,-0.015 -0.033,-0.021c-0.013,-0.006 -0.028,-0.012 -0.046,-0.016c-0.017,-0.004 -0.037,-0.006 -0.06,-0.006c-0.041,0 -0.072,0.007 -0.093,0.021c-0.022,0.014 -0.033,0.034 -0.033,0.061c0,0.013 0.002,0.025 0.007,0.033c0.005,0.009 0.012,0.016 0.021,0.022c0.009,0.005 0.018,0.01 0.029,0.013c0.011,0.003 0.022,0.006 0.034,0.008l0.081,0.012c0.019,0.003 0.038,0.006 0.059,0.011c0.021,0.005 0.04,0.012 0.057,0.023c0.017,0.01 0.032,0.024 0.044,0.042c0.012,0.017 0.017,0.04 0.017,0.068c0,0.051 -0.02,0.091 -0.059,0.119c-0.04,0.028 -0.092,0.042 -0.159,0.042Z" style="fill:#2b4272;fill-rule:nonzero;"/></g><g transform="matrix(70.992153,0,0,70.992153,245.896111,240)"><path d="M0.325,-0c-0.039,-0 -0.068,-0.011 -0.086,-0.033c-0.018,-0.022 -0.028,-0.05 -0.028,-0.085l0,-0.33l-0.172,0l-0,-0.068l0.128,0c0.017,0 0.029,-0.003 0.037,-0.01c0.007,-0.007 0.01,-0.019 0.01,-0.037l0,-0.135l0.077,0l0,0.182l0.235,0l0,0.068l-0.235,0l0,0.38l0.235,0l0,0.068l-0.201,-0Z" style="fill:#2b4272;fill-rule:nonzero;"/></g><g transform="matrix(70.992153,0,0,70.992153,288.491403,240)"><path d="M0.309,0.012c-0.037,0 -0.071,-0.006 -0.101,-0.019c-0.03,-0.013 -0.055,-0.031 -0.076,-0.054c-0.021,-0.024 -0.037,-0.052 -0.049,-0.085c-0.011,-0.033 -0.017,-0.07 -0.017,-0.111c0,-0.041 0.006,-0.079 0.018,-0.112c0.012,-0.033 0.028,-0.062 0.049,-0.086c0.021,-0.024 0.046,-0.042 0.075,-0.054c0.029,-0.013 0.061,-0.019 0.096,-0.019c0.035,0 0.066,0.006 0.095,0.019c0.028,0.013 0.052,0.03 0.073,0.052c0.02,0.022 0.035,0.049 0.046,0.08c0.011,0.031 0.016,0.064 0.016,0.101l0,0.038l-0.382,0l-0,0.024c0,0.023 0.004,0.044 0.011,0.063c0.007,0.019 0.018,0.036 0.032,0.05c0.014,0.014 0.03,0.025 0.05,0.033c0.02,0.008 0.041,0.012 0.066,0.012c0.035,0 0.065,-0.008 0.09,-0.024c0.025,-0.016 0.045,-0.038 0.058,-0.066l0.059,0.04c-0.015,0.035 -0.041,0.063 -0.077,0.085c-0.036,0.022 -0.079,0.034 -0.131,0.034Zm-0.005,-0.474c-0.022,0 -0.042,0.004 -0.061,0.012c-0.019,0.008 -0.035,0.019 -0.048,0.033c-0.014,0.014 -0.024,0.03 -0.032,0.049c-0.008,0.019 -0.012,0.04 -0.012,0.062l0,0.007l0.296,0l-0,-0.011c0,-0.023 -0.004,-0.043 -0.011,-0.062c-0.007,-0.019 -0.017,-0.035 -0.029,-0.048c-0.012,-0.014 -0.027,-0.024 -0.045,-0.032c-0.018,-0.007 -0.037,-0.011 -0.058,-0.011Z" style="fill:#2b4272;fill-rule:nonzero;"/></g><g transform="matrix(70.992153,0,0,70.992153,331.086695,240)"><path d="M0.054,-0l0,-0.516l0.074,0l0,0.06l0.004,0c0.008,-0.02 0.019,-0.037 0.034,-0.051c0.015,-0.014 0.036,-0.021 0.065,-0.021c0.03,0 0.052,0.007 0.067,0.022c0.015,0.015 0.024,0.035 0.027,0.059l0.003,0c0.009,-0.023 0.023,-0.043 0.04,-0.058c0.017,-0.015 0.041,-0.023 0.072,-0.023c0.042,0 0.07,0.015 0.084,0.044c0.014,0.029 0.022,0.071 0.022,0.126l0,0.358l-0.074,-0l0,-0.345c0,-0.044 -0.005,-0.075 -0.014,-0.091c-0.009,-0.017 -0.026,-0.026 -0.049,-0.026c-0.021,0 -0.039,0.007 -0.052,0.021c-0.013,0.014 -0.02,0.034 -0.02,0.062l0,0.379l-0.074,-0l0,-0.345c0,-0.044 -0.005,-0.075 -0.014,-0.091c-0.009,-0.017 -0.025,-0.026 -0.048,-0.026c-0.021,0 -0.039,0.007 -0.053,0.021c-0.014,0.014 -0.02,0.034 -0.02,0.062l0,0.379l-0.074,-0Z" style="fill:#2b4272;fill-rule:nonzero;"/></g><g transform="matrix(70.992153,0,0,70.992153,373.681986,240)"><path d="M0.495,-0c-0.031,-0 -0.054,-0.008 -0.067,-0.024c-0.013,-0.016 -0.022,-0.036 -0.025,-0.06l-0.005,0c-0.011,0.03 -0.029,0.054 -0.054,0.071c-0.025,0.017 -0.059,0.026 -0.101,0.025c-0.054,0 -0.097,-0.014 -0.129,-0.042c-0.032,-0.028 -0.048,-0.066 -0.048,-0.115c0,-0.048 0.018,-0.085 0.053,-0.111c0.035,-0.026 0.092,-0.039 0.17,-0.039l0.11,0l0,-0.051c-0,-0.038 -0.011,-0.067 -0.032,-0.085c-0.021,-0.019 -0.052,-0.029 -0.091,-0.029c-0.035,0 -0.063,0.007 -0.085,0.021c-0.022,0.014 -0.04,0.032 -0.053,0.055l-0.054,-0.04c0.007,-0.013 0.016,-0.026 0.027,-0.039c0.011,-0.013 0.025,-0.024 0.042,-0.033c0.017,-0.01 0.036,-0.017 0.057,-0.023c0.021,-0.006 0.045,-0.009 0.071,-0.009c0.061,0 0.109,0.015 0.144,0.046c0.036,0.031 0.054,0.073 0.054,0.128l0,0.284l0.072,0l0,0.07l-0.055,-0Zm-0.238,-0.055c0.021,0 0.04,-0.002 0.056,-0.007c0.017,-0.005 0.032,-0.012 0.044,-0.02c0.013,-0.008 0.023,-0.018 0.03,-0.03c0.007,-0.012 0.01,-0.024 0.011,-0.037l0,-0.085l-0.11,0c-0.048,0 -0.083,0.007 -0.105,0.02c-0.022,0.013 -0.033,0.033 -0.033,0.058l0,0.021c0,0.027 0.01,0.047 0.028,0.061c0.019,0.014 0.045,0.02 0.079,0.02Z" style="fill:#2b4272;fill-rule:nonzero;"/></g><g transform="matrix(70.992153,0,0,70.992153,416.277278,240)"><path d="M0.325,-0c-0.039,-0 -0.068,-0.011 -0.086,-0.033c-0.018,-0.022 -0.028,-0.05 -0.028,-0.085l0,-0.33l-0.172,0l-0,-0.068l0.128,0c0.017,0 0.029,-0.003 0.037,-0.01c0.007,-0.007 0.01,-0.019 0.01,-0.037l0,-0.135l0.077,0l0,0.182l0.235,0l0,0.068l-0.235,0l0,0.38l0.235,0l0,0.068l-0.201,-0Z" style="fill:#2b4272;fill-rule:nonzero;"/></g><g transform="matrix(70.992153,0,0,70.992153,458.87257,240)"><path d="M0.332,-0.63c-0.023,0 -0.04,-0.005 -0.049,-0.014c-0.009,-0.01 -0.014,-0.022 -0.014,-0.037l0,-0.016c0,-0.015 0.005,-0.027 0.014,-0.036c0.009,-0.01 0.026,-0.014 0.049,-0.014c0.023,0 0.04,0.005 0.049,0.014c0.009,0.01 0.014,0.022 0.014,0.036l0,0.016c0,0.015 -0.005,0.027 -0.014,0.037c-0.009,0.01 -0.026,0.014 -0.049,0.014Zm-0.226,0.562l0.186,-0l0,-0.38l-0.186,0l0,-0.068l0.266,0l0,0.448l0.174,0l0,0.068l-0.44,-0l0,-0.068Z" style="fill:#2b4272;fill-rule:nonzero;"/></g><g transform="matrix(70.992153,0,0,70.992153,501.467861,240)"><path d="M0.306,0.012c-0.054,0 -0.1,-0.009 -0.139,-0.028c-0.039,-0.018 -0.072,-0.043 -0.1,-0.073l0.054,-0.047c0.025,0.026 0.052,0.046 0.081,0.06c0.029,0.014 0.065,0.021 0.106,0.021c0.04,0 0.073,-0.007 0.099,-0.021c0.026,-0.014 0.038,-0.037 0.038,-0.068c0,-0.013 -0.002,-0.024 -0.008,-0.033c-0.005,-0.009 -0.012,-0.016 -0.021,-0.022c-0.009,-0.005 -0.018,-0.01 -0.029,-0.012c-0.011,-0.003 -0.022,-0.006 -0.034,-0.008l-0.081,-0.012c-0.018,-0.003 -0.038,-0.006 -0.059,-0.011c-0.021,-0.005 -0.04,-0.012 -0.057,-0.023c-0.017,-0.01 -0.032,-0.024 -0.043,-0.041c-0.012,-0.017 -0.017,-0.04 -0.018,-0.068c0,-0.026 0.005,-0.049 0.015,-0.068c0.01,-0.019 0.025,-0.035 0.043,-0.048c0.019,-0.013 0.041,-0.023 0.066,-0.029c0.025,-0.006 0.053,-0.01 0.083,-0.01c0.047,0 0.087,0.007 0.121,0.022c0.034,0.015 0.064,0.035 0.089,0.061l-0.052,0.049c-0.006,-0.007 -0.014,-0.015 -0.023,-0.022c-0.009,-0.008 -0.02,-0.015 -0.033,-0.021c-0.013,-0.006 -0.028,-0.012 -0.046,-0.016c-0.017,-0.004 -0.037,-0.006 -0.06,-0.006c-0.041,0 -0.072,0.007 -0.093,0.021c-0.022,0.014 -0.033,0.034 -0.033,0.061c0,0.013 0.002,0.025 0.007,0.033c0.005,0.009 0.012,0.016 0.021,0.022c0.009,0.005 0.018,0.01 0.029,0.013c0.011,0.003 0.022,0.006 0.034,0.008l0.081,0.012c0.019,0.003 0.038,0.006 0.059,0.011c0.021,0.005 0.04,0.012 0.057,0.023c0.017,0.01 0.032,0.024 0.044,0.042c0.012,0.017 0.017,0.04 0.017,0.068c0,0.051 -0.02,0.091 -0.059,0.119c-0.04,0.028 -0.092,0.042 -0.159,0.042Z" style="fill:#2b4272;fill-rule:nonzero;"/></g><g transform="matrix(70.992153,0,0,70.992153,544.063153,240)"><path d="M0.318,0.012c-0.037,0 -0.07,-0.006 -0.1,-0.019c-0.029,-0.013 -0.053,-0.031 -0.074,-0.054c-0.02,-0.023 -0.035,-0.052 -0.045,-0.085c-0.01,-0.033 -0.015,-0.07 -0.015,-0.111c0,-0.041 0.005,-0.078 0.016,-0.111c0.011,-0.033 0.026,-0.062 0.046,-0.086c0.02,-0.024 0.044,-0.042 0.073,-0.054c0.029,-0.013 0.061,-0.019 0.098,-0.019c0.05,0 0.091,0.011 0.122,0.033c0.031,0.022 0.054,0.051 0.069,0.086l-0.064,0.034c-0.009,-0.027 -0.025,-0.047 -0.046,-0.062c-0.022,-0.015 -0.049,-0.022 -0.081,-0.022c-0.023,0 -0.044,0.004 -0.062,0.012c-0.018,0.008 -0.034,0.019 -0.046,0.032c-0.013,0.014 -0.022,0.031 -0.029,0.05c-0.006,0.019 -0.009,0.04 -0.009,0.063l0,0.088c0,0.023 0.003,0.044 0.009,0.063c0.006,0.019 0.016,0.036 0.029,0.05c0.013,0.014 0.028,0.025 0.047,0.033c0.019,0.008 0.04,0.012 0.064,0.012c0.035,0 0.063,-0.008 0.086,-0.024c0.023,-0.016 0.041,-0.038 0.054,-0.066l0.057,0.039c-0.015,0.035 -0.039,0.063 -0.072,0.086c-0.032,0.023 -0.074,0.034 -0.127,0.034Z" style="fill:#2b4272;fill-rule:nonzero;"/></g><g transform="matrix(70.992153,0,0,70.992153,586.658445,240)"><path d="M0.098,-0.74l0.08,0l0,0.308l0.004,0c0.005,-0.013 0.012,-0.025 0.02,-0.037c0.008,-0.012 0.018,-0.022 0.029,-0.03c0.012,-0.009 0.025,-0.016 0.042,-0.021c0.016,-0.005 0.035,-0.008 0.056,-0.008c0.054,0 0.097,0.017 0.13,0.051c0.033,0.034 0.049,0.083 0.049,0.146l0,0.331l-0.08,-0l0,-0.317c0,-0.047 -0.01,-0.083 -0.031,-0.105c-0.021,-0.023 -0.051,-0.035 -0.091,-0.035c-0.016,0 -0.032,0.002 -0.047,0.006c-0.015,0.004 -0.029,0.01 -0.041,0.018c-0.012,0.008 -0.022,0.018 -0.029,0.031c-0.007,0.013 -0.011,0.027 -0.011,0.044l0,0.358l-0.08,-0l0,-0.74Z" style="fill:#2b4272;fill-rule:nonzero;"/></g></g></g><g transform="matrix(1,0,0,1,-27,195.322603)"><g><g transform="matrix(70.992153,0,0,70.992153,1548,158.055118)"><path d="M0.552,-0l-0.504,-0l-0,-0.075l0.395,-0.55l-0.378,0l0,-0.073l0.47,0l0,0.075l-0.396,0.55l0.413,-0l0,0.073Z" style="fill-rule:nonzero;"/></g><g transform="matrix(70.992153,0,0,70.992153,1590.595292,158.055118)"><path d="M0.422,-0.084l-0.004,0c-0.005,0.013 -0.012,0.025 -0.02,0.037c-0.008,0.012 -0.018,0.022 -0.03,0.03c-0.012,0.009 -0.025,0.016 -0.041,0.021c-0.016,0.005 -0.035,0.008 -0.056,0.008c-0.054,0 -0.097,-0.017 -0.13,-0.052c-0.033,-0.034 -0.049,-0.083 -0.049,-0.145l0,-0.331l0.08,0l0,0.317c0,0.047 0.01,0.083 0.031,0.106c0.021,0.023 0.051,0.034 0.091,0.034c0.016,0 0.032,-0.002 0.047,-0.006c0.015,-0.004 0.029,-0.01 0.041,-0.018c0.012,-0.008 0.022,-0.018 0.029,-0.03c0.007,-0.012 0.011,-0.027 0.011,-0.044l0,-0.358l0.08,0l0,0.516l-0.08,-0l0,-0.084Z" style="fill-rule:nonzero;"/></g><g transform="matrix(70.992153,0,0,70.992153,1633.190583,158.055118)"><path d="M0.306,0.012c-0.054,0 -0.1,-0.009 -0.139,-0.028c-0.039,-0.018 -0.072,-0.043 -0.1,-0.073l0.054,-0.047c0.025,0.026 0.052,0.046 0.081,0.06c0.029,0.014 0.065,0.021 0.106,0.021c0.04,0 0.073,-0.007 0.099,-0.021c0.026,-0.014 0.038,-0.037 0.038,-0.068c0,-0.013 -0.002,-0.024 -0.008,-0.033c-0.005,-0.009 -0.012,-0.016 -0.021,-0.022c-0.009,-0.005 -0.018,-0.01 -0.029,-0.012c-0.011,-0.003 -0.022,-0.006 -0.034,-0.008l-0.081,-0.012c-0.018,-0.003 -0.038,-0.006 -0.059,-0.011c-0.021,-0.005 -0.04,-0.012 -0.057,-0.023c-0.017,-0.01 -0.032,-0.024 -0.043,-0.041c-0.012,-0.017 -0.017,-0.04 -0.018,-0.068c0,-0.026 0.005,-0.049 0.015,-0.068c0.01,-0.019 0.025,-0.035 0.043,-0.048c0.019,-0.013 0.041,-0.023 0.066,-0.029c0.025,-0.006 0.053,-0.01 0.083,-0.01c0.047,0 0.087,0.007 0.121,0.022c0.034,0.015 0.064,0.035 0.089,0.061l-0.052,0.049c-0.006,-0.007 -0.014,-0.015 -0.023,-0.022c-0.009,-0.008 -0.02,-0.015 -0.033,-0.021c-0.013,-0.006 -0.028,-0.012 -0.046,-0.016c-0.017,-0.004 -0.037,-0.006 -0.06,-0.006c-0.041,0 -0.072,0.007 -0.093,0.021c-0.022,0.014 -0.033,0.034 -0.033,0.061c0,0.013 0.002,0.025 0.007,0.033c0.005,0.009 0.012,0.016 0.021,0.022c0.009,0.005 0.018,0.01 0.029,0.013c0.011,0.003 0.022,0.006 0.034,0.008l0.081,0.012c0.019,0.003 0.038,0.006 0.059,0.011c0.021,0.005 0.04,0.012 0.057,0.023c0.017,0.01 0.032,0.024 0.044,0.042c0.012,0.017 0.017,0.04 0.017,0.068c0,0.051 -0.02,0.091 -0.059,0.119c-0.04,0.028 -0.092,0.042 -0.159,0.042Z" style="fill-rule:nonzero;"/></g><g transform="matrix(70.992153,0,0,70.992153,1675.785875,158.055118)"><path d="M0.495,-0c-0.031,-0 -0.054,-0.008 -0.067,-0.024c-0.013,-0.016 -0.022,-0.036 -0.025,-0.06l-0.005,0c-0.011,0.03 -0.029,0.054 -0.054,0.071c-0.025,0.017 -0.059,0.026 -0.101,0.025c-0.054,0 -0.097,-0.014 -0.129,-0.042c-0.032,-0.028 -0.048,-0.066 -0.048,-0.115c0,-0.048 0.018,-0.085 0.053,-0.111c0.035,-0.026 0.092,-0.039 0.17,-0.039l0.11,0l0,-0.051c-0,-0.038 -0.011,-0.067 -0.032,-0.085c-0.021,-0.019 -0.052,-0.029 -0.091,-0.029c-0.035,0 -0.063,0.007 -0.085,0.021c-0.022,0.014 -0.04,0.032 -0.053,0.055l-0.054,-0.04c0.007,-0.013 0.016,-0.026 0.027,-0.039c0.011,-0.013 0.025,-0.024 0.042,-0.033c0.017,-0.01 0.036,-0.017 0.057,-0.023c0.021,-0.006 0.045,-0.009 0.071,-0.009c0.061,0 0.109,0.015 0.144,0.046c0.036,0.031 0.054,0.073 0.054,0.128l0,0.284l0.072,0l0,0.07l-0.055,-0Zm-0.238,-0.055c0.021,0 0.04,-0.002 0.056,-0.007c0.017,-0.005 0.032,-0.012 0.044,-0.02c0.013,-0.008 0.023,-0.018 0.03,-0.03c0.007,-0.012 0.01,-0.024 0.011,-0.037l0,-0.085l-0.11,0c-0.048,0 -0.083,0.007 -0.105,0.02c-0.022,0.013 -0.033,0.033 -0.033,0.058l0,0.021c0,0.027 0.01,0.047 0.028,0.061c0.019,0.014 0.045,0.02 0.079,0.02Z" style="fill-rule:nonzero;"/></g><g transform="matrix(70.992153,0,0,70.992153,1718.381167,158.055118)"><path d="M0.054,-0l0,-0.516l0.074,0l0,0.06l0.004,0c0.008,-0.02 0.019,-0.037 0.034,-0.051c0.015,-0.014 0.036,-0.021 0.065,-0.021c0.03,0 0.052,0.007 0.067,0.022c0.015,0.015 0.024,0.035 0.027,0.059l0.003,0c0.009,-0.023 0.023,-0.043 0.04,-0.058c0.017,-0.015 0.041,-0.023 0.072,-0.023c0.042,0 0.07,0.015 0.084,0.044c0.014,0.029 0.022,0.071 0.022,0.126l0,0.358l-0.074,-0l0,-0.345c0,-0.044 -0.005,-0.075 -0.014,-0.091c-0.009,-0.017 -0.026,-0.026 -0.049,-0.026c-0.021,0 -0.039,0.007 -0.052,0.021c-0.013,0.014 -0.02,0.034 -0.02,0.062l0,0.379l-0.074,-0l0,-0.345c0,-0.044 -0.005,-0.075 -0.014,-0.091c-0.009,-0.017 -0.025,-0.026 -0.048,-0.026c-0.021,0 -0.039,0.007 -0.053,0.021c-0.014,0.014 -0.02,0.034 -0.02,0.062l0,0.379l-0.074,-0Z" style="fill-rule:nonzero;"/></g><g transform="matrix(70.992153,0,0,70.992153,1760.976458,158.055118)"><path d="M0.054,-0l0,-0.516l0.074,0l0,0.06l0.004,0c0.008,-0.02 0.019,-0.037 0.034,-0.051c0.015,-0.014 0.036,-0.021 0.065,-0.021c0.03,0 0.052,0.007 0.067,0.022c0.015,0.015 0.024,0.035 0.027,0.059l0.003,0c0.009,-0.023 0.023,-0.043 0.04,-0.058c0.017,-0.015 0.041,-0.023 0.072,-0.023c0.042,0 0.07,0.015 0.084,0.044c0.014,0.029 0.022,0.071 0.022,0.126l0,0.358l-0.074,-0l0,-0.345c0,-0.044 -0.005,-0.075 -0.014,-0.091c-0.009,-0.017 -0.026,-0.026 -0.049,-0.026c-0.021,0 -0.039,0.007 -0.052,0.021c-0.013,0.014 -0.02,0.034 -0.02,0.062l0,0.379l-0.074,-0l0,-0.345c0,-0.044 -0.005,-0.075 -0.014,-0.091c-0.009,-0.017 -0.025,-0.026 -0.048,-0.026c-0.021,0 -0.039,0.007 -0.053,0.021c-0.014,0.014 -0.02,0.034 -0.02,0.062l0,0.379l-0.074,-0Z" style="fill-rule:nonzero;"/></g><g transform="matrix(70.992153,0,0,70.992153,1803.57175,158.055118)"><path d="M0.309,0.012c-0.037,0 -0.071,-0.006 -0.101,-0.019c-0.03,-0.013 -0.055,-0.031 -0.076,-0.054c-0.021,-0.024 -0.037,-0.052 -0.049,-0.085c-0.011,-0.033 -0.017,-0.07 -0.017,-0.111c0,-0.041 0.006,-0.079 0.018,-0.112c0.012,-0.033 0.028,-0.062 0.049,-0.086c0.021,-0.024 0.046,-0.042 0.075,-0.054c0.029,-0.013 0.061,-0.019 0.096,-0.019c0.035,0 0.066,0.006 0.095,0.019c0.028,0.013 0.052,0.03 0.073,0.052c0.02,0.022 0.035,0.049 0.046,0.08c0.011,0.031 0.016,0.064 0.016,0.101l0,0.038l-0.382,0l-0,0.024c0,0.023 0.004,0.044 0.011,0.063c0.007,0.019 0.018,0.036 0.032,0.05c0.014,0.014 0.03,0.025 0.05,0.033c0.02,0.008 0.041,0.012 0.066,0.012c0.035,0 0.065,-0.008 0.09,-0.024c0.025,-0.016 0.045,-0.038 0.058,-0.066l0.059,0.04c-0.015,0.035 -0.041,0.063 -0.077,0.085c-0.036,0.022 -0.079,0.034 -0.131,0.034Zm-0.005,-0.474c-0.022,0 -0.042,0.004 -0.061,0.012c-0.019,0.008 -0.035,0.019 -0.048,0.033c-0.014,0.014 -0.024,0.03 -0.032,0.049c-0.008,0.019 -0.012,0.04 -0.012,0.062l0,0.007l0.296,0l-0,-0.011c0,-0.023 -0.004,-0.043 -0.011,-0.062c-0.007,-0.019 -0.017,-0.035 -0.029,-0.048c-0.012,-0.014 -0.027,-0.024 -0.045,-0.032c-0.018,-0.007 -0.037,-0.011 -0.058,-0.011Z" style="fill-rule:nonzero;"/></g><g transform="matrix(70.992153,0,0,70.992153,1846.167042,158.055118)"><path d="M0.098,-0l0,-0.516l0.08,0l0,0.084l0.004,0c0.005,-0.013 0.012,-0.025 0.02,-0.037c0.008,-0.012 0.018,-0.022 0.029,-0.03c0.012,-0.009 0.025,-0.016 0.042,-0.021c0.016,-0.005 0.035,-0.008 0.056,-0.008c0.054,0 0.097,0.017 0.13,0.051c0.033,0.034 0.049,0.083 0.049,0.146l0,0.331l-0.08,-0l0,-0.317c0,-0.047 -0.01,-0.083 -0.031,-0.105c-0.021,-0.023 -0.051,-0.035 -0.091,-0.035c-0.016,0 -0.032,0.002 -0.047,0.006c-0.015,0.004 -0.029,0.01 -0.041,0.018c-0.012,0.008 -0.022,0.018 -0.029,0.031c-0.007,0.013 -0.011,0.027 -0.011,0.044l0,0.358l-0.08,-0Z" style="fill-rule:nonzero;"/></g><g transform="matrix(70.992153,0,0,70.992153,1888.762333,158.055118)"><path d="M0.098,-0.74l0.08,0l0,0.308l0.004,0c0.005,-0.013 0.012,-0.025 0.02,-0.037c0.008,-0.012 0.018,-0.022 0.029,-0.03c0.012,-0.009 0.025,-0.016 0.042,-0.021c0.016,-0.005 0.035,-0.008 0.056,-0.008c0.054,0 0.097,0.017 0.13,0.051c0.033,0.034 0.049,0.083 0.049,0.146l0,0.331l-0.08,-0l0,-0.317c0,-0.047 -0.01,-0.083 -0.031,-0.105c-0.021,-0.023 -0.051,-0.035 -0.091,-0.035c-0.016,0 -0.032,0.002 -0.047,0.006c-0.015,0.004 -0.029,0.01 -0.041,0.018c-0.012,0.008 -0.022,0.018 -0.029,0.031c-0.007,0.013 -0.011,0.027 -0.011,0.044l0,0.358l-0.08,-0l0,-0.74Z" style="fill-rule:nonzero;"/></g><g transform="matrix(70.992153,0,0,70.992153,1931.357625,158.055118)"><path d="M0.495,-0c-0.031,-0 -0.054,-0.008 -0.067,-0.024c-0.013,-0.016 -0.022,-0.036 -0.025,-0.06l-0.005,0c-0.011,0.03 -0.029,0.054 -0.054,0.071c-0.025,0.017 -0.059,0.026 -0.101,0.025c-0.054,0 -0.097,-0.014 -0.129,-0.042c-0.032,-0.028 -0.048,-0.066 -0.048,-0.115c0,-0.048 0.018,-0.085 0.053,-0.111c0.035,-0.026 0.092,-0.039 0.17,-0.039l0.11,0l0,-0.051c-0,-0.038 -0.011,-0.067 -0.032,-0.085c-0.021,-0.019 -0.052,-0.029 -0.091,-0.029c-0.035,0 -0.063,0.007 -0.085,0.021c-0.022,0.014 -0.04,0.032 -0.053,0.055l-0.054,-0.04c0.007,-0.013 0.016,-0.026 0.027,-0.039c0.011,-0.013 0.025,-0.024 0.042,-0.033c0.017,-0.01 0.036,-0.017 0.057,-0.023c0.021,-0.006 0.045,-0.009 0.071,-0.009c0.061,0 0.109,0.015 0.144,0.046c0.036,0.031 0.054,0.073 0.054,0.128l0,0.284l0.072,0l0,0.07l-0.055,-0Zm-0.238,-0.055c0.021,0 0.04,-0.002 0.056,-0.007c0.017,-0.005 0.032,-0.012 0.044,-0.02c0.013,-0.008 0.023,-0.018 0.03,-0.03c0.007,-0.012 0.01,-0.024 0.011,-0.037l0,-0.085l-0.11,0c-0.048,0 -0.083,0.007 -0.105,0.02c-0.022,0.013 -0.033,0.033 -0.033,0.058l0,0.021c0,0.027 0.01,0.047 0.028,0.061c0.019,0.014 0.045,0.02 0.079,0.02Zm-0.066,-0.563c-0.021,0 -0.035,-0.004 -0.044,-0.013c-0.009,-0.009 -0.013,-0.02 -0.013,-0.033l0,-0.014c0,-0.013 0.004,-0.024 0.013,-0.033c0.009,-0.009 0.023,-0.013 0.044,-0.013c0.021,0 0.035,0.004 0.044,0.013c0.009,0.009 0.013,0.02 0.013,0.033l0,0.014c0,0.013 -0.004,0.024 -0.013,0.033c-0.009,0.009 -0.023,0.013 -0.044,0.013Zm0.186,0c-0.021,0 -0.035,-0.004 -0.044,-0.013c-0.009,-0.009 -0.013,-0.02 -0.013,-0.033l0,-0.014c0,-0.013 0.004,-0.024 0.013,-0.033c0.009,-0.009 0.023,-0.013 0.044,-0.013c0.021,0 0.035,0.004 0.044,0.013c0.009,0.009 0.013,0.02 0.013,0.033l0,0.014c0,0.013 -0.004,0.024 -0.013,0.033c-0.009,0.009 -0.023,0.013 -0.044,0.013Z" style="fill-rule:nonzero;"/></g><g transform="matrix(70.992153,0,0,70.992153,1973.952917,158.055118)"><path d="M0.098,-0l0,-0.516l0.08,0l0,0.084l0.004,0c0.005,-0.013 0.012,-0.025 0.02,-0.037c0.008,-0.012 0.018,-0.022 0.029,-0.03c0.012,-0.009 0.025,-0.016 0.042,-0.021c0.016,-0.005 0.035,-0.008 0.056,-0.008c0.054,0 0.097,0.017 0.13,0.051c0.033,0.034 0.049,0.083 0.049,0.146l0,0.331l-0.08,-0l0,-0.317c0,-0.047 -0.01,-0.083 -0.031,-0.105c-0.021,-0.023 -0.051,-0.035 -0.091,-0.035c-0.016,0 -0.032,0.002 -0.047,0.006c-0.015,0.004 -0.029,0.01 -0.041,0.018c-0.012,0.008 -0.022,0.018 -0.029,0.031c-0.007,0.013 -0.011,0.027 -0.011,0.044l0,0.358l-0.08,-0Z" style="fill-rule:nonzero;"/></g><g transform="matrix(70.992153,0,0,70.992153,2016.548209,158.055118)"><path d="M0.561,0.059c0,0.052 -0.022,0.09 -0.065,0.116c-0.043,0.025 -0.108,0.037 -0.195,0.037c-0.083,0 -0.143,-0.011 -0.179,-0.033c-0.036,-0.022 -0.054,-0.054 -0.054,-0.095c0,-0.028 0.007,-0.05 0.022,-0.065c0.015,-0.015 0.035,-0.027 0.062,-0.034l0,-0.012c-0.015,-0.007 -0.026,-0.017 -0.034,-0.028c-0.008,-0.011 -0.012,-0.026 -0.012,-0.043c0,-0.027 0.009,-0.047 0.027,-0.06c0.018,-0.013 0.04,-0.023 0.067,-0.03l0,-0.004c-0.032,-0.014 -0.057,-0.035 -0.075,-0.062c-0.018,-0.027 -0.026,-0.059 -0.026,-0.096c0,-0.026 0.005,-0.05 0.014,-0.072c0.009,-0.022 0.023,-0.041 0.04,-0.057c0.018,-0.016 0.039,-0.028 0.064,-0.036c0.025,-0.009 0.052,-0.013 0.082,-0.013c0.039,0 0.073,0.007 0.102,0.021l0,-0.009c0,-0.02 0.005,-0.037 0.014,-0.05c0.009,-0.013 0.025,-0.02 0.048,-0.02l0.095,0l0,0.07l-0.116,0l0,0.035c0.019,0.016 0.033,0.035 0.043,0.057c0.01,0.022 0.015,0.047 0.015,0.074c0,0.026 -0.005,0.05 -0.015,0.072c-0.01,0.022 -0.023,0.041 -0.04,0.057c-0.017,0.016 -0.038,0.028 -0.064,0.037c-0.025,0.009 -0.052,0.013 -0.083,0.013c-0.009,0 -0.017,-0 -0.025,-0.001c-0.008,-0.001 -0.016,-0.002 -0.024,-0.003c-0.008,0.001 -0.016,0.003 -0.025,0.006c-0.009,0.003 -0.017,0.007 -0.024,0.012c-0.007,0.005 -0.013,0.011 -0.018,0.017c-0.005,0.007 -0.007,0.014 -0.007,0.023c0,0.015 0.008,0.025 0.023,0.03c0.015,0.005 0.035,0.008 0.06,0.008l0.114,0c0.067,0 0.115,0.012 0.145,0.037c0.03,0.025 0.045,0.059 0.045,0.101Zm-0.075,0.004c0,-0.021 -0.008,-0.037 -0.025,-0.05c-0.017,-0.012 -0.046,-0.018 -0.087,-0.018l-0.179,0c-0.035,0.014 -0.052,0.037 -0.052,0.07c0,0.023 0.009,0.042 0.027,0.058c0.018,0.016 0.048,0.024 0.09,0.024l0.078,0c0.047,0 0.083,-0.007 0.109,-0.021c0.026,-0.014 0.039,-0.035 0.039,-0.064Zm-0.189,-0.297c0.04,0 0.07,-0.009 0.089,-0.028c0.019,-0.019 0.028,-0.043 0.029,-0.074l0,-0.029c-0,-0.031 -0.01,-0.055 -0.029,-0.074c-0.019,-0.018 -0.049,-0.028 -0.089,-0.028c-0.04,0 -0.069,0.009 -0.088,0.028c-0.019,0.018 -0.028,0.043 -0.028,0.074l0,0.029c-0,0.031 0.009,0.055 0.028,0.074c0.019,0.019 0.048,0.028 0.088,0.028Z" style="fill-rule:nonzero;"/></g><g transform="matrix(70.992153,0,0,70.992153,2059.1435,158.055118)"><path d="M0.309,0.012c-0.037,0 -0.071,-0.006 -0.101,-0.019c-0.03,-0.013 -0.055,-0.031 -0.076,-0.054c-0.021,-0.024 -0.037,-0.052 -0.049,-0.085c-0.011,-0.033 -0.017,-0.07 -0.017,-0.111c0,-0.041 0.006,-0.079 0.018,-0.112c0.012,-0.033 0.028,-0.062 0.049,-0.086c0.021,-0.024 0.046,-0.042 0.075,-0.054c0.029,-0.013 0.061,-0.019 0.096,-0.019c0.035,0 0.066,0.006 0.095,0.019c0.028,0.013 0.052,0.03 0.073,0.052c0.02,0.022 0.035,0.049 0.046,0.08c0.011,0.031 0.016,0.064 0.016,0.101l0,0.038l-0.382,0l-0,0.024c0,0.023 0.004,0.044 0.011,0.063c0.007,0.019 0.018,0.036 0.032,0.05c0.014,0.014 0.03,0.025 0.05,0.033c0.02,0.008 0.041,0.012 0.066,0.012c0.035,0 0.065,-0.008 0.09,-0.024c0.025,-0.016 0.045,-0.038 0.058,-0.066l0.059,0.04c-0.015,0.035 -0.041,0.063 -0.077,0.085c-0.036,0.022 -0.079,0.034 -0.131,0.034Zm-0.005,-0.474c-0.022,0 -0.042,0.004 -0.061,0.012c-0.019,0.008 -0.035,0.019 -0.048,0.033c-0.014,0.014 -0.024,0.03 -0.032,0.049c-0.008,0.019 -0.012,0.04 -0.012,0.062l0,0.007l0.296,0l-0,-0.011c0,-0.023 -0.004,-0.043 -0.011,-0.062c-0.007,-0.019 -0.017,-0.035 -0.029,-0.048c-0.012,-0.014 -0.027,-0.024 -0.045,-0.032c-0.018,-0.007 -0.037,-0.011 -0.058,-0.011Z" style="fill-rule:nonzero;"/></g></g></g><g transform="matrix(1,0,0,1,-36,110.721549)"><g><g transform="matrix(70.992153,0,0,70.992153,533,1188)"><path d="M0.3,0.012c-0.043,0 -0.079,-0.008 -0.11,-0.025c-0.031,-0.016 -0.056,-0.04 -0.076,-0.071c-0.02,-0.031 -0.035,-0.068 -0.044,-0.113c-0.009,-0.045 -0.014,-0.096 -0.014,-0.153c0,-0.057 0.005,-0.107 0.014,-0.153c0.009,-0.045 0.024,-0.083 0.044,-0.113c0.02,-0.031 0.045,-0.054 0.076,-0.071c0.031,-0.016 0.067,-0.024 0.11,-0.024c0.043,0 0.079,0.008 0.11,0.024c0.031,0.016 0.056,0.04 0.076,0.071c0.02,0.031 0.035,0.068 0.044,0.113c0.009,0.045 0.014,0.096 0.014,0.153c0,0.057 -0.005,0.108 -0.014,0.153c-0.009,0.045 -0.024,0.082 -0.044,0.113c-0.02,0.031 -0.045,0.054 -0.076,0.071c-0.031,0.016 -0.067,0.025 -0.11,0.024Zm0,-0.073c0.028,0 0.052,-0.006 0.071,-0.017c0.019,-0.011 0.035,-0.026 0.048,-0.046c0.013,-0.02 0.022,-0.044 0.028,-0.073c0.006,-0.028 0.009,-0.06 0.009,-0.095l0,-0.114c0,-0.035 -0.003,-0.066 -0.009,-0.095c-0.006,-0.029 -0.015,-0.053 -0.028,-0.073c-0.013,-0.02 -0.029,-0.035 -0.048,-0.046c-0.019,-0.011 -0.043,-0.016 -0.071,-0.016c-0.028,0 -0.052,0.005 -0.071,0.016c-0.019,0.011 -0.035,0.027 -0.048,0.046c-0.013,0.02 -0.022,0.044 -0.027,0.073c-0.006,0.029 -0.009,0.06 -0.009,0.095l0,0.114c0,0.035 0.003,0.067 0.009,0.095c0.006,0.028 0.015,0.053 0.027,0.073c0.013,0.02 0.029,0.035 0.048,0.046c0.019,0.011 0.043,0.017 0.071,0.017Z" style="fill-rule:nonzero;"/></g><g transform="matrix(70.992153,0,0,70.992153,575.595292,1188)"><path d="M0.077,-0.068l0.151,0l-0,-0.38l-0.151,0l0,-0.068l0.231,0l0,0.13l0.005,0c0.011,-0.041 0.031,-0.072 0.06,-0.095c0.03,-0.023 0.068,-0.035 0.113,-0.035l0.072,0l0,0.08l-0.097,0c-0.046,0 -0.083,0.013 -0.111,0.04c-0.028,0.027 -0.043,0.062 -0.043,0.105l0,0.223l0.2,0l0,0.068l-0.431,-0l-0,-0.068Z" style="fill-rule:nonzero;"/></g><g transform="matrix(70.992153,0,0,70.992153,618.190583,1188)"><path d="M0.332,-0.63c-0.023,0 -0.04,-0.005 -0.049,-0.014c-0.009,-0.01 -0.014,-0.022 -0.014,-0.037l0,-0.016c0,-0.015 0.005,-0.027 0.014,-0.036c0.009,-0.01 0.026,-0.014 0.049,-0.014c0.023,0 0.04,0.005 0.049,0.014c0.009,0.01 0.014,0.022 0.014,0.036l0,0.016c0,0.015 -0.005,0.027 -0.014,0.037c-0.009,0.01 -0.026,0.014 -0.049,0.014Zm-0.226,0.562l0.186,-0l0,-0.38l-0.186,0l0,-0.068l0.266,0l0,0.448l0.174,0l0,0.068l-0.44,-0l0,-0.068Z" style="fill-rule:nonzero;"/></g><g transform="matrix(70.992153,0,0,70.992153,660.785875,1188)"><path d="M0.309,0.012c-0.037,0 -0.071,-0.006 -0.101,-0.019c-0.03,-0.013 -0.055,-0.031 -0.076,-0.054c-0.021,-0.024 -0.037,-0.052 -0.049,-0.085c-0.011,-0.033 -0.017,-0.07 -0.017,-0.111c0,-0.041 0.006,-0.079 0.018,-0.112c0.012,-0.033 0.028,-0.062 0.049,-0.086c0.021,-0.024 0.046,-0.042 0.075,-0.054c0.029,-0.013 0.061,-0.019 0.096,-0.019c0.035,0 0.066,0.006 0.095,0.019c0.028,0.013 0.052,0.03 0.073,0.052c0.02,0.022 0.035,0.049 0.046,0.08c0.011,0.031 0.016,0.064 0.016,0.101l0,0.038l-0.382,0l-0,0.024c0,0.023 0.004,0.044 0.011,0.063c0.007,0.019 0.018,0.036 0.032,0.05c0.014,0.014 0.03,0.025 0.05,0.033c0.02,0.008 0.041,0.012 0.066,0.012c0.035,0 0.065,-0.008 0.09,-0.024c0.025,-0.016 0.045,-0.038 0.058,-0.066l0.059,0.04c-0.015,0.035 -0.041,0.063 -0.077,0.085c-0.036,0.022 -0.079,0.034 -0.131,0.034Zm-0.005,-0.474c-0.022,0 -0.042,0.004 -0.061,0.012c-0.019,0.008 -0.035,0.019 -0.048,0.033c-0.014,0.014 -0.024,0.03 -0.032,0.049c-0.008,0.019 -0.012,0.04 -0.012,0.062l0,0.007l0.296,0l-0,-0.011c0,-0.023 -0.004,-0.043 -0.011,-0.062c-0.007,-0.019 -0.017,-0.035 -0.029,-0.048c-0.012,-0.014 -0.027,-0.024 -0.045,-0.032c-0.018,-0.007 -0.037,-0.011 -0.058,-0.011Z" style="fill-rule:nonzero;"/></g><g transform="matrix(70.992153,0,0,70.992153,703.381167,1188)"><path d="M0.098,-0l0,-0.516l0.08,0l0,0.084l0.004,0c0.005,-0.013 0.012,-0.025 0.02,-0.037c0.008,-0.012 0.018,-0.022 0.029,-0.03c0.012,-0.009 0.025,-0.016 0.042,-0.021c0.016,-0.005 0.035,-0.008 0.056,-0.008c0.054,0 0.097,0.017 0.13,0.051c0.033,0.034 0.049,0.083 0.049,0.146l0,0.331l-0.08,-0l0,-0.317c0,-0.047 -0.01,-0.083 -0.031,-0.105c-0.021,-0.023 -0.051,-0.035 -0.091,-0.035c-0.016,0 -0.032,0.002 -0.047,0.006c-0.015,0.004 -0.029,0.01 -0.041,0.018c-0.012,0.008 -0.022,0.018 -0.029,0.031c-0.007,0.013 -0.011,0.027 -0.011,0.044l0,0.358l-0.08,-0Z" style="fill-rule:nonzero;"/></g><g transform="matrix(70.992153,0,0,70.992153,745.976458,1188)"><path d="M0.325,-0c-0.039,-0 -0.068,-0.011 -0.086,-0.033c-0.018,-0.022 -0.028,-0.05 -0.028,-0.085l0,-0.33l-0.172,0l-0,-0.068l0.128,0c0.017,0 0.029,-0.003 0.037,-0.01c0.007,-0.007 0.01,-0.019 0.01,-0.037l0,-0.135l0.077,0l0,0.182l0.235,0l0,0.068l-0.235,0l0,0.38l0.235,0l0,0.068l-0.201,-0Z" style="fill-rule:nonzero;"/></g><g transform="matrix(70.992153,0,0,70.992153,788.57175,1188)"><path d="M0.332,-0.63c-0.023,0 -0.04,-0.005 -0.049,-0.014c-0.009,-0.01 -0.014,-0.022 -0.014,-0.037l0,-0.016c0,-0.015 0.005,-0.027 0.014,-0.036c0.009,-0.01 0.026,-0.014 0.049,-0.014c0.023,0 0.04,0.005 0.049,0.014c0.009,0.01 0.014,0.022 0.014,0.036l0,0.016c0,0.015 -0.005,0.027 -0.014,0.037c-0.009,0.01 -0.026,0.014 -0.049,0.014Zm-0.226,0.562l0.186,-0l0,-0.38l-0.186,0l0,-0.068l0.266,0l0,0.448l0.174,0l0,0.068l-0.44,-0l0,-0.068Z" style="fill-rule:nonzero;"/></g><g transform="matrix(70.992153,0,0,70.992153,831.167042,1188)"><path d="M0.309,0.012c-0.037,0 -0.071,-0.006 -0.101,-0.019c-0.03,-0.013 -0.055,-0.031 -0.076,-0.054c-0.021,-0.024 -0.037,-0.052 -0.049,-0.085c-0.011,-0.033 -0.017,-0.07 -0.017,-0.111c0,-0.041 0.006,-0.079 0.018,-0.112c0.012,-0.033 0.028,-0.062 0.049,-0.086c0.021,-0.024 0.046,-0.042 0.075,-0.054c0.029,-0.013 0.061,-0.019 0.096,-0.019c0.035,0 0.066,0.006 0.095,0.019c0.028,0.013 0.052,0.03 0.073,0.052c0.02,0.022 0.035,0.049 0.046,0.08c0.011,0.031 0.016,0.064 0.016,0.101l0,0.038l-0.382,0l-0,0.024c0,0.023 0.004,0.044 0.011,0.063c0.007,0.019 0.018,0.036 0.032,0.05c0.014,0.014 0.03,0.025 0.05,0.033c0.02,0.008 0.041,0.012 0.066,0.012c0.035,0 0.065,-0.008 0.09,-0.024c0.025,-0.016 0.045,-0.038 0.058,-0.066l0.059,0.04c-0.015,0.035 -0.041,0.063 -0.077,0.085c-0.036,0.022 -0.079,0.034 -0.131,0.034Zm-0.005,-0.474c-0.022,0 -0.042,0.004 -0.061,0.012c-0.019,0.008 -0.035,0.019 -0.048,0.033c-0.014,0.014 -0.024,0.03 -0.032,0.049c-0.008,0.019 -0.012,0.04 -0.012,0.062l0,0.007l0.296,0l-0,-0.011c0,-0.023 -0.004,-0.043 -0.011,-0.062c-0.007,-0.019 -0.017,-0.035 -0.029,-0.048c-0.012,-0.014 -0.027,-0.024 -0.045,-0.032c-0.018,-0.007 -0.037,-0.011 -0.058,-0.011Z" style="fill-rule:nonzero;"/></g><g transform="matrix(70.992153,0,0,70.992153,873.762333,1188)"><path d="M0.077,-0.068l0.151,0l-0,-0.38l-0.151,0l0,-0.068l0.231,0l0,0.13l0.005,0c0.011,-0.041 0.031,-0.072 0.06,-0.095c0.03,-0.023 0.068,-0.035 0.113,-0.035l0.072,0l0,0.08l-0.097,0c-0.046,0 -0.083,0.013 -0.111,0.04c-0.028,0.027 -0.043,0.062 -0.043,0.105l0,0.223l0.2,0l0,0.068l-0.431,-0l-0,-0.068Z" style="fill-rule:nonzero;"/></g><g transform="matrix(70.992153,0,0,70.992153,916.357625,1188)"><path d="M0.422,-0.084l-0.004,0c-0.005,0.013 -0.012,0.025 -0.02,0.037c-0.008,0.012 -0.018,0.022 -0.03,0.03c-0.012,0.009 -0.025,0.016 -0.041,0.021c-0.016,0.005 -0.035,0.008 -0.056,0.008c-0.054,0 -0.097,-0.017 -0.13,-0.052c-0.033,-0.034 -0.049,-0.083 -0.049,-0.145l0,-0.331l0.08,0l0,0.317c0,0.047 0.01,0.083 0.031,0.106c0.021,0.023 0.051,0.034 0.091,0.034c0.016,0 0.032,-0.002 0.047,-0.006c0.015,-0.004 0.029,-0.01 0.041,-0.018c0.012,-0.008 0.022,-0.018 0.029,-0.03c0.007,-0.012 0.011,-0.027 0.011,-0.044l0,-0.358l0.08,0l0,0.516l-0.08,-0l0,-0.084Z" style="fill-rule:nonzero;"/></g><g transform="matrix(70.992153,0,0,70.992153,958.952917,1188)"><path d="M0.098,-0l0,-0.516l0.08,0l0,0.084l0.004,0c0.005,-0.013 0.012,-0.025 0.02,-0.037c0.008,-0.012 0.018,-0.022 0.029,-0.03c0.012,-0.009 0.025,-0.016 0.042,-0.021c0.016,-0.005 0.035,-0.008 0.056,-0.008c0.054,0 0.097,0.017 0.13,0.051c0.033,0.034 0.049,0.083 0.049,0.146l0,0.331l-0.08,-0l0,-0.317c0,-0.047 -0.01,-0.083 -0.031,-0.105c-0.021,-0.023 -0.051,-0.035 -0.091,-0.035c-0.016,0 -0.032,0.002 -0.047,0.006c-0.015,0.004 -0.029,0.01 -0.041,0.018c-0.012,0.008 -0.022,0.018 -0.029,0.031c-0.007,0.013 -0.011,0.027 -0.011,0.044l0,0.358l-0.08,-0Z" style="fill-rule:nonzero;"/></g><g transform="matrix(70.992153,0,0,70.992153,1001.548209,1188)"><path d="M0.561,0.059c0,0.052 -0.022,0.09 -0.065,0.116c-0.043,0.025 -0.108,0.037 -0.195,0.037c-0.083,0 -0.143,-0.011 -0.179,-0.033c-0.036,-0.022 -0.054,-0.054 -0.054,-0.095c0,-0.028 0.007,-0.05 0.022,-0.065c0.015,-0.015 0.035,-0.027 0.062,-0.034l0,-0.012c-0.015,-0.007 -0.026,-0.017 -0.034,-0.028c-0.008,-0.011 -0.012,-0.026 -0.012,-0.043c0,-0.027 0.009,-0.047 0.027,-0.06c0.018,-0.013 0.04,-0.023 0.067,-0.03l0,-0.004c-0.032,-0.014 -0.057,-0.035 -0.075,-0.062c-0.018,-0.027 -0.026,-0.059 -0.026,-0.096c0,-0.026 0.005,-0.05 0.014,-0.072c0.009,-0.022 0.023,-0.041 0.04,-0.057c0.018,-0.016 0.039,-0.028 0.064,-0.036c0.025,-0.009 0.052,-0.013 0.082,-0.013c0.039,0 0.073,0.007 0.102,0.021l0,-0.009c0,-0.02 0.005,-0.037 0.014,-0.05c0.009,-0.013 0.025,-0.02 0.048,-0.02l0.095,0l0,0.07l-0.116,0l0,0.035c0.019,0.016 0.033,0.035 0.043,0.057c0.01,0.022 0.015,0.047 0.015,0.074c0,0.026 -0.005,0.05 -0.015,0.072c-0.01,0.022 -0.023,0.041 -0.04,0.057c-0.017,0.016 -0.038,0.028 -0.064,0.037c-0.025,0.009 -0.052,0.013 -0.083,0.013c-0.009,0 -0.017,-0 -0.025,-0.001c-0.008,-0.001 -0.016,-0.002 -0.024,-0.003c-0.008,0.001 -0.016,0.003 -0.025,0.006c-0.009,0.003 -0.017,0.007 -0.024,0.012c-0.007,0.005 -0.013,0.011 -0.018,0.017c-0.005,0.007 -0.007,0.014 -0.007,0.023c0,0.015 0.008,0.025 0.023,0.03c0.015,0.005 0.035,0.008 0.06,0.008l0.114,0c0.067,0 0.115,0.012 0.145,0.037c0.03,0.025 0.045,0.059 0.045,0.101Zm-0.075,0.004c0,-0.021 -0.008,-0.037 -0.025,-0.05c-0.017,-0.012 -0.046,-0.018 -0.087,-0.018l-0.179,0c-0.035,0.014 -0.052,0.037 -0.052,0.07c0,0.023 0.009,0.042 0.027,0.058c0.018,0.016 0.048,0.024 0.09,0.024l0.078,0c0.047,0 0.083,-0.007 0.109,-0.021c0.026,-0.014 0.039,-0.035 0.039,-0.064Zm-0.189,-0.297c0.04,0 0.07,-0.009 0.089,-0.028c0.019,-0.019 0.028,-0.043 0.029,-0.074l0,-0.029c-0,-0.031 -0.01,-0.055 -0.029,-0.074c-0.019,-0.018 -0.049,-0.028 -0.089,-0.028c-0.04,0 -0.069,0.009 -0.088,0.028c-0.019,0.018 -0.028,0.043 -0.028,0.074l0,0.029c-0,0.031 0.009,0.055 0.028,0.074c0.019,0.019 0.048,0.028 0.088,0.028Z" style="fill-rule:nonzero;"/></g></g></g></svg>