<?xml version="1.0" encoding="UTF-8" standalone="no"?><!DOCTYPE svg PUBLIC "-//W3C//DTD SVG 1.1//EN" "http://www.w3.org/Graphics/SVG/1.1/DTD/svg11.dtd"><svg width="100%" height="100%" viewBox="0 0 3071 3071" version="1.1" xmlns="http://www.w3.org/2000/svg" xmlns:xlink="http://www.w3.org/1999/xlink" xml:space="preserve" xmlns:serif="http://www.serif.com/" style="fill-rule:evenodd;clip-rule:evenodd;stroke-linecap:round;stroke-linejoin:round;stroke-miterlimit:1.5;"><g><path d="M-0,118.11l3070.866,0" style="fill:none;stroke:#000;stroke-width:1px;"/><path d="M0,2952.756l3070.866,0" style="fill:none;stroke:#000;stroke-width:1px;"/><path d="M118.11,3070.866l0,-3070.866" style="fill:none;stroke:#000;stroke-width:1px;"/><path d="M2952.756,3070.866l0,-3070.866" style="fill:none;stroke:#000;stroke-width:1px;"/></g><path d="M177.165,2952.756l0,-2834.646" style="fill:none;stroke:#000;stroke-width:1px;"/><path d="M236.22,2952.756l0,-2834.646" style="fill:none;stroke:#000;stroke-width:1px;"/><path d="M295.276,2952.756l0,-2834.646" style="fill:none;stroke:#000;stroke-width:1px;"/><path d="M354.331,2952.756l0,-2834.646" style="fill:none;stroke:#000;stroke-width:2.08px;"/><path d="M413.386,2952.756l0,-2834.646" style="fill:none;stroke:#000;stroke-width:1px;"/><path d="M472.441,2952.756l0,-2834.646" style="fill:none;stroke:#000;stroke-width:1px;"/><path d="M531.496,2952.756l0,-2834.646" style="fill:none;stroke:#000;stroke-width:1px;"/><path d="M590.551,2952.756l0,-2834.646" style="fill:none;stroke:#000;stroke-width:2.08px;"/><path d="M649.606,2952.756l0,-2834.646" style="fill:none;stroke:#000;stroke-width:1px;"/><path d="M708.661,2952.756l0,-2834.646" style="fill:none;stroke:#000;stroke-width:1px;"/><path d="M767.717,2952.756l0,-2834.646" style="fill:none;stroke:#000;stroke-width:1px;"/><path d="M826.772,2952.756l0,-2834.646" style="fill:none;stroke:#000;stroke-width:2.08px;"/><path d="M885.827,2952.756l0,-2834.646" style="fill:none;stroke:#000;stroke-width:1px;"/><path d="M944.882,2952.756l0,-2834.646" style="fill:none;stroke:#000;stroke-width:1px;"/><path d="M1003.937,2952.756l0,-2834.646" style="fill:none;stroke:#000;stroke-width:1px;"/><path d="M1062.992,2952.756l0,-2834.646" style="fill:none;stroke:#000;stroke-width:2.08px;"/><path d="M1122.047,2952.756l0,-2834.646" style="fill:none;stroke:#000;stroke-width:1px;"/><path d="M1181.102,2952.756l0,-2834.646" style="fill:none;stroke:#000;stroke-width:1px;"/><path d="M1240.157,2952.756l0,-2834.646" style="fill:none;stroke:#000;stroke-width:1px;"/><path d="M1299.213,2952.756l0,-2834.646" style="fill:none;stroke:#000;stroke-width:2.08px;"/><path d="M1358.268,2952.756l0,-2834.646" style="fill:none;stroke:#000;stroke-width:1px;"/><path d="M1417.323,2952.756l0,-2834.646" style="fill:none;stroke:#000;stroke-width:1px;"/><path d="M1476.378,2952.756l0,-2834.646" style="fill:none;stroke:#000;stroke-width:1px;"/><path d="M1535.433,2952.756l0,-2834.646" style="fill:none;stroke:#000;stroke-width:2.08px;"/><path d="M1594.488,2952.756l0,-2834.646" style="fill:none;stroke:#000;stroke-width:1px;"/><path d="M1653.543,2952.756l0,-2834.646" style="fill:none;stroke:#000;stroke-width:1px;"/><path d="M1712.598,2952.756l0,-2834.646" style="fill:none;stroke:#000;stroke-width:1px;"/><path d="M1771.654,2952.756l0,-2834.646" style="fill:none;stroke:#000;stroke-width:2.08px;"/><path d="M1830.709,2952.756l0,-2834.646" style="fill:none;stroke:#000;stroke-width:1px;"/><path d="M1889.764,2952.756l0,-2834.646" style="fill:none;stroke:#000;stroke-width:1px;"/><path d="M1948.819,2952.756l0,-2834.646" style="fill:none;stroke:#000;stroke-width:1px;"/><path d="M2007.874,2952.756l0,-2834.646" style="fill:none;stroke:#000;stroke-width:2.08px;"/><path d="M2066.929,2952.756l0,-2834.646" style="fill:none;stroke:#000;stroke-width:1px;"/><path d="M2125.984,2952.756l0,-2834.646" style="fill:none;stroke:#000;stroke-width:1px;"/><path d="M2185.039,2952.756l0,-2834.646" style="fill:none;stroke:#000;stroke-width:1px;"/><path d="M2244.094,2952.756l0,-2834.646" style="fill:none;stroke:#000;stroke-width:2.08px;"/><path d="M2303.15,2952.756l0,-2834.646" style="fill:none;stroke:#000;stroke-width:1px;"/><path d="M2362.205,2952.756l0,-2834.646" style="fill:none;stroke:#000;stroke-width:1px;"/><path d="M2421.26,2952.756l0,-2834.646" style="fill:none;stroke:#000;stroke-width:1px;"/><path d="M2480.315,2952.756l0,-2834.646" style="fill:none;stroke:#000;stroke-width:2.08px;"/><path d="M2539.37,2952.756l0,-2834.646" style="fill:none;stroke:#000;stroke-width:1px;"/><path d="M2598.425,2952.756l0,-2834.646" style="fill:none;stroke:#000;stroke-width:1px;"/><path d="M2657.48,2952.756l0,-2834.646" style="fill:none;stroke:#000;stroke-width:1px;"/><path d="M2716.535,2952.756l0,-2834.646" style="fill:none;stroke:#000;stroke-width:2.08px;"/><path d="M2775.591,2952.756l0,-2834.646" style="fill:none;stroke:#000;stroke-width:1px;"/><path d="M2834.646,2952.756l0,-2834.646" style="fill:none;stroke:#000;stroke-width:1px;"/><path d="M2893.701,2952.756l0,-2834.646" style="fill:none;stroke:#000;stroke-width:1px;"/><path d="M118.11,177.165l2834.646,0" style="fill:none;stroke:#000;stroke-width:1px;"/><path d="M118.11,236.22l2834.646,0" style="fill:none;stroke:#000;stroke-width:1px;"/><path d="M118.11,295.276l2834.646,0" style="fill:none;stroke:#000;stroke-width:1px;"/><path d="M118.11,354.331l2834.646,0" style="fill:none;stroke:#000;stroke-width:2.08px;"/><path d="M118.11,413.386l2834.646,0" style="fill:none;stroke:#000;stroke-width:1px;"/><path d="M118.11,472.441l2834.646,0" style="fill:none;stroke:#000;stroke-width:1px;"/><path d="M118.11,531.496l2834.646,0" style="fill:none;stroke:#000;stroke-width:1px;"/><path d="M118.11,590.551l2834.646,0" style="fill:none;stroke:#000;stroke-width:2.08px;"/><path d="M118.11,649.606l2834.646,0" style="fill:none;stroke:#000;stroke-width:1px;"/><path d="M118.11,708.661l2834.646,0" style="fill:none;stroke:#000;stroke-width:1px;"/><path d="M118.11,767.717l2834.646,0" style="fill:none;stroke:#000;stroke-width:1px;"/><path d="M118.11,826.772l2834.646,0" style="fill:none;stroke:#000;stroke-width:2.08px;"/><path d="M118.11,885.827l2834.646,0" style="fill:none;stroke:#000;stroke-width:1px;"/><path d="M118.11,944.882l2834.646,0" style="fill:none;stroke:#000;stroke-width:1px;"/><path d="M118.11,1003.937l2834.646,0" style="fill:none;stroke:#000;stroke-width:1px;"/><path d="M118.11,1062.992l2834.646,0" style="fill:none;stroke:#000;stroke-width:2.08px;"/><path d="M118.11,1122.047l2834.646,0" style="fill:none;stroke:#000;stroke-width:1px;"/><path d="M118.11,1181.102l2834.646,0" style="fill:none;stroke:#000;stroke-width:1px;"/><path d="M118.11,1240.157l2834.646,0" style="fill:none;stroke:#000;stroke-width:1px;"/><path d="M118.11,1299.213l2834.646,0" style="fill:none;stroke:#000;stroke-width:2.08px;"/><path d="M118.11,1358.268l2834.646,0" style="fill:none;stroke:#000;stroke-width:1px;"/><path d="M118.11,1417.323l2834.646,0" style="fill:none;stroke:#000;stroke-width:1px;"/><path d="M118.11,1476.378l2834.646,0" style="fill:none;stroke:#000;stroke-width:1px;"/><path d="M118.11,1535.433l2834.646,0" style="fill:none;stroke:#000;stroke-width:2.08px;"/><path d="M118.11,1594.488l2834.646,0" style="fill:none;stroke:#000;stroke-width:1px;"/><path d="M118.11,1653.543l2834.646,0" style="fill:none;stroke:#000;stroke-width:1px;"/><path d="M118.11,1712.598l2834.646,0" style="fill:none;stroke:#000;stroke-width:1px;"/><path d="M118.11,1771.654l2834.646,0" style="fill:none;stroke:#000;stroke-width:2.08px;"/><path d="M118.11,1830.709l2834.646,0" style="fill:none;stroke:#000;stroke-width:1px;"/><path d="M118.11,1889.764l2834.646,0" style="fill:none;stroke:#000;stroke-width:1px;"/><path d="M118.11,1948.819l2834.646,0" style="fill:none;stroke:#000;stroke-width:1px;"/><path d="M118.11,2007.874l2834.646,0" style="fill:none;stroke:#000;stroke-width:2.08px;"/><path d="M118.11,2066.929l2834.646,0" style="fill:none;stroke:#000;stroke-width:1px;"/><path d="M118.11,2125.984l2834.646,0" style="fill:none;stroke:#000;stroke-width:1px;"/><path d="M118.11,2185.039l2834.646,0" style="fill:none;stroke:#000;stroke-width:1px;"/><path d="M118.11,2244.094l2834.646,0" style="fill:none;stroke:#000;stroke-width:2.08px;"/><path d="M118.11,2303.15l2834.646,0" style="fill:none;stroke:#000;stroke-width:1px;"/><path d="M118.11,2362.205l2834.646,0" style="fill:none;stroke:#000;stroke-width:1px;"/><path d="M118.11,2421.26l2834.646,0" style="fill:none;stroke:#000;stroke-width:1px;"/><path d="M118.11,2480.315l2834.646,0" style="fill:none;stroke:#000;stroke-width:2.08px;"/><path d="M118.11,2539.37l2834.646,0" style="fill:none;stroke:#000;stroke-width:1px;"/><path d="M118.11,2598.425l2834.646,0" style="fill:none;stroke:#000;stroke-width:1px;"/><path d="M118.11,2657.48l2834.646,0" style="fill:none;stroke:#000;stroke-width:1px;"/><path d="M118.11,2716.535l2834.646,0" style="fill:none;stroke:#000;stroke-width:2.08px;"/><path d="M118.11,2775.591l2834.646,0" style="fill:none;stroke:#000;stroke-width:1px;"/><path d="M118.11,2834.646l2834.646,0" style="fill:none;stroke:#000;stroke-width:1px;"/><path d="M118.11,2893.701l2834.646,0" style="fill:none;stroke:#000;stroke-width:1px;"/></svg>