<?xml version="1.0" encoding="UTF-8" standalone="no"?><!DOCTYPE svg PUBLIC "-//W3C//DTD SVG 1.1//EN" "http://www.w3.org/Graphics/SVG/1.1/DTD/svg11.dtd"><svg width="100%" height="100%" viewBox="0 0 3071 3071" version="1.1" xmlns="http://www.w3.org/2000/svg" xmlns:xlink="http://www.w3.org/1999/xlink" xml:space="preserve" xmlns:serif="http://www.serif.com/" style="fill-rule:evenodd;clip-rule:evenodd;stroke-linecap:round;stroke-linejoin:round;stroke-miterlimit:1.5;"><g><path d="M118.123,118.11l122.049,0l0,469.889l6.102,0c50.854,-97.639 131.711,-146.459 242.573,-146.459c96.622,0 172.14,36.106 226.554,108.319c54.414,72.212 81.62,173.412 81.62,303.597c0,130.186 -27.207,231.385 -81.62,303.597c-54.414,72.212 -129.932,108.319 -226.554,108.319c-110.861,0 -191.719,-48.82 -242.573,-146.459l-6.102,0l0,128.152l-122.049,0l0,-1128.955Zm323.43,1038.944c71.195,0 126.372,-21.613 165.529,-64.839c39.157,-43.226 58.736,-100.436 58.736,-171.632l0,-134.254c0,-71.195 -19.579,-128.406 -58.736,-171.632c-39.157,-43.226 -94.334,-64.839 -165.529,-64.839c-27.461,0 -53.397,3.56 -77.806,10.679c-24.41,7.12 -45.768,17.545 -64.076,31.275c-18.307,13.731 -32.801,30.512 -43.48,50.345c-10.679,19.833 -16.019,42.971 -16.019,69.415l0,283.764c0,26.444 5.34,49.582 16.019,69.415c10.679,19.833 25.173,36.615 43.48,50.345c18.307,13.731 39.666,24.156 64.076,31.275c24.41,7.12 50.345,10.679 77.806,10.679Z" style="fill:#919191;fill-rule:nonzero;"/><path d="M856.534,118.11l122.049,0l0,469.889l6.102,0c50.854,-97.639 131.711,-146.459 242.573,-146.459c96.622,0 172.14,36.106 226.554,108.319c54.414,72.212 81.62,173.412 81.62,303.597c0,130.186 -27.207,231.385 -81.62,303.597c-54.414,72.212 -129.932,108.319 -226.554,108.319c-110.861,0 -191.719,-48.82 -242.573,-146.459l-6.102,0l0,128.152l-122.049,0l0,-1128.955Zm323.43,1038.944c71.195,0 126.372,-21.613 165.529,-64.839c39.157,-43.226 58.736,-100.436 58.736,-171.632l0,-134.254c0,-71.195 -19.579,-128.406 -58.736,-171.632c-39.157,-43.226 -94.334,-64.839 -165.529,-64.839c-27.461,0 -53.397,3.56 -77.806,10.679c-24.41,7.12 -45.768,17.545 -64.076,31.275c-18.307,13.731 -32.801,30.512 -43.48,50.345c-10.679,19.833 -16.019,42.971 -16.019,69.415l0,283.764c0,26.444 5.34,49.582 16.019,69.415c10.679,19.833 25.173,36.615 43.48,50.345c18.307,13.731 39.666,24.156 64.076,31.275c24.41,7.12 50.345,10.679 77.806,10.679Z" style="fill:#919191;fill-rule:nonzero;"/><path d="M118.123,460.128l122.049,0l0,128.152l6.102,0c50.854,-97.639 131.711,-146.459 242.573,-146.459c96.622,0 172.14,36.106 226.554,108.319c54.414,72.212 81.62,173.412 81.62,303.597c0,130.186 -27.207,231.385 -81.62,303.597c-54.414,72.212 -129.932,108.319 -226.554,108.319c-110.861,0 -191.719,-48.82 -242.573,-146.459l-6.102,0l0,433.275l-122.049,0l0,-1092.34Zm323.43,697.206c71.195,0 126.372,-21.613 165.529,-64.839c39.157,-43.226 58.736,-100.436 58.736,-171.632l0,-134.254c0,-71.195 -19.579,-128.406 -58.736,-171.632c-39.157,-43.226 -94.334,-64.839 -165.529,-64.839c-27.461,0 -53.397,3.56 -77.806,10.679c-24.41,7.12 -45.768,17.545 -64.076,31.275c-18.307,13.731 -32.801,30.512 -43.48,50.345c-10.679,19.833 -16.019,42.971 -16.019,69.415l0,283.764c0,26.444 5.34,49.582 16.019,69.415c10.679,19.833 25.173,36.615 43.48,50.345c18.307,13.731 39.666,24.156 64.076,31.275c24.41,7.12 50.345,10.679 77.806,10.679Z" style="fill:#3c3c3c;fill-rule:nonzero;"/><path d="M459.574,1143.323l274.611,0l0,-921.471l-274.611,0l0,-103.742l396.66,0l0,1025.213l274.611,0l0,103.742l-671.271,0l0,-103.742Z" style="fill-rule:nonzero;"/><path d="M734.485,1118.914l-6.102,0c-50.854,97.639 -131.711,146.459 -242.573,146.459c-96.622,0 -172.14,-36.106 -226.554,-108.319c-54.414,-72.212 -81.62,-173.412 -81.62,-303.597c0,-130.186 27.207,-231.385 81.62,-303.597c54.414,-72.212 129.932,-108.319 226.554,-108.319c110.861,0 191.719,48.82 242.573,146.459l6.102,0l0,-469.889l122.049,0l0,1128.955l-122.049,0l0,-128.152Zm-201.381,38.14c27.461,0 53.397,-3.56 77.806,-10.679c24.41,-7.12 45.768,-17.545 64.076,-31.275c18.307,-13.731 32.801,-30.512 43.48,-50.345c10.679,-19.833 16.019,-42.971 16.019,-69.415l0,-283.764c0,-26.444 -5.34,-49.582 -16.019,-69.415c-10.679,-19.833 -25.173,-36.615 -43.48,-50.345c-18.307,-13.731 -39.666,-24.156 -64.076,-31.275c-24.41,-7.12 -50.345,-10.679 -77.806,-10.679c-71.195,0 -126.372,21.613 -165.529,64.839c-39.157,43.226 -58.736,100.436 -58.736,171.632l0,134.254c0,71.195 19.579,128.406 58.736,171.632c39.157,43.226 94.334,64.839 165.529,64.839Z" style="fill:#606060;fill-rule:nonzero;"/></g><g><path d="M-0,118.11l3070.866,0" style="fill:none;stroke:#000;stroke-width:1px;"/><path d="M0,2952.756l3070.866,0" style="fill:none;stroke:#000;stroke-width:1px;"/><path d="M118.11,3070.866l0,-3070.866" style="fill:none;stroke:#000;stroke-width:1px;"/><path d="M2952.756,3070.866l0,-3070.866" style="fill:none;stroke:#000;stroke-width:1px;"/></g><g><g><g><g><path d="M177.165,2952.756l0,-2834.646" style="fill:none;stroke:#000;stroke-width:1px;"/><path d="M236.22,2952.756l0,-2834.646" style="fill:none;stroke:#000;stroke-width:1px;"/><path d="M295.276,2952.756l0,-2834.646" style="fill:none;stroke:#000;stroke-width:1px;"/><path d="M354.331,2952.756l0,-2834.646" style="fill:none;stroke:#000;stroke-width:2.08px;"/><path d="M413.386,2952.756l0,-2834.646" style="fill:none;stroke:#000;stroke-width:1px;"/><path d="M472.441,2952.756l0,-2834.646" style="fill:none;stroke:#000;stroke-width:1px;"/><path d="M531.496,2952.756l0,-2834.646" style="fill:none;stroke:#000;stroke-width:1px;"/><path d="M590.551,2952.756l0,-2834.646" style="fill:none;stroke:#000;stroke-width:2.08px;"/><path d="M649.606,2952.756l0,-2834.646" style="fill:none;stroke:#000;stroke-width:1px;"/><path d="M708.661,2952.756l0,-2834.646" style="fill:none;stroke:#000;stroke-width:1px;"/><path d="M767.717,2952.756l0,-2834.646" style="fill:none;stroke:#000;stroke-width:1px;"/><path d="M826.772,2952.756l0,-2834.646" style="fill:none;stroke:#000;stroke-width:2.08px;"/><path d="M885.827,2952.756l0,-2834.646" style="fill:none;stroke:#000;stroke-width:1px;"/><path d="M944.882,2952.756l0,-2834.646" style="fill:none;stroke:#000;stroke-width:1px;"/><path d="M1003.937,2952.756l0,-2834.646" style="fill:none;stroke:#000;stroke-width:1px;"/><path d="M1062.992,2952.756l0,-2834.646" style="fill:none;stroke:#000;stroke-width:2.08px;"/><path d="M1122.047,2952.756l0,-2834.646" style="fill:none;stroke:#000;stroke-width:1px;"/><path d="M1181.102,2952.756l0,-2834.646" style="fill:none;stroke:#000;stroke-width:1px;"/><path d="M1240.157,2952.756l0,-2834.646" style="fill:none;stroke:#000;stroke-width:1px;"/><path d="M1299.213,2952.756l0,-2834.646" style="fill:none;stroke:#000;stroke-width:2.08px;"/><path d="M1358.268,2952.756l0,-2834.646" style="fill:none;stroke:#000;stroke-width:1px;"/><path d="M1417.323,2952.756l0,-2834.646" style="fill:none;stroke:#000;stroke-width:1px;"/><path d="M1476.378,2952.756l0,-2834.646" style="fill:none;stroke:#000;stroke-width:1px;"/><path d="M1535.433,2952.756l0,-2834.646" style="fill:none;stroke:#000;stroke-width:2.08px;"/><path d="M1594.488,2952.756l0,-2834.646" style="fill:none;stroke:#000;stroke-width:1px;"/><path d="M1653.543,2952.756l0,-2834.646" style="fill:none;stroke:#000;stroke-width:1px;"/><path d="M1712.598,2952.756l0,-2834.646" style="fill:none;stroke:#000;stroke-width:1px;"/><path d="M1771.654,2952.756l0,-2834.646" style="fill:none;stroke:#000;stroke-width:2.08px;"/><path d="M1830.709,2952.756l0,-2834.646" style="fill:none;stroke:#000;stroke-width:1px;"/><path d="M1889.764,2952.756l0,-2834.646" style="fill:none;stroke:#000;stroke-width:1px;"/><path d="M1948.819,2952.756l0,-2834.646" style="fill:none;stroke:#000;stroke-width:1px;"/><path d="M2007.874,2952.756l0,-2834.646" style="fill:none;stroke:#000;stroke-width:2.08px;"/><path d="M2066.929,2952.756l0,-2834.646" style="fill:none;stroke:#000;stroke-width:1px;"/><path d="M2125.984,2952.756l0,-2834.646" style="fill:none;stroke:#000;stroke-width:1px;"/><path d="M2185.039,2952.756l0,-2834.646" style="fill:none;stroke:#000;stroke-width:1px;"/><path d="M2244.094,2952.756l0,-2834.646" style="fill:none;stroke:#000;stroke-width:2.08px;"/><path d="M2303.15,2952.756l0,-2834.646" style="fill:none;stroke:#000;stroke-width:1px;"/><path d="M2362.205,2952.756l0,-2834.646" style="fill:none;stroke:#000;stroke-width:1px;"/><path d="M2421.26,2952.756l0,-2834.646" style="fill:none;stroke:#000;stroke-width:1px;"/><path d="M2480.315,2952.756l0,-2834.646" style="fill:none;stroke:#000;stroke-width:2.08px;"/><path d="M2539.37,2952.756l0,-2834.646" style="fill:none;stroke:#000;stroke-width:1px;"/><path d="M2598.425,2952.756l0,-2834.646" style="fill:none;stroke:#000;stroke-width:1px;"/><path d="M2657.48,2952.756l0,-2834.646" style="fill:none;stroke:#000;stroke-width:1px;"/><path d="M2716.535,2952.756l0,-2834.646" style="fill:none;stroke:#000;stroke-width:2.08px;"/><path d="M2775.591,2952.756l0,-2834.646" style="fill:none;stroke:#000;stroke-width:1px;"/><path d="M2834.646,2952.756l0,-2834.646" style="fill:none;stroke:#000;stroke-width:1px;"/></g><path d="M2893.701,2952.756l0,-2834.646" style="fill:none;stroke:#000;stroke-width:1px;"/><path d="M118.11,177.165l2834.646,0" style="fill:none;stroke:#000;stroke-width:1px;"/><path d="M118.11,236.22l2834.646,0" style="fill:none;stroke:#000;stroke-width:1px;"/><path d="M118.11,295.276l2834.646,0" style="fill:none;stroke:#000;stroke-width:1px;"/><path d="M118.11,354.331l2834.646,0" style="fill:none;stroke:#000;stroke-width:2.08px;"/><path d="M118.11,413.386l2834.646,0" style="fill:none;stroke:#000;stroke-width:1px;"/><path d="M118.11,472.441l2834.646,0" style="fill:none;stroke:#000;stroke-width:1px;"/><path d="M118.11,531.496l2834.646,0" style="fill:none;stroke:#000;stroke-width:1px;"/><path d="M118.11,590.551l2834.646,0" style="fill:none;stroke:#000;stroke-width:2.08px;"/><path d="M118.11,649.606l2834.646,0" style="fill:none;stroke:#000;stroke-width:1px;"/><path d="M118.11,708.661l2834.646,0" style="fill:none;stroke:#000;stroke-width:1px;"/><path d="M118.11,767.717l2834.646,0" style="fill:none;stroke:#000;stroke-width:1px;"/><path d="M118.11,826.772l2834.646,0" style="fill:none;stroke:#000;stroke-width:2.08px;"/><path d="M118.11,885.827l2834.646,0" style="fill:none;stroke:#000;stroke-width:1px;"/><path d="M118.11,944.882l2834.646,0" style="fill:none;stroke:#000;stroke-width:1px;"/><path d="M118.11,1003.937l2834.646,0" style="fill:none;stroke:#000;stroke-width:1px;"/><path d="M118.11,1062.992l2834.646,0" style="fill:none;stroke:#000;stroke-width:2.08px;"/><path d="M118.11,1122.047l2834.646,0" style="fill:none;stroke:#000;stroke-width:1px;"/></g><path d="M118.11,1181.102l2834.646,0" style="fill:none;stroke:#000;stroke-width:1px;"/><path d="M118.11,1240.157l2834.646,0" style="fill:none;stroke:#000;stroke-width:1px;"/><path d="M118.11,1299.213l2834.646,0" style="fill:none;stroke:#000;stroke-width:2.08px;"/><path d="M118.11,1358.268l2834.646,0" style="fill:none;stroke:#000;stroke-width:1px;"/><path d="M118.11,1417.323l2834.646,0" style="fill:none;stroke:#000;stroke-width:1px;"/><path d="M118.11,1476.378l2834.646,0" style="fill:none;stroke:#000;stroke-width:1px;"/><path d="M118.11,1535.433l2834.646,0" style="fill:none;stroke:#000;stroke-width:2.08px;"/><path d="M118.11,1594.488l2834.646,0" style="fill:none;stroke:#000;stroke-width:1px;"/><path d="M118.11,1653.543l2834.646,0" style="fill:none;stroke:#000;stroke-width:1px;"/><path d="M118.11,1712.598l2834.646,0" style="fill:none;stroke:#000;stroke-width:1px;"/><path d="M118.11,1771.654l2834.646,0" style="fill:none;stroke:#000;stroke-width:2.08px;"/><path d="M118.11,1830.709l2834.646,0" style="fill:none;stroke:#000;stroke-width:1px;"/><path d="M118.11,1889.764l2834.646,0" style="fill:none;stroke:#000;stroke-width:1px;"/><path d="M118.11,1948.819l2834.646,0" style="fill:none;stroke:#000;stroke-width:1px;"/><path d="M118.11,2007.874l2834.646,0" style="fill:none;stroke:#000;stroke-width:2.08px;"/><path d="M118.11,2066.929l2834.646,0" style="fill:none;stroke:#000;stroke-width:1px;"/><path d="M118.11,2125.984l2834.646,0" style="fill:none;stroke:#000;stroke-width:1px;"/><path d="M118.11,2185.039l2834.646,0" style="fill:none;stroke:#000;stroke-width:1px;"/><path d="M118.11,2244.094l2834.646,0" style="fill:none;stroke:#000;stroke-width:2.08px;"/><path d="M118.11,2303.15l2834.646,0" style="fill:none;stroke:#000;stroke-width:1px;"/><path d="M118.11,2362.205l2834.646,0" style="fill:none;stroke:#000;stroke-width:1px;"/></g><path d="M118.11,2421.26l2834.646,0" style="fill:none;stroke:#000;stroke-width:1px;"/><path d="M118.11,2480.315l2834.646,0" style="fill:none;stroke:#000;stroke-width:2.08px;"/><path d="M118.11,2539.37l2834.646,0" style="fill:none;stroke:#000;stroke-width:1px;"/><path d="M118.11,2598.425l2834.646,0" style="fill:none;stroke:#000;stroke-width:1px;"/><path d="M118.11,2657.48l2834.646,0" style="fill:none;stroke:#000;stroke-width:1px;"/><path d="M118.11,2716.535l2834.646,0" style="fill:none;stroke:#000;stroke-width:2.08px;"/><path d="M118.11,2775.591l2834.646,0" style="fill:none;stroke:#000;stroke-width:1px;"/><path d="M118.11,2834.646l2834.646,0" style="fill:none;stroke:#000;stroke-width:1px;"/><path d="M118.11,2893.701l2834.646,0" style="fill:none;stroke:#000;stroke-width:1px;"/></g><g><path d="M2809.711,1889.764c-35.433,0 -65.945,-6.015 -91.535,-18.045c-25.591,-12.03 -47.353,-28.106 -65.289,-48.228l35.433,-30.84c16.185,17.06 33.902,30.184 53.15,39.37c19.248,9.186 42.432,13.78 69.554,13.78c26.247,0 47.791,-4.703 64.633,-14.108c16.842,-9.405 25.262,-24.169 25.262,-44.291c0,-8.749 -1.64,-16.076 -4.921,-21.982c-3.281,-5.906 -7.765,-10.608 -13.451,-14.108c-5.687,-3.5 -12.03,-6.234 -19.029,-8.202c-6.999,-1.969 -14.436,-3.609 -22.31,-4.921l-53.15,-7.874c-11.811,-1.75 -24.606,-4.156 -38.386,-7.218c-13.78,-3.062 -26.356,-7.983 -37.73,-14.764c-11.374,-6.78 -20.888,-15.857 -28.543,-27.231c-7.655,-11.374 -11.483,-26.247 -11.483,-44.619c0,-17.06 3.39,-31.824 10.171,-44.291c6.78,-12.467 16.295,-22.966 28.543,-31.496c12.248,-8.53 26.684,-14.873 43.307,-19.029c16.623,-4.156 34.777,-6.234 54.462,-6.234c30.621,0 57.196,4.812 79.724,14.436c22.528,9.624 41.885,22.966 58.071,40.026l-34.121,32.152c-3.937,-4.812 -8.858,-9.733 -14.764,-14.764c-5.906,-5.031 -13.123,-9.624 -21.654,-13.78c-8.53,-4.156 -18.482,-7.546 -29.856,-10.171c-11.374,-2.625 -24.497,-3.937 -39.37,-3.937c-26.684,0 -47.135,4.593 -61.352,13.78c-14.217,9.186 -21.325,22.528 -21.325,40.026c0,8.749 1.64,16.076 4.921,21.982c3.281,5.906 7.765,10.608 13.451,14.108c5.687,3.5 12.139,6.234 19.357,8.202c7.218,1.969 14.545,3.609 21.982,4.921l53.15,7.874c12.248,1.75 25.153,4.156 38.714,7.218c13.561,3.062 26.028,7.983 37.402,14.764c11.374,6.78 20.888,15.857 28.543,27.231c7.655,11.374 11.483,26.247 11.483,44.619c0,33.683 -13.014,59.711 -39.042,78.084c-26.028,18.373 -60.696,27.559 -104.003,27.559Z" style="fill-rule:nonzero;"/><path d="M2809.711,826.772c-35.433,0 -65.945,-6.015 -91.535,-18.045c-25.591,-12.03 -47.353,-28.106 -65.289,-48.228l35.433,-30.84c16.185,17.06 33.902,30.184 53.15,39.37c19.248,9.186 42.432,13.78 69.554,13.78c26.247,0 47.791,-4.703 64.633,-14.108c16.842,-9.405 25.262,-24.169 25.262,-44.291c0,-8.749 -1.64,-16.076 -4.921,-21.982c-3.281,-5.906 -7.765,-10.608 -13.451,-14.108c-5.687,-3.5 -12.03,-6.234 -19.029,-8.202c-6.999,-1.969 -14.436,-3.609 -22.31,-4.921l-53.15,-7.874c-11.811,-1.75 -24.606,-4.156 -38.386,-7.218c-13.78,-3.062 -26.356,-7.983 -37.73,-14.764c-11.374,-6.78 -20.888,-15.857 -28.543,-27.231c-7.655,-11.374 -11.483,-26.247 -11.483,-44.619c0,-17.06 3.39,-31.824 10.171,-44.291c6.78,-12.467 16.295,-22.966 28.543,-31.496c12.248,-8.53 26.684,-14.873 43.307,-19.029c16.623,-4.156 34.777,-6.234 54.462,-6.234c30.621,0 57.196,4.812 79.724,14.436c22.528,9.624 41.885,22.966 58.071,40.026l-34.121,32.152c-3.937,-4.812 -8.858,-9.733 -14.764,-14.764c-5.906,-5.031 -13.123,-9.624 -21.654,-13.78c-8.53,-4.156 -18.482,-7.546 -29.856,-10.171c-11.374,-2.625 -24.497,-3.937 -39.37,-3.937c-26.684,0 -47.135,4.593 -61.352,13.78c-14.217,9.186 -21.325,22.528 -21.325,40.026c0,8.749 1.64,16.076 4.921,21.982c3.281,5.906 7.765,10.608 13.451,14.108c5.687,3.5 12.139,6.234 19.357,8.202c7.218,1.969 14.545,3.609 21.982,4.921l53.15,7.874c12.248,1.75 25.153,4.156 38.714,7.218c13.561,3.062 26.028,7.983 37.402,14.764c11.374,6.78 20.888,15.857 28.543,27.231c7.655,11.374 11.483,26.247 11.483,44.619c0,33.683 -13.014,59.711 -39.042,78.084c-26.028,18.373 -60.696,27.559 -104.003,27.559Z" style="fill-rule:nonzero;"/><path d="M2809.711,1181.102c-35.433,0 -65.945,-6.015 -91.535,-18.045c-25.591,-12.03 -47.353,-28.106 -65.289,-48.228l35.433,-30.84c16.185,17.06 33.902,30.184 53.15,39.37c19.248,9.186 42.432,13.78 69.554,13.78c26.247,0 47.791,-4.703 64.633,-14.108c16.842,-9.405 25.262,-24.169 25.262,-44.291c0,-8.749 -1.64,-16.076 -4.921,-21.982c-3.281,-5.906 -7.765,-10.608 -13.451,-14.108c-5.687,-3.5 -12.03,-6.234 -19.029,-8.202c-6.999,-1.969 -14.436,-3.609 -22.31,-4.921l-53.15,-7.874c-11.811,-1.75 -24.606,-4.156 -38.386,-7.218c-13.78,-3.062 -26.356,-7.983 -37.73,-14.764c-11.374,-6.78 -20.888,-15.857 -28.543,-27.231c-7.655,-11.374 -11.483,-26.247 -11.483,-44.619c0,-17.06 3.39,-31.824 10.171,-44.291c6.78,-12.467 16.295,-22.966 28.543,-31.496c12.248,-8.53 26.684,-14.873 43.307,-19.029c16.623,-4.156 34.777,-6.234 54.462,-6.234c30.621,0 57.196,4.812 79.724,14.436c22.528,9.624 41.885,22.966 58.071,40.026l-34.121,32.152c-3.937,-4.812 -8.858,-9.733 -14.764,-14.764c-5.906,-5.031 -13.123,-9.624 -21.654,-13.78c-8.53,-4.156 -18.482,-7.546 -29.856,-10.171c-11.374,-2.625 -24.497,-3.937 -39.37,-3.937c-26.684,0 -47.135,4.593 -61.352,13.78c-14.217,9.186 -21.325,22.528 -21.325,40.026c0,8.749 1.64,16.076 4.921,21.982c3.281,5.906 7.765,10.608 13.451,14.108c5.687,3.5 12.139,6.234 19.357,8.202c7.218,1.969 14.545,3.609 21.982,4.921l53.15,7.874c12.248,1.75 25.153,4.156 38.714,7.218c13.561,3.062 26.028,7.983 37.402,14.764c11.374,6.78 20.888,15.857 28.543,27.231c7.655,11.374 11.483,26.247 11.483,44.619c0,33.683 -13.014,59.711 -39.042,78.084c-26.028,18.373 -60.696,27.559 -104.003,27.559Z" style="fill-rule:nonzero;"/><path d="M2809.711,472.441c-35.433,0 -65.945,-6.015 -91.535,-18.045c-25.591,-12.03 -47.353,-28.106 -65.289,-48.228l35.433,-30.84c16.185,17.06 33.902,30.184 53.15,39.37c19.248,9.186 42.432,13.78 69.554,13.78c26.247,0 47.791,-4.703 64.633,-14.108c16.842,-9.405 25.262,-24.169 25.262,-44.291c0,-8.749 -1.64,-16.076 -4.921,-21.982c-3.281,-5.906 -7.765,-10.608 -13.451,-14.108c-5.687,-3.5 -12.03,-6.234 -19.029,-8.202c-6.999,-1.969 -14.436,-3.609 -22.31,-4.921l-53.15,-7.874c-11.811,-1.75 -24.606,-4.156 -38.386,-7.218c-13.78,-3.062 -26.356,-7.983 -37.73,-14.764c-11.374,-6.78 -20.888,-15.857 -28.543,-27.231c-7.655,-11.374 -11.483,-26.247 -11.483,-44.619c0,-17.06 3.39,-31.824 10.171,-44.291c6.78,-12.467 16.295,-22.966 28.543,-31.496c12.248,-8.53 26.684,-14.873 43.307,-19.029c16.623,-4.156 34.777,-6.234 54.462,-6.234c30.621,0 57.196,4.812 79.724,14.436c22.528,9.624 41.885,22.966 58.071,40.026l-34.121,32.152c-3.937,-4.812 -8.858,-9.733 -14.764,-14.764c-5.906,-5.031 -13.123,-9.624 -21.654,-13.78c-8.53,-4.156 -18.482,-7.546 -29.856,-10.171c-11.374,-2.625 -24.497,-3.937 -39.37,-3.937c-26.684,0 -47.135,4.593 -61.352,13.78c-14.217,9.186 -21.325,22.528 -21.325,40.026c0,8.749 1.64,16.076 4.921,21.982c3.281,5.906 7.765,10.608 13.451,14.108c5.687,3.5 12.139,6.234 19.357,8.202c7.218,1.969 14.545,3.609 21.982,4.921l53.15,7.874c12.248,1.75 25.153,4.156 38.714,7.218c13.561,3.062 26.028,7.983 37.402,14.764c11.374,6.78 20.888,15.857 28.543,27.231c7.655,11.374 11.483,26.247 11.483,44.619c0,33.683 -13.014,59.711 -39.042,78.084c-26.028,18.373 -60.696,27.559 -104.003,27.559Z" style="fill-rule:nonzero;"/><path d="M2809.711,1535.433c-35.433,0 -65.945,-6.015 -91.535,-18.045c-25.591,-12.03 -47.353,-28.106 -65.289,-48.228l35.433,-30.84c16.185,17.06 33.902,30.184 53.15,39.37c19.248,9.186 42.432,13.78 69.554,13.78c26.247,0 47.791,-4.703 64.633,-14.108c16.842,-9.405 25.262,-24.169 25.262,-44.291c0,-8.749 -1.64,-16.076 -4.921,-21.982c-3.281,-5.906 -7.765,-10.608 -13.451,-14.108c-5.687,-3.5 -12.03,-6.234 -19.029,-8.202c-6.999,-1.969 -14.436,-3.609 -22.31,-4.921l-53.15,-7.874c-11.811,-1.75 -24.606,-4.156 -38.386,-7.218c-13.78,-3.062 -26.356,-7.983 -37.73,-14.764c-11.374,-6.78 -20.888,-15.857 -28.543,-27.231c-7.655,-11.374 -11.483,-26.247 -11.483,-44.619c0,-17.06 3.39,-31.824 10.171,-44.291c6.78,-12.467 16.295,-22.966 28.543,-31.496c12.248,-8.53 26.684,-14.873 43.307,-19.029c16.623,-4.156 34.777,-6.234 54.462,-6.234c30.621,0 57.196,4.812 79.724,14.436c22.528,9.624 41.885,22.966 58.071,40.026l-34.121,32.152c-3.937,-4.812 -8.858,-9.733 -14.764,-14.764c-5.906,-5.031 -13.123,-9.624 -21.654,-13.78c-8.53,-4.156 -18.482,-7.546 -29.856,-10.171c-11.374,-2.625 -24.497,-3.937 -39.37,-3.937c-26.684,0 -47.135,4.593 -61.352,13.78c-14.217,9.186 -21.325,22.528 -21.325,40.026c0,8.749 1.64,16.076 4.921,21.982c3.281,5.906 7.765,10.608 13.451,14.108c5.687,3.5 12.139,6.234 19.357,8.202c7.218,1.969 14.545,3.609 21.982,4.921l53.15,7.874c12.248,1.75 25.153,4.156 38.714,7.218c13.561,3.062 26.028,7.983 37.402,14.764c11.374,6.78 20.888,15.857 28.543,27.231c7.655,11.374 11.483,26.247 11.483,44.619c0,33.683 -13.014,59.711 -39.042,78.084c-26.028,18.373 -60.696,27.559 -104.003,27.559Z" style="fill-rule:nonzero;"/></g><g><path d="M2327.821,118.11l152.494,0l-487.981,1198.985c-11.437,27.957 -24.145,52.42 -38.124,73.388c-13.979,20.968 -30.499,38.124 -49.561,51.467c-19.062,13.343 -41.936,23.51 -68.622,30.499c-26.686,6.989 -58.456,10.484 -95.309,10.484l-144.869,0l0,-129.62l228.741,0l110.558,-270.677l-396.485,-964.525l156.306,0l165.837,411.734l146.776,373.611l7.625,0l146.776,-373.611l165.837,-411.734Z" style="fill-rule:nonzero;"/><path d="M1165.142,1357.247l331.912,0l0,-1113.748l-331.912,0l0,-125.389l479.428,0l0,1239.137l331.912,0l0,125.389l-811.34,0l0,-125.389Z" style="fill-rule:nonzero;"/></g><g><path d="M2191.929,637.795c-30.84,0 -52.822,-7.874 -65.945,-23.622c-13.123,-15.748 -21.325,-35.433 -24.606,-59.055l-4.921,0c-11.155,29.528 -29.035,52.657 -53.642,69.39c-24.606,16.732 -57.579,25.098 -98.917,25.098c-53.15,0 -95.472,-13.78 -126.969,-41.339c-31.496,-27.559 -47.244,-65.289 -47.244,-113.189c0,-47.244 17.224,-83.661 51.673,-109.252c34.449,-25.591 90.059,-38.386 166.831,-38.386l108.268,0l0,-50.197c0,-37.402 -10.499,-65.453 -31.496,-84.154c-20.997,-18.701 -50.853,-28.051 -89.567,-28.051c-34.121,0 -62.008,6.726 -83.661,20.177c-21.654,13.451 -39.042,31.66 -52.165,54.626l-53.15,-39.37c6.562,-13.123 15.42,-25.919 26.575,-38.386c11.155,-12.467 24.934,-23.458 41.339,-32.972c16.404,-9.514 35.105,-17.06 56.102,-22.638c20.997,-5.577 44.291,-8.366 69.882,-8.366c59.711,0 107.119,15.092 142.224,45.276c35.105,30.184 52.657,72.178 52.657,125.984l0,279.528l70.866,0l0,68.898l-54.134,0Zm-234.252,-54.134c20.341,0 38.878,-2.461 55.61,-7.382c16.732,-4.921 31.332,-11.483 43.799,-19.685c12.467,-8.202 22.146,-18.045 29.035,-29.528c6.89,-11.483 10.335,-23.786 10.335,-36.909l0,-83.661l-108.268,0c-47.244,0 -81.693,6.562 -103.346,19.685c-21.654,13.123 -32.48,32.152 -32.48,57.087l0,20.669c0,26.247 9.35,46.096 28.051,59.547c18.701,13.451 44.455,20.177 77.264,20.177Z" style="fill:#2b2b2b;fill-rule:nonzero;"/><path d="M2175.479,639.108c-27.413,0 -46.952,-6.999 -58.618,-20.997c-11.665,-13.998 -18.956,-31.496 -21.872,-52.493l-4.374,0c-9.915,26.247 -25.809,46.807 -47.682,61.68c-21.872,14.873 -51.181,22.31 -87.927,22.31c-47.244,0 -84.864,-12.248 -112.861,-36.745c-27.997,-24.497 -41.995,-58.034 -41.995,-100.612c0,-41.995 15.311,-74.366 45.932,-97.113c30.621,-22.747 80.052,-34.121 148.294,-34.121l96.238,0l0,-44.619c0,-33.246 -9.332,-58.18 -27.997,-74.803c-18.664,-16.623 -45.203,-24.934 -79.615,-24.934c-30.33,0 -55.118,5.978 -74.366,17.935c-19.248,11.957 -34.704,28.142 -46.369,48.556l-47.244,-34.996c5.833,-11.665 13.707,-23.039 23.622,-34.121c9.915,-11.082 22.164,-20.852 36.745,-29.309c14.582,-8.457 31.204,-15.165 49.869,-20.122c18.664,-4.958 39.37,-7.437 62.117,-7.437c53.077,0 95.217,13.415 126.422,40.245c31.204,26.83 46.807,64.159 46.807,111.986l0,248.469l62.992,0l0,61.242l-48.119,0Zm-208.224,-48.119c18.081,0 34.558,-2.187 49.431,-6.562c14.873,-4.374 27.851,-10.207 38.933,-17.498c11.082,-7.291 19.685,-16.04 25.809,-26.247c6.124,-10.207 9.186,-21.143 9.186,-32.808l0,-74.366l-96.238,0c-41.995,0 -72.616,5.833 -91.864,17.498c-19.248,11.665 -28.871,28.58 -28.871,50.744l0,18.373c0,23.33 8.311,40.974 24.934,52.931c16.623,11.957 39.516,17.935 68.679,17.935Z" style="fill:#808080;fill-rule:nonzero;"/><path d="M2161.028,640.42c-23.987,0 -41.083,-6.124 -51.29,-18.373c-10.207,-12.248 -16.586,-27.559 -19.138,-45.932l-3.828,0c-8.676,22.966 -22.583,40.956 -41.721,53.97c-19.138,13.014 -44.783,19.521 -76.936,19.521c-41.339,0 -74.256,-10.717 -98.753,-32.152c-24.497,-21.435 -36.745,-50.78 -36.745,-88.036c0,-36.745 13.397,-65.07 40.19,-84.974c26.794,-19.904 70.046,-29.856 129.757,-29.856l84.208,0l0,-39.042c0,-29.09 -8.166,-50.908 -24.497,-65.453c-16.331,-14.545 -39.552,-21.818 -69.663,-21.818c-26.538,0 -48.228,5.231 -65.07,15.693c-16.842,10.462 -30.366,24.625 -40.573,42.487l-41.339,-30.621c5.104,-10.207 11.993,-20.159 20.669,-29.856c8.676,-9.697 19.393,-18.245 32.152,-25.645c12.759,-7.4 27.304,-13.269 43.635,-17.607c16.331,-4.338 34.449,-6.507 54.353,-6.507c46.442,0 83.315,11.738 110.619,35.214c27.304,23.476 40.956,56.139 40.956,97.988l0,217.41l55.118,0l0,53.587l-42.104,0Zm-182.196,-42.104c15.821,0 30.238,-1.914 43.252,-5.741c13.014,-3.828 24.369,-8.931 34.066,-15.311c9.697,-6.379 17.224,-14.035 22.583,-22.966c5.359,-8.931 8.038,-18.5 8.038,-28.707l0,-65.07l-84.208,0c-36.745,0 -63.539,5.104 -80.381,15.311c-16.842,10.207 -25.262,25.007 -25.262,44.401l0,16.076c0,20.414 7.273,35.852 21.818,46.315c14.545,10.462 34.576,15.693 60.094,15.693Z" style="fill:#bfbfbf;fill-rule:nonzero;"/></g><g><path d="M1129.145,899.619c0,15.383 -6.41,26.773 -19.229,34.169c-12.819,7.396 -32.049,11.094 -57.687,11.094c-24.653,0 -42.353,-3.254 -53.102,-9.762c-10.749,-6.508 -16.123,-15.876 -16.123,-28.104c0,-8.283 2.169,-14.693 6.508,-19.229c4.339,-4.536 10.453,-7.889 18.342,-10.058l0,-3.55c-4.339,-2.169 -7.692,-4.931 -10.058,-8.283c-2.367,-3.353 -3.55,-7.593 -3.55,-12.721c0,-7.889 2.613,-13.806 7.84,-17.75c5.226,-3.944 11.784,-6.903 19.673,-8.875l0,-1.183c-9.467,-4.142 -16.813,-10.256 -22.04,-18.342c-5.226,-8.086 -7.84,-17.553 -7.84,-28.4c0,-7.692 1.381,-14.792 4.142,-21.3c2.761,-6.508 6.755,-12.08 11.981,-16.715c5.226,-4.635 11.488,-8.234 18.785,-10.798c7.297,-2.564 15.383,-3.846 24.258,-3.846c11.439,0 21.497,2.071 30.175,6.212l0,-2.662c0,-5.917 1.381,-10.847 4.142,-14.792c2.761,-3.944 7.494,-5.917 14.2,-5.917l28.104,0l0,20.708l-34.317,0l0,10.354c5.522,4.733 9.762,10.354 12.721,16.862c2.958,6.508 4.437,13.806 4.437,21.892c0,7.692 -1.43,14.792 -4.29,21.3c-2.86,6.508 -6.853,12.08 -11.981,16.715c-5.128,4.635 -11.39,8.234 -18.785,10.798c-7.396,2.564 -15.531,3.846 -24.406,3.846c-2.564,0 -5.029,-0.099 -7.396,-0.296c-2.367,-0.197 -4.733,-0.493 -7.1,-0.887c-2.367,0.394 -4.832,1.035 -7.396,1.923c-2.564,0.887 -4.931,2.071 -7.1,3.55c-2.169,1.479 -3.944,3.205 -5.325,5.177c-1.381,1.972 -2.071,4.24 -2.071,6.804c0,4.536 2.268,7.544 6.804,9.023c4.536,1.479 10.453,2.219 17.75,2.219l33.725,0c19.722,0 34.021,3.698 42.896,11.094c8.875,7.396 13.312,17.306 13.312,29.731Zm-22.187,1.183c0,-6.114 -2.465,-10.995 -7.396,-14.644c-4.931,-3.649 -13.51,-5.473 -25.737,-5.473l-52.954,0c-10.256,4.142 -15.383,11.044 -15.383,20.708c0,6.706 2.662,12.474 7.987,17.306c5.325,4.832 14.2,7.248 26.625,7.248l23.075,0c13.806,0 24.554,-2.12 32.246,-6.36c7.692,-4.24 11.537,-10.502 11.537,-18.785Zm-55.912,-87.862c11.833,0 20.56,-2.761 26.181,-8.283c5.621,-5.522 8.431,-12.819 8.431,-21.892l0,-8.579c0,-9.072 -2.81,-16.32 -8.431,-21.744c-5.621,-5.424 -14.348,-8.135 -26.181,-8.135c-11.833,0 -20.511,2.712 -26.033,8.135c-5.522,5.424 -8.283,12.672 -8.283,21.744l0,8.579c0,9.072 2.761,16.369 8.283,21.892c5.522,5.522 14.2,8.283 26.033,8.283Z" style="fill-rule:nonzero;"/><path d="M1303.849,899.619c0,15.383 -6.41,26.773 -19.229,34.169c-12.819,7.396 -32.049,11.094 -57.687,11.094c-24.653,0 -42.353,-3.254 -53.102,-9.762c-10.749,-6.508 -16.123,-15.876 -16.123,-28.104c0,-8.283 2.169,-14.693 6.508,-19.229c4.339,-4.536 10.453,-7.889 18.342,-10.058l0,-3.55c-4.339,-2.169 -7.692,-4.931 -10.058,-8.283c-2.367,-3.353 -3.55,-7.593 -3.55,-12.721c0,-7.889 2.613,-13.806 7.84,-17.75c5.226,-3.944 11.784,-6.903 19.673,-8.875l0,-1.183c-9.467,-4.142 -16.813,-10.256 -22.04,-18.342c-5.226,-8.086 -7.84,-17.553 -7.84,-28.4c0,-7.692 1.381,-14.792 4.142,-21.3c2.761,-6.508 6.755,-12.08 11.981,-16.715c5.226,-4.635 11.488,-8.234 18.785,-10.798c7.297,-2.564 15.383,-3.846 24.258,-3.846c11.439,0 21.497,2.071 30.175,6.212l0,-2.662c0,-5.917 1.381,-10.847 4.142,-14.792c2.761,-3.944 7.494,-5.917 14.2,-5.917l28.104,0l0,20.708l-34.317,0l0,10.354c5.522,4.733 9.762,10.354 12.721,16.862c2.958,6.508 4.437,13.806 4.437,21.892c0,7.692 -1.43,14.792 -4.29,21.3c-2.86,6.508 -6.853,12.08 -11.981,16.715c-5.128,4.635 -11.39,8.234 -18.785,10.798c-7.396,2.564 -15.531,3.846 -24.406,3.846c-2.564,0 -5.029,-0.099 -7.396,-0.296c-2.367,-0.197 -4.733,-0.493 -7.1,-0.887c-2.367,0.394 -4.832,1.035 -7.396,1.923c-2.564,0.887 -4.931,2.071 -7.1,3.55c-2.169,1.479 -3.944,3.205 -5.325,5.177c-1.381,1.972 -2.071,4.24 -2.071,6.804c0,4.536 2.268,7.544 6.804,9.023c4.536,1.479 10.453,2.219 17.75,2.219l33.725,0c19.722,0 34.021,3.698 42.896,11.094c8.875,7.396 13.312,17.306 13.312,29.731Zm-22.187,1.183c0,-6.114 -2.465,-10.995 -7.396,-14.644c-4.931,-3.649 -13.51,-5.473 -25.737,-5.473l-52.954,0c-10.256,4.142 -15.383,11.044 -15.383,20.708c0,6.706 2.662,12.474 7.987,17.306c5.325,4.832 14.2,7.248 26.625,7.248l23.075,0c13.806,0 24.554,-2.12 32.246,-6.36c7.692,-4.24 11.537,-10.502 11.537,-18.785Zm-55.912,-87.862c11.833,0 20.56,-2.761 26.181,-8.283c5.621,-5.522 8.431,-12.819 8.431,-21.892l0,-8.579c0,-9.072 -2.81,-16.32 -8.431,-21.744c-5.621,-5.424 -14.348,-8.135 -26.181,-8.135c-11.833,0 -20.511,2.712 -26.033,8.135c-5.522,5.424 -8.283,12.672 -8.283,21.744l0,8.579c0,9.072 2.761,16.369 8.283,21.892c5.522,5.522 14.2,8.283 26.033,8.283Z" style="fill-rule:nonzero;"/><path d="M1217.093,899.619c0,15.383 -6.41,26.773 -19.229,34.169c-12.819,7.396 -32.049,11.094 -57.687,11.094c-24.653,0 -42.353,-3.254 -53.102,-9.762c-10.749,-6.508 -16.123,-15.876 -16.123,-28.104c0,-8.283 2.169,-14.693 6.508,-19.229c4.339,-4.536 10.453,-7.889 18.342,-10.058l0,-3.55c-4.339,-2.169 -7.692,-4.931 -10.058,-8.283c-2.367,-3.353 -3.55,-7.593 -3.55,-12.721c0,-7.889 2.613,-13.806 7.84,-17.75c5.226,-3.944 11.784,-6.903 19.673,-8.875l0,-1.183c-9.467,-4.142 -16.813,-10.256 -22.04,-18.342c-5.226,-8.086 -7.84,-17.553 -7.84,-28.4c0,-7.692 1.381,-14.792 4.142,-21.3c2.761,-6.508 6.755,-12.08 11.981,-16.715c5.226,-4.635 11.488,-8.234 18.785,-10.798c7.297,-2.564 15.383,-3.846 24.258,-3.846c11.439,0 21.497,2.071 30.175,6.212l0,-2.662c0,-5.917 1.381,-10.847 4.142,-14.792c2.761,-3.944 7.494,-5.917 14.2,-5.917l28.104,0l0,20.708l-34.317,0l0,10.354c5.522,4.733 9.762,10.354 12.721,16.862c2.958,6.508 4.437,13.806 4.437,21.892c0,7.692 -1.43,14.792 -4.29,21.3c-2.86,6.508 -6.853,12.08 -11.981,16.715c-5.128,4.635 -11.39,8.234 -18.785,10.798c-7.396,2.564 -15.531,3.846 -24.406,3.846c-2.564,0 -5.029,-0.099 -7.396,-0.296c-2.367,-0.197 -4.733,-0.493 -7.1,-0.887c-2.367,0.394 -4.832,1.035 -7.396,1.923c-2.564,0.887 -4.931,2.071 -7.1,3.55c-2.169,1.479 -3.944,3.205 -5.325,5.177c-1.381,1.972 -2.071,4.24 -2.071,6.804c0,4.536 2.268,7.544 6.804,9.023c4.536,1.479 10.453,2.219 17.75,2.219l33.725,0c19.722,0 34.021,3.698 42.896,11.094c8.875,7.396 13.312,17.306 13.312,29.731Zm-22.187,1.183c0,-6.114 -2.465,-10.995 -7.396,-14.644c-4.931,-3.649 -13.51,-5.473 -25.737,-5.473l-52.954,0c-10.256,4.142 -15.383,11.044 -15.383,20.708c0,6.706 2.662,12.474 7.987,17.306c5.325,4.832 14.2,7.248 26.625,7.248l23.075,0c13.806,0 24.554,-2.12 32.246,-6.36c7.692,-4.24 11.537,-10.502 11.537,-18.785Zm-55.912,-87.862c11.833,0 20.56,-2.761 26.181,-8.283c5.621,-5.522 8.431,-12.819 8.431,-21.892l0,-8.579c0,-9.072 -2.81,-16.32 -8.431,-21.744c-5.621,-5.424 -14.348,-8.135 -26.181,-8.135c-11.833,0 -20.511,2.712 -26.033,8.135c-5.522,5.424 -8.283,12.672 -8.283,21.744l0,8.579c0,9.072 2.761,16.369 8.283,21.892c5.522,5.522 14.2,8.283 26.033,8.283Z" style="fill-rule:nonzero;"/><path d="M1391.202,899.619c0,15.383 -6.41,26.773 -19.229,34.169c-12.819,7.396 -32.049,11.094 -57.687,11.094c-24.653,0 -42.353,-3.254 -53.102,-9.762c-10.749,-6.508 -16.123,-15.876 -16.123,-28.104c0,-8.283 2.169,-14.693 6.508,-19.229c4.339,-4.536 10.453,-7.889 18.342,-10.058l0,-3.55c-4.339,-2.169 -7.692,-4.931 -10.058,-8.283c-2.367,-3.353 -3.55,-7.593 -3.55,-12.721c0,-7.889 2.613,-13.806 7.84,-17.75c5.226,-3.944 11.784,-6.903 19.673,-8.875l0,-1.183c-9.467,-4.142 -16.813,-10.256 -22.04,-18.342c-5.226,-8.086 -7.84,-17.553 -7.84,-28.4c0,-7.692 1.381,-14.792 4.142,-21.3c2.761,-6.508 6.755,-12.08 11.981,-16.715c5.226,-4.635 11.488,-8.234 18.785,-10.798c7.297,-2.564 15.383,-3.846 24.258,-3.846c11.439,0 21.497,2.071 30.175,6.212l0,-2.662c0,-5.917 1.381,-10.847 4.142,-14.792c2.761,-3.944 7.494,-5.917 14.2,-5.917l28.104,0l0,20.708l-34.317,0l0,10.354c5.522,4.733 9.762,10.354 12.721,16.862c2.958,6.508 4.437,13.806 4.437,21.892c0,7.692 -1.43,14.792 -4.29,21.3c-2.86,6.508 -6.853,12.08 -11.981,16.715c-5.128,4.635 -11.39,8.234 -18.785,10.798c-7.396,2.564 -15.531,3.846 -24.406,3.846c-2.564,0 -5.029,-0.099 -7.396,-0.296c-2.367,-0.197 -4.733,-0.493 -7.1,-0.887c-2.367,0.394 -4.832,1.035 -7.396,1.923c-2.564,0.887 -4.931,2.071 -7.1,3.55c-2.169,1.479 -3.944,3.205 -5.325,5.177c-1.381,1.972 -2.071,4.24 -2.071,6.804c0,4.536 2.268,7.544 6.804,9.023c4.536,1.479 10.453,2.219 17.75,2.219l33.725,0c19.722,0 34.021,3.698 42.896,11.094c8.875,7.396 13.312,17.306 13.312,29.731Zm-22.187,1.183c0,-6.114 -2.465,-10.995 -7.396,-14.644c-4.931,-3.649 -13.51,-5.473 -25.737,-5.473l-52.954,0c-10.256,4.142 -15.383,11.044 -15.383,20.708c0,6.706 2.662,12.474 7.987,17.306c5.325,4.832 14.2,7.248 26.625,7.248l23.075,0c13.806,0 24.554,-2.12 32.246,-6.36c7.692,-4.24 11.537,-10.502 11.537,-18.785Zm-55.912,-87.862c11.833,0 20.56,-2.761 26.181,-8.283c5.621,-5.522 8.431,-12.819 8.431,-21.892l0,-8.579c0,-9.072 -2.81,-16.32 -8.431,-21.744c-5.621,-5.424 -14.348,-8.135 -26.181,-8.135c-11.833,0 -20.511,2.712 -26.033,8.135c-5.522,5.424 -8.283,12.672 -8.283,21.744l0,8.579c0,9.072 2.761,16.369 8.283,21.892c5.522,5.522 14.2,8.283 26.033,8.283Z" style="fill-rule:nonzero;"/></g><g><g><path d="M2581.581,2611.166c-51.921,0 -98.794,-9.134 -140.619,-27.403c-41.825,-18.269 -77.401,-44.469 -106.727,-78.603c-29.326,-34.133 -51.681,-74.997 -67.065,-122.591c-15.384,-47.594 -23.076,-101.198 -23.076,-160.811c0,-58.652 7.692,-112.015 23.076,-160.09c15.384,-48.075 37.739,-89.179 67.065,-123.312c29.326,-34.133 64.901,-60.334 106.727,-78.603c41.825,-18.269 88.698,-27.403 140.619,-27.403c51.921,0 98.794,9.134 140.619,27.403c41.825,18.269 77.401,44.469 106.727,78.603c29.326,34.133 51.681,75.237 67.065,123.312c15.384,48.075 23.076,101.438 23.076,160.09c0,59.613 -7.692,113.217 -23.076,160.811c-15.384,47.594 -37.739,88.458 -67.065,122.591c-29.326,34.133 -64.901,60.334 -106.727,78.603c-41.825,18.269 -88.698,27.403 -140.619,27.403Zm0,-99.515c64.421,0 116.342,-19.23 155.763,-57.69c39.422,-38.46 59.132,-98.073 59.132,-178.839l0,-106.727c0,-80.766 -19.711,-140.379 -59.132,-178.839c-39.422,-38.46 -91.343,-57.69 -155.763,-57.69c-64.421,0 -116.342,19.23 -155.763,57.69c-39.422,38.46 -59.132,98.073 -59.132,178.839l0,106.727c0,80.766 19.711,140.379 59.132,178.839c39.422,38.46 91.343,57.69 155.763,57.69Z" style="fill:none;fill-rule:nonzero;stroke:#000;stroke-width:4.17px;stroke-linecap:butt;stroke-miterlimit:2;"/><g><path d="M1531.625,1845.043c-54.075,0 -102.598,-9.173 -145.568,-27.52c-42.97,-18.347 -79.664,-44.66 -110.081,-78.94c-30.417,-34.28 -53.834,-75.319 -70.249,-123.117c-16.416,-47.799 -24.623,-101.149 -24.623,-160.053c0,-59.869 8.449,-113.944 25.348,-162.225c16.898,-48.281 40.315,-89.562 70.249,-123.842c29.934,-34.28 65.904,-60.593 107.909,-78.94c42.005,-18.347 88.596,-27.52 139.774,-27.52c50.213,0 95.838,9.173 136.878,27.52c41.039,18.347 76.043,43.695 105.012,76.043c28.969,32.348 51.178,70.732 66.628,115.151c15.45,44.419 23.175,93.183 23.175,146.292l0,55.041l-553.304,0l0,34.763c0,32.831 5.311,63.249 15.933,91.252c10.622,28.003 25.831,52.144 45.626,72.422c19.795,20.278 43.936,35.97 72.422,47.074c28.486,11.105 60.11,16.657 94.873,16.657c50.213,0 93.666,-11.588 130.36,-34.763c36.694,-23.175 64.697,-55.041 84.01,-95.597l85.458,57.938c-22.209,50.213 -59.145,91.493 -110.806,123.842c-51.661,32.348 -114.668,48.523 -189.021,48.523Zm-7.242,-686.561c-31.866,0 -61.317,5.794 -88.355,17.381c-27.038,11.588 -50.454,27.52 -70.249,47.799c-19.795,20.278 -35.245,44.177 -46.35,71.698c-11.105,27.52 -16.657,57.696 -16.657,90.528l0,10.139l428.738,0l0,-15.933c0,-32.831 -5.07,-62.766 -15.209,-89.803c-10.139,-27.038 -24.141,-50.454 -42.005,-70.249c-17.864,-19.795 -39.591,-35.004 -65.18,-45.626c-25.589,-10.622 -53.834,-15.933 -84.734,-15.933Z" style="fill:none;fill-rule:nonzero;stroke:#000;stroke-width:4.17px;stroke-linecap:butt;stroke-miterlimit:2;"/><path d="M1000.129,1845.344c-54.075,0 -102.598,-9.173 -145.568,-27.52c-42.97,-18.347 -79.664,-44.66 -110.081,-78.94c-30.417,-34.28 -53.834,-75.319 -70.249,-123.117c-16.416,-47.799 -24.623,-101.149 -24.623,-160.053c0,-59.869 8.449,-113.944 25.348,-162.225c16.898,-48.281 40.315,-89.562 70.249,-123.842c29.934,-34.28 65.904,-60.593 107.909,-78.94c42.005,-18.347 88.596,-27.52 139.774,-27.52c50.213,0 95.838,9.173 136.878,27.52c41.039,18.347 76.043,43.695 105.012,76.043c28.969,32.348 51.178,70.732 66.628,115.151c15.45,44.419 23.175,93.183 23.175,146.292l0,55.041l-553.304,0l0,34.763c0,32.831 5.311,63.249 15.933,91.252c10.622,28.003 25.831,52.144 45.626,72.422c19.795,20.278 43.936,35.97 72.422,47.074c28.486,11.105 60.11,16.657 94.873,16.657c50.213,0 93.666,-11.588 130.36,-34.763c36.694,-23.175 64.697,-55.041 84.01,-95.597l85.458,57.938c-22.209,50.213 -59.145,91.493 -110.806,123.842c-51.661,32.348 -114.668,48.523 -189.021,48.523Zm-7.242,-686.561c-31.866,0 -61.317,5.794 -88.355,17.381c-27.038,11.588 -50.454,27.52 -70.249,47.799c-19.795,20.278 -35.245,44.177 -46.35,71.698c-11.105,27.52 -16.657,57.696 -16.657,90.528l0,10.139l428.738,0l0,-15.933c0,-32.831 -5.07,-62.766 -15.209,-89.803c-10.139,-27.038 -24.141,-50.454 -42.005,-70.249c-17.864,-19.795 -39.591,-35.004 -65.18,-45.626c-25.589,-10.622 -53.834,-15.933 -84.734,-15.933Z" style="fill:none;fill-rule:nonzero;stroke:#000;stroke-width:4.17px;stroke-linecap:butt;stroke-miterlimit:2;"/><path d="M468.646,1845.461c-54.075,0 -102.598,-9.173 -145.568,-27.52c-42.97,-18.347 -79.664,-44.66 -110.081,-78.94c-30.417,-34.28 -53.834,-75.319 -70.249,-123.117c-16.416,-47.799 -24.623,-101.149 -24.623,-160.053c0,-59.869 8.449,-113.944 25.348,-162.225c16.898,-48.281 40.315,-89.562 70.249,-123.842c29.934,-34.28 65.904,-60.593 107.909,-78.94c42.005,-18.347 88.596,-27.52 139.774,-27.52c50.213,0 95.838,9.173 136.878,27.52c41.039,18.347 76.043,43.695 105.012,76.043c28.969,32.348 51.178,70.732 66.628,115.151c15.45,44.419 23.175,93.183 23.175,146.292l0,55.041l-553.304,0l0,34.763c0,32.831 5.311,63.249 15.933,91.252c10.622,28.003 25.831,52.144 45.626,72.422c19.795,20.278 43.936,35.97 72.422,47.074c28.486,11.105 60.11,16.657 94.873,16.657c50.213,0 93.666,-11.588 130.36,-34.763c36.694,-23.175 64.697,-55.041 84.01,-95.597l85.458,57.938c-22.209,50.213 -59.145,91.493 -110.806,123.842c-51.661,32.348 -114.668,48.523 -189.021,48.523Zm-7.242,-686.561c-31.866,0 -61.317,5.794 -88.355,17.381c-27.038,11.588 -50.454,27.52 -70.249,47.799c-19.795,20.278 -35.245,44.177 -46.35,71.698c-11.105,27.52 -16.657,57.696 -16.657,90.528l0,10.139l428.738,0l0,-15.933c0,-32.831 -5.07,-62.766 -15.209,-89.803c-10.139,-27.038 -24.141,-50.454 -42.005,-70.249c-17.864,-19.795 -39.591,-35.004 -65.18,-45.626c-25.589,-10.622 -53.834,-15.933 -84.734,-15.933Z" style="fill:none;fill-rule:nonzero;stroke:#000;stroke-width:4.17px;stroke-linecap:butt;stroke-miterlimit:2;"/><path d="M2063.121,1844.746c-54.075,0 -102.598,-9.173 -145.568,-27.52c-42.97,-18.347 -79.664,-44.66 -110.081,-78.94c-30.417,-34.28 -53.834,-75.319 -70.249,-123.117c-16.416,-47.799 -24.623,-101.149 -24.623,-160.053c0,-59.869 8.449,-113.944 25.348,-162.225c16.898,-48.281 40.315,-89.562 70.249,-123.842c29.934,-34.28 65.904,-60.593 107.909,-78.94c42.005,-18.347 88.596,-27.52 139.774,-27.52c50.213,0 95.838,9.173 136.878,27.52c41.039,18.347 76.043,43.695 105.012,76.043c28.969,32.348 51.178,70.732 66.628,115.151c15.45,44.419 23.175,93.183 23.175,146.292l0,55.041l-553.304,0l0,34.763c0,32.831 5.311,63.249 15.933,91.252c10.622,28.003 25.831,52.144 45.626,72.422c19.795,20.278 43.936,35.97 72.422,47.074c28.486,11.105 60.11,16.657 94.873,16.657c50.213,0 93.666,-11.588 130.36,-34.763c36.694,-23.175 64.697,-55.041 84.01,-95.597l85.458,57.938c-22.209,50.213 -59.145,91.493 -110.806,123.842c-51.661,32.348 -114.668,48.523 -189.021,48.523Zm-7.242,-686.561c-31.866,0 -61.317,5.794 -88.355,17.381c-27.038,11.588 -50.454,27.52 -70.249,47.799c-19.795,20.278 -35.245,44.177 -46.35,71.698c-11.105,27.52 -16.657,57.696 -16.657,90.528l0,10.139l428.738,0l0,-15.933c0,-32.831 -5.07,-62.766 -15.209,-89.803c-10.139,-27.038 -24.141,-50.454 -42.005,-70.249c-17.864,-19.795 -39.591,-35.004 -65.18,-45.626c-25.589,-10.622 -53.834,-15.933 -84.734,-15.933Z" style="fill:none;fill-rule:nonzero;stroke:#000;stroke-width:4.17px;stroke-linecap:butt;stroke-miterlimit:2;"/><path d="M2594.617,1844.746c-54.075,0 -102.598,-9.173 -145.568,-27.52c-42.97,-18.347 -79.664,-44.66 -110.081,-78.94c-30.417,-34.28 -53.834,-75.319 -70.249,-123.117c-16.416,-47.799 -24.623,-101.149 -24.623,-160.053c0,-59.869 8.449,-113.944 25.348,-162.225c16.898,-48.281 40.315,-89.562 70.249,-123.842c29.934,-34.28 65.904,-60.593 107.909,-78.94c42.005,-18.347 88.596,-27.52 139.774,-27.52c50.213,0 95.838,9.173 136.878,27.52c41.039,18.347 76.043,43.695 105.012,76.043c28.969,32.348 51.178,70.732 66.628,115.151c15.45,44.419 23.175,93.183 23.175,146.292l0,55.041l-553.304,0l0,34.763c0,32.831 5.311,63.249 15.933,91.252c10.622,28.003 25.831,52.144 45.626,72.422c19.795,20.278 43.936,35.97 72.422,47.074c28.486,11.105 60.11,16.657 94.873,16.657c50.213,0 93.666,-11.588 130.36,-34.763c36.694,-23.175 64.697,-55.041 84.01,-95.597l85.458,57.938c-22.209,50.213 -59.145,91.493 -110.806,123.842c-51.661,32.348 -114.668,48.523 -189.021,48.523Zm-7.242,-686.561c-31.866,0 -61.317,5.794 -88.355,17.381c-27.038,11.588 -50.454,27.52 -70.249,47.799c-19.795,20.278 -35.245,44.177 -46.35,71.698c-11.105,27.52 -16.657,57.696 -16.657,90.528l0,10.139l428.738,0l0,-15.933c0,-32.831 -5.07,-62.766 -15.209,-89.803c-10.139,-27.038 -24.141,-50.454 -42.005,-70.249c-17.864,-19.795 -39.591,-35.004 -65.18,-45.626c-25.589,-10.622 -53.834,-15.933 -84.734,-15.933Z" style="fill:none;fill-rule:nonzero;stroke:#000;stroke-width:4.17px;stroke-linecap:butt;stroke-miterlimit:2;"/></g><path d="M1520.012,2612.809c-54.071,0 -102.107,-9.414 -144.109,-28.243c-42.002,-18.828 -77.486,-45.14 -106.453,-78.934c-28.967,-33.794 -50.933,-74.831 -65.899,-123.108c-14.966,-48.278 -22.449,-101.866 -22.449,-160.765c0,-58.899 7.724,-112.487 23.173,-160.765c15.449,-48.278 37.657,-89.555 66.623,-123.832c28.967,-34.277 64.209,-60.589 105.728,-78.934c41.519,-18.346 88.831,-27.518 141.937,-27.518c72.417,0 131.316,15.932 176.697,47.795c45.381,31.863 78.693,73.382 99.935,124.557l-92.693,49.243c-13.518,-38.622 -35.967,-68.554 -67.348,-89.797c-31.381,-21.242 -70.244,-31.863 -116.591,-31.863c-33.794,0 -63.968,5.552 -90.521,16.656c-26.553,11.104 -49.002,26.794 -67.347,47.071c-18.346,20.277 -32.105,44.416 -41.278,72.417c-9.173,28.001 -13.759,58.416 -13.759,91.245l0,127.453c0,32.829 4.586,63.244 13.759,91.245c9.173,28.001 22.932,52.14 41.278,72.417c18.346,20.277 41.036,35.967 68.072,47.071c27.036,11.104 57.933,16.656 92.693,16.656c50.209,0 91.728,-11.587 124.557,-34.76c32.829,-23.173 58.899,-55.037 78.21,-95.59l82.555,56.485c-22.208,50.209 -56.726,91.728 -103.556,124.557c-46.829,32.829 -107.901,49.243 -183.214,49.243Z" style="fill:none;fill-rule:nonzero;stroke:#000;stroke-width:4.17px;stroke-linecap:butt;stroke-miterlimit:2;"/><path d="M2051.508,2612.809c-54.071,0 -102.108,-9.414 -144.109,-28.243c-42.002,-18.828 -77.486,-45.14 -106.453,-78.934c-28.967,-33.794 -50.933,-74.831 -65.899,-123.108c-14.966,-48.278 -22.449,-101.866 -22.449,-160.765c0,-58.899 7.724,-112.487 23.173,-160.765c15.449,-48.278 37.657,-89.555 66.623,-123.832c28.967,-34.277 64.209,-60.589 105.728,-78.934c41.519,-18.346 88.831,-27.518 141.937,-27.518c72.417,0 131.316,15.932 176.697,47.795c45.381,31.863 78.693,73.382 99.935,124.557l-92.693,49.243c-13.518,-38.622 -35.967,-68.554 -67.347,-89.797c-31.381,-21.242 -70.244,-31.863 -116.591,-31.863c-33.794,0 -63.968,5.552 -90.521,16.656c-26.553,11.104 -49.002,26.794 -67.348,47.071c-18.346,20.277 -32.105,44.416 -41.277,72.417c-9.173,28.001 -13.759,58.416 -13.759,91.245l0,127.453c0,32.829 4.586,63.244 13.759,91.245c9.173,28.001 22.932,52.14 41.277,72.417c18.346,20.277 41.036,35.967 68.072,47.071c27.036,11.104 57.933,16.656 92.693,16.656c50.209,0 91.728,-11.587 124.557,-34.76c32.829,-23.173 58.899,-55.037 78.21,-95.59l82.555,56.485c-22.208,50.209 -56.726,91.728 -103.556,124.557c-46.829,32.829 -107.901,49.243 -183.214,49.243Z" style="fill:none;fill-rule:nonzero;stroke:#000;stroke-width:4.17px;stroke-linecap:butt;stroke-miterlimit:2;"/><path d="M2583.004,2612.809c-54.071,0 -102.108,-9.414 -144.109,-28.243c-42.002,-18.828 -77.486,-45.14 -106.452,-78.934c-28.967,-33.794 -50.933,-74.831 -65.899,-123.108c-14.966,-48.278 -22.449,-101.866 -22.449,-160.765c0,-58.899 7.724,-112.487 23.173,-160.765c15.449,-48.278 37.657,-89.555 66.623,-123.832c28.967,-34.277 64.209,-60.589 105.728,-78.934c41.519,-18.346 88.831,-27.518 141.937,-27.518c72.417,0 131.316,15.932 176.697,47.795c45.381,31.863 78.693,73.382 99.935,124.557l-92.693,49.243c-13.518,-38.622 -35.967,-68.554 -67.347,-89.797c-31.381,-21.242 -70.244,-31.863 -116.591,-31.863c-33.794,0 -63.968,5.552 -90.521,16.656c-26.553,11.104 -49.002,26.794 -67.347,47.071c-18.346,20.277 -32.105,44.416 -41.278,72.417c-9.173,28.001 -13.759,58.416 -13.759,91.245l0,127.453c0,32.829 4.586,63.244 13.759,91.245c9.173,28.001 22.932,52.14 41.278,72.417c18.346,20.277 41.036,35.967 68.072,47.071c27.036,11.104 57.933,16.656 92.693,16.656c50.209,0 91.728,-11.587 124.557,-34.76c32.829,-23.173 58.899,-55.037 78.21,-95.59l82.555,56.485c-22.208,50.209 -56.726,91.728 -103.556,124.557c-46.829,32.829 -107.901,49.243 -183.214,49.243Z" style="fill:none;fill-rule:nonzero;stroke:#000;stroke-width:4.17px;stroke-linecap:butt;stroke-miterlimit:2;"/><path d="M1000.103,2612.809c-54.071,0 -102.59,-9.173 -145.558,-27.518c-42.967,-18.346 -79.658,-44.657 -110.073,-78.934c-30.415,-34.277 -53.83,-75.313 -70.244,-123.108c-16.414,-47.795 -24.622,-101.142 -24.622,-160.041c0,-59.864 8.449,-113.936 25.346,-162.213c16.897,-48.278 40.312,-89.555 70.244,-123.832c29.932,-34.277 65.899,-60.589 107.901,-78.934c42.002,-18.346 88.59,-27.518 139.764,-27.518c50.209,0 95.831,9.173 136.867,27.518c41.036,18.346 76.038,43.691 105.004,76.037c28.967,32.346 51.174,70.727 66.623,115.143c15.449,44.416 23.173,93.176 23.173,146.282l0,55.037l-553.263,0l0,34.76c0,32.829 5.311,63.244 15.932,91.245c10.621,28.001 25.829,52.14 45.622,72.417c19.794,20.277 43.933,35.967 72.417,47.071c28.484,11.104 60.106,16.656 94.866,16.656c50.209,0 93.659,-11.587 130.35,-34.76c36.691,-23.173 64.692,-55.037 84.003,-95.59l85.452,57.933c-22.208,50.209 -59.14,91.486 -110.798,123.832c-51.657,32.346 -114.66,48.519 -189.007,48.519Zm-7.242,-686.51c-31.863,0 -61.313,5.793 -88.348,17.38c-27.036,11.587 -50.45,27.518 -70.244,47.795c-19.794,20.277 -35.243,44.174 -46.347,71.692c-11.104,27.518 -16.656,57.692 -16.656,90.521l0,10.138l428.707,0l0,-15.932c0,-32.829 -5.069,-62.761 -15.207,-89.797c-10.138,-27.036 -24.139,-50.45 -42.002,-70.244c-17.863,-19.794 -39.588,-35.001 -65.175,-45.623c-25.587,-10.621 -53.83,-15.932 -84.727,-15.932Z" style="fill:none;fill-rule:nonzero;stroke:#000;stroke-width:4.17px;stroke-linecap:butt;stroke-miterlimit:2;"/><path d="M468.607,2612.809c-54.071,0 -102.59,-9.173 -145.558,-27.518c-42.967,-18.346 -79.658,-44.657 -110.073,-78.934c-30.415,-34.277 -53.83,-75.313 -70.244,-123.108c-16.414,-47.795 -24.622,-101.142 -24.622,-160.041c0,-59.864 8.449,-113.936 25.346,-162.213c16.897,-48.278 40.312,-89.555 70.244,-123.832c29.932,-34.277 65.899,-60.589 107.901,-78.934c42.002,-18.346 88.59,-27.518 139.764,-27.518c50.209,0 95.831,9.173 136.868,27.518c41.036,18.346 76.038,43.691 105.004,76.037c28.967,32.346 51.174,70.727 66.623,115.143c15.449,44.416 23.173,93.176 23.173,146.282l0,55.037l-553.263,0l0,34.76c0,32.829 5.311,63.244 15.932,91.245c10.621,28.001 25.829,52.14 45.622,72.417c19.794,20.277 43.933,35.967 72.417,47.071c28.484,11.104 60.106,16.656 94.866,16.656c50.209,0 93.659,-11.587 130.35,-34.76c36.691,-23.173 64.692,-55.037 84.003,-95.59l85.452,57.933c-22.208,50.209 -59.14,91.486 -110.798,123.832c-51.657,32.346 -114.66,48.519 -189.007,48.519Zm-7.242,-686.51c-31.863,0 -61.313,5.793 -88.348,17.38c-27.036,11.587 -50.45,27.518 -70.244,47.795c-19.794,20.277 -35.243,44.174 -46.347,71.692c-11.104,27.518 -16.656,57.692 -16.656,90.521l0,10.138l428.707,0l0,-15.932c0,-32.829 -5.069,-62.761 -15.207,-89.797c-10.138,-27.036 -24.139,-50.45 -42.002,-70.244c-17.863,-19.794 -39.588,-35.001 -65.175,-45.623c-25.587,-10.621 -53.83,-15.932 -84.728,-15.932Z" style="fill:none;fill-rule:nonzero;stroke:#000;stroke-width:4.17px;stroke-linecap:butt;stroke-miterlimit:2;"/></g><g><g><path d="M335.918,2952.756c-29.955,0 -51.913,-8.377 -65.875,-25.132c-13.962,-16.754 -20.943,-38.332 -20.943,-64.733l0,-251.316l-130.989,0l0,-51.786l97.48,0c13.2,0 22.466,-2.665 27.797,-7.996c5.331,-5.331 7.996,-14.597 7.996,-27.797l0,-102.811l58.64,0l0,138.605l178.968,0l0,51.786l-178.968,0l0,289.394l178.968,0l0,51.786l-153.074,0Z" style="fill-rule:nonzero;"/><path d="M1213.469,2952.756c-29.955,0 -51.913,-8.377 -65.875,-25.132c-13.962,-16.754 -20.943,-38.332 -20.943,-64.733l0,-251.316l-130.989,0l0,-51.786l97.48,0c13.2,0 22.466,-2.665 27.797,-7.996c5.331,-5.331 7.996,-14.597 7.996,-27.797l0,-102.811l58.64,0l0,138.605l178.968,0l0,51.786l-178.968,0l0,289.394l178.968,0l0,51.786l-153.074,0Z" style="fill-rule:nonzero;"/><path d="M1804.02,2952.756c-29.955,0 -51.913,-8.377 -65.875,-25.132c-13.962,-16.754 -20.943,-38.332 -20.943,-64.733l0,-251.316l-130.989,0l0,-51.786l97.48,0c13.2,0 22.466,-2.665 27.797,-7.996c5.331,-5.331 7.996,-14.597 7.996,-27.797l0,-102.811l58.64,0l0,138.605l178.968,0l0,51.786l-178.968,0l0,289.394l178.968,0l0,51.786l-153.074,0Z" style="fill-rule:nonzero;"/><path d="M622.918,2952.756c-29.955,0 -51.913,-8.377 -65.875,-25.132c-13.962,-16.754 -20.943,-38.332 -20.943,-64.733l0,-251.316l-130.989,0l0,-51.786l97.48,0c13.2,0 22.466,-2.665 27.797,-7.996c5.331,-5.331 7.996,-14.597 7.996,-27.797l0,-102.811l58.64,0l0,138.605l178.968,0l0,51.786l-178.968,0l0,289.394l178.968,0l0,51.786l-153.074,0Z" style="fill-rule:nonzero;"/><path d="M918.193,2952.756c-29.955,0 -51.913,-8.377 -65.875,-25.132c-13.962,-16.754 -20.943,-38.332 -20.943,-64.733l0,-251.316l-130.989,0l0,-51.786l97.48,0c13.2,0 22.466,-2.665 27.797,-7.996c5.331,-5.331 7.996,-14.597 7.996,-27.797l0,-102.811l58.64,0l0,138.605l178.968,0l0,51.786l-178.968,0l0,289.394l178.968,0l0,51.786l-153.074,0Z" style="fill-rule:nonzero;"/><path d="M2099.296,2952.756c-29.955,0 -51.913,-8.377 -65.875,-25.132c-13.962,-16.754 -20.943,-38.332 -20.943,-64.733l0,-251.316l-130.989,0l0,-51.786l97.48,0c13.2,0 22.466,-2.665 27.797,-7.996c5.331,-5.331 7.996,-14.597 7.996,-27.797l0,-102.811l58.64,0l0,138.605l178.968,0l0,51.786l-178.968,0l0,289.394l178.968,0l0,51.786l-153.074,0Z" style="fill-rule:nonzero;"/><path d="M1508.744,2952.756c-29.955,0 -51.913,-8.377 -65.875,-25.132c-13.962,-16.754 -20.943,-38.332 -20.943,-64.733l0,-251.316l-130.989,0l0,-51.786l97.48,0c13.2,0 22.466,-2.665 27.797,-7.996c5.331,-5.331 7.996,-14.597 7.996,-27.797l0,-102.811l58.64,0l0,138.605l178.968,0l0,51.786l-178.968,0l0,289.394l178.968,0l0,51.786l-153.074,0Z" style="fill-rule:nonzero;"/><path d="M2357.153,2472.97c-17.77,0 -30.209,-3.681 -37.317,-11.043c-7.108,-7.362 -10.662,-16.627 -10.662,-27.797l0,-12.185c0,-11.17 3.554,-20.435 10.662,-27.797c7.108,-7.362 19.547,-11.043 37.317,-11.043c17.77,0 30.209,3.681 37.317,11.043c7.108,7.362 10.662,16.627 10.662,27.797l0,12.185c0,11.17 -3.554,20.435 -10.662,27.797c-7.108,7.362 -19.547,11.043 -37.317,11.043Zm-172.114,427.999l141.651,0l0,-289.394l-141.651,0l0,-51.786l202.576,0l0,341.181l132.512,0l0,51.786l-335.088,0l0,-51.786Z" style="fill-rule:nonzero;"/><path d="M2239.043,2472.97c-17.77,0 -30.209,-3.681 -37.317,-11.043c-7.108,-7.362 -10.662,-16.627 -10.662,-27.797l0,-12.185c0,-11.17 3.554,-20.435 10.662,-27.797c7.108,-7.362 19.547,-11.043 37.317,-11.043c17.77,0 30.209,3.681 37.317,11.043c7.108,7.362 10.662,16.627 10.662,27.797l0,12.185c0,11.17 -3.554,20.435 -10.662,27.797c-7.108,7.362 -19.547,11.043 -37.317,11.043Zm-172.114,427.999l141.651,0l0,-289.394l-141.651,0l0,-51.786l202.576,0l0,341.181l132.512,0l0,51.786l-335.088,0l0,-51.786Z" style="fill-rule:nonzero;"/><path d="M2475.263,2472.97c-17.77,0 -30.209,-3.681 -37.317,-11.043c-7.108,-7.362 -10.662,-16.627 -10.662,-27.797l0,-12.185c0,-11.17 3.554,-20.435 10.662,-27.797c7.108,-7.362 19.547,-11.043 37.317,-11.043c17.77,0 30.209,3.681 37.317,11.043c7.108,7.362 10.662,16.627 10.662,27.797l0,12.185c0,11.17 -3.554,20.435 -10.662,27.797c-7.108,7.362 -19.547,11.043 -37.317,11.043Zm-172.114,427.999l141.651,0l0,-289.394l-141.651,0l0,-51.786l202.576,0l0,341.181l132.512,0l0,51.786l-335.088,0l0,-51.786Z" style="fill-rule:nonzero;"/><path d="M2593.373,2472.97c-17.77,0 -30.209,-3.681 -37.317,-11.043c-7.108,-7.362 -10.662,-16.627 -10.662,-27.797l0,-12.185c0,-11.17 3.554,-20.435 10.662,-27.797c7.108,-7.362 19.547,-11.043 37.317,-11.043c17.77,0 30.209,3.681 37.317,11.043c7.108,7.362 10.662,16.627 10.662,27.797l0,12.185c0,11.17 -3.554,20.435 -10.662,27.797c-7.108,7.362 -19.547,11.043 -37.317,11.043Zm-172.114,427.999l141.651,0l0,-289.394l-141.651,0l0,-51.786l202.576,0l0,341.181l132.512,0l0,51.786l-335.088,0l0,-51.786Z" style="fill-rule:nonzero;"/><path d="M2585.425,2900.97l114.996,0l0,-289.394l-114.996,0l0,-51.786l175.921,0l0,99.003l3.808,0c8.123,-30.97 23.482,-55.213 46.075,-72.729c22.593,-17.516 51.406,-26.274 86.438,-26.274l54.833,0l0,60.925l-73.872,0c-35.032,0 -63.337,10.154 -84.914,30.463c-21.578,20.308 -32.366,46.963 -32.366,79.964l0,169.829l152.313,0l0,51.786l-328.234,0l0,-51.786Z" style="fill-rule:nonzero;"/></g><g><g><g><g><path d="M412.63,2421.184l57.467,0l0,221.249l2.873,0c3.831,-9.099 8.62,-17.839 14.367,-26.219c5.747,-8.381 12.81,-15.684 21.191,-21.909c8.381,-6.226 18.318,-11.254 29.811,-15.085c11.493,-3.831 24.902,-5.747 40.227,-5.747c38.79,0 69.918,12.332 93.384,36.995c23.466,24.663 35.199,59.503 35.199,104.519l0,237.771l-57.467,0l0,-227.714c0,-34.001 -7.423,-59.263 -22.269,-75.785c-14.846,-16.522 -36.635,-24.783 -65.369,-24.783c-11.493,0 -22.747,1.437 -33.762,4.31c-11.015,2.873 -20.832,7.183 -29.452,12.93c-8.62,5.747 -15.564,13.17 -20.832,22.269c-5.268,9.099 -7.902,19.635 -7.902,31.607l0,257.166l-57.467,0l0,-531.572Z" style="fill:#d9d9d9;fill-rule:nonzero;stroke:#000;stroke-width:4.17px;stroke-linecap:butt;stroke-miterlimit:2;"/><path d="M118.11,2421.184l57.467,0l0,221.249l2.873,0c3.831,-9.099 8.62,-17.839 14.367,-26.219c5.747,-8.381 12.81,-15.684 21.191,-21.909c8.381,-6.226 18.318,-11.254 29.811,-15.085c11.493,-3.831 24.902,-5.747 40.227,-5.747c38.79,0 69.918,12.332 93.384,36.995c23.466,24.663 35.199,59.503 35.199,104.519l0,237.771l-57.467,0l0,-227.714c0,-34.001 -7.423,-59.263 -22.269,-75.785c-14.846,-16.522 -36.635,-24.783 -65.369,-24.783c-11.493,0 -22.747,1.437 -33.762,4.31c-11.015,2.873 -20.832,7.183 -29.452,12.93c-8.62,5.747 -15.564,13.17 -20.832,22.269c-5.268,9.099 -7.902,19.635 -7.902,31.607l0,257.166l-57.467,0l0,-531.572Z" style="fill:#d9d9d9;fill-rule:nonzero;stroke:#000;stroke-width:4.17px;stroke-linecap:butt;stroke-miterlimit:2;"/><path d="M1001.669,2421.184l57.467,0l0,221.249l2.873,0c3.831,-9.099 8.62,-17.839 14.367,-26.219c5.747,-8.381 12.81,-15.684 21.191,-21.909c8.381,-6.226 18.318,-11.254 29.811,-15.085c11.493,-3.831 24.902,-5.747 40.227,-5.747c38.79,0 69.918,12.332 93.384,36.995c23.466,24.663 35.199,59.503 35.199,104.519l0,237.771l-57.467,0l0,-227.714c0,-34.001 -7.423,-59.263 -22.269,-75.785c-14.846,-16.522 -36.635,-24.783 -65.369,-24.783c-11.493,0 -22.747,1.437 -33.762,4.31c-11.015,2.873 -20.832,7.183 -29.452,12.93c-8.62,5.747 -15.564,13.17 -20.832,22.269c-5.268,9.099 -7.902,19.635 -7.902,31.607l0,257.166l-57.467,0l0,-531.572Z" style="fill:#d9d9d9;fill-rule:nonzero;stroke:#000;stroke-width:4.17px;stroke-linecap:butt;stroke-miterlimit:2;"/><path d="M707.149,2421.184l57.467,0l0,221.249l2.873,0c3.831,-9.099 8.62,-17.839 14.367,-26.219c5.747,-8.381 12.81,-15.684 21.191,-21.909c8.381,-6.226 18.318,-11.254 29.811,-15.085c11.493,-3.831 24.902,-5.747 40.227,-5.747c38.79,0 69.918,12.332 93.384,36.995c23.466,24.663 35.199,59.503 35.199,104.519l0,237.771l-57.467,0l0,-227.714c0,-34.001 -7.423,-59.263 -22.269,-75.785c-14.846,-16.522 -36.635,-24.783 -65.369,-24.783c-11.493,0 -22.747,1.437 -33.762,4.31c-11.015,2.873 -20.832,7.183 -29.452,12.93c-8.62,5.747 -15.564,13.17 -20.832,22.269c-5.268,9.099 -7.902,19.635 -7.902,31.607l0,257.166l-57.467,0l0,-531.572Z" style="fill:#d9d9d9;fill-rule:nonzero;stroke:#000;stroke-width:4.17px;stroke-linecap:butt;stroke-miterlimit:2;"/></g><path d="M1001.669,2952.756l0,-370.664l57.467,0l0,60.341l2.873,0c3.831,-9.099 8.62,-17.839 14.367,-26.219c5.747,-8.381 12.81,-15.684 21.191,-21.909c8.381,-6.226 18.318,-11.254 29.811,-15.085c11.493,-3.831 24.902,-5.747 40.227,-5.747c38.79,0 69.918,12.332 93.384,36.995c23.466,24.663 35.199,59.503 35.199,104.519l0,237.771l-57.467,0l0,-227.714c0,-34.001 -7.423,-59.263 -22.269,-75.785c-14.846,-16.522 -36.635,-24.783 -65.369,-24.783c-11.493,0 -22.747,1.437 -33.762,4.31c-11.015,2.873 -20.832,7.183 -29.452,12.93c-8.62,5.747 -15.564,13.17 -20.832,22.269c-5.268,9.099 -7.902,19.635 -7.902,31.607l0,257.166l-57.467,0Z" style="fill:#fff;fill-rule:nonzero;stroke:#000;stroke-width:4.17px;stroke-linecap:butt;stroke-miterlimit:2;"/></g><path d="M1290.613,2952.756l0,-370.66l53.157,0l0,43.1l2.873,0c5.747,-14.367 13.888,-26.578 24.423,-36.635c10.536,-10.057 26.099,-15.085 46.692,-15.085c21.55,0 37.593,5.388 48.128,16.163c10.536,10.775 17.001,24.782 19.395,42.023l2.155,0c6.704,-16.761 16.282,-30.649 28.733,-41.663c12.451,-11.014 29.691,-16.522 51.72,-16.522c30.17,0 50.403,10.536 60.699,31.607c10.296,21.071 15.444,51.241 15.444,90.51l0,257.163l-53.157,0l0,-247.825c0,-31.607 -3.232,-53.516 -9.697,-65.727c-6.465,-12.212 -18.317,-18.317 -35.557,-18.317c-15.324,0 -27.776,4.909 -37.353,14.726c-9.578,9.817 -14.367,24.782 -14.367,44.896l0,272.248l-53.157,0l0,-247.825c0,-31.607 -3.232,-53.516 -9.697,-65.727c-6.465,-12.212 -18.078,-18.317 -34.839,-18.317c-15.324,0 -27.895,4.909 -37.713,14.726c-9.817,9.817 -14.726,24.782 -14.726,44.896l0,272.248l-53.157,0Z" style="fill:#d9d9d9;fill-rule:nonzero;stroke:#000;stroke-width:4.17px;stroke-linecap:butt;stroke-miterlimit:2;"/><path d="M1644.033,2952.756l0,-370.66l53.157,0l0,43.1l2.873,0c5.747,-14.367 13.888,-26.578 24.423,-36.635c10.536,-10.057 26.099,-15.085 46.692,-15.085c21.55,0 37.593,5.388 48.128,16.162c10.536,10.775 17.001,24.783 19.395,42.023l2.155,0c6.704,-16.761 16.282,-30.649 28.733,-41.663c12.451,-11.014 29.691,-16.522 51.72,-16.522c30.17,0 50.403,10.536 60.699,31.607c10.296,21.071 15.444,51.241 15.444,90.51l0,257.163l-53.157,0l0,-247.825c0,-31.607 -3.233,-53.516 -9.698,-65.727c-6.465,-12.212 -18.317,-18.318 -35.557,-18.318c-15.324,0 -27.776,4.909 -37.353,14.726c-9.578,9.817 -14.367,24.783 -14.367,44.896l0,272.248l-53.157,0l0,-247.825c0,-31.607 -3.232,-53.516 -9.697,-65.727c-6.465,-12.212 -18.078,-18.318 -34.839,-18.318c-15.324,0 -27.895,4.909 -37.713,14.726c-9.817,9.817 -14.726,24.783 -14.726,44.896l0,272.248l-53.157,0Z" style="fill:#d9d9d9;fill-rule:nonzero;stroke:#000;stroke-width:4.17px;stroke-linecap:butt;stroke-miterlimit:2;"/></g></g></g></g></svg>