<?xml version="1.0" encoding="UTF-8" standalone="no"?><!DOCTYPE svg PUBLIC "-//W3C//DTD SVG 1.1//EN" "http://www.w3.org/Graphics/SVG/1.1/DTD/svg11.dtd"><svg width="100%" height="100%" viewBox="0 0 3071 3071" version="1.1" xmlns="http://www.w3.org/2000/svg" xmlns:xlink="http://www.w3.org/1999/xlink" xml:space="preserve" xmlns:serif="http://www.serif.com/" style="fill-rule:evenodd;clip-rule:evenodd;stroke-linejoin:round;stroke-miterlimit:2;"><g transform="matrix(0.667011,0,0,0.667011,-39.730429,542.080612)"><g><g transform="matrix(558.592542,0,0,558.592542,287.749912,315.097459)"><path d="M0.306,0.012c-0.054,0 -0.1,-0.009 -0.139,-0.028c-0.039,-0.018 -0.072,-0.043 -0.1,-0.073l0.054,-0.047c0.025,0.026 0.052,0.046 0.081,0.06c0.029,0.014 0.065,0.021 0.106,0.021c0.04,0 0.073,-0.007 0.099,-0.021c0.026,-0.014 0.038,-0.037 0.038,-0.068c0,-0.013 -0.002,-0.024 -0.008,-0.033c-0.005,-0.009 -0.012,-0.016 -0.021,-0.022c-0.009,-0.005 -0.018,-0.01 -0.029,-0.012c-0.011,-0.003 -0.022,-0.006 -0.034,-0.008l-0.081,-0.012c-0.018,-0.003 -0.038,-0.006 -0.059,-0.011c-0.021,-0.005 -0.04,-0.012 -0.057,-0.023c-0.017,-0.01 -0.032,-0.024 -0.043,-0.041c-0.012,-0.017 -0.017,-0.04 -0.018,-0.068c0,-0.026 0.005,-0.049 0.015,-0.068c0.01,-0.019 0.025,-0.035 0.043,-0.048c0.019,-0.013 0.041,-0.023 0.066,-0.029c0.025,-0.006 0.053,-0.01 0.083,-0.01c0.047,0 0.087,0.007 0.121,0.022c0.034,0.015 0.064,0.035 0.089,0.061l-0.052,0.049c-0.006,-0.007 -0.014,-0.015 -0.023,-0.022c-0.009,-0.008 -0.02,-0.015 -0.033,-0.021c-0.013,-0.006 -0.028,-0.012 -0.046,-0.016c-0.017,-0.004 -0.037,-0.006 -0.06,-0.006c-0.041,0 -0.072,0.007 -0.093,0.021c-0.022,0.014 -0.033,0.034 -0.033,0.061c0,0.013 0.002,0.025 0.007,0.033c0.005,0.009 0.012,0.016 0.021,0.022c0.009,0.005 0.018,0.01 0.029,0.013c0.011,0.003 0.022,0.006 0.034,0.008l0.081,0.012c0.019,0.003 0.038,0.006 0.059,0.011c0.021,0.005 0.04,0.012 0.057,0.023c0.017,0.01 0.032,0.024 0.044,0.042c0.012,0.017 0.017,0.04 0.017,0.068c0,0.051 -0.02,0.091 -0.059,0.119c-0.04,0.028 -0.092,0.042 -0.159,0.042Z" style="fill-rule:nonzero;"/></g><g transform="matrix(558.592542,0,0,558.592542,639.663213,315.097459)"><path d="M0.467,-0.516l0.08,0l-0.256,0.629c-0.006,0.015 -0.013,0.027 -0.02,0.039c-0.007,0.011 -0.016,0.02 -0.026,0.027c-0.01,0.007 -0.022,0.012 -0.036,0.016c-0.014,0.004 -0.031,0.006 -0.05,0.006l-0.076,0l0,-0.068l0.12,0l0.058,-0.142l-0.208,-0.506l0.082,0l0.087,0.216l0.077,0.196l0.004,0l0.077,-0.196l0.087,-0.216Z" style="fill-rule:nonzero;"/></g><g transform="matrix(558.592542,0,0,558.592542,997.16244,315.097459)"><path d="M0.306,0.012c-0.054,0 -0.1,-0.009 -0.139,-0.028c-0.039,-0.018 -0.072,-0.043 -0.1,-0.073l0.054,-0.047c0.025,0.026 0.052,0.046 0.081,0.06c0.029,0.014 0.065,0.021 0.106,0.021c0.04,0 0.073,-0.007 0.099,-0.021c0.026,-0.014 0.038,-0.037 0.038,-0.068c0,-0.013 -0.002,-0.024 -0.008,-0.033c-0.005,-0.009 -0.012,-0.016 -0.021,-0.022c-0.009,-0.005 -0.018,-0.01 -0.029,-0.012c-0.011,-0.003 -0.022,-0.006 -0.034,-0.008l-0.081,-0.012c-0.018,-0.003 -0.038,-0.006 -0.059,-0.011c-0.021,-0.005 -0.04,-0.012 -0.057,-0.023c-0.017,-0.01 -0.032,-0.024 -0.043,-0.041c-0.012,-0.017 -0.017,-0.04 -0.018,-0.068c0,-0.026 0.005,-0.049 0.015,-0.068c0.01,-0.019 0.025,-0.035 0.043,-0.048c0.019,-0.013 0.041,-0.023 0.066,-0.029c0.025,-0.006 0.053,-0.01 0.083,-0.01c0.047,0 0.087,0.007 0.121,0.022c0.034,0.015 0.064,0.035 0.089,0.061l-0.052,0.049c-0.006,-0.007 -0.014,-0.015 -0.023,-0.022c-0.009,-0.008 -0.02,-0.015 -0.033,-0.021c-0.013,-0.006 -0.028,-0.012 -0.046,-0.016c-0.017,-0.004 -0.037,-0.006 -0.06,-0.006c-0.041,0 -0.072,0.007 -0.093,0.021c-0.022,0.014 -0.033,0.034 -0.033,0.061c0,0.013 0.002,0.025 0.007,0.033c0.005,0.009 0.012,0.016 0.021,0.022c0.009,0.005 0.018,0.01 0.029,0.013c0.011,0.003 0.022,0.006 0.034,0.008l0.081,0.012c0.019,0.003 0.038,0.006 0.059,0.011c0.021,0.005 0.04,0.012 0.057,0.023c0.017,0.01 0.032,0.024 0.044,0.042c0.012,0.017 0.017,0.04 0.017,0.068c0,0.051 -0.02,0.091 -0.059,0.119c-0.04,0.028 -0.092,0.042 -0.159,0.042Z" style="fill-rule:nonzero;"/></g><g transform="matrix(558.592542,0,0,558.592542,1354.661667,315.097459)"><path d="M0.325,-0c-0.039,-0 -0.068,-0.011 -0.086,-0.033c-0.018,-0.022 -0.028,-0.05 -0.028,-0.085l0,-0.33l-0.172,0l-0,-0.068l0.128,0c0.017,0 0.029,-0.003 0.037,-0.01c0.007,-0.007 0.01,-0.019 0.01,-0.037l0,-0.135l0.077,0l0,0.182l0.235,0l0,0.068l-0.235,0l0,0.38l0.235,0l0,0.068l-0.201,-0Z" style="fill-rule:nonzero;"/></g><g transform="matrix(558.592542,0,0,558.592542,1700.989043,315.097459)"><path d="M0.309,0.012c-0.037,0 -0.071,-0.006 -0.101,-0.019c-0.03,-0.013 -0.055,-0.031 -0.076,-0.054c-0.021,-0.024 -0.037,-0.052 -0.049,-0.085c-0.011,-0.033 -0.017,-0.07 -0.017,-0.111c0,-0.041 0.006,-0.079 0.018,-0.112c0.012,-0.033 0.028,-0.062 0.049,-0.086c0.021,-0.024 0.046,-0.042 0.075,-0.054c0.029,-0.013 0.061,-0.019 0.096,-0.019c0.035,0 0.066,0.006 0.095,0.019c0.028,0.013 0.052,0.03 0.073,0.052c0.02,0.022 0.035,0.049 0.046,0.08c0.011,0.031 0.016,0.064 0.016,0.101l0,0.038l-0.382,0l-0,0.024c0,0.023 0.004,0.044 0.011,0.063c0.007,0.019 0.018,0.036 0.032,0.05c0.014,0.014 0.03,0.025 0.05,0.033c0.02,0.008 0.041,0.012 0.066,0.012c0.035,0 0.065,-0.008 0.09,-0.024c0.025,-0.016 0.045,-0.038 0.058,-0.066l0.059,0.04c-0.015,0.035 -0.041,0.063 -0.077,0.085c-0.036,0.022 -0.079,0.034 -0.131,0.034Zm-0.005,-0.474c-0.022,0 -0.042,0.004 -0.061,0.012c-0.019,0.008 -0.035,0.019 -0.048,0.033c-0.014,0.014 -0.024,0.03 -0.032,0.049c-0.008,0.019 -0.012,0.04 -0.012,0.062l0,0.007l0.296,0l-0,-0.011c0,-0.023 -0.004,-0.043 -0.011,-0.062c-0.007,-0.019 -0.017,-0.035 -0.029,-0.048c-0.012,-0.014 -0.027,-0.024 -0.045,-0.032c-0.018,-0.007 -0.037,-0.011 -0.058,-0.011Z" style="fill-rule:nonzero;"/></g><g transform="matrix(558.592542,0,0,558.592542,2052.902344,315.097459)"><path d="M0.054,-0l0,-0.516l0.074,0l0,0.06l0.004,0c0.008,-0.02 0.019,-0.037 0.034,-0.051c0.015,-0.014 0.036,-0.021 0.065,-0.021c0.03,0 0.052,0.007 0.067,0.022c0.015,0.015 0.024,0.035 0.027,0.059l0.003,0c0.009,-0.023 0.023,-0.043 0.04,-0.058c0.017,-0.015 0.041,-0.023 0.072,-0.023c0.042,0 0.07,0.015 0.084,0.044c0.014,0.029 0.022,0.071 0.022,0.126l0,0.358l-0.074,-0l0,-0.345c0,-0.044 -0.005,-0.075 -0.014,-0.091c-0.009,-0.017 -0.026,-0.026 -0.049,-0.026c-0.021,0 -0.039,0.007 -0.052,0.021c-0.013,0.014 -0.02,0.034 -0.02,0.062l0,0.379l-0.074,-0l0,-0.345c0,-0.044 -0.005,-0.075 -0.014,-0.091c-0.009,-0.017 -0.025,-0.026 -0.048,-0.026c-0.021,0 -0.039,0.007 -0.053,0.021c-0.014,0.014 -0.02,0.034 -0.02,0.062l0,0.379l-0.074,-0Z" style="fill-rule:nonzero;"/></g><g transform="matrix(558.592542,0,0,558.592542,2410.401571,315.097459)"><path d="M0.495,-0c-0.031,-0 -0.054,-0.008 -0.067,-0.024c-0.013,-0.016 -0.022,-0.036 -0.025,-0.06l-0.005,0c-0.011,0.03 -0.029,0.054 -0.054,0.071c-0.025,0.017 -0.059,0.026 -0.101,0.025c-0.054,0 -0.097,-0.014 -0.129,-0.042c-0.032,-0.028 -0.048,-0.066 -0.048,-0.115c0,-0.048 0.018,-0.085 0.053,-0.111c0.035,-0.026 0.092,-0.039 0.17,-0.039l0.11,0l0,-0.051c-0,-0.038 -0.011,-0.067 -0.032,-0.085c-0.021,-0.019 -0.052,-0.029 -0.091,-0.029c-0.035,0 -0.063,0.007 -0.085,0.021c-0.022,0.014 -0.04,0.032 -0.053,0.055l-0.054,-0.04c0.007,-0.013 0.016,-0.026 0.027,-0.039c0.011,-0.013 0.025,-0.024 0.042,-0.033c0.017,-0.01 0.036,-0.017 0.057,-0.023c0.021,-0.006 0.045,-0.009 0.071,-0.009c0.061,0 0.109,0.015 0.144,0.046c0.036,0.031 0.054,0.073 0.054,0.128l0,0.284l0.072,0l0,0.07l-0.055,-0Zm-0.238,-0.055c0.021,0 0.04,-0.002 0.056,-0.007c0.017,-0.005 0.032,-0.012 0.044,-0.02c0.013,-0.008 0.023,-0.018 0.03,-0.03c0.007,-0.012 0.01,-0.024 0.011,-0.037l0,-0.085l-0.11,0c-0.048,0 -0.083,0.007 -0.105,0.02c-0.022,0.013 -0.033,0.033 -0.033,0.058l0,0.021c0,0.027 0.01,0.047 0.028,0.061c0.019,0.014 0.045,0.02 0.079,0.02Z" style="fill-rule:nonzero;"/></g><g transform="matrix(558.592542,0,0,558.592542,2784.658574,315.097459)"><path d="M0.325,-0c-0.039,-0 -0.068,-0.011 -0.086,-0.033c-0.018,-0.022 -0.028,-0.05 -0.028,-0.085l0,-0.33l-0.172,0l-0,-0.068l0.128,0c0.017,0 0.029,-0.003 0.037,-0.01c0.007,-0.007 0.01,-0.019 0.01,-0.037l0,-0.135l0.077,0l0,0.182l0.235,0l0,0.068l-0.235,0l0,0.38l0.235,0l0,0.068l-0.201,-0Z" style="fill-rule:nonzero;"/></g><g transform="matrix(558.592542,0,0,558.592542,3108.642248,315.097459)"><path d="M0.332,-0.63c-0.023,0 -0.04,-0.005 -0.049,-0.014c-0.009,-0.01 -0.014,-0.022 -0.014,-0.037l0,-0.016c0,-0.015 0.005,-0.027 0.014,-0.036c0.009,-0.01 0.026,-0.014 0.049,-0.014c0.023,0 0.04,0.005 0.049,0.014c0.009,0.01 0.014,0.022 0.014,0.036l0,0.016c0,0.015 -0.005,0.027 -0.014,0.037c-0.009,0.01 -0.026,0.014 -0.049,0.014Zm-0.226,0.562l0.186,-0l0,-0.38l-0.186,0l0,-0.068l0.266,0l0,0.448l0.174,0l0,0.068l-0.44,-0l0,-0.068Z" style="fill-rule:nonzero;"/></g><g transform="matrix(558.592542,0,0,558.592542,3460.55555,315.097459)"><path d="M0.306,0.012c-0.054,0 -0.1,-0.009 -0.139,-0.028c-0.039,-0.018 -0.072,-0.043 -0.1,-0.073l0.054,-0.047c0.025,0.026 0.052,0.046 0.081,0.06c0.029,0.014 0.065,0.021 0.106,0.021c0.04,0 0.073,-0.007 0.099,-0.021c0.026,-0.014 0.038,-0.037 0.038,-0.068c0,-0.013 -0.002,-0.024 -0.008,-0.033c-0.005,-0.009 -0.012,-0.016 -0.021,-0.022c-0.009,-0.005 -0.018,-0.01 -0.029,-0.012c-0.011,-0.003 -0.022,-0.006 -0.034,-0.008l-0.081,-0.012c-0.018,-0.003 -0.038,-0.006 -0.059,-0.011c-0.021,-0.005 -0.04,-0.012 -0.057,-0.023c-0.017,-0.01 -0.032,-0.024 -0.043,-0.041c-0.012,-0.017 -0.017,-0.04 -0.018,-0.068c0,-0.026 0.005,-0.049 0.015,-0.068c0.01,-0.019 0.025,-0.035 0.043,-0.048c0.019,-0.013 0.041,-0.023 0.066,-0.029c0.025,-0.006 0.053,-0.01 0.083,-0.01c0.047,0 0.087,0.007 0.121,0.022c0.034,0.015 0.064,0.035 0.089,0.061l-0.052,0.049c-0.006,-0.007 -0.014,-0.015 -0.023,-0.022c-0.009,-0.008 -0.02,-0.015 -0.033,-0.021c-0.013,-0.006 -0.028,-0.012 -0.046,-0.016c-0.017,-0.004 -0.037,-0.006 -0.06,-0.006c-0.041,0 -0.072,0.007 -0.093,0.021c-0.022,0.014 -0.033,0.034 -0.033,0.061c0,0.013 0.002,0.025 0.007,0.033c0.005,0.009 0.012,0.016 0.021,0.022c0.009,0.005 0.018,0.01 0.029,0.013c0.011,0.003 0.022,0.006 0.034,0.008l0.081,0.012c0.019,0.003 0.038,0.006 0.059,0.011c0.021,0.005 0.04,0.012 0.057,0.023c0.017,0.01 0.032,0.024 0.044,0.042c0.012,0.017 0.017,0.04 0.017,0.068c0,0.051 -0.02,0.091 -0.059,0.119c-0.04,0.028 -0.092,0.042 -0.159,0.042Z" style="fill-rule:nonzero;"/></g><g transform="matrix(558.592542,0,0,558.592542,3795.711075,315.097459)"><path d="M0.318,0.012c-0.037,0 -0.07,-0.006 -0.1,-0.019c-0.029,-0.013 -0.053,-0.031 -0.074,-0.054c-0.02,-0.023 -0.035,-0.052 -0.045,-0.085c-0.01,-0.033 -0.015,-0.07 -0.015,-0.111c0,-0.041 0.005,-0.078 0.016,-0.111c0.011,-0.033 0.026,-0.062 0.046,-0.086c0.02,-0.024 0.044,-0.042 0.073,-0.054c0.029,-0.013 0.061,-0.019 0.098,-0.019c0.05,0 0.091,0.011 0.122,0.033c0.031,0.022 0.054,0.051 0.069,0.086l-0.064,0.034c-0.009,-0.027 -0.025,-0.047 -0.046,-0.062c-0.022,-0.015 -0.049,-0.022 -0.081,-0.022c-0.023,0 -0.044,0.004 -0.062,0.012c-0.018,0.008 -0.034,0.019 -0.046,0.032c-0.013,0.014 -0.022,0.031 -0.029,0.05c-0.006,0.019 -0.009,0.04 -0.009,0.063l0,0.088c0,0.023 0.003,0.044 0.009,0.063c0.006,0.019 0.016,0.036 0.029,0.05c0.013,0.014 0.028,0.025 0.047,0.033c0.019,0.008 0.04,0.012 0.064,0.012c0.035,0 0.063,-0.008 0.086,-0.024c0.023,-0.016 0.041,-0.038 0.054,-0.066l0.057,0.039c-0.015,0.035 -0.039,0.063 -0.072,0.086c-0.032,0.023 -0.074,0.034 -0.127,0.034Z" style="fill-rule:nonzero;"/></g><g transform="matrix(558.592542,0,0,558.592542,4114.108824,315.097459)"><path d="M0.098,-0.74l0.08,0l0,0.308l0.004,0c0.005,-0.013 0.012,-0.025 0.02,-0.037c0.008,-0.012 0.018,-0.022 0.029,-0.03c0.012,-0.009 0.025,-0.016 0.042,-0.021c0.016,-0.005 0.035,-0.008 0.056,-0.008c0.054,0 0.097,0.017 0.13,0.051c0.033,0.034 0.049,0.083 0.049,0.146l0,0.331l-0.08,-0l0,-0.317c0,-0.047 -0.01,-0.083 -0.031,-0.105c-0.021,-0.023 -0.051,-0.035 -0.091,-0.035c-0.016,0 -0.032,0.002 -0.047,0.006c-0.015,0.004 -0.029,0.01 -0.041,0.018c-0.012,0.008 -0.022,0.018 -0.029,0.031c-0.007,0.013 -0.011,0.027 -0.011,0.044l0,0.358l-0.08,-0l0,-0.74Z" style="fill-rule:nonzero;"/></g></g></g><g transform="matrix(1.630616,0,0,1.630616,-587.25834,-1187.092121)"><g><g transform="matrix(385.816707,0,0,385.816707,436,2100)"><path d="M0.547,0.062c0,0.052 -0.021,0.09 -0.063,0.114c-0.042,0.024 -0.102,0.036 -0.181,0.036c-0.077,0 -0.133,-0.012 -0.167,-0.036c-0.034,-0.024 -0.051,-0.055 -0.051,-0.094c0,-0.03 0.009,-0.055 0.025,-0.074c0.017,-0.019 0.041,-0.033 0.071,-0.042l0,-0.005c-0.035,-0.011 -0.052,-0.034 -0.052,-0.068c0,-0.025 0.009,-0.044 0.026,-0.058c0.017,-0.014 0.038,-0.024 0.061,-0.031l0,-0.003c-0.029,-0.013 -0.052,-0.033 -0.069,-0.059c-0.016,-0.026 -0.024,-0.058 -0.024,-0.096c0,-0.026 0.004,-0.05 0.013,-0.071c0.008,-0.021 0.02,-0.04 0.036,-0.054c0.015,-0.015 0.034,-0.027 0.056,-0.035c0.022,-0.008 0.047,-0.013 0.074,-0.013c0.043,0 0.079,0.01 0.109,0.031l0,-0.033c0,-0.025 0.012,-0.037 0.037,-0.037l0.107,0l0,0.031l-0.12,0l0,0.058c0.015,0.015 0.027,0.033 0.035,0.054c0.008,0.021 0.012,0.044 0.012,0.069c-0,0.026 -0.004,0.05 -0.013,0.071c-0.009,0.022 -0.021,0.04 -0.037,0.055c-0.016,0.015 -0.035,0.027 -0.057,0.035c-0.022,0.008 -0.046,0.013 -0.073,0.013c-0.018,0 -0.036,-0.002 -0.054,-0.006c-0.027,0.007 -0.048,0.016 -0.064,0.028c-0.016,0.012 -0.023,0.028 -0.023,0.047c0,0.014 0.006,0.026 0.018,0.036c0.012,0.01 0.035,0.015 0.068,0.015l0.13,0c0.059,0 0.102,0.011 0.129,0.034c0.027,0.022 0.04,0.052 0.04,0.089Zm-0.034,0.002c0,-0.029 -0.01,-0.051 -0.031,-0.068c-0.02,-0.016 -0.056,-0.024 -0.106,-0.024l-0.16,0c-0.029,0.008 -0.052,0.021 -0.069,0.037c-0.017,0.017 -0.026,0.04 -0.026,0.069c0,0.032 0.013,0.057 0.041,0.076c0.027,0.019 0.065,0.028 0.113,0.028l0.056,0c0.055,0 0.1,-0.01 0.133,-0.028c0.033,-0.019 0.05,-0.049 0.05,-0.089Zm-0.21,-0.274c0.046,0 0.081,-0.012 0.106,-0.036c0.024,-0.024 0.036,-0.054 0.036,-0.091l0,-0.036c0,-0.036 -0.012,-0.066 -0.036,-0.09c-0.024,-0.024 -0.06,-0.036 -0.106,-0.036c-0.046,0 -0.081,0.012 -0.105,0.036c-0.024,0.024 -0.036,0.054 -0.036,0.09l0,0.036c0,0.037 0.012,0.067 0.037,0.091c0.024,0.024 0.059,0.036 0.104,0.036Z" style="fill-rule:nonzero;"/></g><g transform="matrix(385.816707,0,0,385.816707,655.915523,2100)"><path d="M0.307,0.012c-0.069,0 -0.123,-0.023 -0.163,-0.069c-0.039,-0.046 -0.058,-0.113 -0.058,-0.201c0,-0.088 0.019,-0.155 0.058,-0.201c0.039,-0.046 0.091,-0.069 0.158,-0.069c0.035,0 0.065,0.006 0.092,0.018c0.027,0.012 0.049,0.03 0.067,0.053c0.018,0.023 0.032,0.05 0.041,0.082c0.009,0.032 0.014,0.067 0.014,0.106l0,0.014l-0.392,0l0,0.026c0,0.065 0.016,0.116 0.048,0.154c0.032,0.038 0.077,0.056 0.135,0.056c0.041,0 0.076,-0.01 0.105,-0.029c0.029,-0.019 0.051,-0.048 0.066,-0.087l0.028,0.015c-0.015,0.04 -0.04,0.072 -0.074,0.096c-0.034,0.024 -0.076,0.036 -0.126,0.036Zm-0.005,-0.51c-0.057,0 -0.1,0.019 -0.131,0.057c-0.031,0.038 -0.047,0.089 -0.047,0.154l0,0.004l0.355,0l0,-0.005c0,-0.065 -0.015,-0.116 -0.046,-0.153c-0.031,-0.038 -0.074,-0.056 -0.131,-0.056Z" style="fill-rule:nonzero;"/></g><g transform="matrix(385.816707,0,0,385.816707,860.398378,2100)"><path d="M0.079,-0.031l0.172,0l0,-0.454l-0.172,0l-0,-0.031l0.207,0l0,0.107l0.003,0c0.006,-0.015 0.013,-0.028 0.022,-0.041c0.008,-0.013 0.019,-0.024 0.032,-0.034c0.013,-0.01 0.028,-0.017 0.046,-0.023c0.018,-0.006 0.039,-0.008 0.063,-0.008l0.105,0l0,0.033l-0.114,0c-0.022,0 -0.042,0.004 -0.061,0.01c-0.019,0.007 -0.035,0.017 -0.049,0.031c-0.014,0.013 -0.025,0.03 -0.034,0.05c-0.008,0.02 -0.012,0.043 -0.012,0.07l0,0.291l0.22,-0l0,0.031l-0.427,-0l-0,-0.031Z" style="fill-rule:nonzero;"/></g><g transform="matrix(385.816707,0,0,385.816707,1080.3139,2100)"><path d="M0.307,0.012c-0.069,0 -0.123,-0.023 -0.163,-0.069c-0.039,-0.046 -0.058,-0.113 -0.058,-0.201c0,-0.088 0.019,-0.155 0.058,-0.201c0.039,-0.046 0.091,-0.069 0.158,-0.069c0.035,0 0.065,0.006 0.092,0.018c0.027,0.012 0.049,0.03 0.067,0.053c0.018,0.023 0.032,0.05 0.041,0.082c0.009,0.032 0.014,0.067 0.014,0.106l0,0.014l-0.392,0l0,0.026c0,0.065 0.016,0.116 0.048,0.154c0.032,0.038 0.077,0.056 0.135,0.056c0.041,0 0.076,-0.01 0.105,-0.029c0.029,-0.019 0.051,-0.048 0.066,-0.087l0.028,0.015c-0.015,0.04 -0.04,0.072 -0.074,0.096c-0.034,0.024 -0.076,0.036 -0.126,0.036Zm-0.005,-0.51c-0.057,0 -0.1,0.019 -0.131,0.057c-0.031,0.038 -0.047,0.089 -0.047,0.154l0,0.004l0.355,0l0,-0.005c0,-0.065 -0.015,-0.116 -0.046,-0.153c-0.031,-0.038 -0.074,-0.056 -0.131,-0.056Z" style="fill-rule:nonzero;"/></g><g transform="matrix(385.816707,0,0,385.816707,1284.796755,2100)"><path d="M0.547,0.062c0,0.052 -0.021,0.09 -0.063,0.114c-0.042,0.024 -0.102,0.036 -0.181,0.036c-0.077,0 -0.133,-0.012 -0.167,-0.036c-0.034,-0.024 -0.051,-0.055 -0.051,-0.094c0,-0.03 0.009,-0.055 0.025,-0.074c0.017,-0.019 0.041,-0.033 0.071,-0.042l0,-0.005c-0.035,-0.011 -0.052,-0.034 -0.052,-0.068c0,-0.025 0.009,-0.044 0.026,-0.058c0.017,-0.014 0.038,-0.024 0.061,-0.031l0,-0.003c-0.029,-0.013 -0.052,-0.033 -0.069,-0.059c-0.016,-0.026 -0.024,-0.058 -0.024,-0.096c0,-0.026 0.004,-0.05 0.013,-0.071c0.008,-0.021 0.02,-0.04 0.036,-0.054c0.015,-0.015 0.034,-0.027 0.056,-0.035c0.022,-0.008 0.047,-0.013 0.074,-0.013c0.043,0 0.079,0.01 0.109,0.031l0,-0.033c0,-0.025 0.012,-0.037 0.037,-0.037l0.107,0l0,0.031l-0.12,0l0,0.058c0.015,0.015 0.027,0.033 0.035,0.054c0.008,0.021 0.012,0.044 0.012,0.069c-0,0.026 -0.004,0.05 -0.013,0.071c-0.009,0.022 -0.021,0.04 -0.037,0.055c-0.016,0.015 -0.035,0.027 -0.057,0.035c-0.022,0.008 -0.046,0.013 -0.073,0.013c-0.018,0 -0.036,-0.002 -0.054,-0.006c-0.027,0.007 -0.048,0.016 -0.064,0.028c-0.016,0.012 -0.023,0.028 -0.023,0.047c0,0.014 0.006,0.026 0.018,0.036c0.012,0.01 0.035,0.015 0.068,0.015l0.13,0c0.059,0 0.102,0.011 0.129,0.034c0.027,0.022 0.04,0.052 0.04,0.089Zm-0.034,0.002c0,-0.029 -0.01,-0.051 -0.031,-0.068c-0.02,-0.016 -0.056,-0.024 -0.106,-0.024l-0.16,0c-0.029,0.008 -0.052,0.021 -0.069,0.037c-0.017,0.017 -0.026,0.04 -0.026,0.069c0,0.032 0.013,0.057 0.041,0.076c0.027,0.019 0.065,0.028 0.113,0.028l0.056,0c0.055,0 0.1,-0.01 0.133,-0.028c0.033,-0.019 0.05,-0.049 0.05,-0.089Zm-0.21,-0.274c0.046,0 0.081,-0.012 0.106,-0.036c0.024,-0.024 0.036,-0.054 0.036,-0.091l0,-0.036c0,-0.036 -0.012,-0.066 -0.036,-0.09c-0.024,-0.024 -0.06,-0.036 -0.106,-0.036c-0.046,0 -0.081,0.012 -0.105,0.036c-0.024,0.024 -0.036,0.054 -0.036,0.09l0,0.036c0,0.037 0.012,0.067 0.037,0.091c0.024,0.024 0.059,0.036 0.104,0.036Z" style="fill-rule:nonzero;"/></g><g transform="matrix(385.816707,0,0,385.816707,1504.712278,2100)"><path d="M0.307,0.012c-0.069,0 -0.123,-0.023 -0.163,-0.069c-0.039,-0.046 -0.058,-0.113 -0.058,-0.201c0,-0.088 0.019,-0.155 0.058,-0.201c0.039,-0.046 0.091,-0.069 0.158,-0.069c0.035,0 0.065,0.006 0.092,0.018c0.027,0.012 0.049,0.03 0.067,0.053c0.018,0.023 0.032,0.05 0.041,0.082c0.009,0.032 0.014,0.067 0.014,0.106l0,0.014l-0.392,0l0,0.026c0,0.065 0.016,0.116 0.048,0.154c0.032,0.038 0.077,0.056 0.135,0.056c0.041,0 0.076,-0.01 0.105,-0.029c0.029,-0.019 0.051,-0.048 0.066,-0.087l0.028,0.015c-0.015,0.04 -0.04,0.072 -0.074,0.096c-0.034,0.024 -0.076,0.036 -0.126,0.036Zm-0.005,-0.51c-0.057,0 -0.1,0.019 -0.131,0.057c-0.031,0.038 -0.047,0.089 -0.047,0.154l0,0.004l0.355,0l0,-0.005c0,-0.065 -0.015,-0.116 -0.046,-0.153c-0.031,-0.038 -0.074,-0.056 -0.131,-0.056Z" style="fill-rule:nonzero;"/></g><g transform="matrix(385.816707,0,0,385.816707,1709.195133,2100)"><path d="M0.088,-0.031l0.195,0l0,-0.678l-0.195,0l0,-0.031l0.23,0l0,0.709l0.194,0l0,0.031l-0.424,-0l0,-0.031Z" style="fill-rule:nonzero;"/></g><g transform="matrix(385.816707,0,0,385.816707,1932.968823,2100)"><path d="M0.28,-0c-0.033,-0 -0.049,-0.017 -0.049,-0.05l0,-0.435l-0.194,0l-0,-0.031l0.161,0c0.023,0 0.034,-0.011 0.034,-0.033l0,-0.149l0.034,0l0,0.182l0.257,0l0,0.031l-0.257,0l0,0.454l0.257,0l0,0.031l-0.243,-0Z" style="fill-rule:nonzero;"/></g></g></g></svg>