<?xml version="1.0" encoding="UTF-8" standalone="no"?><!DOCTYPE svg PUBLIC "-//W3C//DTD SVG 1.1//EN" "http://www.w3.org/Graphics/SVG/1.1/DTD/svg11.dtd"><svg width="100%" height="100%" viewBox="0 0 4961 3508" version="1.1" xmlns="http://www.w3.org/2000/svg" xmlns:xlink="http://www.w3.org/1999/xlink" xml:space="preserve" xmlns:serif="http://www.serif.com/" style="fill-rule:evenodd;clip-rule:evenodd;stroke-linecap:round;stroke-linejoin:round;stroke-miterlimit:10;"><g><g><rect x="1919.23" y="1664.716" width="1122.05" height="14.764" style="stroke:#000;stroke-width:2.08px;"/><rect x="1919.23" y="1650.072" width="29.527" height="12.928" style="stroke:#000;stroke-width:2.08px;"/><rect x="2037.53" y="1649.956" width="29.345" height="14.764" style="stroke:#000;stroke-width:2.08px;"/><rect x="2096.4" y="1650.074" width="29.893" height="14.646" style="stroke:#000;stroke-width:2.08px;"/><rect x="2155.82" y="1650.074" width="29.179" height="14.646" style="stroke:#000;stroke-width:2.08px;"/><rect x="2214.14" y="1650.074" width="29.893" height="14.646" style="stroke:#000;stroke-width:2.08px;"/><rect x="2273.57" y="1650.074" width="29.51" height="14.646" style="stroke:#000;stroke-width:2.08px;"/><rect x="2332.64" y="1650.074" width="29.51" height="14.646" style="stroke:#000;stroke-width:2.08px;"/><rect x="2391.69" y="1650.074" width="29.527" height="14.646" style="stroke:#000;stroke-width:2.08px;"/><rect x="2450.77" y="1650.074" width="59.073" height="14.646" style="stroke:#000;stroke-width:2.08px;"/><rect x="2539.38" y="1651.002" width="59.615" height="13.717" style="stroke:#000;stroke-width:2.08px;"/><rect x="2627.9" y="1650.074" width="30.104" height="14.646" style="stroke:#000;stroke-width:2.08px;"/><rect x="2687.53" y="1650.074" width="29.472" height="14.646" style="stroke:#000;stroke-width:2.08px;"/><rect x="2746.53" y="1650.072" width="29.006" height="13.928" style="stroke:#000;stroke-width:2.08px;"/><rect x="2805.06" y="1650.074" width="29.006" height="14.646" style="stroke:#000;stroke-width:2.08px;"/><rect x="2864.12" y="1649.954" width="29.884" height="14.046" style="stroke:#000;stroke-width:2.08px;"/><rect x="2923.69" y="1650.074" width="29.006" height="14.646" style="stroke:#000;stroke-width:2.08px;"/><rect x="2982.39" y="1650.074" width="29.362" height="14.646" style="stroke:#000;stroke-width:2.08px;"/><path d="M2007.82,1649.95l-29.53,0" style="fill:none;fill-rule:nonzero;stroke:#000;stroke-width:2.08px;"/><rect x="2096.76" y="2136.834" width="29.179" height="14.646" style="fill:none;stroke:#000;stroke-width:2.08px;"/><rect x="2155.82" y="2136.834" width="29.893" height="14.646" style="fill:none;stroke:#000;stroke-width:2.08px;"/><rect x="2215.6" y="2136.834" width="29.51" height="14.646" style="fill:none;stroke:#000;stroke-width:2.08px;"/><rect x="2274.31" y="2136.834" width="29.337" height="14.646" style="fill:none;stroke:#000;stroke-width:2.08px;"/><rect x="2333.17" y="2136.834" width="29.527" height="14.646" style="fill:none;stroke:#000;stroke-width:2.08px;"/><rect x="2597.65" y="2136.834" width="30.104" height="14.646" style="fill:none;stroke:#000;stroke-width:2.08px;"/><rect x="2657.28" y="2136.834" width="29.472" height="14.646" style="fill:none;stroke:#000;stroke-width:2.08px;"/><rect x="2716.28" y="2136.832" width="29.006" height="13.928" style="fill:none;stroke:#000;stroke-width:2.08px;"/><rect x="2775.82" y="2136.834" width="29.006" height="14.646" style="fill:none;stroke:#000;stroke-width:2.08px;"/><rect x="2834.59" y="2136.834" width="29.884" height="14.046" style="fill:none;stroke:#000;stroke-width:2.08px;"/><rect x="2096.4" y="1886.074" width="29.893" height="14.646" style="stroke:#000;stroke-width:2.08px;"/><rect x="2155.82" y="1886.074" width="29.179" height="14.646" style="stroke:#000;stroke-width:2.08px;"/><rect x="2214.14" y="1886.074" width="29.893" height="14.646" style="stroke:#000;stroke-width:2.08px;"/><rect x="2273.57" y="1886.074" width="29.51" height="14.646" style="stroke:#000;stroke-width:2.08px;"/><rect x="2332.64" y="1886.074" width="29.51" height="14.646" style="stroke:#000;stroke-width:2.08px;"/><rect x="2391.69" y="1886.074" width="29.527" height="14.646" style="stroke:#000;stroke-width:2.08px;"/><rect x="2450.77" y="1886.074" width="59.073" height="14.646" style="stroke:#000;stroke-width:2.08px;"/><rect x="2539.38" y="1887.002" width="59.615" height="13.718" style="stroke:#000;stroke-width:2.08px;"/><rect x="2627.9" y="1886.074" width="30.104" height="14.646" style="stroke:#000;stroke-width:2.08px;"/><rect x="2687.53" y="1886.074" width="29.472" height="14.646" style="stroke:#000;stroke-width:2.08px;"/><rect x="2746.53" y="1886.072" width="29.006" height="13.928" style="stroke:#000;stroke-width:2.08px;"/><rect x="2805.06" y="1886.074" width="29.006" height="14.646" style="stroke:#000;stroke-width:2.08px;"/><rect x="2864.12" y="1885.954" width="29.884" height="14.046" style="stroke:#000;stroke-width:2.08px;"/><rect x="1978.29" y="1649.956" width="29.711" height="14.764" style="stroke:#000;stroke-width:2.08px;"/><rect x="2923.69" y="1886.998" width="117.589" height="28.702" style="stroke:#000;stroke-width:2.08px;"/><rect x="2037.34" y="1901.351" width="886.348" height="14.469" style="stroke:#000;stroke-width:2.08px;"/><rect x="1919.23" y="1886.174" width="147.638" height="29.646" style="stroke:#000;stroke-width:2.08px;"/><rect x="2805.06" y="2122.392" width="29.527" height="29.527" style="fill:none;stroke:#000;stroke-width:2.08px;"/><rect x="2775.53" y="2092.982" width="29.527" height="29.528" style="fill:none;stroke:#000;stroke-width:2.08px;"/><rect x="2746.01" y="2063.463" width="29.527" height="29.527" style="fill:none;stroke:#000;stroke-width:2.08px;"/><rect x="2716.48" y="2034.052" width="29.527" height="29.528" style="fill:none;stroke:#000;stroke-width:2.08px;"/><rect x="2687.06" y="2005.395" width="29.527" height="28.535" style="fill:none;stroke:#000;stroke-width:2.08px;"/><rect x="2657.53" y="1975.983" width="29.527" height="29.527" style="fill:none;stroke:#000;stroke-width:2.08px;"/><rect x="2628.01" y="1946.462" width="29.527" height="29.527" style="fill:none;stroke:#000;stroke-width:2.08px;"/><rect x="2598.48" y="1917.053" width="29.527" height="29.527" style="fill:none;stroke:#000;stroke-width:2.08px;"/><rect x="2362.06" y="1856.642" width="29.527" height="29.527" style="fill:none;stroke:#000;stroke-width:2.08px;"/><rect x="2332.53" y="1827.233" width="29.527" height="29.527" style="fill:none;stroke:#000;stroke-width:2.08px;"/><rect x="2303.01" y="1797.712" width="29.527" height="29.527" style="fill:none;stroke:#000;stroke-width:2.08px;"/><rect x="2273.48" y="1768.302" width="29.527" height="29.527" style="fill:none;stroke:#000;stroke-width:2.08px;"/><rect x="2244.06" y="1739.643" width="29.527" height="29.527" style="fill:none;stroke:#000;stroke-width:2.08px;"/><rect x="2214.53" y="1710.232" width="29.527" height="29.527" style="fill:none;stroke:#000;stroke-width:2.08px;"/><rect x="2185.01" y="1680.712" width="29.527" height="29.527" style="fill:none;stroke:#000;stroke-width:2.08px;"/><path d="M2066.87,1886.17l857.13,0.83" style="fill:none;fill-rule:nonzero;stroke:#000;stroke-width:2.08px;"/><path d="M1948.76,1650.07l1092.52,0" style="fill:none;fill-rule:nonzero;stroke:#000;stroke-width:2.08px;"/><path d="M2066.37,1915.82l0.45,235.66" style="fill:none;fill-rule:nonzero;stroke:#000;stroke-width:2.08px;"/><path d="M2037.18,1915.82l0.45,235.66" style="fill:none;fill-rule:nonzero;stroke:#000;stroke-width:2.08px;"/><path d="M1919.37,1916.38l0.45,235.66" style="fill:none;fill-rule:nonzero;stroke:#000;stroke-width:2.08px;"/><path d="M1889.71,1916.38l0.45,235.66" style="fill:none;fill-rule:nonzero;stroke:#000;stroke-width:2.08px;"/><path d="M1949,1354.8l1062.75,0" style="fill:none;fill-rule:nonzero;stroke:#000;stroke-width:2.08px;"/><path d="M1949,1384.25l1062.75,0" style="fill:none;fill-rule:nonzero;stroke:#000;stroke-width:2.08px;"/><path d="M2066.87,1650.03l0,-265.78" style="fill:none;fill-rule:nonzero;stroke:#000;stroke-width:2.08px;"/><path d="M2037.4,1650.03l0,-265.78" style="fill:none;fill-rule:nonzero;stroke:#000;stroke-width:2.08px;"/><rect x="3011.75" y="1354.793" width="59.246" height="29.527" style="stroke:#000;stroke-width:2.08px;"/><rect x="1889.71" y="1354.793" width="59.055" height="29.527" style="stroke:#000;stroke-width:2.08px;"/><rect x="2391.68" y="1354.793" width="29.528" height="29.527" style="stroke:#000;stroke-width:2.08px;"/><rect x="2539.31" y="1354.793" width="29.527" height="29.527" style="stroke:#000;stroke-width:2.08px;"/><rect x="3041.28" y="1384.324" width="29.528" height="767.716" style="stroke:#000;stroke-width:2.08px;"/><rect x="1889.71" y="2152.042" width="1181.1" height="29.528" style="stroke:#000;stroke-width:2.08px;"/><rect x="1889.71" y="1384.324" width="29.528" height="531.496" style="stroke:#000;stroke-width:2.08px;"/><rect x="2923.69" y="1857.472" width="29.528" height="29.528" style="fill:none;stroke:#000;stroke-width:2.08px;"/><rect x="2982.87" y="1857.472" width="29.528" height="29.528" style="fill:none;stroke:#000;stroke-width:2.08px;"/><path d="M1919.23,1856.65l118.11,0" style="fill:none;fill-rule:nonzero;stroke:#000;stroke-width:2.08px;"/><path d="M1919.23,1709.01l118.11,0" style="fill:none;fill-rule:nonzero;stroke:#000;stroke-width:2.08px;"/><path d="M1919.23,1827.12l118.11,0" style="fill:none;fill-rule:nonzero;stroke:#000;stroke-width:2.08px;"/><path d="M1919.23,1768.06l118.11,0" style="fill:none;fill-rule:nonzero;stroke:#000;stroke-width:2.08px;"/><path d="M2066.87,1886.17l0,-206.69" style="fill:none;fill-rule:nonzero;stroke:#000;stroke-width:2.08px;"/><path d="M1919.23,1738.54l118.11,0" style="fill:none;fill-rule:nonzero;stroke:#000;stroke-width:2.08px;"/><path d="M2037.34,1886.17l0,-206.69" style="fill:none;fill-rule:nonzero;stroke:#000;stroke-width:2.08px;"/><path d="M2420.37,1915.82l0.45,235.66" style="fill:none;fill-rule:nonzero;stroke:#000;stroke-width:2.08px;"/><path d="M2391.18,1915.82l0.45,235.66" style="fill:none;fill-rule:nonzero;stroke:#000;stroke-width:2.08px;"/><path d="M2420.87,1650.03l0,-265.78" style="fill:none;fill-rule:nonzero;stroke:#000;stroke-width:2.08px;"/><path d="M2391.4,1650.03l0,-265.78" style="fill:none;fill-rule:nonzero;stroke:#000;stroke-width:2.08px;"/><path d="M2420.87,1886.17l0,-206.69" style="fill:none;fill-rule:nonzero;stroke:#000;stroke-width:2.08px;"/><path d="M2391.34,1886.17l0,-206.69" style="fill:none;fill-rule:nonzero;stroke:#000;stroke-width:2.08px;"/><path d="M2568.37,1915.82l0.45,235.66" style="fill:none;fill-rule:nonzero;stroke:#000;stroke-width:2.08px;"/><path d="M2539.18,1915.82l0.45,235.66" style="fill:none;fill-rule:nonzero;stroke:#000;stroke-width:2.08px;"/><path d="M2568.87,1650.03l0,-265.78" style="fill:none;fill-rule:nonzero;stroke:#000;stroke-width:2.08px;"/><path d="M2539.4,1650.03l0,-265.78" style="fill:none;fill-rule:nonzero;stroke:#000;stroke-width:2.08px;"/><path d="M2568.87,1886.17l0,-206.69" style="fill:none;fill-rule:nonzero;stroke:#000;stroke-width:2.08px;"/><path d="M2539.34,1886.17l0,-206.69" style="fill:none;fill-rule:nonzero;stroke:#000;stroke-width:2.08px;"/><path d="M2894.18,1915.82l0.45,235.66" style="fill:none;fill-rule:nonzero;stroke:#000;stroke-width:2.08px;"/><path d="M2923.87,1650.03l0,-265.78" style="fill:none;fill-rule:nonzero;stroke:#000;stroke-width:2.08px;"/><path d="M2894.4,1650.03l0,-265.78" style="fill:none;fill-rule:nonzero;stroke:#000;stroke-width:2.08px;"/><path d="M2923.87,1886.17l0,-206.69" style="fill:none;fill-rule:nonzero;stroke:#000;stroke-width:2.08px;"/><path d="M2894.34,1886.17l0,-206.69" style="fill:none;fill-rule:nonzero;stroke:#000;stroke-width:2.08px;"/><path d="M1919.23,1797.59l118.11,0" style="fill:none;fill-rule:nonzero;stroke:#000;stroke-width:2.08px;"/><path d="M3041.28,2122.39l-118.11,0" style="fill:none;fill-rule:nonzero;stroke:#000;stroke-width:2.08px;"/><path d="M3041.28,2004.28l-118.11,0" style="fill:none;fill-rule:nonzero;stroke:#000;stroke-width:2.08px;"/><path d="M3041.28,1974.76l-118.11,0" style="fill:none;fill-rule:nonzero;stroke:#000;stroke-width:2.08px;"/><path d="M3041.28,2063.34l-118.11,0" style="fill:none;fill-rule:nonzero;stroke:#000;stroke-width:2.08px;"/><path d="M3041.28,2033.81l-118.11,0" style="fill:none;fill-rule:nonzero;stroke:#000;stroke-width:2.08px;"/><path d="M3041.28,2092.87l-118.11,0" style="fill:none;fill-rule:nonzero;stroke:#000;stroke-width:2.08px;"/><path d="M3041.28,1945.23l-118.11,0" style="fill:none;fill-rule:nonzero;stroke:#000;stroke-width:2.08px;"/><path d="M2923.17,2151.92l0,-236.22" style="fill:none;fill-rule:nonzero;stroke:#000;stroke-width:2.08px;"/><rect x="2923.63" y="1798.232" width="29.528" height="29.528" style="fill:none;stroke:#000;stroke-width:2.08px;"/><rect x="2982.87" y="1798.232" width="29.528" height="29.528" style="fill:none;stroke:#000;stroke-width:2.08px;"/><rect x="2923.63" y="1739.172" width="29.528" height="29.528" style="fill:none;stroke:#000;stroke-width:2.08px;"/><rect x="2982.87" y="1739.172" width="29.528" height="29.528" style="fill:none;stroke:#000;stroke-width:2.08px;"/><rect x="2923.63" y="1680.122" width="29.528" height="29.528" style="fill:none;stroke:#000;stroke-width:2.08px;"/><rect x="2982.87" y="1680.122" width="29.528" height="29.528" style="fill:none;stroke:#000;stroke-width:2.08px;"/><rect x="2923.63" y="1502.952" width="29.528" height="29.528" style="fill:none;stroke:#000;stroke-width:2.08px;"/><rect x="2982.87" y="1502.952" width="29.528" height="29.528" style="fill:none;stroke:#000;stroke-width:2.08px;"/><rect x="2923.63" y="1443.902" width="29.528" height="29.528" style="fill:none;stroke:#000;stroke-width:2.08px;"/><rect x="2982.87" y="1443.902" width="29.528" height="29.528" style="fill:none;stroke:#000;stroke-width:2.08px;"/><rect x="2923.63" y="1621.062" width="29.528" height="29.528" style="fill:none;stroke:#000;stroke-width:2.08px;"/><rect x="2982.87" y="1621.062" width="29.528" height="29.528" style="fill:none;stroke:#000;stroke-width:2.08px;"/><rect x="2923.63" y="1562.012" width="29.528" height="29.528" style="fill:none;stroke:#000;stroke-width:2.08px;"/><rect x="2982.87" y="1562.012" width="29.528" height="29.528" style="fill:none;stroke:#000;stroke-width:2.08px;"/><rect x="2923.63" y="1384.842" width="29.528" height="29.528" style="fill:none;stroke:#000;stroke-width:2.08px;"/><rect x="2982.87" y="1384.842" width="29.528" height="29.528" style="fill:none;stroke:#000;stroke-width:2.08px;"/><rect x="1948.63" y="1502.952" width="29.528" height="29.528" style="fill:none;stroke:#000;stroke-width:2.08px;"/><rect x="2007.87" y="1502.952" width="29.528" height="29.528" style="fill:none;stroke:#000;stroke-width:2.08px;"/><rect x="1948.63" y="1443.902" width="29.528" height="29.528" style="fill:none;stroke:#000;stroke-width:2.08px;"/><rect x="2007.87" y="1443.902" width="29.528" height="29.528" style="fill:none;stroke:#000;stroke-width:2.08px;"/><rect x="1948.63" y="1621.062" width="29.528" height="29.528" style="fill:none;stroke:#000;stroke-width:2.08px;"/><rect x="2007.87" y="1621.062" width="29.528" height="29.528" style="fill:none;stroke:#000;stroke-width:2.08px;"/><rect x="1948.63" y="1562.012" width="29.528" height="29.528" style="fill:none;stroke:#000;stroke-width:2.08px;"/><rect x="2007.87" y="1562.012" width="29.528" height="29.528" style="fill:none;stroke:#000;stroke-width:2.08px;"/><rect x="1948.13" y="1974.952" width="29.528" height="29.528" style="fill:none;stroke:#000;stroke-width:2.08px;"/><rect x="2007.38" y="1974.952" width="29.528" height="29.528" style="fill:none;stroke:#000;stroke-width:2.08px;"/><rect x="1948.13" y="1915.902" width="29.528" height="29.528" style="fill:none;stroke:#000;stroke-width:2.08px;"/><rect x="2007.38" y="1915.902" width="29.528" height="29.528" style="fill:none;stroke:#000;stroke-width:2.08px;"/><rect x="1948.13" y="2093.062" width="29.528" height="29.528" style="fill:none;stroke:#000;stroke-width:2.08px;"/><rect x="2007.38" y="2093.062" width="29.528" height="29.528" style="fill:none;stroke:#000;stroke-width:2.08px;"/><rect x="1948.13" y="2034.012" width="29.528" height="29.528" style="fill:none;stroke:#000;stroke-width:2.08px;"/><rect x="2007.38" y="2034.012" width="29.528" height="29.528" style="fill:none;stroke:#000;stroke-width:2.08px;"/><rect x="2066.83" y="1975.392" width="29.528" height="29.528" style="fill:none;stroke:#000;stroke-width:2.08px;"/><rect x="2126.08" y="1975.392" width="29.528" height="29.528" style="fill:none;stroke:#000;stroke-width:2.08px;"/><rect x="2066.83" y="1916.342" width="29.528" height="29.528" style="fill:none;stroke:#000;stroke-width:2.08px;"/><rect x="2126.08" y="1916.342" width="29.528" height="29.528" style="fill:none;stroke:#000;stroke-width:2.08px;"/><rect x="2066.83" y="2093.502" width="29.528" height="29.528" style="fill:none;stroke:#000;stroke-width:2.08px;"/><rect x="2126.08" y="2093.502" width="29.528" height="29.528" style="fill:none;stroke:#000;stroke-width:2.08px;"/><rect x="2066.83" y="2034.452" width="29.528" height="29.528" style="fill:none;stroke:#000;stroke-width:2.08px;"/><rect x="2126.08" y="2034.452" width="29.528" height="29.528" style="fill:none;stroke:#000;stroke-width:2.08px;"/><rect x="2185.53" y="1975.392" width="29.528" height="29.528" style="fill:none;stroke:#000;stroke-width:2.08px;"/><rect x="2244.78" y="1975.392" width="29.528" height="29.528" style="fill:none;stroke:#000;stroke-width:2.08px;"/><rect x="2185.53" y="1916.342" width="29.528" height="29.528" style="fill:none;stroke:#000;stroke-width:2.08px;"/><rect x="2244.78" y="1916.342" width="29.528" height="29.528" style="fill:none;stroke:#000;stroke-width:2.08px;"/><rect x="2185.53" y="2093.502" width="29.528" height="29.528" style="fill:none;stroke:#000;stroke-width:2.08px;"/><rect x="2244.78" y="2093.502" width="29.528" height="29.528" style="fill:none;stroke:#000;stroke-width:2.08px;"/><rect x="2185.53" y="2034.452" width="29.528" height="29.528" style="fill:none;stroke:#000;stroke-width:2.08px;"/><rect x="2244.78" y="2034.452" width="29.528" height="29.528" style="fill:none;stroke:#000;stroke-width:2.08px;"/><rect x="2302.46" y="1975.392" width="29.528" height="29.528" style="fill:none;stroke:#000;stroke-width:2.08px;"/><rect x="2361.71" y="1975.392" width="29.528" height="29.528" style="fill:none;stroke:#000;stroke-width:2.08px;"/><rect x="2302.46" y="1916.342" width="29.528" height="29.528" style="fill:none;stroke:#000;stroke-width:2.08px;"/><rect x="2361.71" y="1916.342" width="29.528" height="29.528" style="fill:none;stroke:#000;stroke-width:2.08px;"/><rect x="2302.46" y="2093.502" width="29.528" height="29.528" style="fill:none;stroke:#000;stroke-width:2.08px;"/><rect x="2361.71" y="2093.502" width="29.528" height="29.528" style="fill:none;stroke:#000;stroke-width:2.08px;"/><rect x="2302.46" y="2034.452" width="29.528" height="29.528" style="fill:none;stroke:#000;stroke-width:2.08px;"/><rect x="2361.71" y="2034.452" width="29.528" height="29.528" style="fill:none;stroke:#000;stroke-width:2.08px;"/><rect x="2067.13" y="1738.532" width="29.528" height="29.528" style="fill:none;stroke:#000;stroke-width:2.08px;"/><rect x="2126.38" y="1738.532" width="29.528" height="29.528" style="fill:none;stroke:#000;stroke-width:2.08px;"/><rect x="2067.13" y="1679.482" width="29.528" height="29.528" style="fill:none;stroke:#000;stroke-width:2.08px;"/><rect x="2126.38" y="1679.482" width="29.528" height="29.528" style="fill:none;stroke:#000;stroke-width:2.08px;"/><rect x="2067.13" y="1856.642" width="29.528" height="29.528" style="fill:none;stroke:#000;stroke-width:2.08px;"/><rect x="2126.38" y="1856.642" width="29.528" height="29.528" style="fill:none;stroke:#000;stroke-width:2.08px;"/><rect x="2067.13" y="1797.592" width="29.528" height="29.528" style="fill:none;stroke:#000;stroke-width:2.08px;"/><rect x="2126.38" y="1797.592" width="29.528" height="29.528" style="fill:none;stroke:#000;stroke-width:2.08px;"/><rect x="2569.13" y="1738.532" width="29.528" height="29.528" style="fill:none;stroke:#000;stroke-width:2.08px;"/><rect x="2628.38" y="1738.532" width="29.528" height="29.528" style="fill:none;stroke:#000;stroke-width:2.08px;"/><rect x="2569.13" y="1679.482" width="29.528" height="29.528" style="fill:none;stroke:#000;stroke-width:2.08px;"/><rect x="2628.38" y="1679.482" width="29.528" height="29.528" style="fill:none;stroke:#000;stroke-width:2.08px;"/><rect x="2569.13" y="1856.642" width="29.528" height="29.528" style="fill:none;stroke:#000;stroke-width:2.08px;"/><rect x="2628.38" y="1856.642" width="29.528" height="29.528" style="fill:none;stroke:#000;stroke-width:2.08px;"/><rect x="2569.13" y="1797.592" width="29.528" height="29.528" style="fill:none;stroke:#000;stroke-width:2.08px;"/><rect x="2628.38" y="1797.592" width="29.528" height="29.528" style="fill:none;stroke:#000;stroke-width:2.08px;"/><rect x="2687.5" y="1738.532" width="29.528" height="29.528" style="fill:none;stroke:#000;stroke-width:2.08px;"/><rect x="2746.75" y="1738.532" width="29.528" height="29.528" style="fill:none;stroke:#000;stroke-width:2.08px;"/><rect x="2687.5" y="1679.482" width="29.528" height="29.528" style="fill:none;stroke:#000;stroke-width:2.08px;"/><rect x="2746.75" y="1679.482" width="29.528" height="29.528" style="fill:none;stroke:#000;stroke-width:2.08px;"/><rect x="2687.5" y="1856.642" width="29.528" height="29.528" style="fill:none;stroke:#000;stroke-width:2.08px;"/><rect x="2746.75" y="1856.642" width="29.528" height="29.528" style="fill:none;stroke:#000;stroke-width:2.08px;"/><rect x="2687.5" y="1797.592" width="29.528" height="29.528" style="fill:none;stroke:#000;stroke-width:2.08px;"/><rect x="2746.75" y="1797.592" width="29.528" height="29.528" style="fill:none;stroke:#000;stroke-width:2.08px;"/><rect x="2805.61" y="1738.532" width="29.528" height="29.528" style="fill:none;stroke:#000;stroke-width:2.08px;"/><rect x="2864.86" y="1738.532" width="29.528" height="29.528" style="fill:none;stroke:#000;stroke-width:2.08px;"/><rect x="2805.61" y="1679.482" width="29.528" height="29.528" style="fill:none;stroke:#000;stroke-width:2.08px;"/><rect x="2864.86" y="1679.482" width="29.528" height="29.528" style="fill:none;stroke:#000;stroke-width:2.08px;"/><rect x="2805.61" y="1856.642" width="29.528" height="29.528" style="fill:none;stroke:#000;stroke-width:2.08px;"/><rect x="2864.86" y="1856.642" width="29.528" height="29.528" style="fill:none;stroke:#000;stroke-width:2.08px;"/><rect x="2805.61" y="1797.592" width="29.528" height="29.528" style="fill:none;stroke:#000;stroke-width:2.08px;"/><rect x="2864.86" y="1797.592" width="29.528" height="29.528" style="fill:none;stroke:#000;stroke-width:2.08px;"/><rect x="2569.13" y="1974.872" width="29.528" height="29.528" style="fill:none;stroke:#000;stroke-width:2.08px;"/><rect x="2628.01" y="1975.982" width="29.528" height="29.528" style="fill:none;stroke:#000;stroke-width:2.08px;"/><rect x="2569.14" y="1916.932" width="29.528" height="29.528" style="fill:none;stroke:#000;stroke-width:2.08px;"/><rect x="2628.01" y="1916.932" width="29.528" height="29.528" style="fill:none;stroke:#000;stroke-width:2.08px;"/><rect x="2569.13" y="2092.982" width="29.528" height="29.528" style="fill:none;stroke:#000;stroke-width:2.08px;"/><rect x="2628.38" y="2092.982" width="29.528" height="29.528" style="fill:none;stroke:#000;stroke-width:2.08px;"/><rect x="2569.13" y="2033.932" width="29.528" height="29.528" style="fill:none;stroke:#000;stroke-width:2.08px;"/><rect x="2628.38" y="2033.932" width="29.528" height="29.528" style="fill:none;stroke:#000;stroke-width:2.08px;"/><rect x="2687.01" y="1975.982" width="29.528" height="29.528" style="fill:none;stroke:#000;stroke-width:2.08px;"/><rect x="2746.75" y="1974.872" width="29.528" height="29.528" style="fill:none;stroke:#000;stroke-width:2.08px;"/><rect x="2687.5" y="1915.822" width="29.528" height="29.528" style="fill:none;stroke:#000;stroke-width:2.08px;"/><rect x="2746.75" y="1915.822" width="29.528" height="29.528" style="fill:none;stroke:#000;stroke-width:2.08px;"/><rect x="2687.5" y="2092.982" width="29.528" height="29.528" style="fill:none;stroke:#000;stroke-width:2.08px;"/><rect x="2746.25" y="2092.982" width="29.528" height="29.528" style="fill:none;stroke:#000;stroke-width:2.08px;"/><rect x="2687.01" y="2033.932" width="29.528" height="29.528" style="fill:none;stroke:#000;stroke-width:2.08px;"/><rect x="2746.25" y="2033.932" width="29.528" height="29.528" style="fill:none;stroke:#000;stroke-width:2.08px;"/><rect x="2805.61" y="1974.872" width="29.528" height="29.528" style="fill:none;stroke:#000;stroke-width:2.08px;"/><rect x="2864.86" y="1974.872" width="29.528" height="29.528" style="fill:none;stroke:#000;stroke-width:2.08px;"/><rect x="2805.61" y="1915.822" width="29.528" height="29.528" style="fill:none;stroke:#000;stroke-width:2.08px;"/><rect x="2864.86" y="1915.822" width="29.528" height="29.528" style="fill:none;stroke:#000;stroke-width:2.08px;"/><rect x="2805" y="2092.982" width="29.528" height="29.528" style="fill:none;stroke:#000;stroke-width:2.08px;"/><rect x="2864.86" y="2092.982" width="29.528" height="29.528" style="fill:none;stroke:#000;stroke-width:2.08px;"/><rect x="2805.61" y="2033.932" width="29.528" height="29.528" style="fill:none;stroke:#000;stroke-width:2.08px;"/><rect x="2864.86" y="2033.932" width="29.528" height="29.528" style="fill:none;stroke:#000;stroke-width:2.08px;"/><rect x="2302.13" y="1739.362" width="29.528" height="29.528" style="fill:none;stroke:#000;stroke-width:2.08px;"/><rect x="2361.38" y="1739.362" width="29.528" height="29.528" style="fill:none;stroke:#000;stroke-width:2.08px;"/><rect x="2302.13" y="1680.302" width="29.528" height="29.528" style="fill:none;stroke:#000;stroke-width:2.08px;"/><rect x="2361.38" y="1680.302" width="29.528" height="29.528" style="fill:none;stroke:#000;stroke-width:2.08px;"/><rect x="2302.13" y="1857.472" width="29.528" height="29.528" style="fill:none;stroke:#000;stroke-width:2.08px;"/><rect x="2361.38" y="1798.412" width="29.528" height="29.528" style="fill:none;stroke:#000;stroke-width:2.08px;"/><rect x="2184.63" y="1739.362" width="29.528" height="29.528" style="fill:none;stroke:#000;stroke-width:2.08px;"/><rect x="2243.88" y="1739.362" width="29.528" height="29.528" style="fill:none;stroke:#000;stroke-width:2.08px;"/><rect x="2243.88" y="1680.302" width="29.528" height="29.528" style="fill:none;stroke:#000;stroke-width:2.08px;"/><rect x="2184.63" y="1857.472" width="29.528" height="29.528" style="fill:none;stroke:#000;stroke-width:2.08px;"/><rect x="2243.88" y="1857.472" width="29.528" height="29.528" style="fill:none;stroke:#000;stroke-width:2.08px;"/><rect x="2184.63" y="1798.412" width="29.528" height="29.528" style="fill:none;stroke:#000;stroke-width:2.08px;"/><rect x="2243.88" y="1798.412" width="29.528" height="29.528" style="fill:none;stroke:#000;stroke-width:2.08px;"/><rect x="1948.63" y="1384.842" width="29.528" height="29.528" style="fill:none;stroke:#000;stroke-width:2.08px;"/><rect x="2007.87" y="1384.842" width="29.528" height="29.528" style="fill:none;stroke:#000;stroke-width:2.08px;"/><rect x="2420.87" y="1501.992" width="29.528" height="29.528" style="fill:none;stroke:#000;stroke-width:2.08px;"/><rect x="2420.87" y="1442.932" width="29.528" height="29.528" style="fill:none;stroke:#000;stroke-width:2.08px;"/><rect x="2420.87" y="1620.102" width="29.528" height="29.528" style="fill:none;stroke:#000;stroke-width:2.08px;"/><rect x="2420.87" y="1561.042" width="29.528" height="29.528" style="fill:none;stroke:#000;stroke-width:2.08px;"/><rect x="2420.87" y="1974.872" width="29.528" height="29.528" style="fill:none;stroke:#000;stroke-width:2.08px;"/><rect x="2420.87" y="1915.822" width="29.528" height="29.528" style="fill:none;stroke:#000;stroke-width:2.08px;"/><rect x="2420.87" y="2092.982" width="29.528" height="29.528" style="fill:none;stroke:#000;stroke-width:2.08px;"/><rect x="2420.87" y="2033.932" width="29.528" height="29.528" style="fill:none;stroke:#000;stroke-width:2.08px;"/><rect x="2420.87" y="1738.872" width="29.528" height="29.528" style="fill:none;stroke:#000;stroke-width:2.08px;"/><rect x="2420.87" y="1679.822" width="29.528" height="29.528" style="fill:none;stroke:#000;stroke-width:2.08px;"/><rect x="2420.87" y="1856.982" width="29.528" height="29.528" style="fill:none;stroke:#000;stroke-width:2.08px;"/><rect x="2420.87" y="1797.932" width="29.528" height="29.528" style="fill:none;stroke:#000;stroke-width:2.08px;"/><rect x="2509.25" y="1738.872" width="29.528" height="29.528" style="fill:none;stroke:#000;stroke-width:2.08px;"/><rect x="2509.25" y="1679.822" width="29.528" height="29.528" style="fill:none;stroke:#000;stroke-width:2.08px;"/><rect x="2509.25" y="1856.982" width="29.528" height="29.528" style="fill:none;stroke:#000;stroke-width:2.08px;"/><rect x="2509.25" y="1797.932" width="29.528" height="29.528" style="fill:none;stroke:#000;stroke-width:2.08px;"/><rect x="2420.87" y="1384.252" width="29.528" height="29.528" style="fill:none;stroke:#000;stroke-width:2.08px;"/><rect x="2509.25" y="1501.992" width="29.528" height="29.528" style="fill:none;stroke:#000;stroke-width:2.08px;"/><rect x="2509.25" y="1442.932" width="29.528" height="29.528" style="fill:none;stroke:#000;stroke-width:2.08px;"/><rect x="2509.25" y="1620.102" width="29.528" height="29.528" style="fill:none;stroke:#000;stroke-width:2.08px;"/><rect x="2509.25" y="1561.042" width="29.528" height="29.528" style="fill:none;stroke:#000;stroke-width:2.08px;"/><rect x="2509.25" y="1974.872" width="29.528" height="29.528" style="fill:none;stroke:#000;stroke-width:2.08px;"/><rect x="2509.25" y="1915.822" width="29.528" height="29.528" style="fill:none;stroke:#000;stroke-width:2.08px;"/><rect x="2509.25" y="2092.982" width="29.528" height="29.528" style="fill:none;stroke:#000;stroke-width:2.08px;"/><rect x="2509.25" y="2033.932" width="29.528" height="29.528" style="fill:none;stroke:#000;stroke-width:2.08px;"/><rect x="2509.25" y="1384.252" width="29.528" height="29.528" style="fill:none;stroke:#000;stroke-width:2.08px;"/><rect x="2066.83" y="1502.362" width="29.528" height="29.528" style="fill:none;stroke:#000;stroke-width:2.08px;"/><rect x="2126.08" y="1502.362" width="29.528" height="29.528" style="fill:none;stroke:#000;stroke-width:2.08px;"/><rect x="2066.83" y="1443.302" width="29.528" height="29.528" style="fill:none;stroke:#000;stroke-width:2.08px;"/><rect x="2126.08" y="1443.302" width="29.528" height="29.528" style="fill:none;stroke:#000;stroke-width:2.08px;"/><rect x="2066.83" y="1620.472" width="29.528" height="29.528" style="fill:none;stroke:#000;stroke-width:2.08px;"/><rect x="2126.08" y="1620.472" width="29.528" height="29.528" style="fill:none;stroke:#000;stroke-width:2.08px;"/><rect x="2066.83" y="1561.412" width="29.528" height="29.528" style="fill:none;stroke:#000;stroke-width:2.08px;"/><rect x="2126.08" y="1561.412" width="29.528" height="29.528" style="fill:none;stroke:#000;stroke-width:2.08px;"/><rect x="2066.83" y="1384.252" width="29.528" height="29.528" style="fill:none;stroke:#000;stroke-width:2.08px;"/><rect x="2126.08" y="1384.252" width="29.528" height="29.528" style="fill:none;stroke:#000;stroke-width:2.08px;"/><rect x="2184.35" y="1502.362" width="29.528" height="29.528" style="fill:none;stroke:#000;stroke-width:2.08px;"/><rect x="2243.6" y="1502.362" width="29.528" height="29.528" style="fill:none;stroke:#000;stroke-width:2.08px;"/><rect x="2184.35" y="1443.302" width="29.528" height="29.528" style="fill:none;stroke:#000;stroke-width:2.08px;"/><rect x="2243.6" y="1443.302" width="29.528" height="29.528" style="fill:none;stroke:#000;stroke-width:2.08px;"/><rect x="2184.35" y="1620.472" width="29.528" height="29.528" style="fill:none;stroke:#000;stroke-width:2.08px;"/><rect x="2243.6" y="1620.472" width="29.528" height="29.528" style="fill:none;stroke:#000;stroke-width:2.08px;"/><rect x="2184.35" y="1561.412" width="29.528" height="29.528" style="fill:none;stroke:#000;stroke-width:2.08px;"/><rect x="2243.6" y="1561.412" width="29.528" height="29.528" style="fill:none;stroke:#000;stroke-width:2.08px;"/><rect x="2184.35" y="1384.252" width="29.528" height="29.528" style="fill:none;stroke:#000;stroke-width:2.08px;"/><rect x="2243.6" y="1384.252" width="29.528" height="29.528" style="fill:none;stroke:#000;stroke-width:2.08px;"/><rect x="2302.46" y="1502.362" width="29.528" height="29.528" style="fill:none;stroke:#000;stroke-width:2.08px;"/><rect x="2361.71" y="1502.362" width="29.528" height="29.528" style="fill:none;stroke:#000;stroke-width:2.08px;"/><rect x="2302.46" y="1443.302" width="29.528" height="29.528" style="fill:none;stroke:#000;stroke-width:2.08px;"/><rect x="2361.71" y="1443.302" width="29.528" height="29.528" style="fill:none;stroke:#000;stroke-width:2.08px;"/><rect x="2302.46" y="1620.472" width="29.528" height="29.528" style="fill:none;stroke:#000;stroke-width:2.08px;"/><rect x="2361.71" y="1620.472" width="29.528" height="29.528" style="fill:none;stroke:#000;stroke-width:2.08px;"/><rect x="2302.46" y="1561.412" width="29.528" height="29.528" style="fill:none;stroke:#000;stroke-width:2.08px;"/><rect x="2361.71" y="1561.412" width="29.528" height="29.528" style="fill:none;stroke:#000;stroke-width:2.08px;"/><rect x="2302.46" y="1384.252" width="29.528" height="29.528" style="fill:none;stroke:#000;stroke-width:2.08px;"/><rect x="2361.71" y="1384.252" width="29.528" height="29.528" style="fill:none;stroke:#000;stroke-width:2.08px;"/><rect x="2568.83" y="1502.658" width="29.619" height="29.482" style="fill:none;stroke:#000;stroke-width:2.08px;"/><rect x="2628.26" y="1502.658" width="29.619" height="29.482" style="fill:none;stroke:#000;stroke-width:2.08px;"/><rect x="2568.83" y="1443.698" width="29.619" height="29.482" style="fill:none;stroke:#000;stroke-width:2.08px;"/><rect x="2628.26" y="1443.698" width="29.619" height="29.482" style="fill:none;stroke:#000;stroke-width:2.08px;"/><rect x="2568.83" y="1620.588" width="29.619" height="29.482" style="fill:none;stroke:#000;stroke-width:2.08px;"/><rect x="2628.26" y="1620.588" width="29.619" height="29.482" style="fill:none;stroke:#000;stroke-width:2.08px;"/><rect x="2568.83" y="1561.628" width="29.619" height="29.482" style="fill:none;stroke:#000;stroke-width:2.08px;"/><rect x="2628.26" y="1561.628" width="29.619" height="29.482" style="fill:none;stroke:#000;stroke-width:2.08px;"/><rect x="2568.83" y="1384.728" width="29.619" height="29.482" style="fill:none;stroke:#000;stroke-width:2.08px;"/><rect x="2628.26" y="1384.728" width="29.619" height="29.482" style="fill:none;stroke:#000;stroke-width:2.08px;"/><rect x="2687.11" y="1502.258" width="29.619" height="29.482" style="fill:none;stroke:#000;stroke-width:2.08px;"/><rect x="2746.54" y="1502.258" width="29.619" height="29.482" style="fill:none;stroke:#000;stroke-width:2.08px;"/><rect x="2687.11" y="1443.288" width="29.619" height="29.482" style="fill:none;stroke:#000;stroke-width:2.08px;"/><rect x="2746.54" y="1443.288" width="29.619" height="29.482" style="fill:none;stroke:#000;stroke-width:2.08px;"/><rect x="2687.11" y="1620.178" width="29.619" height="29.482" style="fill:none;stroke:#000;stroke-width:2.08px;"/><rect x="2746.54" y="1620.178" width="29.619" height="29.482" style="fill:none;stroke:#000;stroke-width:2.08px;"/><rect x="2687.11" y="1561.218" width="29.619" height="29.482" style="fill:none;stroke:#000;stroke-width:2.08px;"/><rect x="2746.54" y="1561.218" width="29.619" height="29.482" style="fill:none;stroke:#000;stroke-width:2.08px;"/><rect x="2687.11" y="1384.328" width="29.619" height="29.482" style="fill:none;stroke:#000;stroke-width:2.08px;"/><rect x="2746.54" y="1384.328" width="29.619" height="29.482" style="fill:none;stroke:#000;stroke-width:2.08px;"/><rect x="2805.19" y="1502.258" width="29.619" height="29.482" style="fill:none;stroke:#000;stroke-width:2.08px;"/><rect x="2864.62" y="1502.258" width="29.619" height="29.482" style="fill:none;stroke:#000;stroke-width:2.08px;"/><rect x="2805.19" y="1443.288" width="29.619" height="29.482" style="fill:none;stroke:#000;stroke-width:2.08px;"/><rect x="2864.62" y="1443.288" width="29.619" height="29.482" style="fill:none;stroke:#000;stroke-width:2.08px;"/><rect x="2805.19" y="1620.178" width="29.619" height="29.482" style="fill:none;stroke:#000;stroke-width:2.08px;"/><rect x="2864.62" y="1620.178" width="29.619" height="29.482" style="fill:none;stroke:#000;stroke-width:2.08px;"/><rect x="2805.19" y="1561.218" width="29.619" height="29.482" style="fill:none;stroke:#000;stroke-width:2.08px;"/><rect x="2864.62" y="1561.218" width="29.619" height="29.482" style="fill:none;stroke:#000;stroke-width:2.08px;"/><rect x="2805.19" y="1384.328" width="29.619" height="29.482" style="fill:none;stroke:#000;stroke-width:2.08px;"/><rect x="2864.62" y="1384.328" width="29.619" height="29.482" style="fill:none;stroke:#000;stroke-width:2.08px;"/></g></g><rect x="1063.45" y="1355" width="590.104" height="29" style="stroke:#000;stroke-width:2.08px;"/><rect x="1624.55" y="1384" width="29" height="768" style="stroke:#000;stroke-width:2.08px;"/><rect x="1299.45" y="2210" width="29" height="177" style="stroke:#000;stroke-width:2.08px;"/><rect x="2451.25" y="2210" width="29" height="177" style="stroke:#000;stroke-width:2.08px;"/><rect x="1063.45" y="2152" width="590.104" height="29" style="stroke:#000;stroke-width:2.08px;"/><rect x="1299.45" y="2181" width="1180.8" height="29" style="stroke:#000;stroke-width:2.08px;"/><path d="M708.858,2063.212l3543.308,0" style="fill:none;fill-rule:nonzero;stroke:#000;stroke-width:2.92px;stroke-dasharray:29.167,5.833,0.292,5.833,0,0;"/><path d="M737.733,2121.1l-28.875,-57.887l57.75,0l-28.875,57.887Z" style="stroke:#000;stroke-width:2.92px;"/><path d="M4223.75,2121.1l-28.875,-57.887l57.75,0l-28.875,57.887Z" style="stroke:#000;stroke-width:2.92px;"/><g transform="matrix(78.040417,0,0,78.040417,1264.455484,2059.929167)"></g><text x="702.471px" y="2059.929px" style="font-family:'IBMPlexMono-Regular', 'IBM Plex Mono', monospace;font-size:78.04px;">GRUNDRISS EG</text><g transform="matrix(78.040417,0,0,78.040417,1358.119593,1764.929167)"></g><text x="702.471px" y="1764.929px" style="font-family:'IBMPlexMono-Regular', 'IBM Plex Mono', monospace;font-size:78.04px;">GRUNDRISS 1.<tspan x="1264.463px " y="1764.929px ">O</tspan>G</text><g transform="matrix(78.040417,0,0,78.040417,1357.577926,1528.929167)"></g><text x="701.929px" y="1528.929px" style="font-family:'IBMPlexMono-Regular', 'IBM Plex Mono', monospace;font-size:78.04px;">GRUNDRISS 2.<tspan x="1263.922px " y="1528.929px ">O</tspan>G</text><g transform="matrix(1,0,0,-1,0,0)"><text x="3056.754px" y="-886.504px" style="font-family:'IBMPlexMono-Regular', 'IBM Plex Mono', monospace;font-size:78.04px;">C</text></g><g transform="matrix(1,0,0,-1,0,0)"><text x="3056.754px" y="-2599.401px" style="font-family:'IBMPlexMono-Regular', 'IBM Plex Mono', monospace;font-size:78.04px;">C</text></g><g transform="matrix(-1,0,0,1,0,0)"><text x="-1904.296px" y="938.562px" style="font-family:'IBMPlexMono-Regular', 'IBM Plex Mono', monospace;font-size:78.04px;">A</text></g><g transform="matrix(-1,0,0,1,0,0)"><text x="-1904.296px" y="2651.458px" style="font-family:'IBMPlexMono-Regular', 'IBM Plex Mono', monospace;font-size:78.04px;">A</text></g><g transform="matrix(83.333333,0,0,83.333333,4788.129167,3318.823333)"></g><text x="3688.129px" y="3318.823px" style="font-family:'IBMPlexMono-Regular', 'IBM Plex Mono', monospace;font-size:83.333px;">Schnitt B-B | M: 1:100</text><path d="M706.858,1767.933l3543.308,0" style="fill:none;fill-rule:nonzero;stroke:#000;stroke-width:2.92px;stroke-dasharray:29.167,5.833,0.292,5.833,0,0;"/><path d="M735.733,1825.825l-28.875,-57.892l57.75,0l-28.875,57.892Z" style="stroke:#000;stroke-width:2.92px;"/><path d="M4221.75,1825.825l-28.875,-57.892l57.75,0l-28.875,57.892Z" style="stroke:#000;stroke-width:2.92px;"/><path d="M706.596,1531.717l3543.321,0" style="fill:none;fill-rule:nonzero;stroke:#000;stroke-width:2.92px;stroke-dasharray:29.167,5.833,0.292,5.833,0,0;"/><path d="M735.733,1589.608l-28.875,-57.892l57.75,0l-28.875,57.892Z" style="stroke:#000;stroke-width:2.92px;"/><path d="M4221.75,1589.608l-28.875,-57.892l57.75,0l-28.875,57.892Z" style="stroke:#000;stroke-width:2.92px;"/><path d="M3038.638,2654.808l0,-1771.654" style="fill:none;fill-rule:nonzero;stroke:#000;stroke-width:2.92px;stroke-dasharray:29.167,5.833,0.292,5.833,0,0;"/><path d="M2980.817,912.1l57.892,28.875l0,-57.75l-57.892,28.875Z" style="stroke:#000;stroke-width:2.92px;"/><path d="M2980.817,2625.683l57.892,28.875l0,-57.75l-57.892,28.875Z" style="stroke:#000;stroke-width:2.92px;"/><path d="M1922.413,881.083l0,1771.654" style="fill:none;fill-rule:nonzero;stroke:#000;stroke-width:2.92px;stroke-dasharray:29.167,5.833,0.292,5.833,0,0;"/><path d="M1980.233,2623.792l-57.887,-28.875l0,57.75l57.887,-28.875Z" style="stroke:#000;stroke-width:2.92px;"/><path d="M1980.233,910.208l-57.887,-28.875l0,57.75l57.887,-28.875Z" style="stroke:#000;stroke-width:2.92px;"/><path d="M1266.95,2392.933c0,0 26.433,-21.475 45.942,-6.65c19.358,14.713 41.313,0.45 48.058,-4.867" style="fill:none;fill-rule:nonzero;stroke:#000;stroke-width:2.08px;"/><path d="M2418.75,2392.933c0,0 26.438,-21.475 45.942,-6.65c19.358,14.713 41.312,0.45 48.058,-4.867" style="fill:none;fill-rule:nonzero;stroke:#000;stroke-width:2.08px;"/><path d="M1069.383,2213.5c0,0 -21.475,-26.437 -6.65,-45.942c14.713,-19.358 0.446,-41.312 -4.867,-48.058" style="fill:none;fill-rule:nonzero;stroke:#000;stroke-width:2.08px;"/><path d="M1069.383,1416.5c0,0 -21.475,-26.438 -6.65,-45.942c14.713,-19.358 0.446,-41.312 -4.867,-48.058" style="fill:none;fill-rule:nonzero;stroke:#000;stroke-width:2.08px;"/></svg>