<svg xmlns="http://www.w3.org/2000/svg" viewBox="0 0 64 64">
  <rect width="64" height="64" fill="#ffffff"/>
  <svg x="8" y="16.8" width="48" height="30.4" viewBox="0 0 1000 633">
    <g fill="#111111">
      <g transform="matrix(1,0,0,1,-40,-358.977117)">
        <g transform="matrix(2.320789,0,0,2.320789,-594.865687,-798.305225)">
          <g transform="matrix(0.726761,0,0,0.726761,86.977284,222.295289)">
            <g transform="matrix(1,0,0,1,-140.262408,0)">
              <path d="M775.673,547.754L794.062,547.754C813.279,547.754 828.023,543.778 838.294,535.826C848.565,527.874 853.701,516.444 853.701,501.534C853.701,486.624 848.565,475.193 838.294,467.241C828.023,459.289 813.279,455.314 794.062,455.314L775.673,455.314L775.673,547.754ZM989.877,755L868.611,755L775.673,610.872L775.673,755L678.262,755L678.262,380.268L829.845,380.268C850.719,380.268 868.942,383.332 884.514,389.462C900.087,395.592 912.926,403.958 923.031,414.56C933.137,425.163 940.757,437.422 945.893,451.338C951.028,465.253 953.596,480.163 953.596,496.067C953.596,524.561 946.721,547.671 932.971,565.397C919.221,583.123 898.927,595.134 872.089,601.429L989.877,755Z"/>
            </g>
            <g transform="matrix(1,0,0,1,-43.536104,48)">
              <path d="M397.673,504.227L429.977,504.227C465.761,504.227 483.653,488.655 483.653,457.51C483.653,426.365 465.761,410.792 429.977,410.792L397.673,410.792L397.673,504.227ZM397.673,707L300.262,707L300.262,332.268L455.324,332.268C497.403,332.268 529.624,343.201 551.989,365.069C574.354,386.937 585.536,417.75 585.536,457.51C585.536,497.269 574.354,528.083 551.989,549.95C529.624,571.818 497.403,582.752 455.324,582.752L397.673,582.752L397.673,707Z"/>
            </g>
          </g>
        </g>
      </g>
    </g>
  </svg>
</svg>
